<?xml version="1.0" encoding="utf-8"?>
<!-- Generator: Adobe Illustrator 25.3.1, SVG Export Plug-In . SVG Version: 6.00 Build 0)  -->
<svg version="1.1" id="Layer_1" xmlns="http://www.w3.org/2000/svg" xmlns:xlink="http://www.w3.org/1999/xlink" x="0px" y="0px"
	 viewBox="0 0 720 720" style="enable-background:new 0 0 720 720;" xml:space="preserve">
<style type="text/css">
	.st0{fill:#FF9999;}
	.st1{opacity:0.4;}
	.st2{opacity:0.3;}
</style>
<g>
	<g>
		<path class="st0" d="M186.71,470.64c-14.17-3.82-26.16-13.24-34.57-25.13c-9.42-13.33-14.21-29.11-15.17-45.33
			c-1.11-18.74,2.42-37.43,7.83-55.3c4.9-16.17,11.38-31.82,19.19-46.8c15.59-29.88,36.26-56.97,60.19-80.65
			c12.19-12.06,25.76-23.59,42.23-29.21c16.07-5.48,33.45-5.11,49.85-1.31c16.96,3.93,32.89,11.24,47.77,20.16
			c15.08,9.04,29.19,19.61,42.55,31.03c13.44,11.48,26.14,23.78,38.56,36.35c6.32,6.4,12.57,12.88,18.81,19.37
			c6.26,6.5,12.7,12.94,18,20.28c10.22,14.14,14.54,31.2,16.61,48.29c1.02,8.46,1.62,16.98,2.09,25.48
			c0.48,8.67,0.69,17.4-0.2,26.06c-0.84,8.19-2.77,16.41-6.51,23.77c-3.71,7.31-9.12,13.48-15.4,18.71
			c-6.14,5.12-13.06,9.28-20.1,13.04c-7.88,4.21-15.98,8.05-24.21,11.54c-16.83,7.13-34.53,12.67-52.69,15.06
			c-19.67,2.59-39.52,0.98-59.19-0.65c-19.49-1.62-39.01-3.08-58.48-4.93c-18.1-1.72-36.24-4.06-53.79-8.96
			c-8.4-2.35-16.63-5.28-24.54-8.98c-2.9-1.36-5.44,2.95-2.52,4.32c34.62,16.19,73.52,18.08,111,21.2
			c20.44,1.7,40.95,4.04,61.47,4.35c19.46,0.3,38.6-2.46,57.2-8.2c17.77-5.48,35.14-13.06,51.38-22.13
			c14.43-8.06,28.23-18.63,35.24-34.04c7.31-16.05,7.28-34.14,6.27-51.41c-1.03-17.62-2.29-35.68-7.94-52.53
			c-2.83-8.45-6.82-16.45-12.15-23.61c-5.66-7.6-12.33-14.33-18.89-21.14c-12.63-13.13-25.33-26.21-38.6-38.7
			c-26.12-24.59-55.13-48-88.66-61.59c-16.27-6.59-33.96-10.79-51.61-9.88c-17.8,0.92-34.08,7.48-48.25,18.16
			c-13.98,10.53-26.26,23.5-37.68,36.72c-11.42,13.21-21.88,27.29-31.08,42.13c-9.18,14.81-17.09,30.4-23.51,46.61
			c-6.75,17.06-12,34.86-14.32,53.09c-2.29,18.02-1.43,37,5.26,54.06c5.63,14.36,14.99,27.34,27.64,36.29
			c5.92,4.19,12.56,7.33,19.56,9.22C188.49,476.3,189.82,471.48,186.71,470.64L186.71,470.64z"/>
	</g>
</g>
<g>
	<g>
		<path class="st0" d="M227.76,478.96c-18.71-5.77-30.2-23.62-38.43-40.25c-5.1-10.31-9.94-21.27-10.98-32.85
			c-1.1-12.16,1.62-24.21,5.47-35.69c7.11-21.18,17.03-41.63,28.61-60.71c11.5-18.95,25.03-36.66,40.56-52.5
			c7.41-7.56,15.44-14.77,24.97-19.55c10.4-5.22,22.07-6.28,33.47-4.48c19.84,3.12,37.95,12.92,53.2,25.73
			c15.61,13.1,28.65,29.03,40.28,45.7c13.71,19.67,26.03,40.37,37.1,61.64c5.5,10.57,11.19,21.3,14.47,32.8
			c2.8,9.79,3.4,20.11,1.77,30.17c-3.29,20.38-14.27,38.95-28.23,53.89c-3.43,3.67-7.06,7.14-10.86,10.41
			c-2.44,2.1,1.11,5.62,3.54,3.54c16.26-13.98,29.78-31.92,36.79-52.31c3.37-9.81,5.11-20.3,4.55-30.68
			c-0.63-11.78-4.42-22.82-9.33-33.45c-10.55-22.85-23.3-44.85-37.02-65.92c-11.71-17.98-24.47-35.49-39.85-50.53
			c-14.69-14.37-31.99-26.49-51.75-32.65c-11.22-3.5-23.23-5.23-34.91-3.36c-11.31,1.81-21.33,7.62-30.1,14.78
			c-8.71,7.12-16.46,15.5-23.79,24.01c-7.44,8.64-14.37,17.72-20.76,27.16c-12.89,19-23.57,39.43-32.17,60.71
			c-4.61,11.39-8.83,23.1-10.5,35.33c-0.84,6.19-1.02,12.42-0.21,18.63c0.81,6.12,2.5,12.06,4.72,17.81
			c3.92,10.18,8.84,20.21,14.76,29.38c5.45,8.43,12.05,16.27,20.42,21.93c3.96,2.68,8.32,4.75,12.89,6.16
			C229.51,484.74,230.83,479.91,227.76,478.96L227.76,478.96z"/>
	</g>
</g>
<g>
	<g>
		<path class="st0" d="M298.06,486.57c-10.3-13.4-20.52-26.88-30.92-40.2c-2.83-3.63-5.75-7.18-8.96-10.48
			c-2.25-2.31-5.78,1.23-3.54,3.54c5.54,5.69,10.24,12.13,15.06,18.41c5.09,6.62,10.18,13.24,15.26,19.86
			c2.92,3.8,5.84,7.6,8.77,11.4c0.82,1.07,2.15,1.64,3.42,0.9C298.21,489.37,298.88,487.65,298.06,486.57L298.06,486.57z"/>
	</g>
</g>
<g>
	<g>
		<path class="st0" d="M321.48,475.59c-8.23-26.2-16.46-52.4-24.68-78.59c-2.34-7.46-4.69-14.93-7.03-22.39
			c-0.96-3.06-5.63-1.8-4.82,1.33c0.92,3.54,1.84,7.08,2.75,10.62c0.81,3.11,5.63,1.79,4.82-1.33c-0.92-3.54-1.84-7.08-2.75-10.62
			c-1.61,0.44-3.21,0.89-4.82,1.33c8.23,26.2,16.46,52.4,24.68,78.59c2.34,7.46,4.69,14.93,7.03,22.39
			C317.62,479.98,322.45,478.67,321.48,475.59L321.48,475.59z"/>
	</g>
</g>
<g>
	<g>
		<path class="st0" d="M356.62,485.92c-4.84-30.57-9.68-61.14-14.51-91.71c-1.38-8.71-2.76-17.42-4.14-26.13
			c-0.21-1.33-1.88-2.08-3.08-1.75c-1.42,0.39-1.96,1.74-1.75,3.08c4.84,30.57,9.68,61.14,14.51,91.71
			c1.38,8.71,2.76,17.42,4.14,26.13c0.21,1.33,1.88,2.08,3.08,1.75C356.3,488.61,356.83,487.26,356.62,485.92L356.62,485.92z"/>
	</g>
</g>
<g>
	<g>
		<path class="st0" d="M232.43,442.29c-1.86-5.73-1.7-12.08,0.73-17.64c2.31-5.28,6.56-9.4,9.21-14.48c1.44-2.76,2.35-5.68,2.49-8.8
			c0.16-3.48-0.62-6.92-0.62-10.39c-0.01-6.52,3.77-12.27,6.84-17.76c4.03-7.21,8.06-14.42,12.09-21.64
			c1.57-2.81-2.75-5.34-4.32-2.52c-3.71,6.64-7.42,13.27-11.13,19.91c-3.27,5.85-7.25,11.87-8.23,18.64
			c-0.94,6.5,1.89,13.2-1.11,19.38c-2.6,5.37-7.05,9.61-9.51,15.07c-3.05,6.77-3.57,14.49-1.27,21.57
			C228.6,446.66,233.43,445.36,232.43,442.29L232.43,442.29z"/>
	</g>
</g>
<g>
	<g>
		<path class="st0" d="M280.09,316.49c2.9-7.16,9.96-11.68,16.73-14.68c1.91-0.85,3.99-1.82,6.07-2.11
			c1.99-0.28,3.85,0.62,5.64,1.39c2.35,1.01,4.61,1.74,7.19,1.81c2.42,0.07,4.82-0.37,7.22-0.66c3.43-0.41,8.38-0.67,10.27,2.91
			c1.5,2.85,5.82,0.32,4.32-2.52c-2.11-4-6.73-5.53-11.01-5.62c-5.14-0.11-10.09,1.95-15.09-0.07c-2.42-0.98-4.71-2.17-7.38-2.27
			c-2.58-0.1-5.07,0.88-7.41,1.84c-4.2,1.71-8.25,3.76-11.86,6.53c-4.21,3.22-7.52,7.2-9.52,12.13c-0.51,1.25,0.55,2.75,1.75,3.08
			C278.44,318.63,279.58,317.75,280.09,316.49L280.09,316.49z"/>
	</g>
</g>
<g>
	<g>
		<path class="st0" d="M350.4,324.14c5.58,4.31,6.92,12.28,8.94,18.59c1.15,3.6,2.5,7.25,4.65,10.39c2.63,3.84,6.32,6.51,9.97,9.3
			c7.37,5.63,13,13.01,18.03,20.72c2.61,4.01,5.18,8.07,7.6,12.2c2.43,4.14,4.56,8.45,5.52,13.19c1.04,5.15,0.69,10.49,0.75,15.72
			c0.07,5.44,0.63,10.79,2.84,15.82c0.54,1.24,2.35,1.52,3.42,0.9c1.28-0.75,1.44-2.18,0.9-3.42c-1.85-4.23-2.1-8.96-2.16-13.51
			c-0.05-4.8,0.12-9.61-0.53-14.38c-1.34-9.85-7.18-18.28-12.39-26.49c-5.11-8.04-10.67-16.04-17.97-22.27
			c-3.57-3.06-7.74-5.51-10.8-9.14c-2.26-2.69-3.61-6.07-4.7-9.37c-2.71-8.16-4.36-17.01-11.55-22.56c-1.07-0.83-2.8-0.16-3.42,0.9
			C348.75,322.01,349.33,323.31,350.4,324.14L350.4,324.14z"/>
	</g>
</g>
<g>
	<g>
		<path class="st0" d="M440.96,254.2c5.32-16.22,11.32-33.6,23.92-45.74c6.43-6.19,14.4-10.28,23.16-11.96
			c9.14-1.75,18.69-0.83,27.59,1.7c19.27,5.48,34.77,18.97,48.37,33.13c7.45,7.75,14.57,15.81,21.78,23.77
			c7.63,8.42,15.31,16.78,22.82,25.31c7.22,8.2,14.2,16.6,20.54,25.5c6.03,8.46,11.53,17.29,16.48,26.43
			c4.92,9.08,9.29,18.46,13.04,28.09c3.86,9.89,7.25,20.05,9.58,30.42c4.2,18.69,3.75,41.24-11.51,55.08
			c-7.52,6.81-17.66,10.26-27.06,13.56c-10.03,3.52-20.26,6.47-30.62,8.84c-20.59,4.73-41.68,7.15-62.8,7.28
			c-21.12,0.13-42.24-2.02-62.88-6.53c-5.04-1.1-10.04-2.34-15.01-3.71c-3.11-0.86-4.43,3.97-1.33,4.82
			c21.02,5.8,42.7,9.18,64.48,10.14c21.87,0.96,43.83-0.55,65.38-4.42c10.7-1.92,21.29-4.45,31.7-7.57
			c10.24-3.07,20.7-6.44,30.27-11.25c9.1-4.56,16.51-11.4,21.01-20.6c4.5-9.19,6.14-19.48,5.65-29.64
			c-0.55-11.45-3.48-22.65-6.99-33.52c-3.28-10.17-7.21-20.13-11.72-29.81c-9.15-19.65-20.85-37.96-34.57-54.74
			c-7.25-8.88-14.97-17.36-22.66-25.85c-7.86-8.68-15.7-17.37-23.58-26.02c-13.76-15.09-28.56-30.48-47.38-39.16
			c-17.74-8.18-39.58-10.49-57.12-0.5c-16.06,9.16-24.81,26.36-31.04,43.06c-1.55,4.15-2.97,8.35-4.35,12.56
			C435.13,255.94,439.96,257.25,440.96,254.2L440.96,254.2z"/>
	</g>
</g>
<g class="st1">
	<path class="st0" d="M337.14,494.94c-24.79,3.37-50.54-0.65-73.12-11.42c-8.62-4.11-17.06-9.44-22.24-17.46
		c-6.92-10.7-6.96-24.38-5.58-37.06c4-36.79,17.93-71.88,35.33-104.54c3.92-7.36,8.16-14.8,14.57-20.14
		c13.4-11.19,33.84-10.55,49.33-2.51s26.92,22.12,36.69,36.58c9.77,14.46,18.49,29.84,30.67,42.35c4.66,4.79,9.87,9.21,13.24,14.99
		c4.59,7.87,5.27,17.42,4.78,26.52c-0.99,18.32-6.8,37.17-20.06,49.86c-8.05,7.71-18.28,12.66-28.32,17.48
		c-12.46,5.99-25.65,12.12-39.43,11.05"/>
</g>
<g class="st2">
	<path class="st0" d="M334.4,493.31c-37.64,4.32-77.34,8.31-111.63-5.48c-13.09-5.26-25.3-21.24-33.18-31.51
		c-10.51-13.71-11.65-46.56-9.56-62.79c6.08-47.13,28.3-76.74,54.72-118.58c5.95-9.43,22.04-24.67,31.76-31.52
		c20.35-14.33,44.69-15.43,68.22-5.14c23.53,10.29,64.05,39,66.57,56.8c14.84,18.53,19.22,39.2,37.71,55.22
		c7.08,6.14,8.56,23.85,13.68,31.25c6.97,10.08,9.48,33.64,8.74,45.3c-1.51,23.47-6.56,33.14-26.68,49.39
		c-12.22,9.87-32.62,15.34-47.87,21.52c-18.91,7.67-37.86,4.21-58.78,2.84"/>
</g>
<g>
	<g>
		<path class="st0" d="M288.3,523.65c2.29-0.79,4.58-1.59,6.86-2.38c0.62-0.22,1.16-0.57,1.49-1.15c0.31-0.54,0.45-1.33,0.25-1.93
			c-0.39-1.22-1.75-2.21-3.08-1.75c-2.29,0.79-4.58,1.59-6.86,2.38c-0.62,0.22-1.16,0.57-1.49,1.15c-0.31,0.54-0.45,1.33-0.25,1.93
			C285.62,523.12,286.97,524.11,288.3,523.65L288.3,523.65z"/>
	</g>
</g>
<g>
	<g>
		<path class="st0" d="M288.7,524.19c1.94,9.15,4.41,18.18,7.4,27.04c1.02,3.03,5.85,1.73,4.82-1.33
			c-2.99-8.86-5.46-17.89-7.4-27.04C292.85,519.71,288.03,521.04,288.7,524.19L288.7,524.19z"/>
	</g>
</g>
<g>
	<g>
		<path class="st0" d="M294.28,553.1c2.62-0.22,5.24-0.58,7.81-1.1c0.59-0.12,1.2-0.64,1.49-1.15c0.31-0.54,0.45-1.33,0.25-1.93
			c-0.44-1.36-1.7-2.02-3.08-1.75c-1.32,0.26-2.64,0.49-3.97,0.67c0.22-0.03,0.44-0.06,0.66-0.09c-1.06,0.14-2.12,0.25-3.18,0.34
			c-0.67,0.06-1.28,0.24-1.77,0.73c-0.43,0.43-0.76,1.15-0.73,1.77C291.83,551.87,292.88,553.22,294.28,553.1L294.28,553.1z"/>
	</g>
</g>
<g>
	<g>
		<path class="st0" d="M304.82,535.82c-3.9,1.92-5.67,6.87-4,10.83c1.68,3.98,6.39,6.31,10.53,4.78c2.52-0.93,4.34-2.75,5.33-5.23
			c0.48-1.22-0.53-2.8-1.75-3.08c-1.44-0.33-2.56,0.44-3.08,1.75c0.27-0.68-0.02,0.01-0.1,0.15c-0.05,0.08-0.27,0.55-0.36,0.56
			c0.23-0.28,0.25-0.32,0.08-0.12c-0.07,0.08-0.15,0.17-0.22,0.24c-0.15,0.16-0.32,0.3-0.48,0.45c-0.21,0.17-0.17,0.14,0.11-0.09
			c-0.09,0.06-0.18,0.13-0.28,0.19c-0.19,0.12-0.38,0.23-0.58,0.33c-0.1,0.05-0.2,0.1-0.3,0.14c0.34-0.14,0.39-0.17,0.13-0.07
			c-0.21,0.06-0.42,0.13-0.64,0.18c-0.11,0.02-0.22,0.05-0.32,0.07c0.39-0.05,0.45-0.05,0.17-0.03c-0.22,0.01-0.44,0.02-0.66,0.02
			c-0.11,0-0.22-0.01-0.33-0.02c0.39,0.06,0.46,0.07,0.18,0.02c-0.21-0.05-0.42-0.09-0.63-0.16c-0.1-0.03-0.21-0.07-0.31-0.1
			c-0.25-0.1-0.2-0.08,0.15,0.06c-0.01,0.01-0.53-0.28-0.57-0.3c-0.09-0.05-0.52-0.27-0.54-0.36c0.29,0.23,0.33,0.25,0.13,0.08
			c-0.08-0.07-0.16-0.15-0.24-0.22c-0.16-0.15-0.3-0.32-0.44-0.48c-0.17-0.21-0.14-0.17,0.09,0.12c-0.06-0.09-0.12-0.18-0.18-0.27
			c-0.12-0.18-0.21-0.38-0.32-0.56c-0.11-0.24-0.1-0.19,0.05,0.15c-0.04-0.1-0.08-0.2-0.11-0.3c-0.07-0.21-0.11-0.42-0.17-0.63
			c-0.05-0.27-0.04-0.21,0.01,0.18c-0.01-0.11-0.02-0.22-0.03-0.32c-0.01-0.22-0.01-0.43,0-0.65c0.01-0.11,0.02-0.22,0.03-0.32
			c-0.06,0.4-0.06,0.46-0.01,0.18c0.05-0.21,0.09-0.42,0.16-0.63c0.03-0.1,0.07-0.21,0.1-0.31c0.1-0.25,0.08-0.2-0.07,0.15
			c0,0,0.55-1.14,0.65-1.12c-0.23,0.29-0.26,0.33-0.09,0.12c0.07-0.08,0.14-0.16,0.22-0.24c0.15-0.16,0.31-0.3,0.47-0.45
			c0.21-0.17,0.17-0.14-0.12,0.09c0.09-0.06,0.18-0.12,0.27-0.18c0.18-0.12,0.37-0.22,0.57-0.31c1.18-0.58,1.59-2.34,0.9-3.42
			C307.46,535.51,306.08,535.2,304.82,535.82L304.82,535.82z"/>
	</g>
</g>
<g>
	<g>
		<path class="st0" d="M307.46,522.43c2.21,9.37,5.1,18.57,8.67,27.51c0.5,1.25,1.67,2.13,3.08,1.75c1.35-0.37,2.05-1.76,1.75-3.08
			c-0.56-2.37-0.8-4.77-0.71-7.2c0.03-1.02,0.11-2.04,0.27-3.05c0.1-0.61,0.21-1.23,0.36-1.83c0.02-0.06,0.14-0.63,0.15-0.61
			c-1.25-0.02-1.53,0.12-0.86,0.43c0.11,0.12,0.22,0.23,0.34,0.34c0.43,0.39,0.81,0.85,1.2,1.27c0.68,0.76,1.35,1.53,1.98,2.34
			c1.39,1.79,2.61,3.71,3.71,5.69c1.56,2.81,5.88,0.29,4.32-2.52c-1.52-2.74-3.31-5.32-5.32-7.72c-1.83-2.19-4.61-5.75-7.88-4.08
			c-2.75,1.41-2.93,5.42-3.16,8.1c-0.3,3.4,0.02,6.84,0.79,10.16c1.61-0.44,3.21-0.89,4.82-1.33c-3.56-8.95-6.46-18.14-8.67-27.51
			C311.54,517.97,306.72,519.29,307.46,522.43L307.46,522.43z"/>
	</g>
</g>
<g>
	<g>
		<path class="st0" d="M331.96,535.28c0.38,0.79,0.76,1.59,1.12,2.4c0.18,0.4,0.36,0.8,0.53,1.21c-0.24-0.61,0.02,0.06,0.08,0.19
			c0.08,0.2,0.17,0.41,0.25,0.61c0.66,1.64,1.26,3.29,1.81,4.97c0.41,1.24,1.75,2.18,3.08,1.75c1.24-0.4,2.18-1.74,1.75-3.08
			c-1.18-3.62-2.62-7.15-4.28-10.58c-0.57-1.18-2.35-1.59-3.42-0.9C331.65,532.64,331.35,534.01,331.96,535.28L331.96,535.28z"/>
	</g>
</g>
<g>
	<g>
		<path class="st0" d="M332.06,527.33c3.22,0,3.22-5,0-5C328.85,522.33,328.84,527.33,332.06,527.33L332.06,527.33z"/>
	</g>
</g>
<g>
	<g>
		<path class="st0" d="M346.84,528.87c-3.99-1.74-7.98,1.03-8.61,5.18c-0.56,3.66,0.63,8.66,3.92,10.78
			c3.22,2.07,7.45,0.72,9.75-2.09c2.82-3.44,2.44-8,1.8-12.11c-1.61,0.44-3.21,0.89-4.82,1.33c1.01,3.24,2.02,6.48,3.03,9.72
			c0.87,2.78,2.08,5.67,2.41,8.58c0.25,2.24-0.42,4.3-2.79,4.89c-2.4,0.6-4.57-0.9-6.06-2.63c-0.88-1.02-2.63-0.9-3.54,0
			c-1.01,1.01-0.88,2.51,0,3.54c2.35,2.73,5.9,4.58,9.56,4.15c3.61-0.42,6.81-2.87,7.61-6.52c0.83-3.75-0.55-7.48-1.66-11.02
			c-1.25-4.01-2.5-8.02-3.76-12.04c-0.4-1.29-1.74-2.11-3.08-1.75c-1.43,0.39-1.95,1.74-1.75,3.08c0.33,2.15,0.71,4.72-0.27,6.76
			c-0.58,1.2-2.12,2.42-3.31,2.1c-1.5-0.4-1.94-2.77-2.13-4.07c-0.13-0.87-0.23-2.2,0.36-2.95c0.15-0.19,0.34-0.34,0.55-0.45
			c0.04-0.02,0.43-0.07,0.24-0.15c1.24,0.54,2.68,0.36,3.42-0.9C348.35,531.23,348.08,529.41,346.84,528.87L346.84,528.87z"/>
	</g>
</g>
<g>
	<g>
		<path class="st0" d="M364.87,527.57c-1.66-0.62-3.5-1.1-5.26-0.58c-1.74,0.51-2.96,1.81-3.89,3.3c-0.91,1.46-1.67,3.1-1.65,4.85
			c0.01,1.51,0.55,3.01,1.44,4.22c1.9,2.57,5.07,4.22,8.3,4.06c1.82-0.09,3.48-0.69,4.84-1.91c1.11-1,1.91-2.5,2.21-3.95
			c0.73-3.62-0.93-7.2-3.77-9.46c-0.54-0.43-1.05-0.73-1.77-0.73c-0.61,0-1.35,0.27-1.77,0.73c-0.83,0.9-1.09,2.67,0,3.54
			c0.42,0.33,0.81,0.68,1.17,1.07c0.08,0.09,0.17,0.18,0.25,0.28c0.05,0.06,0.3,0.39,0.1,0.11c-0.2-0.28,0.03,0.05,0.08,0.12
			c0.09,0.13,0.17,0.26,0.25,0.39c0.14,0.24,0.26,0.49,0.39,0.74c0.16,0.31-0.14-0.42-0.04-0.09c0.04,0.12,0.08,0.23,0.12,0.35
			c0.07,0.24,0.11,0.48,0.18,0.72c0.1,0.36-0.02-0.61,0-0.05c0,0.14,0.02,0.28,0.02,0.43c0,0.11,0,0.23-0.01,0.34
			c-0.01,0.14,0.07,0.42,0,0.09c-0.06-0.3,0.01-0.07-0.02,0.09c-0.02,0.11-0.05,0.22-0.08,0.33c-0.04,0.14-0.09,0.27-0.12,0.41
			c-0.09,0.34,0.08-0.03,0.06-0.12c0.03,0.14-0.29,0.56-0.36,0.67c-0.33,0.51,0.29-0.28-0.12,0.16c-0.1,0.1-0.2,0.2-0.3,0.3
			c-0.26,0.27,0.11-0.05,0.11-0.07c-0.01,0.05-0.59,0.39-0.63,0.37c-0.01-0.01,0.59-0.19,0.06-0.03c-0.18,0.05-0.37,0.1-0.56,0.15
			c-0.12,0.04-0.45,0.17,0.09,0c-0.1,0.03-0.29,0.03-0.39,0.03c-0.26,0.01-0.52,0-0.78-0.01c-0.12,0-0.5,0,0.08,0.02
			c-0.12-0.01-0.27-0.04-0.39-0.07c-0.3-0.06-0.6-0.14-0.9-0.24c-0.07-0.02-0.27-0.12-0.32-0.12c0.05-0.01,0.53,0.26,0.12,0.05
			c-0.21-0.1-0.41-0.21-0.62-0.32c-0.2-0.12-0.39-0.25-0.58-0.38c-0.39-0.26,0.08,0.03,0.09,0.07c-0.01-0.06-0.34-0.3-0.39-0.34
			c-0.17-0.16-0.32-0.33-0.47-0.5c-0.3-0.33,0.06,0.05,0.08,0.11c-0.01-0.06-0.15-0.21-0.19-0.28c-0.12-0.19-0.22-0.38-0.33-0.58
			c-0.23-0.43,0.08,0.14,0.06,0.15c-0.02,0-0.13-0.4-0.15-0.47c0.01,0.02-0.06-0.32-0.07-0.32c0.1,0.02,0.04,0.57,0.03,0.18
			c0-0.06-0.01-0.66,0.01-0.66c0.1,0.01-0.14,0.57,0,0.12c0.05-0.17,0.09-0.34,0.14-0.51c0.02-0.07,0.2-0.48,0.07-0.19
			c-0.14,0.31,0.12-0.22,0.15-0.28c0.07-0.14,0.94-1.71,1.02-1.67c0.03,0.01-0.41,0.45-0.05,0.08c0.1-0.11,0.2-0.22,0.31-0.33
			c0.08-0.08,0.38-0.25,0.09-0.09c-0.37,0.2,0.18-0.1,0.2-0.09c-0.08,0.03-0.17,0.07-0.25,0.1c0.09-0.03,0.19-0.06,0.28-0.09
			c0.25-0.12-0.45-0.01,0.01-0.01c0.13,0,0.26,0,0.39,0c0.61-0.01-0.47-0.13,0.13,0.01c0.67,0.16,1.32,0.36,1.96,0.61
			c1.23,0.46,2.79-0.51,3.08-1.75C366.94,529.23,366.19,528.07,364.87,527.57L364.87,527.57z"/>
	</g>
</g>
<g>
	<g>
		<path class="st0" d="M383.05,516.04c2.69,7.58,6.18,14.86,10.46,21.67c1.31-1.01,2.62-2.02,3.93-3.03
			c-1.29-1.64-2.58-3.29-3.87-4.93c-1.17-1.49-2.47-2.98-4.2-3.83c-3.71-1.83-8-0.42-9.28,3.66c-2.09,6.68,2.58,17.71,10.98,15.45
			c3.91-1.05,6.2-5.09,6.83-8.85c0.22-1.33-0.35-2.69-1.75-3.08c-1.2-0.33-2.85,0.41-3.08,1.75c-0.34,2.01-1.28,5.12-3.7,5.43
			c-2.9,0.37-4.31-3.3-4.59-5.54c-0.19-1.53-0.62-5.56,2.06-4.51c1.41,0.55,2.42,2.07,3.32,3.21c1.25,1.59,2.49,3.18,3.74,4.77
			c1.76,2.24,5.42-0.66,3.93-3.03c-4.06-6.45-7.41-13.3-9.96-20.48c-0.45-1.27-1.71-2.12-3.08-1.75
			C383.56,513.3,382.6,514.76,383.05,516.04L383.05,516.04z"/>
	</g>
</g>
<g>
	<g>
		<path class="st0" d="M397.64,530.14c1.94,3.72,3.96,7.39,6.05,11.02c0.65,1.13,2.29,1.63,3.42,0.9c1.14-0.74,1.6-2.21,0.9-3.42
			c-2.1-3.63-4.11-7.3-6.05-11.02c-0.61-1.16-2.32-1.6-3.42-0.9C397.35,527.48,396.99,528.9,397.64,530.14L397.64,530.14z"/>
	</g>
</g>
<g>
	<g>
		<path class="st0" d="M397.43,522.73c3.22,0,3.22-5,0-5C394.21,517.73,394.2,522.73,397.43,522.73L397.43,522.73z"/>
	</g>
</g>
<g>
	<g>
		<path class="st0" d="M417.41,534.81c-1.86-5.04-3.77-10.06-5.58-15.11c-0.41-1.15-0.8-2.3-1.15-3.47
			c-0.17-0.58-0.34-1.17-0.49-1.76c0.01,0.03-0.28-1.58-0.28-1.58c0.1,0.04-0.33,0.42-0.33,0.43c-0.08,0.14,0.1-0.16,0.21-0.07
			c-0.16-0.13,0.17,0.09,0.14,0.08c0.76,0.42,1.21,1.3,1.65,2.01c1.68,2.74,6.01,0.23,4.32-2.52c-1.59-2.59-3.81-4.99-7.14-4.43
			c-1.47,0.25-2.71,1.13-3.37,2.48c-0.84,1.71-0.37,3.62,0.09,5.37c0.88,3.29,2.14,6.47,3.32,9.65c1.26,3.42,2.53,6.83,3.79,10.25
			c0.47,1.27,1.69,2.13,3.08,1.75C416.88,537.55,417.88,536.08,417.41,534.81L417.41,534.81z"/>
	</g>
</g>
<g>
	<g>
		<path class="st0" d="M406.14,525.94c2.29,1.31,5,1.98,7.64,1.78c0.67-0.05,1.28-0.24,1.77-0.73c0.43-0.43,0.76-1.15,0.73-1.77
			c-0.03-0.65-0.24-1.32-0.73-1.77c-0.47-0.43-1.11-0.78-1.77-0.73c-0.77,0.06-1.55,0.04-2.32-0.06c0.22,0.03,0.44,0.06,0.66,0.09
			c-0.99-0.14-1.95-0.4-2.87-0.78c0.2,0.08,0.4,0.17,0.6,0.25c-0.41-0.18-0.8-0.37-1.19-0.59c-1.14-0.65-2.79-0.3-3.42,0.9
			C404.61,523.71,404.92,525.25,406.14,525.94L406.14,525.94z"/>
	</g>
</g>
<g>
	<g>
		<path class="st0" d="M415.95,526.52c0.82,2.1,1.8,4.12,3.04,6c1.24,1.89,2.69,4.04,4.72,5.17c1.18,0.66,2.62,0.99,3.94,0.58
			c1.33-0.41,2.29-1.35,3.02-2.51c1.21-1.9,1.68-4.22,1.67-6.45c-0.01-2.42-0.53-4.84-1.11-7.18c-0.31-1.27-1.82-2.15-3.08-1.75
			c-1.32,0.43-2.08,1.71-1.75,3.08c0.25,1.04,0.5,2.08,0.68,3.13c0.05,0.28,0.09,0.57,0.14,0.85c-0.09-0.63,0.03,0.29,0.04,0.4
			c0.05,0.49,0.07,0.98,0.07,1.48c0,0.28-0.01,0.55-0.02,0.83c-0.01,0.12-0.06,1.03-0.01,0.36c-0.03,0.46-0.18,0.95-0.31,1.39
			c-0.04,0.11-0.36,0.92-0.1,0.35c-0.11,0.25-0.24,0.49-0.37,0.73c-0.07,0.12-0.14,0.24-0.22,0.35c-0.16,0.23-0.14,0.21,0.06-0.05
			c-0.08,0.1-0.16,0.19-0.26,0.28c-0.17,0.15-0.19,0.17-0.04,0.04c0.09-0.1,0.21-0.16,0.35-0.17c-0.28,0.07-0.24,0.08,0.11,0.03
			c-0.28-0.01-0.25,0.01,0.11,0.06c-0.12-0.02-0.25-0.05-0.37-0.1c0.29,0.14,0.31,0.14,0.06,0.02c-0.12-0.06-0.24-0.13-0.35-0.21
			c-0.23-0.16-0.23-0.16,0,0.02c-0.08-0.07-0.16-0.14-0.24-0.21c-0.4-0.36-0.74-0.76-1.08-1.17c-0.09-0.12-0.19-0.23-0.28-0.35
			c0.16,0.21,0.15,0.2-0.02-0.03c-0.16-0.21-0.31-0.42-0.46-0.64c-0.65-0.92-1.25-1.88-1.79-2.87c-0.27-0.5-0.53-1-0.77-1.51
			c-0.13-0.27-0.25-0.55-0.37-0.82c0.22,0.49-0.14-0.36-0.18-0.45c-0.48-1.21-1.7-2.19-3.08-1.75
			C416.52,523.82,415.44,525.21,415.95,526.52L415.95,526.52z"/>
	</g>
</g>
<g>
	<g>
		<path class="st0" d="M429.36,504c3.35,9.68,6.77,19.44,12.1,28.25c1.66,2.75,5.99,0.24,4.32-2.52
			c-5.11-8.45-8.38-17.76-11.6-27.05c-0.44-1.28-1.71-2.12-3.08-1.75C429.87,501.26,428.91,502.71,429.36,504L429.36,504z"/>
	</g>
</g>
<g>
	<g>
		<path class="st0" d="M443.76,526.61c1.23-2.14,2.61-4.19,4.11-6.14c-0.13,0.17-0.26,0.34-0.39,0.51c0.47-0.61,0.96-1.21,1.46-1.8
			c0.44-0.52,0.73-1.07,0.73-1.77c0-0.61-0.27-1.35-0.73-1.77c-0.93-0.85-2.63-1.07-3.54,0c-2.23,2.64-4.24,5.46-5.97,8.45
			c-0.65,1.13-0.3,2.79,0.9,3.42C441.53,528.13,443.07,527.82,443.76,526.61L443.76,526.61z"/>
	</g>
</g>
<g>
	<g>
		<path class="st0" d="M441.53,523.87c3.24,3.54,7.23,6.44,11.6,8.41c1.19,0.54,2.74,0.38,3.42-0.9c0.58-1.09,0.38-2.85-0.9-3.42
			c-2.07-0.93-4.04-2.06-5.88-3.39c-0.2-0.15-0.41-0.3-0.61-0.45c-0.5-0.37,0.26,0.21-0.02-0.01c-0.1-0.08-0.2-0.16-0.3-0.23
			c-0.44-0.35-0.87-0.72-1.3-1.1c-0.87-0.77-1.7-1.6-2.49-2.45c-0.89-0.97-2.65-0.97-3.54,0
			C440.58,521.37,440.58,522.84,441.53,523.87L441.53,523.87z"/>
	</g>
</g>
<g>
	<g>
		<path class="st0" d="M453.8,518.58c1.53,4.19,3.25,8.44,6.89,11.23c1.09,0.83,2.34,1.5,3.76,1.31c1.48-0.2,2.82-1.13,3.48-2.5
			c1.15-2.39,0.87-5.41,0.53-7.96c-0.38-2.8-1.3-5.48-2.64-7.96c-0.62-1.15-2.31-1.61-3.42-0.9c-1.17,0.75-1.56,2.19-0.9,3.42
			c0.65,1.21,0.88,1.74,1.28,2.97c0.37,1.15,0.66,2.34,0.82,3.54c-0.05-0.42,0.05,0.54,0.05,0.62c0.02,0.26,0.04,0.52,0.05,0.78
			c0.03,0.6,0.02,1.21,0,1.82c-0.02,0.33-0.02,0.67-0.07,1c0.07-0.49-0.07,0.19-0.09,0.29c-0.09,0.28-0.1,0.3-0.03,0.07
			c-0.15,0.24-0.16,0.25-0.01,0.02c0.23-0.15,0.22-0.15-0.02-0.01c0.16-0.13,0.33-0.16,0.54-0.1c0.41,0.03,0.45,0.01,0.13-0.05
			c0.25,0.11,0.25,0.1-0.01-0.04c-0.21-0.16-0.44-0.29-0.65-0.44c-0.14-0.1-0.12-0.09,0.07,0.05c-0.11-0.09-0.22-0.19-0.33-0.29
			c-0.19-0.17-0.38-0.35-0.55-0.53c-0.18-0.18-0.35-0.37-0.52-0.57c-0.1-0.11-0.19-0.23-0.28-0.34c0.14,0.19,0.16,0.21,0.06,0.07
			c-0.29-0.43-0.59-0.85-0.86-1.3c-0.54-0.91-0.99-1.87-1.42-2.84c-0.07-0.16-0.06-0.14,0.03,0.07c-0.06-0.14-0.12-0.28-0.17-0.42
			c-0.1-0.25-0.2-0.5-0.29-0.74c-0.2-0.53-0.4-1.06-0.59-1.59c-0.45-1.23-1.72-2.19-3.08-1.75
			C454.34,515.89,453.32,517.26,453.8,518.58L453.8,518.58z"/>
	</g>
</g>
<g>
	<g>
		<path class="st0" d="M474.27,500.39c-2.49,5.04-2.43,11,0.17,16c2.6,4.99,8.28,8.82,14.04,7.32c3.11-0.81,1.79-5.63-1.33-4.82
			c-1.61,0.42-3.26,0-4.84-1c-1.65-1.04-2.8-2.51-3.68-4.29c-1.61-3.24-1.64-7.45-0.04-10.69c0.6-1.21,0.33-2.71-0.9-3.42
			C476.59,498.85,474.87,499.18,474.27,500.39L474.27,500.39z"/>
	</g>
</g>
<g>
	<g>
		<path class="st0" d="M498.2,497.45c-1.31-0.91-2.88-1.68-4.52-1.6c-2.2,0.1-3.61,1.66-4.34,3.6c-1.11,2.95-1.12,6.8,1.77,8.72
			c1.5,1,3.35,1.06,5.07,0.8c0.82-0.13,1.63-0.37,2.45-0.49c0.58-0.08,1.11-0.06,1.42,0.01c1.05,0.25,1.96,0.8,2.51,1.59
			c0.41,0.6,0.49,0.84,0.63,1.48c0.03,0.12,0.04,0.12,0.05,0.46c0.01,0.37,0,0.66-0.01,0.75c-0.2,1.27-0.7,2.3-1.95,2.91
			c-0.19,0.09-0.52,0.21-0.71,0.24c0.14-0.02-0.36,0.01-0.29,0.01c-0.66,0.03,0.06,0.05-0.29-0.04c-0.52-0.14-0.65-0.25-0.91-0.73
			c-1.52-2.84-5.84-0.31-4.32,2.52c1.78,3.32,6.06,4.02,9.18,2.24c2.9-1.65,4.62-5.16,4.25-8.47c-0.39-3.49-2.6-6.22-5.86-7.49
			c-1.62-0.63-3.33-0.61-5.02-0.31c-0.68,0.12-1.45,0.36-2.08,0.44c-0.2,0.02-0.4,0.03-0.6,0.03c0.01,0-0.48-0.02-0.23,0.02
			c-0.1-0.01-0.73-0.22-0.48-0.08c0.01,0.01-0.31-0.29-0.15-0.13c0.14,0.14-0.16-0.38-0.03-0.04c-0.04-0.12-0.08-0.25-0.1-0.37
			c-0.04-0.17-0.04-0.17,0,0.01c0-0.09-0.01-0.18-0.01-0.27c0.05-0.78,0.05-0.95,0.3-1.78c0.01-0.02,0.27-0.83,0.3-0.8
			c-0.02-0.02-0.23,0.25-0.33,0.15c0,0,0.51,0.17,0.61,0.22c0.41,0.2,0.79,0.46,1.17,0.72c1.11,0.77,2.78,0.21,3.42-0.9
			C499.83,499.63,499.32,498.22,498.2,497.45L498.2,497.45z"/>
	</g>
</g>
<g>
	<g>
		<path class="st0" d="M506.63,498.41c2.95,7.16,5.9,14.32,8.84,21.49c0.51,1.25,1.66,2.14,3.08,1.75c1.18-0.32,2.26-1.82,1.75-3.08
			c-2.95-7.16-5.9-14.32-8.84-21.49c-0.51-1.25-1.66-2.14-3.08-1.75C507.19,495.66,506.11,497.16,506.63,498.41L506.63,498.41z"/>
	</g>
</g>
<g>
	<g>
		<path class="st0" d="M510.17,508.57c1.88-0.41,3.75-0.82,5.63-1.23c0.59-0.13,1.19-0.64,1.49-1.15c0.31-0.54,0.45-1.33,0.25-1.93
			c-0.44-1.35-1.7-2.05-3.08-1.75c-1.88,0.41-3.75,0.82-5.63,1.23c-0.59,0.13-1.19,0.64-1.49,1.15c-0.31,0.54-0.45,1.33-0.25,1.93
			C507.53,508.17,508.8,508.87,510.17,508.57L510.17,508.57z"/>
	</g>
</g>
<g>
	<g>
		<path class="st0" d="M520.32,512.74c-0.63-0.26,0.14,0.08,0.25,0.13c0.17,0.08,0.33,0.17,0.5,0.26c0.38,0.21,0.75,0.44,1.11,0.69
			c0.15,0.1,0.33,0.2,0.46,0.33c-0.43-0.42-0.03-0.02,0.08,0.07c0.33,0.28,0.66,0.58,0.96,0.89c0.28,0.29,0.56,0.59,0.81,0.9
			c0.41,0.5-0.16-0.25,0.12,0.16c0.11,0.15,0.22,0.3,0.32,0.46c0.24,0.36,0.46,0.74,0.67,1.12c0.09,0.17,0.17,0.33,0.25,0.5
			c0.05,0.11,0.11,0.23,0.16,0.34c-0.13-0.31-0.14-0.34-0.04-0.08c0.58-1.03,1.16-2.05,1.75-3.08c-0.06,0.01-0.12,0.02-0.19,0.03
			c0.44,0,0.89,0,1.33,0c0.04,0.01,0.43,0.22,0.43,0.25c0.01-0.04-0.27-0.24-0.25-0.28c0.18,0.24,0.22,0.29,0.11,0.14
			c-0.04-0.05-0.07-0.1-0.1-0.15c-0.07-0.1-0.13-0.21-0.2-0.31c-0.06-0.11-0.12-0.21-0.18-0.32c-0.03-0.06-0.21-0.44-0.07-0.12
			c0.15,0.35-0.06-0.19-0.07-0.22c-0.04-0.12-0.07-0.24-0.11-0.36c-0.02-0.09-0.1-0.7-0.16-0.73c0.06,0.03,0.05,0.52,0.02,0.11
			c-0.01-0.16-0.02-0.31-0.03-0.47c-0.01-0.25,0-0.5,0.01-0.75c0-0.07,0.04-0.5,0-0.13c-0.04,0.4,0.04-0.18,0.05-0.22
			c0.05-0.25,0.12-0.5,0.19-0.75c0.04-0.12,0.08-0.25,0.12-0.37c0.09-0.27,0.03-0.13-0.04,0.05c0.19-0.51,0.5-1.01,0.8-1.46
			c0.09-0.14,0.19-0.27,0.28-0.4c-0.11,0.17-0.21,0.25-0.03,0.04c0.17-0.2,0.34-0.4,0.52-0.59c0.41-0.43,0.85-0.83,1.31-1.2
			c1.02-0.83,0.92-2.69,0-3.54c-1.09-1-2.45-0.88-3.54,0c-2.59,2.09-4.35,5.06-4.66,8.39c-0.15,1.65,0.2,3.31,0.87,4.82
			c0.34,0.76,0.81,1.44,1.35,2.08c0.3,0.36,0.66,0.7,1.07,0.93c0.81,0.46,1.57,0.49,2.48,0.35c1.24-0.2,2.21-1.92,1.75-3.08
			c-1.71-4.29-4.89-7.49-9.15-9.27c-1.21-0.5-2.8,0.54-3.08,1.75C518.24,511.12,519.02,512.2,520.32,512.74L520.32,512.74z"/>
	</g>
</g>
<g>
	<g>
		<path class="st0" d="M538.74,503.19c-2.6-1.5-5.94-0.23-7.32,2.33c-1.29,2.4-1.19,5.48-0.67,8.09c0.51,2.52,2.18,5.39,4.86,5.99
			c1.68,0.38,3.45-0.25,4.65-1.46c1.04-1.06,1.61-2.48,2.04-3.87c0.96-3.17,1.04-6.51,0.44-9.76c-1.22,0.94-2.45,1.88-3.67,2.82
			c0.11,0.07,0.21,0.14,0.31,0.21c-0.25-0.2-0.27-0.21-0.06-0.04c0.14,0.13,0.28,0.25,0.42,0.39c0.32,0.31,0.62,0.65,0.9,1
			c0.08,0.1,0.16,0.2,0.24,0.3c-0.19-0.25-0.2-0.26-0.04-0.04c0.11,0.16,0.23,0.31,0.35,0.47c0.29,0.39,0.57,0.79,0.87,1.18
			c1.38,1.83,2.88,3.36,5.1,4.12c1.24,0.42,2.79-0.48,3.08-1.75c0.32-1.39-0.42-2.62-1.75-3.08c-0.26-0.1-0.24-0.08,0.07,0.05
			c-0.11-0.05-0.22-0.1-0.33-0.16c-0.16-0.09-0.31-0.19-0.47-0.28c-0.41-0.24,0.31,0.32-0.14-0.11c-0.16-0.15-0.32-0.29-0.47-0.44
			c-0.31-0.32-0.59-0.66-0.87-1c0.27,0.33,0.07,0.09-0.08-0.11c-0.14-0.18-0.27-0.37-0.4-0.55c-1.24-1.69-2.44-3.31-4.21-4.49
			c-0.83-0.55-2.03-0.38-2.78,0.2c-0.84,0.65-1.08,1.61-0.9,2.63c0.14,0.76,0.14,0.72,0.19,1.52c0.04,0.64,0.05,1.28,0.02,1.92
			c-0.05,1.19-0.16,1.86-0.5,3.13c-0.08,0.31-0.18,0.62-0.28,0.92c-0.03,0.09-0.32,0.85-0.13,0.41c-0.1,0.22-0.21,0.42-0.32,0.63
			c-0.16,0.24-0.17,0.26-0.02,0.06c-0.07,0.09-0.16,0.18-0.24,0.25c-0.13,0.12-0.11,0.11,0.04-0.03c-0.26,0.14-0.27,0.16-0.04,0.05
			c-0.33,0.17-0.1,0.03,0.18,0.05c0.24,0.13,0.22,0.13-0.03-0.01c-0.22-0.14-0.26-0.17-0.12-0.08c0.17,0.15-0.32-0.36-0.38-0.42
			c0.33,0.39-0.05-0.1-0.11-0.2c-0.06-0.1-0.42-0.9-0.22-0.38c-0.16-0.41-0.28-0.84-0.37-1.28c-0.02-0.11-0.14-1.03-0.09-0.45
			c-0.02-0.22-0.04-0.45-0.06-0.67c-0.03-0.54-0.04-1.09-0.02-1.64c0.01-0.25,0.02-0.5,0.05-0.74c-0.06,0.48,0.06-0.21,0.08-0.31
			c0.04-0.16,0.09-0.31,0.14-0.47c-0.11,0.22-0.09,0.2,0.04-0.07c0.11-0.19,0.47-0.53,0.11-0.22c0.09-0.1,0.19-0.19,0.29-0.28
			c-0.21,0.16-0.25,0.19-0.1,0.1c0.61-0.23-0.26,0.02,0.23-0.11c0.63-0.17-0.53,0.05,0.11-0.01c-0.35-0.07-0.38-0.07-0.1,0
			c-0.3-0.14-0.32-0.15-0.07-0.01c1.13,0.65,2.79,0.3,3.42-0.9C540.26,505.42,539.95,503.89,538.74,503.19L538.74,503.19z"/>
	</g>
</g>
<g>
	<g>
		<path class="st0" d="M545.42,504.55c1.25,3.11,2.96,5.9,5.24,8.36c0.54,0.58,1.34,0.79,2.1,0.69c0.84-0.11,1.33-0.54,1.83-1.19
			c0.96-1.25,1.16-2.94,1.11-4.47c-0.02-0.65-0.07-1.3-0.07-1.95c0-0.17,0-0.34,0.01-0.51c0-0.07,0.01-0.13,0.01-0.2
			c0.02-0.19,0.01-0.13-0.03,0.17c-0.03-0.04,0.07-0.33,0.08-0.39c0.02-0.1,0.05-0.19,0.08-0.28c0.16-0.46-0.06-0.18-0.66,0.84
			c-0.42,0.11-0.84,0.23-1.26,0.34c-1.01-0.59-1.33-0.72-0.98-0.39c0.08,0.08,0.16,0.16,0.24,0.24c0.14,0.14,0.28,0.27,0.42,0.4
			c0.31,0.29,0.63,0.57,0.96,0.84c0.74,0.6,1.5,1.17,2.3,1.68c1.78,1.13,4.3,2.29,6.04,0.38c0.73-0.8,0.98-1.84,1.17-2.88
			c0.18-0.99,0.3-2,0.33-3.01c0.05-1.95-0.23-3.94-0.8-5.8c-0.38-1.25-1.77-2.17-3.08-1.75c-1.26,0.41-2.16,1.74-1.75,3.08
			c0.19,0.63,0.36,1.27,0.47,1.93c0,0.03,0.1,0.8,0.05,0.32c0.03,0.33,0.06,0.66,0.08,0.99c0.03,0.58,0.03,1.16-0.01,1.74
			c-0.02,0.33-0.05,0.66-0.09,0.99c0.06-0.48-0.04,0.22-0.06,0.32c-0.06,0.32-0.18,0.65-0.21,0.97c-0.08,0.27-0.06,0.24,0.06-0.07
			c0.45-0.63,1.02-0.87,1.74-0.73c-0.52-0.08,0.33,0.23-0.12-0.03c-0.27-0.15-0.54-0.3-0.81-0.46c-0.47-0.28-0.92-0.57-1.36-0.89
			c-0.13-0.09-0.25-0.18-0.37-0.28c0.2,0.15,0.18,0.14-0.04-0.04c-0.21-0.18-0.42-0.35-0.62-0.53c-1.23-1.09-2.36-2.45-4.23-1.93
			c-1.82,0.5-2.36,2.39-2.53,4.03c-0.1,0.99,0,1.97,0.03,2.96c0.01,0.27,0.01,0.53-0.01,0.8c0,0.07-0.01,0.13-0.01,0.2
			c-0.03,0.29-0.02,0.26,0.02-0.09c0,0.01-0.17,1.06-0.02,0.3c-0.04,0.22-0.27,0.48-0.41,0.65c1.31-0.17,2.62-0.34,3.93-0.51
			c-0.24-0.26-0.47-0.52-0.7-0.78c-0.1-0.12-0.2-0.24-0.3-0.36c-0.03-0.03-0.32-0.39-0.17-0.2c0.17,0.22-0.19-0.26-0.23-0.31
			c-0.09-0.13-0.18-0.25-0.27-0.38c-0.2-0.29-0.39-0.58-0.58-0.87c-0.35-0.56-0.68-1.13-0.99-1.72c-0.14-0.28-0.28-0.56-0.41-0.84
			c-0.08-0.18-0.16-0.35-0.24-0.53c-0.18-0.39,0.21,0.53-0.06-0.16c-0.49-1.21-1.69-2.19-3.08-1.75
			C546,501.85,544.9,503.25,545.42,504.55L545.42,504.55z"/>
	</g>
</g>
<g>
	<g>
		<path class="st0" d="M560.66,487.68c3.41,6.08,6.81,12.16,10.22,18.24c1.08,1.92,3.96,1.42,4.57-0.6
			c0.43-1.44,0.54-2.94,0.96-4.38c0.19-0.64,0.53-1.64,1.25-1.86c0.92-0.28,2.06,0.69,2.54,1.36c0.53,0.73,0.82,1.67,0.82,2.55
			c0.01,1.86-1.42,3.5-3.23,3.92c-1.89,0.44-3.78-0.71-4.66-2.47c-0.61-1.21-2.31-1.55-3.42-0.9c-1.23,0.72-1.5,2.21-0.9,3.42
			c1.48,2.96,4.58,4.86,7.86,5.03c3.18,0.16,6.17-1.63,7.92-4.21c1.86-2.74,1.8-6.4,0.27-9.27c-1.58-2.97-5.18-5.18-8.58-4.23
			c-1.99,0.56-3.44,2.18-4.23,4.03c-0.78,1.82-0.87,3.78-1.44,5.66c1.52-0.2,3.05-0.4,4.57-0.6c-3.41-6.08-6.81-12.16-10.22-18.24
			C563.41,482.35,559.09,484.87,560.66,487.68L560.66,487.68z"/>
	</g>
</g>
<g>
	<g>
		<path class="st0" d="M585.59,501.18c1.96,0.99,4.06,1.43,6.23,1.06c1.98-0.33,3.67-1.51,4.76-3.17c1.01-1.53,1.38-3.63,0.76-5.38
			c-0.68-1.94-2.33-3.43-4.33-3.94c-4.03-1.04-7.99,2.02-8.67,5.99c-0.69,4.07,1.3,8,4.65,10.27c3.48,2.37,8.41,2.27,11.85-0.13
			c1.07-0.75,1.67-2.22,0.9-3.42c-0.69-1.06-2.27-1.7-3.42-0.9c-0.28,0.19-0.56,0.37-0.86,0.53c-0.18,0.09-0.82,0.34-0.32,0.17
			c-0.29,0.1-0.57,0.2-0.87,0.28c-0.16,0.04-0.33,0.08-0.49,0.12c-0.17,0.03-0.68,0.24-0.14,0.03c-0.48,0.18-1.22,0.03-1.72,0
			c-0.39-0.02,0.58,0.14-0.04-0.01c-0.13-0.03-0.26-0.05-0.4-0.09c-0.25-0.06-0.73-0.12-0.92-0.29c0.35,0.31,0.21,0.09,0-0.01
			c-0.14-0.07-0.28-0.14-0.42-0.21c-0.22-0.12-0.43-0.25-0.64-0.39c-0.09-0.06-0.22-0.14-0.31-0.22c0.4,0.39,0.11,0.08,0-0.02
			c-0.26-0.23-0.5-0.47-0.73-0.72c-0.04-0.04-0.25-0.25-0.24-0.28c-0.01,0.07,0.26,0.36,0.05,0.06c-0.16-0.23-0.31-0.47-0.45-0.71
			c-0.08-0.14-0.14-0.28-0.22-0.41c-0.1-0.18-0.24-0.23,0.02,0.08c-0.2-0.24-0.26-0.75-0.34-1.04c-0.05-0.18-0.08-0.37-0.11-0.55
			c-0.07-0.38-0.01,0.37,0.01-0.01c0.02-0.33,0-0.68,0-1.01c0,0.44-0.03,0.13,0,0c0.04-0.18,0.08-0.36,0.13-0.54
			c0.04-0.14,0.23-0.6,0-0.1c0.08-0.17,0.16-0.33,0.25-0.49c0.06-0.11,0.13-0.21,0.2-0.31c0.21-0.33-0.04,0.08-0.05,0.07
			c-0.03-0.04,0.56-0.56,0.59-0.58c0.25-0.24-0.5,0.27,0.01,0.01c0.1-0.05,0.21-0.13,0.31-0.19c0.4-0.24-0.06-0.01-0.1,0.02
			c0.13-0.1,0.36-0.11,0.52-0.17c0.49-0.17-0.13-0.01-0.13-0.01c0.08-0.06,0.34-0.02,0.44-0.02c0.03,0,0.06,0,0.09,0
			c0.28,0.02,0.24,0.01-0.13-0.04c0.04-0.02,0.34,0.07,0.35,0.07c0,0,0.33,0.07,0.34,0.1c-0.09-0.04-0.18-0.08-0.27-0.12
			c0.08,0.04,0.16,0.08,0.24,0.12c0.07,0.04,0.36,0.16,0.38,0.23c-0.03-0.14-0.36-0.32-0.03,0c0.16,0.15,0.43,0.23,0.01-0.05
			c0.07,0.05,0.16,0.24,0.19,0.29c0.29,0.42-0.04-0.13-0.03-0.12c0.08,0.05,0.09,0.33,0.12,0.41c0.11,0.31,0.01-0.61-0.01-0.07
			c0,0.11,0,0.23,0,0.34c0.01,0.45-0.02-0.1,0.03-0.15c-0.05,0.05-0.11,0.43-0.13,0.5c-0.12,0.47,0.06-0.1,0.06-0.11
			c0.01,0.12-0.18,0.35-0.25,0.47c-0.02,0.03-0.35,0.5-0.11,0.18c0.23-0.3-0.16,0.16-0.21,0.21c-0.09,0.09-0.21,0.25-0.33,0.29
			c0.24-0.1,0.3-0.21,0-0.04c-0.14,0.08-0.28,0.15-0.42,0.22c0.4-0.18,0-0.02-0.19,0.03c-0.13,0.04-0.28,0.05-0.41,0.09
			c0.51-0.15,0.01,0-0.17,0c-0.14,0.01-0.28,0.01-0.42,0c-0.22-0.01-0.62-0.05-0.18,0.01c-0.35-0.05-0.7-0.13-1.04-0.24
			c-0.17-0.05-0.34-0.12-0.51-0.17c-0.17-0.07-0.13-0.05,0.11,0.05c-0.13-0.06-0.26-0.12-0.38-0.19c-1.17-0.59-2.76-0.35-3.42,0.9
			C584.09,498.9,584.34,500.55,585.59,501.18L585.59,501.18z"/>
	</g>
</g>
<g>
	<g>
		<path class="st0" d="M600.39,495.74c0.46,0.43,0.86,0.9,1.27,1.37c0.24,0.28-0.33-0.48,0.03,0.04c0.08,0.11,0.15,0.21,0.23,0.32
			c0.19,0.27,0.36,0.55,0.53,0.83c0.15,0.26,0.29,0.52,0.42,0.78c0.07,0.15,0.14,0.3,0.21,0.45c0.13,0.28,0.09,0.08-0.02-0.05
			c0.17,0.2,0.25,0.68,0.33,0.93c0.1,0.31,0.19,0.63,0.26,0.95c1.39-0.81,2.79-1.62,4.18-2.43c-0.38-0.44,0.18,0.3,0,0.02
			c-0.08-0.13-0.17-0.24-0.24-0.37c-0.08-0.13-0.15-0.26-0.21-0.39c-0.03-0.05-0.05-0.11-0.08-0.16c-0.08-0.17-0.05-0.11,0.08,0.19
			c-0.15-0.16-0.22-0.63-0.27-0.85c-0.03-0.12-0.05-0.23-0.08-0.35c-0.13-0.59,0.03,0.56-0.01-0.05c-0.02-0.27-0.03-0.54-0.03-0.81
			c0-0.15,0.02-0.3,0.02-0.45c0.01-0.48-0.08,0.35-0.01,0.04c0.06-0.3,0.12-0.59,0.2-0.88c0.04-0.14,0.09-0.28,0.14-0.43
			c0.15-0.44-0.16,0.29-0.01,0.02c0.13-0.24,0.25-0.49,0.39-0.72c0.08-0.13,0.16-0.26,0.25-0.38c0.31-0.45,0,0-0.01,0
			c0.02,0.01,1.18-1.37,1.3-1.28c-0.02-0.02-0.43,0.31,0.01,0.01c0.13-0.09,0.25-0.17,0.38-0.25c0.26-0.16,0.53-0.31,0.8-0.45
			c0.03-0.01,0.33-0.15,0.33-0.16c-0.29,0.12-0.34,0.14-0.17,0.07c0.06-0.02,0.11-0.05,0.17-0.07c0.32-0.12,0.64-0.22,0.96-0.31
			c1.26-0.35,2.16-1.79,1.75-3.08c-0.42-1.29-1.72-2.12-3.08-1.75c-3.32,0.91-6.3,3.19-7.66,6.4c-1.42,3.36-0.87,7.2,1.51,9.98
			c0.69,0.8,2.15,0.96,3.03,0.39c0.95-0.61,1.42-1.71,1.15-2.82c-0.73-2.97-2.34-5.72-4.55-7.83c-0.95-0.9-2.61-1.01-3.54,0
			C599.49,493.19,599.37,494.78,600.39,495.74L600.39,495.74z"/>
	</g>
</g>
<g>
	<g>
		<path class="st0" d="M611.26,491.88c1.71,2.91,3.42,5.82,5.14,8.73c1.03,1.74,4.15,1.58,4.57-0.6c0.38-1.98,0.24-3.86-0.07-5.84
			c-0.26-1.71-0.58-2.91-0.41-4.69c-0.03,0.26,0.02-0.11,0.03-0.17c0.03-0.14,0.06-0.27,0.09-0.41c0.04-0.17,0.11-0.33,0.16-0.5
			c0.08-0.33-0.18,0.31-0.01,0.02c0.16-0.27,0.31-0.54,0.47-0.81c-0.24,0.41-0.03,0.05,0.06-0.06c0.09-0.1,0.2-0.19,0.29-0.29
			c0.17-0.2-0.33,0.17,0.06-0.04c0.12-0.06,0.24-0.13,0.35-0.2c-0.32,0.18-0.13,0.06,0.11-0.01c0.4-0.12-0.27,0,0.14-0.04
			c0.23-0.02,0.46-0.01,0.68,0c0.08,0,0.42,0.04,0.16,0.01c0.46,0.06,0.91,0.18,1.36,0.28c1.27,0.29,2.77-0.39,3.08-1.75
			c0.29-1.28-0.38-2.76-1.75-3.08c-2.19-0.51-4.44-0.79-6.48,0.36c-1.67,0.93-2.78,2.6-3.38,4.37c-0.68,2-0.47,4.17-0.17,6.22
			c0.07,0.52,0.16,1.03,0.24,1.55c0.08,0.5,0.12,0.74,0.15,1.03c0.05,0.47,0.09,0.94,0.09,1.41c0,0.28-0.01,0.56-0.02,0.85
			c-0.01,0.09-0.02,0.19-0.02,0.28c0.03-0.2,0.01-0.14-0.04,0.17c1.52-0.2,3.05-0.4,4.57-0.6c-1.71-2.91-3.42-5.82-5.14-8.73
			c-0.66-1.13-2.28-1.63-3.42-0.9C611.02,489.19,610.55,490.68,611.26,491.88L611.26,491.88z"/>
	</g>
</g>
<g>
	<g>
		<path class="st0" d="M624.58,486.24c0.95,1.88,2.27,3.62,3.87,5c1.65,1.42,3.99,3.28,6.32,2.79c2.76-0.58,3.18-3.26,3.47-5.61
			c0.31-2.57,0.59-5.14,0.82-7.71c0.12-1.35-1.24-2.5-2.5-2.5c-1.48,0-2.34,1.15-2.5,2.5c-1.21,10.17-2.18,20.37-2.92,30.59
			c-0.1,1.35,1.22,2.5,2.5,2.5c1.43,0,2.4-1.15,2.5-2.5c0.73-10.22,1.7-20.42,2.92-30.59c-1.67,0-3.33,0-5,0
			c-0.16,1.77-0.34,3.54-0.54,5.3c-0.1,0.88-0.19,1.77-0.31,2.65c-0.03,0.21-0.12,0.51-0.11,0.72c0.05,0.23,0.02,0.34-0.09,0.33
			c-0.41-0.03-0.06-0.23,1.06-0.61c-0.13-0.27-1.11-0.67-1.38-0.85c-0.56-0.39-1.06-0.84-1.53-1.33c-0.94-0.95-1.65-2.02-2.25-3.21
			C627.44,480.85,623.12,483.37,624.58,486.24L624.58,486.24z"/>
	</g>
</g>
<g>
	<g>
		<path class="st0" d="M643.03,470.63c5.02-0.08,7.01,6.32,7.61,10.31c0.67,4.48-0.45,9.72-4.32,12.5c-1.1,0.79-1.62,2.18-0.9,3.42
			c0.63,1.08,2.32,1.69,3.42,0.9c5.82-4.17,7.7-11.19,6.63-18.04c-1.01-6.45-4.91-14.2-12.44-14.09
			C639.82,465.68,639.81,470.68,643.03,470.63L643.03,470.63z"/>
	</g>
</g>
<g>
	<g>
		<path class="st0" d="M468,326.82c11.02,13.17,18.43,29.22,21.59,46.09c0.88,4.72,1.39,9.5,1.57,14.3c0.12,3.21,5.12,3.22,5,0
			c-0.68-18.09-6.08-35.94-15.56-51.37c-2.71-4.4-5.75-8.59-9.07-12.55c-0.87-1.04-2.64-0.89-3.54,0
			C466.97,324.31,467.13,325.78,468,326.82L468,326.82z"/>
	</g>
</g>
<g>
	<g>
		<path class="st0" d="M428.77,293.48c4.77,3.06,9.54,6.12,14.3,9.18c1.1,0.71,2.81,0.26,3.42-0.9c0.66-1.24,0.28-2.66-0.9-3.42
			c-4.77-3.06-9.54-6.12-14.3-9.18c-1.1-0.71-2.81-0.26-3.42,0.9C427.22,291.3,427.6,292.73,428.77,293.48L428.77,293.48z"/>
	</g>
</g>
<g>
	<g>
		<path class="st0" d="M550.16,454.52c12.82-3.03,25.68-5.9,38.45-9.13c11.34-2.87,22.81-6.58,32.31-13.61
			c5.04-3.73,9.44-8.22,12.7-13.6c1.67-2.76-2.65-5.28-4.32-2.52c-12.17,20.11-38.39,24.11-59.31,29.05
			c-7.05,1.67-14.11,3.33-21.16,5C545.7,450.44,547.02,455.26,550.16,454.52L550.16,454.52z"/>
	</g>
</g>
<g>
	<g>
		<path class="st0" d="M621.97,371.12c0.51,0.86,0.99,1.74,1.42,2.65c0.2,0.42,0.4,0.85,0.58,1.28c-0.24-0.59,0.09,0.22,0.13,0.33
			c0.09,0.22,0.17,0.44,0.25,0.66c0.68,1.85,1.18,3.76,1.53,5.7c0.23,1.29,1.88,2.13,3.08,1.75c1.39-0.45,1.99-1.69,1.75-3.08
			c-0.73-4.16-2.25-8.18-4.4-11.81c-0.67-1.13-2.28-1.63-3.42-0.9C621.74,368.43,621.26,369.92,621.97,371.12L621.97,371.12z"/>
	</g>
</g>
</svg>
