<?xml version="1.0" encoding="utf-8"?>
<!-- Generator: Adobe Illustrator 25.3.1, SVG Export Plug-In . SVG Version: 6.00 Build 0)  -->
<svg version="1.1" id="Layer_1" xmlns="http://www.w3.org/2000/svg" xmlns:xlink="http://www.w3.org/1999/xlink" x="0px" y="0px"
	 viewBox="0 0 720 720" style="enable-background:new 0 0 720 720;" xml:space="preserve">
<style type="text/css">
	.st0{fill:#FF9999;}
	.st1{opacity:0.85;}
	.st2{opacity:0.43;}
</style>
<g>
	<g>
		<path class="st0" d="M201.7,334.14c0.33,8.53,2.78,16.94,7.2,24.26c4.57,7.58,11.33,13.02,17.51,19.2
			c6.15,6.15,10.32,13.51,13.75,21.45c3.41,7.9,6.29,16.01,9.95,23.82c7.19,15.34,17.16,30,32.13,38.63
			c7.1,4.09,15.12,6.71,23.35,6.97c8.82,0.28,17.38-2.46,25.15-6.45c7.41-3.81,14.72-8.61,20.92-14.2
			c6.25-5.63,10.75-12.82,10.99-21.43c0.26-9.27-3.78-18.03-7.31-26.37c-3.44-8.11-6.93-16.2-10.91-24.06
			c-3.96-7.81-8.41-15.39-13.72-22.36c-5.52-7.24-11.93-13.62-18.59-19.8c-3.33-3.09-6.69-6.13-9.98-9.26
			c-3.28-3.11-6.45-6.35-9.75-9.44c-6.08-5.68-12.65-10.48-20.45-13.49c-13.53-5.22-29.3-4.94-42.71,0.51
			c-6.92,2.81-13.34,6.9-18.51,12.32c-5.61,5.88-9.55,13.64-7.84,21.93c0.74,3.59,2.66,7.04,5.58,9.3c1.07,0.83,2.5,1.04,3.54,0
			c0.86-0.86,1.07-2.7,0-3.54c-5.58-4.32-5.48-12.14-2.37-17.91c3.35-6.21,9.21-11.04,15.26-14.49c11.69-6.66,26.01-8.54,39.07-5.38
			c6.79,1.64,13.11,4.64,18.65,8.9c6.84,5.25,12.67,11.76,18.98,17.62c6.31,5.86,12.77,11.58,18.61,17.92
			c5.7,6.18,10.55,13.01,14.8,20.26c4.26,7.27,7.91,14.88,11.33,22.58c1.73,3.89,3.4,7.81,5.06,11.73
			c1.67,3.94,3.33,7.88,4.56,11.98c1.21,4.02,1.99,8.17,1.65,12.38c-0.3,3.79-1.75,7.32-3.89,10.43c-4.23,6.16-10.83,10.59-17,14.59
			c-6.9,4.48-14.31,8.37-22.44,10.01c-7.48,1.51-15.14,0.57-22.25-2.1c-15.02-5.65-25.81-18.32-33.38-32.02
			c-3.97-7.19-7.16-14.75-10.18-22.37c-3.03-7.65-6.04-15.42-10.52-22.38c-2.29-3.56-4.99-6.82-7.98-9.81
			c-2.93-2.94-6.07-5.66-9.01-8.59c-5.69-5.67-10.05-12.33-12.36-20.07c-1.1-3.67-1.73-7.44-1.88-11.27
			C206.58,330.93,201.58,330.92,201.7,334.14L201.7,334.14z"/>
	</g>
</g>
<g>
	<g>
		<path class="st0" d="M341.03,368.09c-10.47-13.27-20.61-26.8-30.42-40.57c-2.42-3.4-4.83-6.82-7.21-10.25
			c-2.21-3.18-4.54-6.33-6.4-9.73c-2.7-4.92-5.29-12.43,0.59-16.18c2.95-1.88,6.57-2.56,9.9-3.47c4.24-1.15,8.49-2.3,12.73-3.45
			c7.77-2.11,15.52-4.39,23.41-5.99c7.15-1.45,14.65-2.36,21.92-1.29c6.64,0.98,12.88,3.69,17.94,8.11
			c9.43,8.24,14.53,20.32,19.12,31.69c6.04,14.96,12.56,29.63,19.88,44.02c3.78,7.43,7.7,14.79,11.66,22.13
			c3.93,7.27,8.19,14.43,11.74,21.89c3.03,6.38,5.49,14.05,2.52,20.92c-2.57,5.93-8.17,9.96-13.76,12.79
			c-10.98,5.56-23.77,7.26-35.91,5.67c-11.97-1.57-23.73-6.43-33.01-14.21c-2.36-1.98-4.56-4.14-6.6-6.45
			c-0.89-1.01-2.62-0.91-3.54,0c-1.01,1.01-0.9,2.52,0,3.54c8.75,9.93,20.64,16.88,33.4,20.26c12.75,3.38,26.57,3.31,39.16-0.78
			c13.24-4.3,27.92-13.88,26.5-29.69c-0.76-8.44-5.04-15.98-9.02-23.27c-4.18-7.67-8.36-15.34-12.45-23.06
			c-8.14-15.37-15.95-30.95-22.53-47.06c-5.15-12.6-9.71-25.83-18.43-36.51c-4.21-5.16-9.52-9.43-15.67-12.05
			c-7.33-3.12-15.38-3.81-23.25-3.11c-8.06,0.71-15.94,2.64-23.74,4.74c-8.77,2.37-17.53,4.75-26.3,7.13
			c-3.53,0.96-7.06,2.08-9.92,4.45c-2.82,2.33-4.31,5.9-4.37,9.52c-0.12,7.72,4.96,14.54,9.14,20.58
			c10.06,14.54,20.49,28.82,31.28,42.83c2.68,3.48,5.38,6.94,8.1,10.39c0.84,1.06,2.66,0.88,3.54,0
			C342.08,370.57,341.87,369.15,341.03,368.09L341.03,368.09z"/>
	</g>
</g>
<g>
	<g>
		<path class="st0" d="M288.32,308.74c0.16-0.76,0.36-1.51,0.62-2.24c0.07-0.2,0.14-0.4,0.22-0.59c0.03-0.08,0.06-0.18,0.11-0.26
			c-0.04,0.07-0.23,0.52-0.09,0.21c0.17-0.36,0.34-0.72,0.52-1.08c0.36-0.69,0.77-1.35,1.22-1.98c0.11-0.15,0.21-0.31,0.34-0.45
			c-0.06,0.06-0.34,0.43-0.13,0.17c0.06-0.07,0.12-0.15,0.18-0.22c0.27-0.33,0.55-0.64,0.85-0.94c0.91-0.94,1.01-2.61,0-3.54
			c-0.98-0.9-2.57-1.01-3.54,0c-2.54,2.64-4.38,6-5.12,9.59c-0.27,1.28,0.37,2.76,1.75,3.08
			C286.5,310.77,288.03,310.11,288.32,308.74L288.32,308.74z"/>
	</g>
</g>
<g>
	<g>
		<path class="st0" d="M357.63,427.68c0.91,16.41,1.81,32.81,2.72,49.22c0.45,8.12,0.9,16.24,1.35,24.36
			c0.38,6.86,1.32,14.24-1.03,20.86c-2.16,6.09-7.78,9.61-13.07,12.73c-6.38,3.76-12.79,7.53-19.51,10.67
			c-11.88,5.55-25.39,8.88-38.29,4.96c-5.84-1.78-10.98-5.08-15.03-9.65c-3.86-4.35-6.62-9.59-9.05-14.84
			c-5.2-11.22-9.09-23.1-17.32-32.59c-4.42-5.1-9.63-9.44-14.07-14.51c-4.31-4.93-7.29-10.6-9.13-16.87
			c-3.83-13.06-3.57-26.88-6.37-40.14c-1.58-7.51-4.07-14.78-6.45-22.06c-2.32-7.11-4.44-14.27-5.85-21.63
			c-2.71-14.17-3.12-29.02,0.06-43.15c0.78-3.46,1.78-6.87,2.98-10.21c0.46-1.27-0.52-2.74-1.75-3.08
			c-1.39-0.38-2.62,0.47-3.08,1.75c-5.1,14.16-6.29,29.54-4.74,44.45c0.79,7.6,2.22,15.12,4.25,22.48c2.1,7.6,4.83,15.01,7.09,22.56
			c2.1,7.01,3.55,14.09,4.43,21.35c0.86,7.04,1.46,14.13,2.75,21.11c1.22,6.65,3.16,13.27,6.55,19.16
			c3.53,6.12,8.64,11.03,13.64,15.93c4.73,4.65,9.01,9.43,12.27,15.24c3.05,5.44,5.4,11.22,7.85,16.94
			c4.94,11.52,10.8,23.33,22.3,29.54c12.15,6.56,26.73,5.95,39.51,1.63c7.28-2.46,14.18-5.96,20.86-9.72
			c3.23-1.82,6.44-3.69,9.63-5.6c2.87-1.72,5.71-3.56,8.19-5.83c5.5-5.05,7.56-11.9,7.8-19.19c0.12-3.69-0.14-7.37-0.35-11.05
			c-0.23-4.14-0.46-8.29-0.69-12.43c-0.92-16.74-1.85-33.47-2.77-50.21c-0.22-4.06-0.45-8.12-0.67-12.18
			C362.45,424.48,357.45,424.46,357.63,427.68L357.63,427.68z"/>
	</g>
</g>
<g>
	<g>
		<path class="st0" d="M451,423.41c-3.27,6.65-2.19,13.87-0.93,20.88c0.61,3.37,1.25,6.75,1.32,10.19c0.08,3.6-0.73,6.79-2.22,10.06
			c-1.76,3.86-3.21,7.57-3.55,11.85c-0.32,4.06,0.31,8.18,1.31,12.11c1.93,7.6,5.54,14.62,7.6,22.18c1.64,6.02,2.51,12.7,0.43,18.73
			c-2.1,6.07-7.5,9.32-13.54,10.55c-6.78,1.38-13.8,0.91-20.62,2.1c-7.59,1.32-14.56,5.58-22.37,5.65
			c-12.03,0.11-23.9-8.4-27.55-19.89c-0.47-1.47-0.8-2.98-1.02-4.5c-0.19-1.34-1.89-2.07-3.08-1.75c-1.44,0.4-1.94,1.73-1.75,3.08
			c1.89,13.31,13.23,24.33,26.14,27.26c3.26,0.74,6.65,1.01,9.97,0.65c4.25-0.47,8.24-1.85,12.26-3.23c3.73-1.28,7.47-2.38,11.4-2.8
			c3.54-0.38,7.1-0.49,10.65-0.77c7.1-0.56,14.52-1.94,19.68-7.29c4.87-5.05,6.38-12.21,5.94-19.03
			c-0.49-7.48-3.03-14.33-5.67-21.26c-2.85-7.49-6.12-15.93-4.46-24.07c0.83-4.06,3.09-7.55,4.36-11.46
			c1.14-3.52,1.26-7.31,0.91-10.97c-0.67-6.94-3.27-14.09-2.29-21.12c0.22-1.59,0.68-3.16,1.38-4.6c0.6-1.21,0.33-2.7-0.9-3.42
			C453.32,421.87,451.6,422.2,451,423.41L451,423.41z"/>
	</g>
</g>
<g>
	<g>
		<path class="st0" d="M348.38,378.55c-1.1-3.49-1.14-8.13,2.28-10.36c3.06-2,6.65-0.2,8.72,2.15c0.85,0.96,1.61,2.47,1.98,3.75
			c0.24,0.83,0.37,1.5,0.42,2.14c0.04,0.64,0,1.88-0.04,2.16c-0.49,3.12-2.32,5.28-5.1,6.66c-2.88,1.42-6.48,1.44-9.31-0.25
			c-2.77-1.65-5.29,2.67-2.52,4.32c7.9,4.72,19.62,0.41,21.65-8.84c1-4.58-0.25-9.4-3.17-13.03c-3.31-4.11-9.21-6.31-14.16-3.92
			c-6.17,2.98-7.43,10.57-5.55,16.56C344.52,382.93,349.35,381.63,348.38,378.55L348.38,378.55z"/>
	</g>
</g>
<g>
	<g>
		<path class="st0" d="M373.19,387.15c-1.57-3.47-3.76-8.62-1.61-12.28c2.03-3.46,6.95-3.2,9.78-0.95c3.29,2.6,4.71,7.09,4.41,11.16
			c-0.25,3.41-2.23,7.29-5.43,8.36c-1.81,0.6-3.57,0.57-5.43-0.12c-1.42-0.53-2.74-1.73-3.21-3.13c-1.01-3.04-5.84-1.74-4.82,1.33
			c1.72,5.17,7.2,7.89,12.45,7.23c5.78-0.72,9.93-5.44,11.07-11.01c1.19-5.83-0.42-12.3-4.67-16.57
			c-4.36-4.37-11.74-5.47-16.56-1.17c-5.81,5.17-3,13.72-0.31,19.69c0.56,1.23,2.34,1.53,3.42,0.9
			C373.56,389.83,373.75,388.38,373.19,387.15L373.19,387.15z"/>
	</g>
</g>
<g>
	<g>
		<path class="st0" d="M396.18,394.23c-2.54-1.02-5.41-3.2-5.58-6.16c-0.16-2.76,2.35-5.19,4.94-5.77c2.8-0.63,5.71,1.09,7.38,3.26
			c2.13,2.78,2.36,6.44,1.46,9.73c-0.5,1.83-1.34,3.69-2.51,5.19c-0.48,0.61-1.12,1.32-1.9,1.47c-0.37,0.07-0.72-0.01-0.86-0.25
			c-1.65-2.76-5.98-0.25-4.32,2.52c1.41,2.35,4.39,3.31,6.96,2.41c2.65-0.92,4.44-3.3,5.71-5.7c2.57-4.83,3.34-10.71,1.01-15.78
			c-2.08-4.52-6.82-8.05-11.91-7.98c-4.86,0.07-9.69,3.73-10.72,8.57c-1.34,6.32,3.61,11.14,9.02,13.3c1.25,0.5,2.75-0.55,3.08-1.75
			C398.32,395.88,397.44,394.73,396.18,394.23L396.18,394.23z"/>
	</g>
</g>
<g>
	<g>
		<path class="st0" d="M415.64,402.69c-1.5-1.47-2.94-3.01-4.03-4.82c-0.97-1.6-1.61-3.37-1.64-4.97c-0.04-2.75,1.41-5.93,4.42-6.05
			c3.82-0.15,6.41,3.27,7.51,6.68c1.01,3.14,1.8,7.51-0.21,10.24c-0.12,0.16-0.28,0.33-0.42,0.47c-0.04,0.04-0.58,0.48-0.19,0.21
			c-0.12,0.09-0.26,0.17-0.39,0.25c-0.1,0.06-0.64,0.3-0.24,0.14c-0.18,0.07-0.37,0.13-0.55,0.18c-0.08,0.02-0.74,0.16-0.47,0.12
			c0.36-0.05-0.39,0.02-0.36,0.02c-0.23,0.01-0.46-0.01-0.69-0.01c-0.12,0-0.46-0.1-0.02,0c-0.22-0.05-0.44-0.12-0.66-0.16
			c-0.42-0.09-0.15-0.04-0.02,0.02c-0.2-0.09-0.38-0.21-0.57-0.31c-0.39-0.21-0.1-0.07-0.01,0.01c-0.15-0.14-0.31-0.29-0.44-0.45
			c0.32,0.42,0,0-0.02-0.11c-0.08-0.16-0.07-0.13,0.04,0.1c-0.05-0.14-0.09-0.29-0.12-0.44c-0.75-3.13-5.57-1.8-4.82,1.33
			c1.17,4.91,7.27,6.1,11.27,4c5.03-2.63,5.35-9.37,4.39-14.24c-1.08-5.51-4.22-11.12-10-12.66c-5.62-1.49-10.85,2.07-12.1,7.63
			c-1.45,6.44,2.39,12.08,6.79,16.38C414.41,408.47,417.95,404.94,415.64,402.69L415.64,402.69z"/>
	</g>
</g>
<g>
	<g>
		<path class="st0" d="M403.13,368.99c0.21,0.02-0.47-0.17-0.42-0.14c-0.16-0.08-0.32-0.17-0.47-0.27
			c-0.39-0.25,0.36,0.36-0.24-0.19c-0.13-0.12-0.26-0.25-0.38-0.39c-0.01-0.01-0.27-0.36-0.12-0.14c-0.11-0.15-0.2-0.31-0.29-0.47
			c0,0-0.3-0.67-0.21-0.41c-0.13-0.34-0.23-0.71-0.27-1.07c0.03,0.3,0.05-0.76,0.03-0.65c0.09-0.61,0.34-1.17,0.77-1.79
			c0.66-0.97,1.94-1.8,3.2-2.13c1.81-0.47,3.76-0.11,5.5,0.5c2.79,0.97,5.49,3.28,6.38,6.11c0.9,2.84,0.33,6.07-2,8.07
			c-1,0.86-2.56,1.28-4,1.23c-0.52-0.02-1.34-0.17-1.91-0.39c-0.72-0.29-1.2-0.67-1.79-1.32c-0.91-1-2.61-0.92-3.54,0
			c-1,1-0.91,2.53,0,3.54c3.27,3.61,9.07,4.1,13.17,1.66c4.46-2.65,6.17-8.23,5.15-13.13c-2.11-10.07-17.87-16.25-24.4-6.77
			c-1.71,2.48-1.96,5.61-0.76,8.34c1.21,2.75,3.65,4.47,6.6,4.82c1.34,0.16,2.5-1.26,2.5-2.5
			C405.63,370.01,404.48,369.15,403.13,368.99L403.13,368.99z"/>
	</g>
</g>
<g>
	<g>
		<path class="st0" d="M366.02,410.85c-1.71-0.98-3.63-1.41-5.48-2.04c-0.48-0.17-0.65-0.23-0.87-0.35c-0.19-0.1-0.37-0.2-0.55-0.31
			c-0.09-0.05-0.48-0.38-0.2-0.13c-0.44-0.39-0.72-0.8-0.68-1.6c0.19-3.72,5-6.22,8.11-6.48c3.63-0.31,7.45,1,9.29,4.2
			c1.66,2.89,1.61,6.88-0.88,9.22c-1.08,1.02-2.82,1.61-4.32,1.64c-1.74,0.03-3.19-0.47-4.39-1.76c-2.2-2.35-5.73,1.19-3.54,3.54
			c3.54,3.78,9.71,4.17,14.01,1.48c4.73-2.96,6.33-9.17,4.49-14.3c-1.98-5.53-7.19-8.83-12.97-9.06
			c-5.83-0.23-12.04,3.03-14.22,8.62c-1.29,3.32-0.35,6.9,2.65,8.88c2.15,1.42,5.06,1.65,7.01,2.77
			C366.29,416.77,368.82,412.45,366.02,410.85L366.02,410.85z"/>
	</g>
</g>
<g>
	<g>
		<path class="st0" d="M389.92,423.55c-2.5-1.55-5.19-3.24-6.41-5.88c-0.46-1-0.55-2.22-0.05-3.48c0.4-1.02,1.35-2.07,2.44-2.65
			c2.76-1.45,6.23-0.39,8.24,1.59c1,0.99,1.79,2.25,2.2,3.52c0.19,0.58,0.37,1.44,0.4,1.79c0.06,0.73,0.02,1.65-0.07,2.11
			c-0.65,3.12-2.88,5.71-5.84,6.64c-3.06,0.95-1.76,5.78,1.33,4.82c4.29-1.34,7.68-4.73,9.04-9.01c1.4-4.4,0.11-9.17-2.81-12.64
			c-3.05-3.62-8.3-5.39-12.88-4.01c-4.72,1.42-7.97,6.06-7.23,11c0.74,4.91,5.2,8.1,9.12,10.52
			C390.14,429.56,392.65,425.24,389.92,423.55L389.92,423.55z"/>
	</g>
</g>
<g>
	<g>
		<path class="st0" d="M376.77,439.75c-1.71-0.84-3.42-1.69-5.03-2.72c-1.31-0.85-2.78-2.05-3.61-3.27
			c-0.22-0.33-0.43-0.67-0.61-1.02c0.01,0.02-0.29-0.65-0.16-0.33c0.13,0.33-0.13-0.38-0.12-0.35c-0.12-0.37-0.22-0.74-0.29-1.11
			c-0.03-0.15-0.06-0.3-0.08-0.45c0.07,0.55,0-0.25,0-0.36c-0.01-0.34,0.01-0.68,0.02-1.02c0.02-0.7-0.13,0.45,0.03-0.22
			c0.03-0.14,0.06-0.29,0.09-0.43c0.04-0.18,0.1-0.35,0.15-0.53c0.04-0.13,0.24-0.56,0.02-0.11c0.06-0.13,0.12-0.26,0.19-0.39
			c0.04-0.07,0.43-0.69,0.27-0.47c-0.21,0.29,0.22-0.25,0.22-0.24c0.1-0.11,0.21-0.2,0.31-0.3c0.43-0.44-0.36,0.15,0.19-0.14
			c0.15-0.08,0.29-0.17,0.43-0.25c0.71-0.39-0.15,0.02,0.28-0.12c0.21-0.07,0.43-0.12,0.65-0.18c0.51-0.12,0.25-0.04,0.13-0.03
			c0.31-0.03,0.63-0.03,0.95-0.01c0.44,0.02,0.34,0.01,0.84,0.12c0.46,0.1,0.92,0.24,1.36,0.4c0.75,0.27,1.56,0.71,2.38,1.22
			c1.49,0.94,2.72,1.97,3.95,3.42c0.37,0.44,0.86,1.15,1.24,1.86c0.26,0.5,0.21,0.35,0.39,0.88c0.07,0.21,0.14,0.43,0.19,0.64
			c0.02,0.09,0.19,0.89,0.14,0.52c0.06,0.43,0.06,0.87,0.04,1.3c-0.02,0.67,0.15-0.35-0.06,0.29c-0.07,0.23-0.13,0.47-0.2,0.7
			c-0.15,0.47-0.08,0.18-0.03,0.08c-0.12,0.26-0.26,0.51-0.41,0.75c-0.05,0.08-0.35,0.51-0.1,0.19c-0.15,0.19-0.32,0.37-0.48,0.55
			c-0.14,0.14-0.29,0.28-0.44,0.41c-0.13,0.11-0.12,0.11,0.04-0.02c-0.13,0.09-0.26,0.18-0.39,0.26c-0.13,0.08-0.27,0.15-0.41,0.23
			c-0.46,0.28,0.22-0.02-0.25,0.11c-0.22,0.06-0.43,0.12-0.66,0.17c0.44-0.09-0.05-0.03-0.23-0.01c-0.41,0.04-0.17,0.01-0.01,0.03
			c-0.1-0.02-0.93-0.28-0.51-0.1c-1.24-0.54-2.68-0.36-3.42,0.9c-0.62,1.06-0.35,2.88,0.9,3.42c2.36,1.04,4.88,0.95,7.11-0.43
			c2.05-1.27,3.63-3.35,4.27-5.68c1.34-4.92-1.81-9.83-5.47-12.84c-3.88-3.2-9.67-6.09-14.53-3.22c-3.91,2.31-4.96,7.46-3.61,11.56
			c1.78,5.42,7.01,8.32,11.82,10.68c1.21,0.59,2.7,0.33,3.42-0.9C378.31,442.08,377.99,440.35,376.77,439.75L376.77,439.75z"/>
	</g>
</g>
<g>
	<g>
		<path class="st0" d="M404,443.45c-1.58-1.32-3.32-2.16-5.23-2.9c-1.54-0.6-3.02-1.07-4.4-1.99c-0.51-0.34-0.97-0.7-1.42-1.29
			c0.16,0.21-0.09-0.15-0.1-0.16c-0.09-0.15-0.19-0.31-0.27-0.48c0.1,0.21-0.19-0.82-0.17-0.6c-0.11-1.11,0.61-2.27,1.64-2.92
			c2.67-1.69,6.47-0.71,8.83,0.71c1.13,0.68,2.31,1.71,3.01,2.64c0.46,0.62,0.89,1.32,1.18,2.03c-0.1-0.25,0.18,0.6,0.2,0.68
			c0.05,0.17,0.08,0.35,0.13,0.52c0.02,0.09,0.03,0.18,0.05,0.26c-0.02-0.18-0.01-0.18,0,0c0.16,1.47-0.09,2.93-1.06,3.92
			c-0.52,0.53-0.67,0.55-1.23,0.53c0.37,0.02-0.01-0.01-0.09-0.02c-0.69-0.12,0.3,0.13-0.33-0.13c0.06,0.03,0.33,0.36-0.08-0.06
			c0.26,0.27-0.12-0.22-0.16-0.31c-0.58-1.22-2.32-1.54-3.42-0.9c-1.24,0.73-1.48,2.2-0.9,3.42c1.13,2.36,3.95,3.36,6.41,2.88
			c2.56-0.49,4.37-2.66,5.26-4.98c1.68-4.36-0.16-9.21-3.33-12.37c-3.46-3.45-8.45-5.22-13.3-4.46c-5.29,0.83-9.52,6.18-7.07,11.45
			c1.05,2.26,3.25,3.92,5.47,4.94c2.25,1.03,4.96,1.57,6.85,3.14c1.04,0.86,2.52,1.02,3.54,0C404.89,446.1,405.05,444.32,404,443.45
			L404,443.45z"/>
	</g>
</g>
<g>
	<g>
		<path class="st0" d="M421.94,436.06c-1.9-1.04-4.1-2.25-5.62-3.5c-0.81-0.66-1.58-1.38-2.23-2.2c0.17,0.22-0.18-0.25-0.21-0.29
			c-0.14-0.2-0.27-0.39-0.39-0.6c-0.13-0.21-0.25-0.43-0.37-0.65c-0.07-0.14-0.14-0.28-0.2-0.42c0.1,0.24,0.1,0.22,0-0.05
			c-0.49-1.7-0.63-2.86-0.15-4.38c0.02-0.07,0.3-0.74,0.07-0.24c0.06-0.13,0.13-0.27,0.2-0.4c0.1-0.19,0.22-0.38,0.34-0.56
			c0.34-0.54-0.32,0.25,0.15-0.18c0.16-0.15,0.31-0.31,0.47-0.46c-0.4,0.35,0.15-0.09,0.21-0.13c0.41-0.25,0.55-0.28,1.11-0.44
			c0.57-0.16,1.5-0.03,2.21,0.18c0.97,0.28,1.86,0.76,2.81,1.41c1.58,1.07,3.15,2.72,4.19,4.27c0.49,0.73,1.14,1.89,1.38,2.46
			c0.21,0.52,0.39,1.05,0.52,1.6c0.18,0.71,0.18,0.67,0.22,1.35c0.05,1.04,0.04,1.55-0.43,2.6c0.06-0.13,0.12-0.21-0.09,0.15
			c-0.12,0.2-0.24,0.41-0.36,0.61c-0.33,0.54,0.33-0.27-0.13,0.16c-0.2,0.19-0.39,0.39-0.61,0.58c0.35-0.31,0.1-0.07,0.01-0.01
			c-0.24,0.15-0.47,0.3-0.72,0.43c-0.08,0.04-0.71,0.29-0.17,0.09c-0.27,0.1-0.53,0.19-0.81,0.26c-0.14,0.04-0.28,0.07-0.42,0.1
			c-0.14,0.03-0.28,0.05-0.42,0.08c0.31-0.04,0.32-0.05,0.03-0.02c-0.5,0.01-0.99,0.02-1.5-0.02c0.1,0.01,0.5,0.1,0.03,0
			c-0.28-0.06-0.56-0.11-0.83-0.19c-0.2-0.06-0.4-0.13-0.6-0.2c0.53,0.19-0.15-0.08-0.26-0.14c-0.15-0.08-0.3-0.17-0.45-0.27
			c-0.12-0.08-0.23-0.15-0.34-0.24c0.23,0.18,0.24,0.18,0.02-0.01c-0.14-0.15-0.3-0.3-0.45-0.45c-0.18-0.22-0.18-0.21-0.01,0.01
			c-0.08-0.12-0.16-0.24-0.24-0.36c-0.73-1.13-2.22-1.6-3.42-0.9c-1.13,0.66-1.63,2.28-0.9,3.42c2.76,4.3,8.49,5.4,12.98,3.28
			c2.36-1.11,4.07-3.31,4.75-5.8c0.79-2.9,0.16-5.88-1.04-8.56c-2.32-5.18-7.49-10.15-13.3-10.85c-5.86-0.71-9.94,4.66-9.45,10.15
			c0.61,6.82,6.41,10.63,11.91,13.65c1.18,0.65,2.73,0.29,3.42-0.9C423.51,438.34,423.13,436.71,421.94,436.06L421.94,436.06z"/>
	</g>
</g>
<g>
	<g>
		<path class="st0" d="M405.23,411.09c-1.87-0.43-3.74-0.96-5.41-1.93c-0.74-0.43-1.28-0.8-1.83-1.46
			c-0.29-0.34-0.61-1.07-0.65-1.41c-0.25-2.1,1.79-3.92,3.13-5.25c1.61-1.59,3.57-3.44,5.88-3.85c2.18-0.39,3.8,1.47,5.19,2.87
			c1.6,1.61,3.03,3.35,4.09,5.37c1.75,3.33,2.12,8.11-0.88,10.89c-0.69,0.64-1.25,0.91-2.05,1.11c-0.52,0.13-1.67,0.12-2.21-0.03
			c-1.68-0.46-2.75-1.22-3.09-2.85c-0.28-1.32-1.83-2.09-3.08-1.75c-1.37,0.38-2.03,1.75-1.75,3.08c1.2,5.69,8.21,8,13.13,5.76
			c5.58-2.55,7.3-9.82,5.68-15.29c-0.94-3.16-2.78-5.94-4.95-8.4c-2.07-2.35-4.63-5.1-7.85-5.66c-3.58-0.63-6.81,1.1-9.5,3.29
			c-2.5,2.03-5.19,4.63-6.28,7.72c-2.58,7.29,5.37,11.29,11.12,12.6C407.04,416.62,408.38,411.8,405.23,411.09L405.23,411.09z"/>
	</g>
</g>
<g>
	<g>
		<path class="st0" d="M431.17,419.99c-2.61-1.76-6.05-4.39-4.46-7.9c1.38-3.06,4.78-4.03,7.79-2.94c3.66,1.33,5.68,4.87,6.32,8.54
			c0.62,3.57,0.19,8.26-2.05,11.24c-1.04,1.39-2.4,2.14-3.89,2.14c-1.42,0-2.47-0.48-3.06-1.79c-0.56-1.23-2.34-1.53-3.42-0.9
			c-1.26,0.74-1.46,2.19-0.9,3.42c2.14,4.65,8.76,5.4,12.66,2.64c4.73-3.36,6.19-9.9,5.82-15.4c-0.39-5.81-3.17-11.61-8.69-14.13
			c-5.26-2.4-11.45-1.08-14.54,4.04c-1.6,2.65-1.87,5.84-0.62,8.67c1.3,2.94,3.93,4.93,6.53,6.68
			C431.33,426.11,433.83,421.78,431.17,419.99L431.17,419.99z"/>
	</g>
</g>
<g>
	<g>
		<path class="st0" d="M431.93,396.94c-1.48-1.12-5.61-4.58-3-6.47c2.9-2.11,6.73,1.21,8.68,3.22c2.34,2.41,4.16,5.58,3.97,9.03
			c-0.14,2.6-1.72,5.67-4.39,6.44c-1.16,0.34-2.57,0.19-3.68-0.41c-0.71-0.38-1.14-0.66-1.65-1.32c-0.23-0.3-0.57-1.01-0.61-1.35
			c-0.16-1.34-1.03-2.5-2.5-2.5c-1.23,0-2.66,1.15-2.5,2.5c0.59,4.88,4.94,8.37,9.85,8.26c5.16-0.12,9.17-4.46,10.17-9.32
			c1.12-5.42-1.19-10.67-4.87-14.6c-3.64-3.88-9.64-7.58-14.86-4.36c-2.71,1.67-4.06,4.88-3.12,7.97c0.94,3.1,3.49,5.33,5.98,7.22
			c1.08,0.82,2.8,0.17,3.42-0.9C433.58,399.08,433.01,397.76,431.93,396.94L431.93,396.94z"/>
	</g>
</g>
<g>
	<g>
		<path class="st0" d="M425.33,379.41c-0.61-1.65-1.49-3.08-2.39-4.57c-0.68-1.13-1.27-2.27-1.27-3.4c0-0.33,0.04-0.53,0.06-0.62
			c0.03-0.14,0.08-0.27,0.12-0.4c-0.02,0.06-0.11,0.22,0.03-0.03c0.01-0.02,0.22-0.28,0.1-0.2c0.19-0.12,0.38-0.2,0.54-0.22
			c0.94-0.1,2.27,1.01,3.01,1.7c2.21,2.04,4.36,4.49,5.46,7.33c0.96,2.49,1.12,5.61-0.52,7.86c-1.57,2.16-4.42,2.56-6.35,1.11
			c-1.08-0.81-2.79-0.17-3.42,0.9c-0.75,1.28-0.18,2.61,0.9,3.42c3.42,2.58,8.33,1.72,11.44-0.9c3.4-2.85,4.18-7.76,3.3-11.9
			c-0.92-4.35-3.89-8.1-7.03-11.12c-1.62-1.56-3.58-2.97-5.85-3.3c-2.3-0.33-4.63,0.65-5.83,2.68c-1.17,1.96-1.21,4.55-0.46,6.67
			c0.8,2.28,2.51,4.08,3.34,6.32c0.47,1.27,1.69,2.13,3.08,1.75C424.8,382.15,425.8,380.68,425.33,379.41L425.33,379.41z"/>
	</g>
</g>
<g>
	<g>
		<path class="st0" d="M283.02,446.48c-1.52-1.42-3.32-2.34-5.19-3.22c-0.84-0.4-1.69-0.79-2.49-1.27c-0.33-0.2-0.66-0.41-0.98-0.64
			c0.41,0.31-0.16-0.15-0.2-0.19c-0.19-0.18-0.38-0.37-0.55-0.57c-0.26-0.3,0.24,0.47-0.08-0.13c-0.11-0.2-0.24-0.39-0.34-0.61
			c0.17,0.39-0.13-0.49-0.12-0.46c-0.16-0.72-0.03,0.24-0.06-0.49c-0.03-0.9,0.25-1.83,0.76-2.71c0.45-0.76,0.85-1.23,1.69-1.91
			c-0.26,0.21,0.07-0.05,0.11-0.07c0.21-0.14,0.43-0.29,0.65-0.42c0.22-0.13,0.45-0.25,0.68-0.37c0.15-0.08,0.31-0.15,0.47-0.22
			c-0.2,0.09-0.16,0.08,0.12-0.03c0.41-0.13,0.82-0.27,1.24-0.36c0.25-0.06,0.5-0.11,0.76-0.15c-0.49,0.07,0.35-0.02,0.36-0.02
			c0.43-0.03,0.86-0.03,1.28,0c0.02,0,0.85,0.09,0.36,0.02c0.34,0.05,0.67,0.12,1,0.21c1.52,0.41,3,1.41,3.84,2.64
			c1.08,1.59,1.61,3.08,1.65,4.76c0.02,1.12,0,1.31-0.33,2.37c-0.27,0.85-0.73,1.7-1.43,2.36c-0.24,0.22-0.59,0.46-1.04,0.69
			c0.4-0.2-0.32,0.11-0.34,0.12c-0.1,0.03-1.02,0.2-0.56,0.15c-1.23,0.14-1.73,0.03-2.92-0.36c-1.95-0.64-3.75-2.01-5.22-3.71
			c-0.88-1.02-2.63-0.91-3.54,0c-1.01,1.01-0.89,2.51,0,3.54c3.56,4.11,9.68,7.13,14.98,4.64c5.56-2.61,6.4-9.99,4.19-15.05
			c-2.3-5.26-7.76-8.02-13.35-7.2c-5.43,0.8-10.91,5.65-10.36,11.55c0.31,3.24,2.32,5.59,5.08,7.14c1.11,0.62,2.28,1.12,3.41,1.68
			c0.59,0.29,1.17,0.59,1.73,0.94c0.24,0.15,0.47,0.31,0.71,0.47c0.33,0.23-0.24-0.21,0.06,0.05c0.15,0.13,0.3,0.26,0.45,0.4
			c0.99,0.92,2.56,0.98,3.54,0C283.95,449.09,284.01,447.41,283.02,446.48L283.02,446.48z"/>
	</g>
</g>
<g>
	<g>
		<path class="st0" d="M265.93,422.2c-0.23,0-0.46,0.01-0.7-0.01c-0.08,0-0.65-0.07-0.3-0.02c-0.41-0.06-0.81-0.17-1.2-0.3
			c-0.39-0.13-0.39-0.12-0.81-0.33c-0.49-0.25-0.98-0.54-1.41-0.88c-0.18-0.14-1.12-1.09-1.26-1.27c-0.5-0.64-1-1.59-1.16-2.08
			c-0.14-0.43-0.27-0.88-0.34-1.33c0.04,0.29-0.03-0.54-0.03-0.7c0-0.82,0.07-1.24,0.43-2.12c-0.14,0.34,0.3-0.54,0.4-0.7
			c0.08-0.14,0.17-0.27,0.27-0.4c0.44-0.62-0.3,0.31,0.21-0.26c0.65-0.72,0.91-0.95,1.53-1.35c1.19-0.76,2.41-1.15,3.56-1.19
			c0.4-0.01,0.8,0,1.2,0.05c-0.47-0.06,0.36,0.1,0.51,0.14c0.61,0.17,1.24,0.48,1.67,0.82c1.29,1.02,1.93,2.2,2.33,3.65
			c0.38,1.38,0.39,2.87,0,4.25c-1.03,3.65-4.54,6.13-8.24,7.03c1.03,0.58,2.05,1.16,3.08,1.75c-0.64-1.55-1.27-3.11-1.91-4.66
			c-0.51-1.25-1.66-2.13-3.08-1.75c-1.18,0.32-2.26,1.82-1.75,3.08c0.64,1.55,1.27,3.11,1.91,4.66c0.52,1.28,1.63,2.1,3.08,1.75
			c5.02-1.21,9.44-4.62,11.36-9.46c1.77-4.44,0.68-10.03-2.76-13.38c-3.44-3.34-8.47-3.65-12.64-1.53
			c-4.33,2.2-6.82,6.86-5.95,11.66c1,5.55,6.36,9.99,12,9.88C269.14,427.14,269.15,422.14,265.93,422.2L265.93,422.2z"/>
	</g>
</g>
<g>
	<g>
		<path class="st0" d="M281.22,416.99c-1.4-0.18-2.92-0.38-4.18-1.05c-0.5-0.27-0.89-0.55-1.22-0.98c-0.26-0.35-0.47-0.86-0.49-1.11
			c-0.07-0.79,0.59-1.32,1.44-1.66c1.18-0.46,2.48-0.52,3.65-0.26c2.67,0.59,4.7,2.35,6,4.74c0.69,1.26,1.13,2.62,1.41,4.03
			c0.19,0.94,0.27,2.1,0.14,3.13c-0.14,1.14-0.51,2.24-1.15,3.22c0,0.01-0.24,0.34-0.09,0.14c0.15-0.2-0.23,0.26-0.27,0.3
			c-0.08,0.09-0.17,0.17-0.26,0.25c-0.29,0.27,0.44-0.26-0.14,0.12c-0.13,0.09-0.66,0.35-0.53,0.3c0.22-0.08-0.93,0.16-0.46,0.12
			c-1.34,0.13-2.5,1.05-2.5,2.5c0,1.25,1.15,2.63,2.5,2.5c3.97-0.39,6.58-3.38,7.52-7.13c0.98-3.94,0.15-8.15-1.7-11.71
			c-1.98-3.81-5.62-6.81-9.93-7.47c-4.32-0.66-10.11,1.07-10.61,6.15c-0.26,2.62,1.25,5.11,3.31,6.6c2.2,1.59,4.94,1.93,7.55,2.27
			c1.34,0.17,2.5-1.27,2.5-2.5C283.72,418,282.56,417.17,281.22,416.99L281.22,416.99z"/>
	</g>
</g>
<g>
	<g>
		<path class="st0" d="M300.33,441.98c-1.59-0.48-3.24-0.66-4.87-0.9c-0.74-0.11-1.48-0.23-2.21-0.41c-0.41-0.1-0.81-0.23-1.21-0.36
			c-0.07-0.02-0.44-0.19-0.08-0.02c-0.22-0.1-0.43-0.21-0.63-0.33c-0.41-0.24-0.64-0.44-0.88-0.86c-0.42-0.72-0.48-1.53-0.36-2.36
			c0.21-1.42,0.93-2.59,1.91-3.57c1.04-1.04,2.29-1.73,3.77-2.07c1.13-0.26,2.71-0.14,3.77,0.29c1.43,0.59,2.62,1.58,3.38,2.64
			c0.96,1.32,1.47,2.72,1.51,4.12c0.09,3.33-2.21,6.71-5.34,7.82c-1.27,0.45-2.12,1.71-1.75,3.08c0.34,1.23,1.8,2.2,3.08,1.75
			c4.68-1.66,8.21-5.78,8.89-10.74c0.67-4.9-1.84-9.73-6-12.32c-4.06-2.52-9.32-2.27-13.18,0.53c-3.97,2.88-6.87,8.86-3.92,13.48
			c2.86,4.48,8.36,3.73,12.82,5.07C302.09,447.73,303.41,442.9,300.33,441.98L300.33,441.98z"/>
	</g>
</g>
<g>
	<g>
		<path class="st0" d="M301.27,461.82c-1.76,0.33-3.36,0.56-5.26,0.44c-1.37-0.09-2.8-0.47-3.7-1.68c-1.86-2.51,0.04-6.33,2.17-8.03
			c2.67-2.13,6.14-2.43,8.97-0.88c2.79,1.53,5.07,4.67,4.57,7.94c-0.1,0.62-0.4,1.37-0.94,1.87c-0.06,0.06-0.37,0.26-0.06,0.05
			c-0.19,0.13-0.41,0.26-0.62,0.34c0.5-0.2-0.95,0.15-0.35,0.08c-0.24,0.03-0.48,0.01-0.72,0.02c-0.5,0.03,0.23,0.1-0.3-0.02
			c-0.16-0.04-0.31-0.07-0.47-0.12c-0.05-0.01-0.7-0.29-0.3-0.1c-0.14-0.07-0.28-0.15-0.42-0.23c-0.47-0.26,0.1,0.15-0.26-0.18
			c0.03,0.03-0.49-0.53-0.29-0.27c0.1,0.13-0.26-0.45-0.32-0.56c-0.61-1.2-2.3-1.55-3.42-0.9c-1.22,0.71-1.51,2.21-0.9,3.42
			c2.41,4.73,9.54,5.28,12.71,1.11c3.51-4.62,1.19-11.48-2.84-14.97c-4.24-3.68-10.07-4.52-15.08-1.88
			c-4.8,2.53-8.18,8.45-6.36,13.86c1,2.98,3.49,5.1,6.54,5.79c2.96,0.67,6.01,0.26,8.95-0.29c1.33-0.25,2.08-1.85,1.75-3.08
			C303.96,462.18,302.6,461.57,301.27,461.82L301.27,461.82z"/>
	</g>
</g>
<g>
	<g>
		<path class="st0" d="M317.85,454.29c-2.78-1.71-6.73-4.15-6.66-7.66c0.07-3.47,3.99-5.84,7.2-6.47c3.71-0.73,7.78,0.75,9.48,4.28
			c1.56,3.24-0.17,7.65-2.93,9.82c-1.4,1.1-3.04,1.55-4.61,0.91c-0.49-0.2-1.28-0.77-1.59-1.15c-0.54-0.66-0.75-1.41-0.67-1.89
			c0.23-1.33-0.36-2.69-1.75-3.08c-1.21-0.33-2.84,0.41-3.08,1.75c-1.08,6.14,5.19,10.93,10.97,9.33c5.68-1.57,9.66-8.12,9.19-13.86
			c-0.51-6.35-6.04-10.77-12.16-11.23c-5.89-0.44-12.35,2.81-14.48,8.5c-1.13,3.02-0.51,6.42,1.36,9c1.87,2.59,4.52,4.42,7.2,6.07
			C318.07,460.3,320.59,455.98,317.85,454.29L317.85,454.29z"/>
	</g>
</g>
<g>
	<g>
		<path class="st0" d="M333.3,433.62c-0.41,0.06-1.15,0-1.77-0.18c-0.64-0.18-1.41-0.59-1.88-1c-1.16-1.01-1.62-2.12-1.59-3.46
			c0.01-0.46,0.18-1.35,0.33-1.7c0.36-0.89,0.7-1.35,1.38-1.95c0.94-0.83,2.14-1.09,3.55-1c0.26,0.02,0.33,0.03,0.83,0.15
			c0.4,0.1,0.81,0.22,1.19,0.38c0.31,0.13,1.46,0.83,1.76,1.1c1.21,1.06,2,2.37,2.46,4.04c0.47,1.67,0.54,3.52,0.29,5.22
			c-0.24,1.64-0.73,3.54-1.67,4.72c-1.12,1.4-2.54,1.49-4.05,0.79c-2.01-0.92-3.62-2.62-5.06-4.25c-0.89-1.01-2.62-0.91-3.54,0
			c-1.01,1.01-0.9,2.52,0,3.54c3.46,3.92,9.32,8.46,14.6,4.85c4.59-3.13,5.5-10.22,4.47-15.27c-1.08-5.35-5.27-9.57-10.74-10.21
			c-5.48-0.64-10.13,3.37-10.73,8.76c-0.32,2.9,0.81,5.89,3,7.83c2.38,2.12,5.38,2.95,8.52,2.46c1.34-0.21,2.07-1.88,1.75-3.08
			C335.98,433.94,334.64,433.41,333.3,433.62L333.3,433.62z"/>
	</g>
</g>
<g>
	<g>
		<path class="st0" d="M312.33,420.88c-1.04-1.13-2.44-2.64-2.53-4c-0.03-0.49,0.08-1.07,0.22-1.21c0.45-0.48,1.12-0.46,1.77-0.42
			c2.85,0.16,5.57,2.3,6.94,4.94c1.38,2.66,1.04,5.71-0.66,8.3c-1.68,2.56-4.52,4.01-7.44,3.84c-3.01-0.17-6.36-2.32-7.53-5.19
			c-0.51-1.25-1.66-2.13-3.08-1.75c-1.19,0.33-2.26,1.82-1.75,3.08c1.84,4.54,5.89,7.95,10.8,8.69c5.13,0.78,9.94-1.46,12.96-5.63
			c2.97-4.11,3.33-9.53,0.94-13.99c-2.27-4.24-7.13-7.58-12.06-7.28c-3.43,0.2-5.89,2.6-6.11,6.04c-0.21,3.26,1.92,5.88,3.99,8.14
			C310.98,426.79,314.51,423.25,312.33,420.88L312.33,420.88z"/>
	</g>
</g>
<g>
	<g>
		<path class="st0" d="M297.07,410.03c-0.68-0.64-1.36-1.27-1.99-1.96c-0.3-0.33-0.54-0.63-0.75-0.94
			c-0.11-0.17-0.22-0.34-0.32-0.52c0.01,0.01-0.35-0.68-0.26-0.46c-0.16-0.38-0.29-0.85-0.34-1.26c0.04,0.37,0.02-0.48,0.03-0.63
			c-0.02,0.48,0.24-0.87,0.08-0.46c0.06-0.15,0.16-0.3,0.24-0.44c0.15-0.23,0.18-0.28,0.1-0.15c-0.08,0.13-0.04,0.09,0.15-0.12
			c-0.28,0.18,0.07-0.05,0.11-0.07c0.5-0.4-0.14,0.01,0.18-0.11c0.19-0.07,0.39-0.12,0.59-0.15c-0.14,0.02-0.39,0,0.08,0.01
			c0.17,0.01,0.34,0,0.51,0.01c0.78,0.02-0.21-0.06,0.24,0.03c0.49,0.1,0.96,0.24,1.43,0.41c0.44,0.16,1.25,0.6,1.86,0.99
			c0.76,0.48,1.43,0.98,2.02,1.47c1.34,1.12,2.48,2.29,3.29,3.66c0.49,0.82,0.66,1.21,0.89,2.09c0.04,0.16,0.17,0.98,0.12,0.51
			c0.05,0.44,0.06,0.88,0.04,1.32c-0.01,0.2-0.02,0.4-0.05,0.6c0.02-0.13,0.1-0.41-0.02,0.05c-0.09,0.35-0.18,0.69-0.28,1.03
			c-0.03,0.11-0.24,0.57-0.05,0.17c-0.07,0.14-0.14,0.28-0.21,0.42c-0.07,0.14-0.15,0.27-0.23,0.4c-0.06,0.1-0.42,0.56-0.15,0.24
			c-0.24,0.29-0.51,0.57-0.81,0.8c0.34-0.26-0.42,0.22-0.56,0.29c-0.36,0.18,0.59-0.11-0.21,0.07c-0.18,0.04-0.36,0.1-0.54,0.14
			c0.31-0.06-0.11,0.01-0.16,0.01c-0.28,0.01-0.55,0.01-0.83-0.01c0.35,0.03-0.22-0.03-0.3-0.05c-0.28-0.06-0.55-0.13-0.82-0.22
			c-0.4-0.13-0.6-0.22-1.09-0.51c-0.76-0.44-1.29-0.91-1.95-1.65c-1.35-1.49-2.34-3.52-3.3-5.39c-0.61-1.2-2.3-1.55-3.42-0.9
			c-1.22,0.71-1.51,2.21-0.9,3.42c2.26,4.42,5.22,9.24,10.55,10.15c2.63,0.45,5.2-0.18,7.22-1.95c1.53-1.34,2.54-3.37,2.9-5.36
			c0.9-4.99-1.66-9.49-5.37-12.66c-3.36-2.88-8.74-6.34-13.19-3.63c-2.7,1.65-3.54,4.82-2.94,7.78c0.58,2.91,2.81,5.15,4.9,7.09
			c0.99,0.92,2.56,0.98,3.54,0C298.01,412.64,298.06,410.96,297.07,410.03L297.07,410.03z"/>
	</g>
</g>
<g>
	<g>
		<path class="st0" d="M315.6,401.17c-1.13-0.74-2.18-1.39-3.04-2.43c-0.03-0.04-0.29-0.41-0.39-0.58c-0.03-0.05-0.28-0.6-0.18-0.33
			c0.09,0.23-0.04-0.16-0.04-0.16c-0.03-0.16-0.09-0.32-0.11-0.48c0.01,0.06,0.03,0.34,0.02,0.05c0-0.12,0-0.25,0-0.37
			c-0.02-0.68-0.06,0.16,0.02-0.19c0.03-0.13,0.17-0.84,0.11-0.42c0-0.03,0.22-0.33,0.06-0.14c-0.18,0.21,0.13-0.14,0.18-0.19
			c0.22-0.19-0.01,0.02-0.05,0.04c0.04-0.02,0.28-0.09,0.17-0.09c0.13,0,0.41-0.02,0.71,0c1.11,0.09,2.66,0.58,3.65,1.01
			c2.45,1.06,4.56,2.76,5.63,5.23c0.94,2.17,0.97,4.8-0.46,6.81c-0.49,0.69-1.66,1.55-2.53,1.85c-0.81,0.28-1.03,0.31-1.67,0.32
			c-0.13,0-0.26-0.01-0.39-0.01c-0.75-0.01,0.17,0.06-0.25-0.02c-0.39-0.08-0.77-0.2-1.14-0.34c-1.26-0.48-2.74,0.53-3.08,1.75
			c-0.39,1.41,0.48,2.59,1.75,3.08c3.63,1.38,7.97,0.02,10.57-2.76c2.9-3.11,3.56-7.8,2.13-11.74c-1.42-3.93-4.5-6.94-8.31-8.6
			c-1.95-0.85-4.21-1.63-6.37-1.58c-2.43,0.06-4.38,1.44-5.27,3.68c-0.79,1.99-0.52,4.3,0.53,6.14c1.2,2.1,3.24,3.51,5.22,4.81
			c1.13,0.74,2.76,0.23,3.42-0.9C317.21,403.38,316.73,401.92,315.6,401.17L315.6,401.17z"/>
	</g>
</g>
<g>
	<g>
		<path class="st0" d="M337.12,421.16c-1.53-0.38-3.56-0.92-4.73-1.41c-0.75-0.32-1.48-0.7-2.16-1.16c-0.46-0.3-1.07-0.83-1.45-1.3
			c-0.87-1.08-1.11-2.22-1.03-3.68c0.05-0.82-0.06,0.21,0.03-0.25c0.04-0.22,0.09-0.43,0.15-0.65c0.04-0.15,0.29-0.91,0.19-0.66
			c0.17-0.41,0.39-0.81,0.63-1.18c0.28-0.44,0.21-0.36,0.59-0.76c0.98-1.04,2.43-1.72,3.78-1.88c1.58-0.19,3.14,0.06,4.46,0.69
			c3.1,1.48,4.96,4.62,5.44,8.04c-0.02-0.12-0.03-0.33,0.02,0.21c0.02,0.24,0.04,0.49,0.04,0.74c0.01,0.42-0.01,0.84-0.06,1.25
			c0.05-0.4-0.01,0.02-0.02,0.09c-0.06,0.25-0.1,0.5-0.17,0.74c-0.05,0.2-0.12,0.4-0.18,0.6c-0.04,0.12-0.08,0.24-0.13,0.35
			c0.08-0.17,0.08-0.18,0.01-0.02c-0.19,0.41-0.41,0.79-0.66,1.16c-0.05,0.07-0.3,0.35-0.04,0.05c-0.16,0.17-0.32,0.33-0.48,0.5
			c-0.32,0.33-0.13,0.11-0.03,0.04c-0.19,0.13-0.38,0.24-0.58,0.35c0.41-0.22-0.02-0.01-0.14,0.04c-0.11,0.03-0.22,0.06-0.34,0.09
			c0.28-0.02,0.26-0.02-0.04,0c-1.35,0.1-2.5,1.08-2.5,2.5c0,1.27,1.15,2.6,2.5,2.5c5-0.38,7.68-5.11,7.85-9.74
			c0.18-4.88-2.35-9.84-6.23-12.72c-3.95-2.95-9.88-3.43-14.08-0.71c-4.01,2.6-6.21,8.08-4.44,12.66c2.02,5.22,7.46,7.13,12.47,8.35
			C338.91,426.75,340.25,421.93,337.12,421.16L337.12,421.16z"/>
	</g>
</g>
<g>
	<g>
		<path class="st0" d="M326.26,396.07c0.65,2.31,1.3,4.63,1.95,6.94c0.38-0.94,0.77-1.88,1.15-2.82c-0.1,0.06-0.2,0.12-0.31,0.17
			c0.2-0.08,0.4-0.17,0.6-0.25c-0.19,0.08-0.38,0.13-0.59,0.16c0.22-0.03,0.44-0.06,0.66-0.09c-0.21,0.02-0.41,0.02-0.62,0
			c0.22,0.03,0.44,0.06,0.66,0.09c-0.24-0.03-0.46-0.09-0.68-0.18c0.2,0.08,0.4,0.17,0.6,0.25c-0.19-0.08-0.37-0.18-0.53-0.31
			c0.17,0.13,0.34,0.26,0.51,0.39c-0.16-0.13-0.3-0.27-0.43-0.43c0.13,0.17,0.26,0.34,0.39,0.51c-0.07-0.1-0.13-0.19-0.19-0.3
			c-0.62-1.15-2.31-1.61-3.42-0.9c-1.17,0.76-1.56,2.19-0.9,3.42c1.25,2.34,4.53,3.19,6.77,1.79c0.94-0.59,1.45-1.74,1.15-2.82
			c-0.65-2.31-1.3-4.63-1.95-6.94c-0.35-1.26-1.79-2.16-3.08-1.75C326.73,393.41,325.88,394.72,326.26,396.07L326.26,396.07z"/>
	</g>
</g>
<g>
	<g>
		<path class="st0" d="M331.09,388.37c0.29-2.08-0.18-4-0.8-5.98c-0.03-0.08-0.09-0.49-0.03-0.02c-0.02-0.15-0.03-0.32-0.03-0.47
			c-0.01-0.2,0.12-0.94,0-0.5c0.04-0.15,0.07-0.29,0.12-0.44c-0.12,0.37-0.06-0.02,0.02,0c0.05,0.02-0.47,0.4,0.01,0.01
			c-0.05,0.04-0.11,0.08-0.16,0.13c-0.19,0.05-0.19,0.05-0.01,0c0.02,0.02,0.26,0,0.35,0.02c0.19,0.04,0.37,0.1,0.55,0.16
			c0.04,0.01,0.55,0.2,0.27,0.09c-0.14-0.06,0.5,0.25,0.63,0.33c0.3,0.17,0.59,0.36,0.87,0.56c-0.34-0.24,0.26,0.23,0.38,0.33
			c0.22,0.21,0.44,0.43,0.65,0.65c0.1,0.11,0.2,0.23,0.3,0.35c-0.27-0.32-0.02-0.03,0.03,0.04c0.22,0.32,0.43,0.64,0.62,0.97
			c0.15,0.27,0.29,0.55,0.43,0.82c0.04,0.08,0.18,0.44,0.02,0.04c0.06,0.14,0.11,0.29,0.16,0.43c0.1,0.29,0.19,0.59,0.27,0.89
			c0.04,0.15,0.07,0.3,0.1,0.45c0.01,0.06,0.12,0.67,0.07,0.35c-0.04-0.23,0.04,0.46,0.05,0.58c0.02,0.31,0.02,0.61,0.01,0.92
			c0,0.13-0.1,0.99-0.02,0.47c-0.06,0.38-0.14,0.75-0.25,1.12c-0.04,0.15-0.31,0.89-0.14,0.49c-0.12,0.28-0.26,0.56-0.42,0.83
			c-0.15,0.27-0.32,0.52-0.5,0.77c0.26-0.36-0.33,0.37-0.42,0.46c-0.21,0.22-0.43,0.43-0.66,0.63c-0.05,0.04-0.42,0.34-0.19,0.17
			c0.23-0.17-0.16,0.11-0.21,0.14c-0.55,0.36-1.11,0.69-1.71,0.95c0.4-0.17,0.03-0.02-0.05,0.01c-0.22,0.07-0.44,0.15-0.66,0.22
			c-0.33,0.1-0.67,0.18-1.01,0.25c-0.15,0.03-0.3,0.06-0.46,0.08c-0.29,0.05,0.34-0.01-0.14,0.01c-0.38,0.01-0.77,0.04-1.15,0.03
			c-1.14-0.03-2.3-0.35-3.33-0.95c-1.17-0.68-2.74-0.27-3.42,0.9c-0.68,1.17-0.27,2.74,0.9,3.42c6.49,3.79,15.55,0.62,18.17-6.43
			c1.23-3.31,0.69-7.1-0.9-10.18c-1.67-3.22-5.11-6.22-8.88-6.38c-2.94-0.13-4.91,2.1-5.23,4.87c-0.12,1.03,0.01,2.06,0.26,3.06
			c0.24,0.95,0.82,2.28,0.72,3.01c-0.18,1.34,0.32,2.68,1.75,3.08C329.18,390.44,330.9,389.72,331.09,388.37L331.09,388.37z"/>
	</g>
</g>
<g>
	<g>
		<path class="st0" d="M311.72,382.41c-1.42-1.06-2.87-2.27-3.93-3.7c-0.52-0.69-0.96-1.44-1.2-2.23c-0.08-0.27-0.19-0.72-0.21-0.89
			c-0.02-0.21-0.03-0.43-0.02-0.65c0,0,0.07-0.75,0.03-0.49c0.51-2.88,3.78-4.82,6.69-4.4c6.63,0.96,10.22,10.93,5.94,16.17
			c-1.12,1.37-2.55,2.11-4.31,2.39c-1.34,0.22-3.08-0.08-4.16-0.99c-1.03-0.87-2.52-1.01-3.54,0c-0.89,0.89-1.04,2.66,0,3.54
			c4.13,3.48,10.11,3.15,14.25-0.16c4.26-3.42,5.36-9.57,4.05-14.65c-1.29-5.01-5.2-9.67-10.32-10.97
			c-5.03-1.28-10.77,1.24-12.86,6.09c-2.74,6.36,2.37,11.72,7.08,15.26c1.08,0.81,2.79,0.17,3.42-0.9
			C313.37,384.55,312.81,383.22,311.72,382.41L311.72,382.41z"/>
	</g>
</g>
<g>
	<g>
		<path class="st0" d="M298.16,391.06c0.43,0.18-0.32-0.16-0.33-0.16c-0.15-0.08-0.3-0.16-0.45-0.24c-0.37-0.21-0.73-0.44-1.08-0.68
			c-0.64-0.44,0.28,0.28-0.3-0.24c-0.13-0.11-0.26-0.22-0.38-0.34c-0.37-0.34-0.72-0.71-1.04-1.11c0.24,0.29-0.09-0.12-0.14-0.2
			c-0.12-0.17-0.23-0.35-0.34-0.53c-0.09-0.14-0.17-0.29-0.25-0.43c-0.01-0.01-0.36-0.74-0.17-0.3c-0.16-0.38-0.28-0.78-0.38-1.18
			c-0.04-0.16-0.07-0.32-0.1-0.48c-0.05-0.3-0.06-0.33-0.01-0.07c-0.01-0.12-0.02-0.25-0.02-0.37c-0.01-0.21,0-0.42,0-0.62
			c-0.02-0.73-0.07,0.23,0.01-0.19c0.07-0.41,0.18-0.8,0.32-1.19c0.15-0.42-0.28,0.47,0.09-0.2c0.1-0.18,0.19-0.37,0.3-0.54
			c0.11-0.18,0.22-0.35,0.34-0.52c-0.24,0.33,0.22-0.25,0.23-0.26c0.17-0.18,0.35-0.34,0.53-0.52c0.04-0.04,0.36-0.31,0.06-0.07
			c0.32-0.25,0.68-0.44,1.03-0.63c0.65-0.35-0.23,0.06,0.17-0.07c0.19-0.06,0.38-0.1,0.57-0.17c0.66-0.23-0.25-0.01,0.16-0.05
			c0.28-0.03,0.56-0.02,0.84-0.01c0.51,0.02,0.17,0.03,0.06,0.01c0.27,0.06,0.54,0.13,0.8,0.22c0.55,0.19,0.25,0.11,0.17,0.07
			c0.25,0.12,0.49,0.26,0.72,0.41c0.6,0.38,1.21,0.96,1.79,1.67c0.29,0.35-0.29-0.46,0.13,0.19c0.09,0.14,0.18,0.27,0.27,0.42
			c0.22,0.35,0.41,0.72,0.6,1.09c0.35,0.68-0.12-0.4,0.14,0.32c0.06,0.16,0.11,0.31,0.16,0.47c0.15,0.47,0.28,0.96,0.37,1.44
			c-0.01-0.05,0.11,0.75,0.07,0.4c-0.04-0.35,0.03,0.46,0.02,0.41c0.02,0.41,0.02,0.82,0,1.23c0-0.05-0.07,0.76-0.02,0.4
			c0.04-0.35-0.08,0.43-0.07,0.39c-0.1,0.48-0.24,0.94-0.39,1.41c-0.02,0.06-0.18,0.44-0.02,0.08c-0.1,0.22-0.21,0.44-0.33,0.66
			c-0.08,0.14-0.16,0.29-0.25,0.42c0.02-0.03-0.43,0.63-0.22,0.34c0.21-0.28-0.25,0.29-0.23,0.27c-0.12,0.14-0.25,0.27-0.39,0.4
			c-0.13,0.13-0.28,0.25-0.41,0.38c-0.41,0.37,0.23-0.11-0.21,0.15c-0.38,0.24-0.77,0.46-1.16,0.68c-0.61,0.34,0.27-0.09-0.12,0.06
			c-0.24,0.1-0.49,0.18-0.74,0.26c-0.43,0.13-0.87,0.23-1.32,0.3c0.52-0.08-0.48,0.02-0.67,0.03c-0.22,0-0.45,0-0.67-0.01
			c-0.07,0-0.79-0.1-0.22,0c-0.44-0.07-0.87-0.17-1.28-0.31c0.01,0-0.65-0.25-0.32-0.11c0.25,0.11-0.42-0.22-0.49-0.26
			c-0.13-0.07-0.25-0.15-0.38-0.23c-0.12-0.08-0.25-0.17-0.36-0.25c0.21,0.16,0.21,0.15-0.01-0.03c-1.02-0.89-2.54-1-3.54,0
			c-0.91,0.91-1.02,2.64,0,3.54c3.56,3.11,8.6,3.39,12.75,1.29c4.23-2.14,6.5-6.94,6.04-11.58c-0.49-4.89-3.63-10.24-8.74-11.4
			c-5.05-1.15-10.17,2.82-11.01,7.82c-0.99,5.95,3.25,11.03,8.5,13.18c1.25,0.51,2.75-0.56,3.08-1.75
			C300.3,392.7,299.42,391.57,298.16,391.06L298.16,391.06z"/>
	</g>
</g>
<g>
	<g>
		<path class="st0" d="M277.95,400.05c-3.75-1.78-7.96-4.52-9.4-8.35c-0.67-1.77-0.81-3.52-0.42-5.16c0.41-1.74,1.25-3.07,2.72-3.89
			c0.58-0.33,1.46-0.58,1.94-0.62c1.11-0.1,1.6-0.04,2.6,0.21c1.71,0.44,3.29,1.35,4.57,2.59c2.69,2.61,4.33,7.61,2.21,11.22
			c-0.47,0.8-1.18,1.53-1.88,2c-0.35,0.23-1.05,0.6-1.2,0.66c-0.18,0.07-0.36,0.13-0.54,0.18c-0.11,0.03-0.97,0.22-0.72,0.19
			c-0.97,0.13-1.74,0.06-2.47-0.3c-0.37-0.18-0.7-0.44-0.91-0.71c-0.03-0.04-0.35-0.55-0.19-0.32c-0.08-0.31-0.1-0.37-0.04-0.17
			c-0.05,0.19-0.03,0.13,0.06-0.18c0.91-3.09-3.91-4.41-4.82-1.33c-1.03,3.5,1.72,6.67,4.93,7.67c2.8,0.87,6.01,0.22,8.43-1.37
			c5.8-3.8,6.45-11.32,3.54-17.17c-2.45-4.92-8.2-8.73-13.82-8.14c-6.15,0.65-10.02,6.22-9.55,12.23
			c0.56,7.22,6.29,12.16,12.46,15.09c1.22,0.58,2.7,0.34,3.42-0.9C279.49,402.38,279.18,400.63,277.95,400.05L277.95,400.05z"/>
	</g>
</g>
<g>
	<g>
		<path class="st0" d="M339.47,436.95c3.22,0,3.22-5,0-5C336.25,431.95,336.25,436.95,339.47,436.95L339.47,436.95z"/>
	</g>
</g>
<g>
	<g>
		<path class="st0" d="M344.88,405.45c-0.34-1.64-1.28-2.96-2.25-4.28c-0.41-0.55-0.85-1.12-1.13-1.75c0.18,0.41-0.06-0.28-0.09-0.4
			c-0.02-0.07-0.08-0.55-0.05-0.25c0.03,0.3,0.01-0.37,0.01-0.36c0-0.15,0.11-0.42-0.01,0c0.02-0.07,0.03-0.26,0.09-0.31
			c0.25-0.24-0.21,0.3,0.01,0.03c0.17-0.21-0.06,0.06-0.07,0.11c-0.06,0.04-0.12,0.09-0.18,0.13c0.06-0.04,0.12-0.07,0.19-0.11
			c0,0.02-0.15,0.11-0.17,0.11c-0.12-0.05,0.42,0.2,0.5,0.24c1.24,0.68,2.37,1.81,3.37,2.87c1.01,1.07,1.81,2.14,2.44,3.52
			c0.52,1.14,0.71,2.19,0.68,3.35c-0.02,1.08-0.29,2.12-0.81,3.02c-0.06,0.11-0.13,0.21-0.2,0.32c-0.03,0.04-0.33,0.45-0.17,0.25
			c0.14-0.18-0.13,0.13-0.13,0.13c-0.12,0.12-0.24,0.24-0.35,0.36c-0.28,0.3-0.19,0.18-0.08,0.09c-0.12,0.1-0.26,0.19-0.4,0.27
			c-0.15,0.09-0.85,0.36-0.41,0.22c-0.14,0.05-0.28,0.09-0.43,0.13c-0.06,0.02-0.66,0.15-0.32,0.09c0.29-0.05-0.07,0.01-0.11,0.01
			c-0.19,0.01-0.37,0.02-0.56,0.02c-0.15,0-0.3-0.01-0.45-0.02c-0.29-0.01,0.35,0.1-0.11-0.02c-0.29-0.08-0.57-0.15-0.86-0.24
			c-0.45-0.14-0.11-0.05-0.01,0c-0.16-0.08-0.32-0.17-0.48-0.26c-0.06-0.03-0.44-0.29-0.19-0.11c0.25,0.18-0.23-0.21-0.24-0.22
			c-0.1-0.1-0.2-0.2-0.29-0.31c0.16,0.18,0.12,0.2,0.01-0.01c-0.07-0.13-0.14-0.25-0.21-0.37c0.2,0.38,0-0.04-0.06-0.22
			c-0.38-1.3-1.76-2.11-3.08-1.75c-1.29,0.35-2.13,1.77-1.75,3.08c1.06,3.62,4.83,5.76,8.5,5.4c4.11-0.4,7.2-3.67,7.94-7.67
			c0.81-4.36-0.76-8.38-3.54-11.71c-2.49-2.99-8.01-8.07-11.72-4c-1.52,1.67-1.65,4.25-0.88,6.29c0.78,2.05,2.82,3.7,3.22,5.65
			c0.27,1.32,1.84,2.09,3.08,1.75C344.51,408.15,345.15,406.77,344.88,405.45L344.88,405.45z"/>
	</g>
</g>
<g>
	<g>
		<path class="st0" d="M342.81,432.29c-1.91,0.84-3.67,2.02-5.2,3.45c-1.53,1.44-2.99,3.21-2.73,5.44c0.53,4.4,5.89,5.8,9.54,4.73
			c8.1-2.37,9.89-12.14,8.47-19.4c-0.77-3.95-3.11-7.42-7.33-7.92c-1.34-0.16-2.5,1.26-2.5,2.5c0,1.48,1.15,2.34,2.5,2.5
			c-0.47-0.06,0.71,0.3,0.26,0.09c0.44,0.21,0.32,0.15,0.54,0.35c-0.01-0.01,0.51,0.54,0.31,0.29c0.23,0.28,0.41,0.62,0.58,0.94
			c0.43,0.81,0.83,2.41,0.92,3.22c0.37,3.18,0.23,6.9-1.46,9.72c-1.22,2.04-4.16,3.91-6.32,2.82c-0.24-0.12-0.27-0.18-0.5-0.37
			c-0.31-0.26-0.03-0.28-0.09-0.1c-0.02,0.05,0.04,0.07,0.06,0.05c0.23-0.39,0.67-0.75,0.99-1.06c1.29-1.27,2.8-2.2,4.45-2.92
			c1.24-0.54,1.52-2.35,0.9-3.42C345.48,431.91,344.05,431.75,342.81,432.29L342.81,432.29z"/>
	</g>
</g>
<g class="st1">
	<path class="st0" d="M202.48,337.79c-3.16,10.61,0.62,22.03,3.91,32.59c7.02,22.55,11.97,45.9,14.73,69.57
		c0.66,5.66,1.21,11.39,2.76,16.83c1.53,5.35,4.01,10.32,6.84,14.97c10.1,16.6,24.79,29.62,33.06,47.43
		c4.2,9.03,6.79,19.35,13.34,26.44c10.87,11.77,28.55,10.42,43.01,5.32c15.99-5.64,30.95-14.89,43.69-27.03
		c1.74-1.66,3.51-3.5,4.16-5.94c0.67-2.55-0.01-5.27-0.65-7.83c-6.79-27.33-8.48-56.22-4.93-84.31
		c-7.06,3.35-10.59,12.02-16.04,18.04c-8.9,9.83-22.32,12.05-34.77,13.76c-7.35,1.01-14.92,2-22.08-0.13
		c-9.31-2.77-16.73-10.45-23.25-18.35c-18.61-22.56-33.25-49.17-42.84-77.88c4.63,10.86,9.68,22.27,18.74,28.81
		c-8.74-17.75-20.31-33.76-34-47.08c-5.35-5.21,7.66,8.19,7.21,0.29"/>
</g>
<g class="st1">
	<path class="st0" d="M446.67,485.02c6.43,11.86,10.44,24.89,11.76,38.16c0.45,4.59,0.49,9.56-2.23,13.37
		c-3.52,4.94-10.42,6.37-16.67,7.06c-5.1,0.57-10.23,0.91-15.37,1.04c-4.64,0.11-9.38,0.05-13.82,1.35
		c-3.87,1.14-7.4,3.29-11.39,3.96c-6.89,1.17-13.8-2.31-18.88-6.87c-5-4.5-8.83-10.15-11.07-16.33c-2.44-6.75-2.97-13.97-3.47-21.09
		c-0.59-8.28-1.17-16.58-1-24.87c0.1-4.93,0.48-9.86,0.3-14.79c-0.38-11.08-3.49-21.9-6.58-32.59c10.15,5.4,20.63,10.49,31.95,13.06
		c11.32,2.58,23.64,2.47,34.16-2.24c10.84-4.86,20.18-14.55,32.17-14.12c-0.45,10-0.97,19.99-1.57,29.98
		c-0.18,3.06-0.39,6.21-1.73,9c-1.01,2.1-2.6,3.89-3.86,5.86c-3.87,6.09-4.22,14.04-0.91,20.42"/>
</g>
<g class="st2">
	<g>
		<path class="st0" d="M284.56,391.71c-0.41-0.62-0.55-1.06-0.52-1.79c-0.83,0.83-1.67,1.67-2.5,2.5c-0.86-0.02-0.73-0.49-1.08-0.88
			c0.18,0.2-0.09,0.33,0.02,0.06c-0.21,0.49,0.01,0.12,0.03,0c0.1-0.43,0.59-0.05-0.15-0.24c-0.71-0.18-1.33-0.56-1.92-0.99
			c-1.65-1.22-3.83-3.29-4.2-5.42c-0.05-0.31-0.1-0.55,0.04-0.84c0.09-0.18,0.36-0.29,0.14-0.17c0.51-0.28,1.49,0.05,2.17,0.43
			c1.88,1.06,3.01,3.29,3.48,5.33c0.39,1.67,0.55,4.57-1.2,5.57c-1.86,1.06-4.02-0.13-5.37-1.47c-1.14-1.13-2.73-2.85-0.72-3.92
			c1.76-0.94,3.74,0.63,4.88,1.88c1.33,1.46,2.66,3.81,1.69,5.78c-0.74,1.51-2.07,1.5-2.94,0.28c-2.15-3.02,2.92-5.82,5.68-4.55
			c0.68,0.31,1.44,0.85,1.73,1.56c0.11,0.27,0.14,0.56-0.25,0.88c-1.31,1.06-3.92,0.21-5.31-0.41c-1.92-0.85-3.66-2.21-4.95-3.87
			c-0.65-0.85-1.24-1.82-1.64-2.81c-0.1-0.25-0.16-0.52-0.27-0.77c-0.15-0.38,0.09-0.36-0.07-0.12c-0.39,0.6-0.22,0.47,0.15,0.45
			c2.26-0.14,4.77,1.08,6.67,2.19c2.18,1.28,4.09,2.91,5.88,4.69c3.13,3.12,7.2,7.98,5.57,12.75c-1.09,3.21-5.16,5.23-8.27,4.47
			c-0.8-0.2-1.53-0.49-2.12-1.11c-0.29-0.31-0.43-0.56-0.59-0.94c-0.06-0.14,0.12-0.38,0.02-0.21c0.04-0.08,0.34-0.21,0.71-0.25
			c0.07-0.01,0.66,0,0.91,0.04c0.89,0.14,1.86,0.69,2.64,1.28c3.27,2.45,4.5,7.46,1.42,10.6c-3.55,3.62-9.32,1.35-12.61-1.39
			c-1.72-1.44-3.68-3.16-4.45-5.34c-0.24-0.69-0.43-1.51,0.15-2.05c0.62-0.57,1.7-0.53,2.48-0.49c4.44,0.2,9.25,3.11,11.19,7.15
			c0.82,1.71,1.14,3.97-0.44,5.35c-1.71,1.49-4.17,1.43-6.24,0.92c-4.37-1.07-10.78-3.63-11.6-8.71c-0.74-4.63,4.86-6.32,8.44-5.57
			c2.61,0.55,4.99,1.8,7.26,3.17c2.1,1.26,4.17,2.75,5.35,4.96c0.93,1.76,1.09,3.99-0.3,5.53c-1.17,1.3-3.06,1.91-4.77,2.09
			c-4.73,0.51-10.02-1.75-13.15-5.27c-1.24-1.4-2.42-3.47-2.06-5.41c0.34-1.84,1.95-2.65,3.6-3.03c1.88-0.43,3.94-0.29,5.85-0.03
			c2.85,0.38,5.71,0.98,8.43,1.92c4.43,1.53,8.75,4.46,10.63,8.92c1.68,3.97,0.62,8.46-2.42,11.47c-2.97,2.94-7.43,3.57-11.2,1.81
			c-3.94-1.84-6.13-5.6-5.83-9.93c0.28-4.08,3.27-8.43,7.58-8.95c4.26-0.51,7.74,3.42,8.32,7.34c0.37,2.46-0.2,5.14-1.27,7.36
			c-0.77,1.61-2.12,4.33-4.17,4.51c-1.74,0.15-3.31-1.39-3.86-2.92c-0.88-2.45-0.04-5.33,1.04-7.57c1.1-2.29,2.56-4.35,4.38-6.13
			c1.66-1.62,3.85-3.38,6.28-3.43c2.07-0.04,3.68,1.41,4.53,3.2c1.1,2.29,0.81,5,0.18,7.38c-0.71,2.73-1.87,5.32-3.32,7.73
			c-1.29,2.14-2.88,4.56-4.88,6.11c-0.53,0.41-1,0.75-1.4,0.33c-0.55-0.58-0.69-1.92-0.78-2.67c-0.29-2.33-0.03-4.69,0.6-6.93
			c1.33-4.68,4.28-8.77,7.91-11.94c2.14-1.87,7.78-5.48,9.84-1.79c1.04,1.86,0.47,4.4-0.01,6.35c-0.58,2.41-1.37,4.78-2.4,7.03
			c-2.17,4.73-5.19,9.01-8.97,12.58c-0.32,0.31-1.07,1.26-1.57,1.22c-0.89-0.07-0.65-1.88-0.55-2.34c0.55-2.49,2.04-4.93,3.44-7.03
			c2.68-4.04,6.33-7.43,10.53-9.84c2.26-1.29,4.89-2.58,7.57-2.37c1.81,0.14,3.79,1.11,4.29,2.99c0.62,2.36-0.75,5.1-1.72,7.2
			c-1.12,2.43-2.42,4.77-3.88,7.01c-2.88,4.38-6.46,8.41-10.57,11.67c-1.44,1.14-3.44,2.47-4.89,0.88
			c-1.29-1.42-1.69-3.56-1.82-5.41c-0.7-9.38,5.13-18.94,14.36-21.58c4.52-1.29,9.61-0.68,13.23,2.5c3.82,3.35,4.69,8.23,3.2,12.99
			c-1.32,4.21-4.61,8.17-9.45,6.73c-4.6-1.38-6.8-6.63-6.89-11.07c-0.09-4.61,1.79-9.16,5.23-12.26c3.37-3.04,8.27-4.43,12.75-3.82
			c4.03,0.55,8.39,3.02,9.78,7.06c1.58,4.58-1.91,9.52-5.56,12.02c-3.94,2.7-8.66,3.13-12.88,0.79c-4.34-2.41-7.48-6.75-8.94-11.44
			c-1.46-4.7-1.24-9.78,1.39-14.02c2.45-3.94,6.54-6.26,11.19-6.23c5.13,0.04,10.21,2.4,14.28,5.4c3.5,2.58,6.69,6.44,6.73,10.98
			c0.03,4.18-2.48,8.19-5.88,10.5c-3.91,2.67-8.73,3.08-13.24,1.85c-9.37-2.55-16.15-11.24-17.4-20.73
			c-1.1-8.35,2.79-19.06,11.96-20.94c4.61-0.95,9.27,1.46,12.54,4.54c3.42,3.22,6.27,7.76,6.56,12.56
			c0.28,4.69-2.23,8.58-6.51,10.46c-4.69,2.07-10.22,1.04-14.69-1.12c-8.28-4-15.19-12.65-12.76-22.29c1.05-4.15,3.8-7.82,7.98-9.17
			c3.82-1.23,8.31-0.71,11.16,2.31c3.39,3.58,1.33,8.16-1.89,11.01c-3.21,2.83-8.14,4.16-12.34,3.33c-4.56-0.9-7.7-4.12-8.72-8.63
			c-0.94-4.19,0.21-8.96,3.16-12.12c2.72-2.92,6.98-4.17,10.69-2.32c4.07,2.03,4.67,7.09,2.66,10.86c-2.29,4.28-7.28,6.82-11.9,7.65
			c-2.05,0.37-4.39,0.23-5.92-1.34c-1.5-1.54-1.94-3.86-1.58-5.93c0.8-4.58,4.55-8.9,8.82-10.64c4-1.63,9.39-0.96,12,2.8
			c1.27,1.82,1.69,4.11,0.55,6.1c-1.14,1.99-3.21,3.16-5.43,3.53c-4.53,0.75-9.88-1.33-12.68-4.98c-2.5-3.26-2.85-8.46,0.48-11.31
			c3.07-2.62,7.77-2.2,11.33-0.97c1.23,0.43,4.05,1.38,4.02,2.96c-0.03,1.59-2.6,2.86-3.96,3.32c-2.67,0.9-5.44,1.28-8.25,1.15
			c-2.56-0.12-5.48-0.59-7.66-2.02c-1.7-1.11-2.23-3.01-1.74-4.93c0.57-2.21,2.23-3.75,4.18-4.82c4.09-2.25,9.41-2.75,13.9-1.56
			c4.35,1.15,8.12,4.12,9.6,8.46c1.32,3.88,0.73,8.18-2.58,10.83c-2.76,2.2-6.76,2.9-9.65,0.78c-3.39-2.5-4.38-7.51-3.42-11.42
			c0.93-3.78,3.54-7.42,7.49-8.31c4.71-1.05,9.27,2.35,11.31,6.36c1.98,3.87,1.59,8.34-0.83,11.91c-1.19,1.75-2.86,3.14-4.74,4.09
			c-1.77,0.89-4.38,1.62-6.28,0.72c-1.8-0.85-2.5-3.13-2.36-4.97c0.14-1.86,1.1-3.61,2.39-4.93c3.22-3.29,8.18-3.34,12.13-1.34
			c8.7,4.39,11.47,15.9,6.45,24.04c-1.18,1.91-2.74,3.64-4.56,4.96c-1.62,1.17-4.04,2.75-6.14,2.44c-1.79-0.26-2.76-2.22-3.22-3.78
			c-0.59-2.02-0.64-4.26-0.23-6.33c0.82-4.15,3.34-7.92,7.62-8.97c3.6-0.88,7.74,0.33,10.69,2.66c7.68,6.1,6.46,18.52,1.55,25.93
			c-2.32,3.5-6.1,6.87-10.51,7.03c-4.56,0.16-8.29-3.07-10.67-6.69c-2.84-4.3-4.73-9.79-3.57-14.96c1.08-4.84,4.39-8.5,9.3-9.56
			c8.72-1.88,17.51,4.47,20.47,12.48c3.1,8.38-0.37,17.62-7.43,22.85c-3.59,2.66-7.84,4.18-12.32,4.18
			c-4.41-0.01-8.72-1.4-12.43-3.75c-7.94-5.02-11.83-14.18-10.64-23.42c1.2-9.28,7.93-19.32,17.84-20.58
			c9.84-1.25,19.11,5.81,23.8,13.93c2.55,4.41,4.03,9.45,3.9,14.57c-0.12,4.78-1.78,9.34-4.53,13.23
			c-2.67,3.78-6.54,6.79-10.88,8.42c-5.03,1.89-10.4,2.21-15.72,1.79c-5.3-0.42-10.6-1.55-15.69-3.05
			c-4.53-1.33-9.16-3.15-12.68-6.4c-7.83-7.21-7.15-19.35-3.9-28.61c3.15-8.98,10.41-19.28,20.53-20.77
			c9.62-1.42,18.88,5.46,23.17,13.61c2.55,4.84,3.24,10.22,1.87,15.52c-1.3,5.01-3.96,9.8-7.27,13.77
			c-5.88,7.06-14.59,12.34-24.07,11.08c-4.08-0.54-8.16-2.23-11.21-5.03c-3.65-3.35-5.37-7.99-5.57-12.89
			c-0.39-9.54,3.63-19.98,11.79-25.41c8.34-5.55,19.7-5.92,28.66-1.62c8.69,4.18,14.69,12.52,15.02,22.28
			c0.31,9.13-4.73,17.55-13.3,21.04c-4.01,1.63-8.51,2.1-12.7,0.89c-3.98-1.15-7.51-3.86-9.84-7.27c-2.38-3.48-3.73-7.68-3.25-11.92
			c0.49-4.31,2.93-8.16,6.1-11.03c7.8-7.04,18.94-6.94,28.28-3.37c4.41,1.69,9.02,4.14,12.17,7.74c1.28,1.47,2.3,3.31,2.44,5.28
			c0.17,2.4-0.85,4.6-2.17,6.53c-5.48,8.02-16,12.36-25.47,12.27c-3.22-0.03-3.22,4.97,0,5c6.62,0.07,13.23-1.69,18.96-5
			c5.5-3.18,11.14-8.12,13.1-14.36c2.14-6.82-1.93-12.8-7.21-16.72c-5.29-3.94-11.93-6.68-18.43-7.7
			c-6.58-1.03-13.25-0.37-19.23,2.66c-5.17,2.63-9.6,6.98-11.9,12.34c-4.7,10.99,1.2,24.26,11.92,29.16
			c10.97,5.01,24.04,0.32,30.87-9.24c7.28-10.2,5.6-24.8-1.97-34.31c-7.93-9.97-21.8-13.99-34.04-11.34
			c-6.52,1.41-12.59,4.86-16.84,10.05c-3.92,4.79-6.49,10.62-7.47,16.73c-1.05,6.61-0.67,13.88,3.08,19.64
			c3.17,4.87,8.24,8.23,13.8,9.78c12.09,3.36,24.26-2.42,32-11.72c4.21-5.06,7.69-11.18,8.94-17.69c1.33-6.95-0.23-13.92-4.05-19.85
			c-6.81-10.6-20.44-17.43-32.66-12.14c-6.09,2.64-10.89,7.79-14.39,13.32c-3.66,5.78-5.91,12.35-6.7,19.13
			c-0.76,6.46,0.07,13.46,3.55,19.08c3.43,5.53,9.07,8.92,15.04,11.12c6.06,2.24,12.58,3.58,18.99,4.27
			c6.86,0.74,13.93,0.29,20.33-2.45c11.54-4.94,18.8-17.38,17.31-29.86c-1.54-12.89-10.9-24.97-23.55-28.61
			c-6.33-1.82-13.12-1.04-18.66,2.59c-5.38,3.52-9.3,8.89-11.47,14.9c-4.2,11.63-1.09,25.27,8.77,33.02
			c9.48,7.45,22.89,8.72,32.79,1.3c4.67-3.5,8.28-8.39,9.91-14.03c1.66-5.73,0.96-11.78-1.7-17.09c-2.54-5.07-6.93-9.41-12.14-11.68
			c-5.77-2.52-12.83-2.78-18.36,0.56c-12.55,7.59-9.08,26.35,0.58,34.79c4.98,4.34,11.52,5.49,17.47,2.41
			c5.47-2.83,9.29-8.36,11.21-14.09c2.05-6.12,2.14-13-0.47-18.96c-2.35-5.36-7.27-9.42-13.02-10.62
			c-5.82-1.22-11.72,0.56-15.38,5.36c-3.56,4.67-4.75,11.77-2.56,17.28c1.09,2.74,3.03,5.23,5.99,6.05
			c3.35,0.93,6.95-0.63,9.71-2.45c5-3.29,8.76-8.62,9.83-14.55c1.18-6.56-0.64-13.33-4.87-18.47c-4.09-4.97-10.75-7.95-17.18-6.8
			c-5.97,1.07-11.01,6.56-11.13,12.7c-0.06,3.03,1.2,6.16,3.58,8.07c2.83,2.27,6.72,2.3,10.04,1.22
			c5.62-1.83,10.24-6.71,11.51-12.53c1.31-6.05-1.02-12.68-5.79-16.62c-5.19-4.29-12.55-5.08-17.97-0.81
			c-4.52,3.56-6.86,9.73-6.16,15.4c0.76,6.16,4.75,11.96,11.26,12.74c5.34,0.64,11-2.39,13.59-7.08c2.96-5.36,1.83-12.24-1.75-17.02
			c-3.9-5.2-10.2-7.75-16.61-7.74c-6.17,0.01-13.84,2.2-17.03,7.98c-1.56,2.82-1.93,6.3-0.6,9.27c1.4,3.14,4.56,4.84,7.73,5.73
			c3.64,1.02,7.46,1.19,11.2,0.65c3.32-0.48,6.64-1.5,9.23-3.71c2.44-2.08,3.68-5.55,2.01-8.5c-1.51-2.67-4.76-4.1-7.57-4.96
			c-5.33-1.63-11.91-1.26-16.01,2.93c-4.73,4.84-4.23,12.6-0.21,17.68c4.06,5.12,11.35,7.72,17.74,6.52
			c6.8-1.28,11.72-8.15,8.95-14.89c-2.59-6.31-9.73-9.09-16.16-7.92c-6.38,1.17-11.71,6.35-14.08,12.23
			c-2.54,6.29-0.22,14.73,7.16,16.16c3.2,0.62,6.52-0.05,9.53-1.2c3.09-1.18,6.04-2.84,8.36-5.23c4.51-4.63,6.33-12.43,2.21-17.92
			c-3.66-4.88-10.56-6.12-15.99-3.71c-11.78,5.24-13.08,24.1-1.89,30.66c5.34,3.13,12.09,2.75,17.58,0.24
			c5.61-2.57,10.55-8.51,9.58-14.99c-0.96-6.37-7.35-10.23-13.37-10.47c-6.02-0.24-11.67,2.83-14.89,7.88
			c-3.28,5.15-3.88,12-1.9,17.73c2.03,5.91,6.32,10.75,11.55,14.08c5.76,3.66,13.17,5.82,19.91,3.89c6.22-1.78,11-6.71,11.76-13.22
			c0.74-6.34-2.39-12.75-6.56-17.33c-4.26-4.67-10.58-8.24-17.07-7.49c-6.04,0.7-11.05,4.67-14.09,9.82
			c-3.2,5.42-3.99,11.84-3,17.99c2.01,12.45,12.23,23.19,24.97,24.51c6.27,0.65,12.67-1.67,16.8-6.49c3.94-4.59,5.73-10.9,3.5-16.71
			c-2.29-5.98-7.63-10.32-13.25-13.06c-6.12-2.97-13.29-4.33-19.67-1.33c-5.43,2.55-9.34,8.21-10.27,14.08
			c-1.11,6.98,1.07,14.08,5.45,19.56c3.83,4.81,9.85,8.44,16.18,7.86c6.56-0.6,12.6-5.14,15.34-11.09c1.38-3,1.89-6.39,0.84-9.58
			c-1-3.02-3.04-5.48-5.56-7.35c-5.03-3.72-11.98-4.39-17.83-2.43c-6.16,2.06-10.86,6.75-13.02,12.86
			c-2.05,5.82-1.46,12.88,2.24,17.93c4.17,5.7,12.18,7.8,17.86,2.97c4.96-4.22,6.97-12.29,5.15-18.43
			c-1.76-5.94-7.2-10.49-13.24-11.63c-6.78-1.28-13.71,1.08-18.85,5.55c-4.45,3.87-7.52,9.52-8.46,15.33
			c-0.85,5.3-0.68,13.67,4.99,16.43c3.44,1.68,6.84,0.08,9.61-2.12c2.58-2.05,4.95-4.37,7.09-6.86c4.34-5.06,8.15-11.02,10.23-17.38
			c1.1-3.35,1.14-7.05-1.18-9.9c-2.08-2.55-5.56-3.74-8.79-3.5c-6.47,0.48-12.73,4.99-17.06,9.58c-2.2,2.32-4.12,4.95-5.64,7.77
			c-1.6,2.97-3.49,6.79-2.23,10.2c1.3,3.52,5.32,5.19,8.51,2.92c2.67-1.9,4.88-4.61,6.84-7.21c3.89-5.15,6.83-11.34,8.01-17.71
			c0.56-2.98,0.69-6.33-1.01-9c-1.72-2.7-4.83-3.96-7.95-3.61c-6.26,0.7-11.35,5.65-14.8,10.59c-3.71,5.3-5.62,11.84-4.5,18.27
			c0.55,3.15,2.61,6.37,6.21,6.12c3.55-0.24,6.07-3.68,8.03-6.3c4.09-5.49,7.74-13.41,6.03-20.38c-0.71-2.88-2.59-5.63-5.21-7.1
			c-3.18-1.79-6.85-1.34-9.98,0.32c-5.69,3.01-10.44,9.66-11.47,16c-0.57,3.51,0.04,7.19,2.6,9.81c2.22,2.28,5.68,3.44,8.73,2.26
			c3.22-1.24,5.25-4.42,6.55-7.46c1.36-3.17,1.91-6.58,1.38-10c-0.95-6.16-6.62-11.74-13.1-11.28c-6.46,0.46-11.5,6.04-12.45,12.25
			c-0.94,6.14,1.62,12.16,7.03,15.37c5.19,3.08,11.91,3.01,16.76-0.69c4.9-3.73,7.38-10.18,5.76-16.2
			c-1.76-6.53-7.33-11.03-13.4-13.42c-3.09-1.22-6.37-1.89-9.64-2.36c-2.93-0.42-5.93-0.64-8.83,0.11c-2.96,0.77-5.44,2.69-6.52,5.6
			c-1.11,2.97-0.2,6.37,1.45,8.95c3.51,5.49,10.52,8.92,16.97,8.96c5.91,0.03,12.51-3.58,12.14-10.28
			c-0.4-7.33-7.6-11.79-13.71-14.29c-5.72-2.35-13.65-1.97-16.96,4.12c-1.67,3.06-1.35,6.64,0.23,9.66c1.59,3.04,4.51,5.2,7.54,6.66
			c5.75,2.78,14.61,5.26,18.84-1.38c3.83-6.02-1.31-13.18-6.36-16.43c-4.57-2.93-14.97-5.66-16.92,1.82
			c-0.84,3.23,1.06,6.55,3.12,8.89c2.17,2.45,4.9,4.68,7.91,6c6.37,2.8,14.27,1.21,17.03-5.72c2.4-6.02-0.88-12.93-6.61-15.64
			c-2.68-1.26-6.33-1.54-8.58,0.73c-2.47,2.49-1.54,6.3,0.83,8.48c4.45,4.08,11.72,2.74,15.71-1.3c4.81-4.86,3.65-12,0.06-17.21
			c-3.72-5.4-9.32-10.46-15.66-12.48c-2.71-0.86-6.46-1.54-8.64,0.82c-2.43,2.63-0.17,6.78,1.58,9.16c3.29,4.5,9.88,8.75,15.66,6.74
			c3.09-1.07,5.06-4.31,3.87-7.51c-1.13-3.03-4.31-5.02-7.47-5.24c-6.21-0.43-12.42,5.65-9.26,11.84c1.39,2.73,4.53,4.6,7.61,3.74
			c3.22-0.9,5.29-4.16,5.27-7.42c-0.03-6.33-7.26-13.74-13.79-10.84c-3.08,1.37-4.98,4.76-3.72,8.04c1.15,3.01,3.98,5.6,6.94,6.75
			c2.98,1.16,6.69,0.61,8.92-1.77c2.35-2.5,2.57-6.34,1.94-9.54c-0.61-3.08-2.38-6.16-4.9-8.05c-2.21-1.66-5.41-2.54-7.98-1.17
			c-3.16,1.69-3.38,5.47-2.06,8.42c1.28,2.87,3.88,5.56,6.56,7.18c2.8,1.7,7.24,1.92,8.56-1.75c0.97-2.7-0.53-5.89-3.61-5.97
			c-1.39-0.04-2.45,1.18-2.5,2.5c-0.06,1.53,0.35,3.04,1.2,4.32C282.02,396.9,286.35,394.4,284.56,391.71L284.56,391.71z"/>
	</g>
</g>
<g class="st2">
	<g>
		<path class="st0" d="M383.47,406.73c3.22,0,3.22-5,0-5C380.25,401.73,380.25,406.73,383.47,406.73L383.47,406.73z"/>
	</g>
</g>
<g class="st2">
	<g>
		<path class="st0" d="M370.84,392.21c-2.54-0.86-5.64-1.78-7.37-3.99c-1.12-1.43-1.44-3.74-0.45-4.87
			c1.61-1.85,5.21,0.21,6.89,1.21c2.01,1.19,4.61,3,5.1,5.47c0.46,2.28-1.45,4.24-3.45,5c-2.38,0.9-5.06,0.54-7.18-0.81
			c-4.29-2.72-6.19-8.96-4.48-13.67c2.05-5.68,8.73-4.87,13.25-3.05c4.48,1.81,10.38,5.64,11.08,10.89
			c0.74,5.59-5.44,9.07-10.16,9.72c-5.32,0.74-11.02-1.16-14.84-4.93c-3.98-3.94-6.05-10.12-3.1-15.26
			c2.56-4.45,7.79-7.18,12.83-7.45c6.67-0.36,13,2.4,18.56,5.84c5.31,3.27,10.89,7.49,12.96,13.65c1.04,3.11,1.08,6.3-0.19,9.35
			c-1.17,2.82-3.08,5.44-4.97,7.82c-4.02,5.04-9.1,9.46-15.56,10.86c-5.49,1.19-10.84-0.54-14.71-4.56
			c-3.74-3.89-5.56-9.27-5.03-14.63c1.21-12.35,13.05-21.19,24.89-21.8c6.04-0.31,11.93,1.34,16.98,4.66
			c4.98,3.28,9.38,8.41,10.57,14.38c1.29,6.49-2.19,12.94-5.73,18.11c-3.6,5.26-7.88,10.48-13.4,13.81
			c-5.01,3.02-11.4,4.53-16.96,2.07c-4.78-2.12-8.4-6.56-9.89-11.53c-3.12-10.44,4.3-21.32,14.17-24.7
			c5.73-1.96,11.94-1.6,17.62,0.38c5.47,1.92,10.96,5.59,13.98,10.64c6.73,11.26-5.1,23.51-15.42,26.74
			c-5.75,1.8-12.11,1.46-17.44-1.46c-5.24-2.88-9.3-8.23-8.3-14.45c0.95-5.97,5.06-11.28,9.61-15.05c4.25-3.52,9.65-5.96,15.16-6.58
			c10.79-1.2,22.66,4.92,26.49,15.42c3.65,10.02-0.31,22.26-10.17,26.98c-2.76,1.32-5.95,1.88-8.98,1.5
			c-3.1-0.39-6.01-1.74-8.65-3.34c-4.91-2.98-10.67-7.24-12.57-12.92c-1.89-5.64,0.33-11.88,4.11-16.22
			c3.84-4.4,9.13-7.22,14.84-8.3c11.31-2.14,22.92,4.04,28.63,13.8c3.04,5.21,4.43,11.7,1.1,17.12c-2.7,4.41-7.84,7.41-12.97,7.86
			c-6.51,0.57-12.78-1.81-18.04-5.54c-4.64-3.29-8.91-8.05-8.93-14.04c-0.02-5.83,3.38-11.25,7.62-15.01
			c4.55-4.04,10.5-6.61,16.52-7.38c11.74-1.51,24.75,4.34,30.39,14.99c1.36,2.56,2.26,5.56,1.93,8.48c-0.31,2.8-1.88,5.09-3.98,6.88
			c-4.5,3.83-10.76,4.91-16.49,4.44c-6.06-0.5-11.96-2.81-17.09-6.01c-4.65-2.9-9.27-6.9-11.2-12.2c-4-11,4.31-22.94,14.89-26.08
			c5.53-1.64,11.44-0.91,16.07,2.66c4.78,3.7,7.84,9.7,8.07,15.73c0.22,5.72-2.25,11.59-7.22,14.68c-4.78,2.98-10.99,2.6-15.76-0.21
			c-4.93-2.9-7.89-8.22-8.8-13.76c-1.01-6.12,0.88-12.44,4.1-17.63c2.64-4.24,7.61-10.24,13.29-8.56c4.62,1.36,6.91,6.97,5.81,11.38
			c-1.28,5.15-5.92,9.46-10.87,11.11c-2.54,0.84-5.6,1.13-7.59-1.02c-1.94-2.1-2.4-5.31-2.46-8.05c-0.08-3.52,0.55-7.03,1.38-10.45
			c0.56-2.3,1.47-5.41,3.85-6.18c0.75-0.24,1.64-0.26,2.19,0.01c0.59,0.29,0.84,0.86,0.65,1.57c-0.6,2.3-3.47,2.08-5.1,0.87
			c-1.93-1.43-3.17-4.46-3.08-6.69c0.01-0.34,0.04-0.72,0.22-1.13c-0.12,0.28,0.17-0.41,0.06-0.09c0.28-0.8,0.2,0.08,0.08-0.07
			c0.23,0.27,0.45,0.43,0.24,0.95c-0.97,2.39-5.16,0.21-5.86-1.33c-0.86-1.92,1.31-3.83,3.12-4.11c4.88-0.76,11.03,4.26,10.36,9.41
			c-0.36,2.8-2.91,4.85-4.91,6.58c-2.41,2.07-5.05,3.88-7.82,5.43c-2.9,1.63-5.94,2.95-9.12,3.95c-3.13,0.99-6.32,1.71-8.77,4.04
			c-1.89,1.79-3.06,4.15-4.67,6.16c-1.39,1.73-3.11,2.93-5.28,2.06c-5.48-2.18-3.28-9.12,0.38-11.89c2.42-1.83,5.48-2.69,8.44-3.13
			c2.22-0.33,6.06-0.93,7.4,1.46c0.58,1.04-0.13,1.88-0.82,2.68c-1.06,1.23-2.21,2.38-3.41,3.47c-2.25,2.04-4.73,3.79-7.38,5.27
			c-2.65,1.48-5.44,2.65-8.36,3.49c-1.2,0.35-2.69,0.89-3.95,0.59c-0.92-0.22-1.07-0.92-1.08-1.76c-0.02-2.37,1.32-4.71,2.46-6.71
			c1.39-2.44,3.06-4.68,4.99-6.7c3.78-3.95,8.44-7.03,13.62-8.82c-0.81-1.39-1.62-2.79-2.43-4.18
			c-6.16,7.28-14.16,12.84-23.19,15.93c0.81,1.39,1.62,2.79,2.43,4.18c3.85-4.94,8.56-9.06,14-12.17c-1.01-1.31-2.02-2.62-3.03-3.93
			c-4.35,3.83-9.29,6.91-14.6,9.23c1.01,1.31,2.02,2.62,3.03,3.93c6.1-5.09,13.83-8.47,21.73-9.38c1.03-0.12,2.07-0.2,3.1-0.24
			c0.15-0.01,2.14,0.05,2.08,0.13c-0.18,0.28-0.38-0.5-0.39-0.5c-0.3-0.19,0.04-0.25-0.19,0.15c-0.2,0.35-0.33,0.76-0.52,1.12
			c-0.51,1-1.1,1.96-1.74,2.89c-2.4,3.45-5.64,6.33-8.71,9.16c-3.93,3.63-7.99,7.12-12.17,10.46c1.18,1.18,2.36,2.36,3.54,3.54
			c5.44-4.74,11.21-9.07,17.3-12.93c3.01-1.91,6.08-3.71,9.22-5.4c1.57-0.84,3.15-1.66,4.75-2.44c0.81-0.4,1.63-0.83,2.47-1.17
			c0.35-0.14,1.24-0.57,1.66-0.38c-0.38-0.94-0.77-1.88-1.15-2.82c-0.31,1.69-1.47,2.81-2.68,3.96c-1.47,1.39-2.98,2.74-4.48,4.1
			c-3.16,2.86-6.37,5.66-9.62,8.42c-6.45,5.48-13.06,10.78-19.83,15.87c1.01,1.31,2.02,2.62,3.03,3.93
			c6.24-6.2,13.15-11.67,20.64-16.28c3.74-2.3,7.61-4.39,11.59-6.24c1.93-0.9,3.88-1.76,5.86-2.53c2.04-0.79,4.2-1.57,6.37-0.89
			c-0.61-0.8-1.22-1.61-1.84-2.41c0.05,1.41-1.38,2.46-2.32,3.33c-1.45,1.33-2.92,2.64-4.4,3.93c-2.98,2.59-6.04,5.1-9.18,7.5
			c-6.32,4.83-12.92,9.28-19.75,13.34c1.01,1.31,2.02,2.62,3.03,3.93c6.48-5.66,13.66-10.47,21.33-14.36
			c3.74-1.9,7.58-3.56,11.53-4.97c2.01-0.72,4.03-1.38,6.08-1.97c1.06-0.31,2.13-0.65,3.21-0.87c0.35-0.07,0.72-0.05,1.07-0.12
			c-0.02-0.12,0.09-0.1,0.31,0.06c-0.36-0.25-0.39-0.23-0.07,0.07c-0.21-0.81-0.43-1.62-0.64-2.43c-0.44,1.72-1.67,2.9-3,4
			c-1.53,1.27-3.2,2.37-4.82,3.53c-3.77,2.69-7.57,5.33-11.41,7.92c-7.67,5.18-15.49,10.14-23.43,14.9
			c1.22,0.94,2.45,1.88,3.67,2.82c0.26-0.92,1.02-1.54,1.75-2.11c1.04-0.81,2.16-1.54,3.25-2.28c2.39-1.61,4.83-3.13,7.33-4.57
			c4.87-2.8,9.94-5.27,15.16-7.32c1.33-0.53,14.45-5.52,14.73-3.9c0.04,0.22-0.72,0.84-0.92,1.03c-1.02,1-2.08,1.96-3.16,2.89
			c-1.99,1.74-4.07,3.37-6.22,4.9c-4.43,3.13-9.15,5.84-14.09,8.08c-1.17,0.53-2.35,1.03-3.55,1.49c-0.6,0.23-1.21,0.49-1.82,0.68
			c-0.31,0.1-0.54,0.13-0.55,0.21c0.07,0.02,0.13,0.06,0.19,0.11c0.25,0.53,0.34,0.65,0.25,0.36c0,0-0.05,0.05,0.02-0.25
			c-0.03,0.14-0.06,0.25,0.07-0.19c0.1-0.35,0.24-0.62,0.44-0.98c0.51-0.88,1.45-1.71,2.23-2.47c7.06-6.9,16.58-11.5,26.42-12.57
			c2.57-0.28,5.36-0.55,7.88,0.2c1.71,0.51,3.54,1.94,3.33,3.92c-0.24,2.31-2.2,4.39-3.76,5.95c-1.8,1.8-3.84,3.29-6.01,4.62
			c-2.19,1.35-4.48,2.53-6.78,3.67c-2.47,1.22-4.96,2.43-7.65,3.08c-4.2,1.02-9.37,0.07-10.72-4.61c-1.24-4.27,0.42-9.03,2.41-12.8
			c2.2-4.17,5.35-7.91,9.2-10.66c3.94-2.81,9.07-5.38,14.01-3.99c4.58,1.28,6.39,5.69,5.28,10.11c-1.21,4.79-5.28,8.24-9.17,10.96
			c-4.39,3.07-9.13,5.71-14.3,7.19c-8.46,2.42-19.3,1.13-24.71-6.65c-6.33-9.11-1.47-20.62,5.27-27.93
			c6.67-7.24,15.99-12.67,26.11-11.91c4.42,0.33,8.98,1.95,12.38,4.84c3.77,3.21,5.98,7.68,6.77,12.53
			c1.62,10.02-3.7,19.83-10.77,26.55c-6.79,6.45-15.97,10.64-25.35,11.18c-8.52,0.5-19.42-1.95-24.06-9.89
			c-5.69-9.72,2.75-21.13,9-28.22c5.92-6.72,14.25-12.9,23.71-10.82c3.81,0.84,7.31,2.9,9.18,6.42c2.33,4.39,1.52,9.96-0.64,14.24
			c-2.39,4.72-6.18,8.52-10.12,11.97c-3.97,3.48-8.46,6.65-13.59,8.1c-4.6,1.29-9.64,1.11-13.81-1.39
			c-2.77-1.66-5.28,2.66-2.52,4.32c5.4,3.24,12.1,3.56,18.06,1.78c6.17-1.84,11.48-5.72,16.21-9.98c4.67-4.21,8.98-9.01,11.29-14.95
			c2.19-5.66,2.21-12.64-1.27-17.8c-2.86-4.25-7.58-6.93-12.6-7.73c-5.49-0.87-10.84,0.14-15.76,2.72
			c-5.26,2.76-9.63,7.04-13.36,11.6c-4.06,4.97-8.04,10.43-9.71,16.72c-1.69,6.36-0.75,13.03,3.48,18.18
			c3.59,4.37,9,7.11,14.39,8.54c10.88,2.89,22.7,0.65,32.34-4.94c10.11-5.86,18.81-16.1,20.73-27.88
			c0.99-6.03,0.24-12.27-2.55-17.75c-2.71-5.32-7.35-9.21-12.85-11.42c-11.31-4.53-23.65-0.78-32.87,6.49
			c-9.62,7.59-17.63,20.1-14.21,32.79c3.07,11.4,15.3,17.37,26.46,16.34c6.36-0.59,12.38-2.92,17.87-6.14
			c5.25-3.08,10.75-6.9,13.91-12.24c3.04-5.12,3.46-12.11-0.55-16.84c-4.17-4.93-11.46-5.34-17.14-3.2
			c-10.77,4.07-19.93,14.69-21.38,26.25c-0.74,5.87,1.44,11.86,7.21,14.24c6.25,2.58,12.7-0.04,18.38-2.82
			c5.35-2.62,10.77-5.52,14.9-9.91c2.22-2.36,4.3-5.19,4.63-8.5c0.32-3.17-1.41-6.01-3.97-7.76c-2.73-1.86-6.2-2.14-9.41-1.99
			c-3.01,0.14-6.02,0.56-8.96,1.24c-5.7,1.32-11.23,3.68-16.12,6.88c-2.46,1.61-4.79,3.43-6.94,5.44c-1.98,1.86-4.12,3.89-4.75,6.64
			c-0.73,3.16,1.25,6.23,4.72,5.94c1.63-0.14,3.24-0.93,4.74-1.55c1.52-0.62,3.03-1.28,4.51-1.98c5.75-2.71,11.16-6.07,16.19-9.97
			c2.48-1.92,4.89-3.95,7.13-6.15c1-0.98,1.94-2.11,2.27-3.51c0.41-1.78-0.26-3.63-1.6-4.83c-2.81-2.5-6.5-1.43-9.71-0.48
			c-3.11,0.93-6.19,1.98-9.22,3.16c-5.98,2.33-11.79,5.09-17.34,8.32c-2.74,1.6-5.43,3.3-8.03,5.11c-2.47,1.71-5.16,3.43-6.02,6.49
			c-0.59,2.09,1.8,3.95,3.67,2.82c6.91-4.14,13.73-8.44,20.45-12.9c6.68-4.44,13.47-8.89,19.77-13.86c1.32-1.04,2.51-2.21,3.45-3.61
			c1.05-1.58,2.07-3.93,0.54-5.51c-2.66-2.75-7-0.99-10.08-0.06c-6.94,2.08-13.68,4.88-20.06,8.29
			c-7.27,3.89-14.06,8.64-20.27,14.06c-2.16,1.89,0.62,5.36,3.03,3.93c7.41-4.41,14.53-9.28,21.34-14.56c3.35-2.6,6.62-5.3,9.8-8.1
			c2.87-2.53,7.15-5.46,7-9.75c-0.04-1.14-0.75-2.07-1.84-2.41c-3.93-1.23-7.81,0.35-11.41,1.86c-3.47,1.45-6.87,3.05-10.19,4.82
			c-6.51,3.47-12.65,7.58-18.4,12.19c-3.26,2.61-6.38,5.41-9.34,8.36c-0.88,0.87-0.96,2.32-0.2,3.28c0.7,0.88,2.22,1.4,3.23,0.64
			c7.23-5.44,14.31-11.09,21.2-16.96c3.36-2.87,6.68-5.78,9.96-8.75c2.92-2.64,6.98-5.5,7.74-9.63c0.18-1-0.1-2.35-1.15-2.82
			c-3.99-1.81-8.04,0.94-11.56,2.74c-3.57,1.83-7.05,3.81-10.46,5.93c-6.86,4.27-13.36,9.12-19.45,14.43
			c-1.02,0.89-0.91,2.63,0,3.54c1.04,1.04,2.48,0.85,3.54,0c4.24-3.39,8.36-6.93,12.35-10.62c3.69-3.42,7.48-6.93,10.13-11.25
			c1.29-2.09,3.02-4.99,1.83-7.46c-1.11-2.29-3.69-2.72-6-2.63c-4.85,0.18-9.7,1.12-14.25,2.79c-5.25,1.93-10.04,4.72-14.33,8.31
			c-0.94,0.79-0.91,2.39-0.2,3.28c0.83,1.05,2.05,1.16,3.23,0.64c5.71-2.5,10.94-5.9,15.61-10.01c2.17-1.91-0.61-5.31-3.03-3.93
			c-5.79,3.3-10.92,7.69-15.01,12.95c-0.69,0.89-1,1.99-0.39,3.03c0.53,0.91,1.78,1.5,2.82,1.15c9.83-3.35,18.68-9.28,25.4-17.21
			c0.73-0.86,0.98-2.01,0.39-3.03c-0.53-0.91-1.79-1.51-2.82-1.15c-6.69,2.32-12.75,6.37-17.33,11.78c-2.32,2.75-4.32,5.77-5.8,9.05
			c-1.37,3.04-2.52,6.93-0.62,10.03c2.28,3.72,6.75,3.23,10.37,2.19c3.64-1.05,7.18-2.58,10.44-4.5c3.26-1.92,6.31-4.27,8.98-6.95
			c2.85-2.85,5.81-6.29,3.71-10.49c-1.91-3.82-6.38-4.77-10.28-4.44c-3.93,0.33-7.95,1.19-11.38,3.22
			c-6.39,3.79-10.23,12.71-4.76,18.92c2.29,2.6,6.14,4.05,9.53,3.04c3.27-0.98,5.28-3.72,7.1-6.41c0.78-1.15,1.54-2.3,2.55-3.26
			c1.25-1.19,2.91-1.68,4.53-2.16c3.81-1.12,7.51-2.51,11.04-4.35c3.51-1.84,6.79-4.09,9.82-6.65c2.87-2.42,5.91-5.33,6.55-9.21
			c1.27-7.72-5.6-14.68-12.95-15.55c-3.83-0.45-7.89,1.14-9.66,4.73c-1.84,3.74-0.51,7.6,2.86,9.9c3.36,2.3,8.27,2.52,10.99-0.88
			c2.55-3.19,1.23-8.3-3-9.18c-4.12-0.86-6.5,3.22-6.31,6.81c0.18,3.52,1.87,7.43,4.64,9.67c3.1,2.52,7.76,3.26,11,0.55
			c2.73-2.28,3.51-6.54,1.23-9.39c-2.24-2.79-6.3-2.95-9.33-1.47c-3.43,1.67-5.02,5.59-5.87,9.08c-1.02,4.19-1.81,8.64-1.51,12.96
			c0.26,3.81,1.28,7.91,4.13,10.66c5.96,5.75,15.2,1.86,20.47-2.84c5.32-4.75,8.27-12.28,5.38-19.13c-1.27-3.02-3.52-5.78-6.49-7.26
			c-3.42-1.7-7.14-1.59-10.61-0.09c-3.51,1.52-6.26,4.36-8.54,7.35c-2.36,3.11-4.21,6.6-5.43,10.31
			c-2.39,7.27-1.93,15.39,1.81,22.13c3.64,6.55,10.21,10.89,17.7,11.45c7.41,0.55,14.33-3.34,18.05-9.7
			c4.14-7.07,3.67-15.87,0.04-23.03c-3.23-6.39-9.35-11.67-16.53-12.87c-7.71-1.3-15.64,1.35-21.48,6.46
			c-5.25,4.58-8.71,11.33-9.11,18.31c-0.42,7.33,3.24,13.99,8.58,18.79c10.65,9.59,28.03,15.28,41.45,8.24
			c3.29-1.73,6.4-4.31,8.12-7.66c1.77-3.44,2-7.35,1.13-11.08c-1.72-7.38-7.34-13.52-13.56-17.54c-13.1-8.45-30.41-7.27-42.43,2.56
			c-5.64,4.61-9.94,11.7-10,19.13c-0.06,8.01,5.35,14.3,11.58,18.67c6.52,4.57,14.63,7.14,22.59,5.82
			c6.58-1.09,13.03-5.49,15.92-11.58c3.51-7.4,1.39-15.85-3.04-22.38c-4.07-6.01-9.95-10.62-16.77-13.11
			c-13.58-4.96-30.77,0.68-37.29,14.02c-1.69,3.45-2.71,7.36-2.38,11.22c0.35,4.06,2.01,7.64,4.55,10.79
			c2.38,2.96,5.4,5.37,8.49,7.56c3.18,2.26,6.7,4.22,10.5,5.19c7.63,1.96,15.8-0.67,21.29-6.22c4.76-4.81,7.33-11.53,7.53-18.25
			c0.41-14.28-10.98-26.3-24.78-28.55c-14.32-2.34-29.55,5.98-35.68,19.12c-1.77,3.8-2.69,7.88-2.04,12.07
			c0.6,3.87,2.78,7.44,5.56,10.14c5.4,5.26,13.35,7.75,20.81,6.9c7.62-0.87,14.87-4.64,20-10.34c5.05-5.61,8.35-13.63,5.75-21.12
			c-2.46-7.08-8.85-12.43-15.53-15.42c-6.87-3.08-14.69-4.12-22.02-2.11c-13.28,3.65-23.44,18.06-18.94,31.8
			c2.16,6.6,7.08,12.15,13.58,14.67c7.33,2.84,15.81,0.58,22.06-3.77c6.47-4.51,11.74-11.12,15.7-17.89
			c2.01-3.45,3.67-7.23,4.26-11.21c0.62-4.22,0.01-8.28-1.74-12.17c-6.45-14.24-24.08-20.96-38.66-16.64
			c-7.37,2.19-13.85,6.92-17.93,13.47c-3.77,6.06-5.3,13.67-3.18,20.58c2.02,6.58,6.86,12.18,13.3,14.72
			c7.45,2.94,16.06,0.5,22.24-4.16c3.19-2.41,5.9-5.27,8.33-8.44c2.39-3.11,4.71-6.46,5.84-10.26c2.41-8.1-1.89-16.29-7.85-21.62
			c-10.93-9.76-29.15-17.73-41.99-6.92c-5.87,4.94-7.49,12.74-4.44,19.71c2.93,6.68,9.59,11.44,16.75,12.52
			c7.1,1.07,15.09-1.02,19.25-7.27c2-3,2.5-6.93,1.26-10.32c-1.3-3.59-3.9-6.4-6.9-8.67c-5.43-4.12-13.62-7.38-20.29-4.49
			c-6.98,3.02-8.45,11.89-5.88,18.39c2.7,6.81,9.77,11.85,17.23,9.36c3.52-1.18,6.65-4.04,7.23-7.84c0.58-3.76-1.47-7.13-4.26-9.49
			c-2.75-2.32-6.22-4.39-9.84-4.84c-3.63-0.45-7.01,1.5-8.08,5.07c-0.93,3.12,0.08,6.59,2.19,8.99c2.45,2.79,6.12,4.09,9.54,5.24
			C372.56,398.06,373.88,393.23,370.84,392.21L370.84,392.21z"/>
	</g>
</g>
<g>
	<g>
		<path class="st0" d="M220.8,344.11c0.13,0.3-0.05-0.16-0.08-0.26c-0.06-0.16-0.11-0.33-0.16-0.5c-0.11-0.38-0.2-0.76-0.27-1.15
			c-0.02-0.12-0.06-0.39-0.03-0.11c-0.03-0.22-0.04-0.44-0.06-0.65c-0.02-0.39-0.03-0.79-0.01-1.18c0.01-0.17,0.02-0.35,0.03-0.52
			c0.01-0.09,0.02-0.17,0.03-0.26c-0.03,0.19-0.03,0.19,0,0.02c0.07-0.39,0.15-0.77,0.26-1.15c0.05-0.17,0.1-0.34,0.15-0.5
			c0.02-0.06,0.23-0.63,0.15-0.44c-0.06,0.15,0.11-0.24,0.13-0.29c0.08-0.17,0.17-0.34,0.26-0.51c0.15-0.27,0.31-0.53,0.48-0.79
			c-0.01,0.01,0.37-0.53,0.21-0.31c-0.14,0.2,0.13-0.16,0.16-0.2c0.45-0.53,0.94-1.01,1.47-1.46c0.2-0.18-0.23,0.15,0.13-0.1
			c0.13-0.09,0.25-0.18,0.38-0.26c0.29-0.19,0.59-0.37,0.89-0.53c0.17-0.09,0.34-0.18,0.51-0.26c0.17-0.09,0.28-0.12,0.04-0.02
			c0.36-0.14,0.72-0.26,1.09-0.37c1.25-0.37,2.17-1.78,1.75-3.08c-0.41-1.27-1.73-2.14-3.08-1.75c-3.56,1.04-6.73,3.51-8.46,6.82
			c-2.04,3.9-2.02,8.35-0.3,12.34c0.52,1.21,2.38,1.57,3.42,0.9C221.15,346.72,221.36,345.4,220.8,344.11L220.8,344.11z"/>
	</g>
</g>
<g>
	<g>
		<path class="st0" d="M241.28,339.06c1.79,2.04,3.19,3.56,4.39,6.04c0.06,0.11,0.11,0.23,0.16,0.34c-0.08-0.21-0.07-0.18,0.04,0.1
			c0.12,0.32,0.23,0.63,0.33,0.96c0.1,0.32,0.18,0.65,0.24,0.98c0.03,0.16,0.06,0.33,0.09,0.5c-0.03-0.21-0.03-0.22-0.01-0.04
			c0.03,0.63,0.07,1.24,0,1.86c0.05-0.48-0.1,0.46-0.13,0.55c-0.08,0.32-0.19,0.63-0.31,0.94c-0.47,1.22,0.52,2.8,1.75,3.08
			c1.43,0.33,2.57-0.44,3.08-1.75c1.21-3.13,0.63-6.6-0.71-9.59c-1.26-2.83-3.36-5.2-5.39-7.51c-0.87-0.99-2.66-0.95-3.54,0
			C240.31,336.57,240.36,338.01,241.28,339.06L241.28,339.06z"/>
	</g>
</g>
<g>
	<g>
		<path class="st0" d="M261.32,330.21c1.13,0.53,2.21,1.15,3.22,1.87c0.1,0.07,0.2,0.15,0.3,0.22c0.49,0.36-0.26-0.22,0.01,0.01
			c0.24,0.2,0.48,0.39,0.72,0.6c0.47,0.41,0.92,0.84,1.34,1.29c0.19,0.2,0.38,0.41,0.56,0.63c0.01,0.01,0.4,0.47,0.16,0.19
			c-0.24-0.27,0.09,0.14,0.14,0.2c0.17,0.26,0.32,0.53,0.47,0.81c0.22,0.4-0.07-0.28,0,0c0.03,0.15,0.1,0.3,0.13,0.45
			c0.02,0.09,0.12,0.56,0.03,0.13c-0.08-0.41-0.02,0.05-0.02,0.14c0,0.1-0.03,0.22-0.01,0.32c0.06-0.38,0.07-0.47,0.03-0.28
			c-0.01,0.08-0.03,0.15-0.05,0.23c-0.02,0.09-0.09,0.2-0.09,0.3c0.03-0.4,0.18-0.37,0.02-0.11c-0.27,0.45,0.02-0.09,0.08-0.07
			c-0.01-0.01-0.32,0.3-0.34,0.32c-1.01,0.84-0.93,2.68,0,3.54c1.07,0.99,2.46,0.9,3.54,0c1.29-1.07,1.92-2.91,1.82-4.55
			c-0.12-1.96-1.07-3.6-2.3-5.07c-1.93-2.31-4.5-4.2-7.23-5.47c-1.18-0.55-2.75-0.37-3.42,0.9
			C259.84,327.89,260.05,329.62,261.32,330.21L261.32,330.21z"/>
	</g>
</g>
<g>
	<g>
		<path class="st0" d="M255.85,307.6c-3.06,1.18-5.68,3.39-7.12,6.38c-1.42,2.94-2.58,8.39,1.66,9.63c1.25,0.37,2.78-0.44,3.08-1.75
			c0.3-1.34-0.4-2.68-1.75-3.08c-0.19-0.06-0.17-0.05,0.06,0.03c0.19,0.05,0.36,0.16,0.49,0.31c-0.24-0.22,0.12,0.16,0.15,0.21
			c-0.23-0.37,0.13,0.56,0.04,0.11c-0.02-0.11-0.05-0.23-0.08-0.34c-0.09-0.28,0.02,0.6,0.03,0.17c0-0.12-0.01-0.23,0-0.35
			c0-0.12,0.02-0.24,0.03-0.37c0.04-0.57-0.11,0.58,0,0.02c0.1-0.53,0.23-1.05,0.4-1.57c0.04-0.13,0.1-0.25,0.14-0.38
			c0.1-0.29-0.23,0.49-0.03,0.07c0.13-0.27,0.26-0.54,0.4-0.8c0.13-0.24,0.27-0.47,0.42-0.69c0.08-0.11,0.16-0.22,0.23-0.33
			c0.31-0.45-0.25,0.3-0.05,0.05c0.37-0.43,0.74-0.85,1.17-1.24c0.1-0.09,0.2-0.18,0.31-0.27c0.29-0.24,0.15-0.06-0.06,0.04
			c0.23-0.11,0.45-0.32,0.67-0.46c0.25-0.16,0.51-0.3,0.78-0.44c0.12-0.06,0.24-0.12,0.36-0.18c0.45-0.21-0.5,0.2,0,0
			c1.22-0.47,2.19-1.7,1.75-3.08C258.54,308.16,257.16,307.1,255.85,307.6L255.85,307.6z"/>
	</g>
</g>
<g>
	<g>
		<path class="st0" d="M278.69,329.51c2.69,1.72,5.61,3.65,5.97,6.86c0.37,3.28-1.46,6-4.2,7.56c-2.8,1.59-0.28,5.91,2.52,4.32
			c4.18-2.37,7.1-6.97,6.68-11.88c-0.23-2.64-1.26-4.98-3.02-6.96c-1.52-1.71-3.51-2.99-5.43-4.22c-1.14-0.73-2.76-0.23-3.42,0.9
			C277.08,327.3,277.55,328.78,278.69,329.51L278.69,329.51z"/>
	</g>
</g>
<g>
	<g>
		<path class="st0" d="M259.69,365.72c-5.65,2.63-12.47,2.2-17.84-0.92c-2.79-1.62-5.31,2.7-2.52,4.32
			c6.99,4.06,15.59,4.32,22.88,0.92c1.22-0.57,1.53-2.33,0.9-3.42C262.37,365.36,260.92,365.15,259.69,365.72L259.69,365.72z"/>
	</g>
</g>
<g>
	<g>
		<path class="st0" d="M232.31,353.19c-1.42,6.66,1.35,13.58,6.91,17.47c1.07,0.75,2.83,0.23,3.42-0.9c0.68-1.28,0.25-2.62-0.9-3.42
			c-0.05-0.03-0.52-0.38-0.27-0.18c0.23,0.17-0.13-0.1-0.17-0.14c-0.25-0.2-0.48-0.42-0.72-0.64c-0.46-0.44-0.89-0.92-1.29-1.42
			c0.31,0.39,0-0.01-0.05-0.09c-0.08-0.12-0.16-0.23-0.24-0.35c-0.18-0.27-0.35-0.54-0.5-0.82c-0.18-0.31-0.34-0.63-0.5-0.95
			c-0.06-0.13-0.12-0.26-0.18-0.39c0.15,0.32,0.05,0.11-0.03-0.09c-0.23-0.6-0.42-1.21-0.57-1.84c-0.08-0.31-0.14-0.63-0.2-0.94
			c-0.02-0.14-0.05-0.28-0.07-0.42c0.05,0.36,0.03,0.17,0-0.08c-0.06-0.64-0.07-1.28-0.04-1.92c0.02-0.32,0.05-0.64,0.08-0.96
			c-0.02,0.23-0.05,0.3,0,0.03c0.04-0.21,0.08-0.42,0.12-0.63c0.27-1.28-0.38-2.76-1.75-3.08
			C234.13,351.16,232.6,351.82,232.31,353.19L232.31,353.19z"/>
	</g>
</g>
<g>
	<g>
		<path class="st0" d="M253.54,384.57c1.48,0.7,3.02,1.11,4.67,1.14c1.65,0.03,3.19-0.37,4.69-1.02c0.53-0.23,1-0.96,1.15-1.49
			c0.16-0.6,0.09-1.4-0.25-1.93c-0.34-0.53-0.86-1-1.49-1.15c-0.22-0.03-0.44-0.06-0.66-0.09c-0.45,0-0.87,0.12-1.26,0.34
			c-0.04,0.02-0.07,0.03-0.11,0.05c0.2-0.08,0.4-0.17,0.6-0.25c-0.64,0.27-1.31,0.45-2,0.55c0.22-0.03,0.44-0.06,0.66-0.09
			c-0.77,0.1-1.54,0.1-2.3,0c0.22,0.03,0.44,0.06,0.66,0.09c-0.69-0.1-1.36-0.28-2-0.54c0.2,0.08,0.4,0.17,0.6,0.25
			c-0.14-0.06-0.28-0.12-0.42-0.19c-0.62-0.29-1.25-0.44-1.93-0.25c-0.58,0.16-1.21,0.61-1.49,1.15c-0.31,0.58-0.46,1.28-0.25,1.93
			C252.58,383.67,252.96,384.3,253.54,384.57L253.54,384.57z"/>
	</g>
</g>
<g>
	<g>
		<path class="st0" d="M269.35,368.99c3.31-1.9,7.02-2.9,10.84-2.76c0.62,0.02,1.29,0.09,1.8,0.48c-0.42-0.32,0.27,0.35-0.06-0.06
			c0.04,0.05,0.32,0.59,0.2,0.32c-0.1-0.21,0.02,0.38-0.03-0.07c0.05-0.25,0.05-0.27,0-0.08c-0.04,0.15-0.05,0.17-0.03,0.07
			c-0.23,0.29-0.25,0.35-0.59,0.73c-0.3,0.34-0.62,0.66-0.95,0.96c-0.63,0.57-1.23,0.99-2.14,1.5c-1.18,0.66-1.57,2.27-0.9,3.42
			c0.69,1.19,2.24,1.56,3.42,0.9c2.29-1.28,4.89-3.35,5.87-5.87c1.19-3.09-1.13-6.07-4.04-6.94c-2.6-0.78-5.73-0.36-8.34,0.17
			c-2.65,0.54-5.23,1.56-7.58,2.9c-1.17,0.67-1.57,2.26-0.9,3.42C266.61,369.27,268.17,369.66,269.35,368.99L269.35,368.99z"/>
	</g>
</g>
<g>
	<g>
		<path class="st0" d="M293.33,350.62c0.26,0.19,0.52,0.37,0.78,0.56c0.16,0.12,0.37,0.3,0.1,0.07c0.11,0.09,0.23,0.18,0.34,0.27
			c0.27,0.23,0.54,0.47,0.8,0.73c0.1,0.1,0.2,0.2,0.3,0.31c0.04,0.05,0.43,0.48,0.21,0.23c-0.21-0.25,0.17,0.24,0.17,0.25
			c0.07,0.11,0.15,0.23,0.21,0.35c0.03,0.06,0.26,0.58,0.14,0.25c-0.11-0.29,0.03,0.13,0.05,0.18c0.05,0.16,0.09,0.33,0.12,0.5
			c-0.05-0.29-0.01-0.13-0.02,0.07c0-0.01-0.04,0.66-0.01,0.45c0.03-0.21-0.11,0.45-0.1,0.44c-0.04,0.17-0.1,0.34-0.15,0.51
			c-0.02,0.06-0.26,0.71-0.14,0.4c0.1-0.26-0.08,0.16-0.1,0.21c-0.08,0.17-0.16,0.33-0.25,0.49c-0.16,0.29-0.33,0.58-0.51,0.86
			c-0.1,0.15-0.21,0.31-0.31,0.46c-0.12,0.17-0.18,0.2-0.01,0.02c-0.47,0.53-0.93,1.04-1.47,1.5c-0.04,0.03-0.39,0.31-0.18,0.15
			c0.24-0.19-0.24,0.16-0.28,0.2c-0.31,0.21-0.62,0.4-0.95,0.58c-1.14,0.64-1.62,2.3-0.9,3.42c0.75,1.16,2.2,1.58,3.42,0.9
			c3.25-1.81,6.06-5.15,6.76-8.88c0.39-2.08,0.03-4.19-1.24-5.92c-1.16-1.58-2.66-2.75-4.24-3.88c-1.07-0.76-2.83-0.22-3.42,0.9
			C291.75,348.49,292.19,349.81,293.33,350.62L293.33,350.62z"/>
	</g>
</g>
<g>
	<g>
		<path class="st0" d="M307.63,359.62c0.1,0.18,0.19,0.36,0.27,0.55c-0.08-0.2-0.17-0.4-0.25-0.6c0.17,0.42,0.29,0.86,0.35,1.31
			c-0.03-0.22-0.06-0.44-0.09-0.66c0.06,0.49,0.06,0.98,0,1.48c0.03-0.22,0.06-0.44,0.09-0.66c-0.07,0.49-0.2,0.97-0.39,1.42
			c0.08-0.2,0.17-0.4,0.25-0.6c-0.17,0.37-0.37,0.72-0.62,1.04c0.13-0.17,0.26-0.34,0.39-0.51c-0.27,0.34-0.57,0.65-0.92,0.92
			c0.17-0.13,0.34-0.26,0.51-0.39c-0.38,0.29-0.78,0.53-1.22,0.72c0.2-0.08,0.4-0.17,0.6-0.25c-0.44,0.18-0.89,0.31-1.36,0.39
			c0.22-0.03,0.44-0.06,0.66-0.09c-0.35,0.05-0.71,0.06-1.06,0.04c-1.31-0.07-2.56,1.2-2.5,2.5c0.06,1.42,1.1,2.42,2.5,2.5
			c2.76,0.16,5.43-1.32,6.93-3.6c1.57-2.37,1.53-5.6,0.17-8.04c-0.64-1.14-2.3-1.62-3.42-0.9
			C307.37,356.95,306.95,358.4,307.63,359.62L307.63,359.62z"/>
	</g>
</g>
<g>
	<g>
		<path class="st0" d="M314.8,321.51c0.1-1.03,0.04-2.06,0.03-3.1c-0.01-0.48,0.02-0.96,0.04-1.44c0.02-0.55-0.11,0.47,0-0.04
			c0.05-0.23,0.09-0.46,0.16-0.69c0.04-0.14,0.07-0.4,0.17-0.5c-0.13,0.3-0.16,0.37-0.08,0.2c0.04-0.08,0.08-0.15,0.12-0.23
			c0.06-0.1,0.12-0.2,0.18-0.29c-0.21,0.25-0.25,0.31-0.13,0.17c0.11-0.11,0.27-0.38,0.43-0.42c-0.07,0.06-0.14,0.12-0.22,0.18
			c0.1-0.07,0.21-0.13,0.32-0.19c0.43-0.28-0.38,0.07,0.09-0.03c0.23-0.05,0.49-0.17,0.73-0.16c-0.1,0.01-0.19,0.03-0.29,0.04
			c0.13-0.01,0.25-0.02,0.38-0.02c0.41-0.02,0.82,0,1.23,0.04c0.1,0.01,0.19,0.02,0.29,0.03c0.29,0.03,0.26,0.03-0.07-0.01
			c0.14-0.03,0.45,0.07,0.59,0.1c0.46,0.09,0.89,0.23,1.34,0.36c0.5,0.15-0.37-0.21,0.13,0.05c0.17,0.09,0.35,0.18,0.52,0.28
			c0.08,0.05,0.64,0.49,0.38,0.25c-0.27-0.25,0.23,0.24,0.28,0.29c0.06,0.06,0.12,0.13,0.18,0.2c0.12,0.14,0.08,0.09-0.12-0.15
			c0.1,0.04,0.22,0.35,0.28,0.45c0.06,0.1,0.11,0.21,0.16,0.32c-0.14-0.33-0.16-0.36-0.07-0.1c0.02,0.1,0.18,0.45,0.12,0.51
			c-0.04-0.35-0.05-0.43-0.04-0.23c0.01,0.09,0.01,0.17,0.01,0.26c-0.02,0.28-0.01,0.23,0.04-0.15c-0.02,0.12-0.05,0.23-0.08,0.34
			c-0.33,1.26,0.42,2.77,1.75,3.08c1.31,0.3,2.72-0.39,3.08-1.75c0.57-2.17-0.11-4.27-1.47-5.97c-1.22-1.52-3.17-2.44-5.05-2.83
			c-1.84-0.38-3.98-0.6-5.79,0.03c-2.1,0.73-3.52,2.36-4.17,4.47c-0.67,2.18-0.23,4.44-0.44,6.67c-0.12,1.31,1.24,2.56,2.5,2.5
			C313.76,323.94,314.67,322.91,314.8,321.51L314.8,321.51z"/>
	</g>
</g>
<g>
	<g>
		<path class="st0" d="M324.47,302.08c0.06,0.36,0,0.06,0-0.14c-0.01-0.19,0.01-0.38,0.01-0.58c0,0.25-0.05,0.21,0.01-0.02
			c0.05-0.19,0.09-0.37,0.15-0.56c0.03-0.09,0.23-0.56,0.04-0.16c0.07-0.14,0.14-0.28,0.21-0.42c0.09-0.17,0.2-0.34,0.31-0.5
			c0.03-0.04,0.3-0.4,0.16-0.22c-0.18,0.21,0.23-0.24,0.27-0.28c0.14-0.14,0.28-0.27,0.43-0.4c0.29-0.26-0.24,0.16,0.1-0.09
			c0.17-0.13,0.36-0.25,0.54-0.36c0.33-0.2,0.68-0.39,1.03-0.55c0.16-0.07,0.16-0.07,0-0.01c0.08-0.03,0.16-0.06,0.24-0.09
			c0.21-0.07,0.41-0.15,0.62-0.21c0.75-0.24,1.52-0.42,2.3-0.55c0.2-0.04,0.41-0.07,0.61-0.1c-0.27,0.04-0.11,0.02,0.07,0
			c0.41-0.03,0.82-0.07,1.23-0.07c0.37,0,0.73,0.02,1.1,0.04c0.28,0.02-0.28-0.07,0.17,0.02c0.16,0.03,0.31,0.06,0.47,0.1
			c0.19,0.05,0.38,0.1,0.57,0.16c0.08,0.03,0.57,0.23,0.18,0.05c0.36,0.17,0.7,0.37,1.03,0.6c1.08,0.75,2.82,0.23,3.42-0.9
			c0.68-1.28,0.25-2.62-0.9-3.42c-1.75-1.22-3.95-1.67-6.05-1.65c-2.09,0.02-4.32,0.41-6.28,1.16c-2.22,0.86-4.1,2.11-5.5,4.06
			c-1.35,1.88-1.77,4.18-1.37,6.43c0.23,1.29,1.87,2.14,3.08,1.75C324.11,304.7,324.71,303.46,324.47,302.08L324.47,302.08z"/>
	</g>
</g>
<g>
	<g>
		<path class="st0" d="M330.92,289.63c6.16-4.47,14.03-3.08,20.99-1.78c1.33,0.25,2.7-0.37,3.08-1.75c0.33-1.22-0.41-2.83-1.75-3.08
			c-8.22-1.54-17.57-2.99-24.84,2.28c-1.09,0.79-1.63,2.17-0.9,3.42C328.13,289.81,329.82,290.43,330.92,289.63L330.92,289.63z"/>
	</g>
</g>
<g>
	<g>
		<path class="st0" d="M366.42,286.59c4.07,1.37,8.23,4.83,7.72,9.58c-0.43,4.09-4.77,6.43-8.38,7.54
			c-3.07,0.94-1.76,5.77,1.33,4.82c5.84-1.8,11.54-5.79,12.05-12.36c0.55-7.05-5.24-12.33-11.39-14.4c-1.28-0.43-2.73,0.5-3.08,1.75
			C364.3,284.88,365.14,286.16,366.42,286.59L366.42,286.59z"/>
	</g>
</g>
<g>
	<g>
		<path class="st0" d="M375.17,314.27c0.49,0.87,0.96,1.75,1.39,2.65c0.2,0.42,0.4,0.84,0.59,1.27c0.08,0.18,0.17,0.36,0.24,0.55
			c-0.23-0.6,0.09,0.22,0.13,0.33c0.72,1.79,1.32,3.63,1.8,5.5c0.33,1.27,1.8,2.16,3.08,1.75c1.3-0.42,2.1-1.72,1.75-3.08
			c-1.04-4.01-2.62-7.89-4.66-11.49c-0.64-1.14-2.3-1.62-3.42-0.9C374.92,311.59,374.48,313.05,375.17,314.27L375.17,314.27z"/>
	</g>
</g>
<g>
	<g>
		<path class="st0" d="M383.11,335.12c-0.22,3.45-4.22,4.9-7.06,5.48c-4.18,0.85-8.55,0.62-12.67-0.43
			c-3.12-0.8-4.45,4.02-1.33,4.82c5.33,1.36,11.09,1.56,16.44,0.18c4.9-1.26,9.28-4.69,9.62-10.05c0.09-1.35-1.21-2.5-2.5-2.5
			C384.18,332.62,383.19,333.77,383.11,335.12L383.11,335.12z"/>
	</g>
</g>
<g>
	<g>
		<path class="st0" d="M345.51,324.63c-3.15,1.36-5.52,4.11-6.71,7.29c-1.29,3.47-0.75,7.56,1.14,10.7c0.67,1.12,2.28,1.64,3.42,0.9
			c1.13-0.73,1.62-2.22,0.9-3.42c-0.19-0.31-0.36-0.63-0.52-0.95c-0.18-0.36,0.11,0.31-0.03-0.07c-0.06-0.15-0.11-0.3-0.16-0.45
			c-0.11-0.34-0.21-0.69-0.29-1.05c-0.03-0.16-0.06-0.32-0.09-0.47c-0.13-0.71-0.02,0.23-0.02-0.17c0-0.69-0.05-1.36,0.02-2.05
			c-0.03,0.27-0.02,0.14,0.02-0.05c0.04-0.2,0.08-0.39,0.13-0.59c0.09-0.34,0.19-0.66,0.31-0.99c0.08-0.22,0.1-0.22,0-0.01
			c0.06-0.13,0.12-0.26,0.19-0.39c0.15-0.29,0.31-0.57,0.48-0.85c0.08-0.12,0.16-0.24,0.24-0.36c0.06-0.08,0.37-0.47,0.06-0.1
			c0.19-0.22,0.37-0.44,0.57-0.65c0.23-0.24,0.46-0.46,0.71-0.67c0.04-0.03,0.39-0.32,0.17-0.15c-0.25,0.19,0.22-0.16,0.27-0.19
			c0.54-0.37,1.12-0.67,1.72-0.93c1.21-0.52,1.57-2.38,0.9-3.42C348.13,324.28,346.8,324.08,345.51,324.63L345.51,324.63z"/>
	</g>
</g>
<g>
	<g>
		<path class="st0" d="M333.3,340.67c-1.24,2.23-2.2,4.78-2.12,7.37c0.08,2.59,1.19,4.99,3.07,6.76c3.66,3.44,9.25,4.77,14.14,4.22
			c1.3-0.14,2.57-1.05,2.5-2.5c-0.06-1.23-1.11-2.66-2.5-2.5c-1.06,0.12-2.11,0.15-3.17,0.08c-0.26-0.02-0.53-0.04-0.79-0.07
			c-0.83-0.09,0.44,0.09-0.38-0.06c-0.52-0.1-1.04-0.2-1.55-0.34c-0.51-0.14-1.02-0.3-1.51-0.48c-0.01,0-0.77-0.32-0.34-0.13
			c-0.2-0.09-0.4-0.18-0.6-0.28c-0.4-0.2-0.79-0.42-1.17-0.66c-0.19-0.12-0.37-0.25-0.55-0.37c-0.58-0.4,0.33,0.31-0.19-0.16
			c-0.33-0.3-0.63-0.61-0.94-0.92c-0.35-0.37,0.15,0.29-0.14-0.18c-0.12-0.18-0.24-0.36-0.35-0.55c-0.06-0.1-0.33-0.68-0.13-0.19
			c-0.09-0.22-0.16-0.45-0.23-0.67c-0.07-0.23-0.12-0.47-0.16-0.71c0.07,0.44,0-0.18,0-0.3c-0.01-0.24,0-0.48,0.01-0.73
			c0.01-0.1,0.1-0.79,0.02-0.31c0.08-0.45,0.18-0.89,0.31-1.32c0.07-0.24,0.15-0.48,0.24-0.71c0.04-0.12,0.09-0.24,0.13-0.35
			c-0.08,0.17-0.08,0.18-0.01,0.02c0.22-0.49,0.47-0.97,0.73-1.44c0.64-1.14,0.31-2.78-0.9-3.42
			C335.54,339.15,333.98,339.45,333.3,340.67L333.3,340.67z"/>
	</g>
</g>
<g>
	<g>
		<path class="st0" d="M362.69,357.62c2.27-0.45,4.54-0.91,6.81-1.36c0.59-0.12,1.2-0.64,1.49-1.15c0.31-0.54,0.45-1.33,0.25-1.93
			c-0.44-1.36-1.7-2.02-3.08-1.75c-2.27,0.45-4.54,0.91-6.81,1.36c-0.59,0.12-1.2,0.64-1.49,1.15c-0.31,0.54-0.45,1.33-0.25,1.93
			C360.05,357.24,361.31,357.9,362.69,357.62L362.69,357.62z"/>
	</g>
</g>
<g>
	<g>
		<path class="st0" d="M381.12,352.13c0.03,0.33,0.04,0.67,0.03,1c-0.01,0.14-0.02,0.28-0.03,0.41c-0.02,0.32,0.11-0.55,0-0.09
			c-0.07,0.33-0.15,0.65-0.26,0.97c-0.03,0.08-0.17,0.55-0.05,0.17c0.12-0.37-0.04,0.07-0.08,0.16c-0.15,0.3-0.32,0.59-0.51,0.86
			c-0.06,0.08-0.37,0.4-0.1,0.15c0.28-0.26-0.06,0.06-0.12,0.13c-0.22,0.25-0.47,0.47-0.72,0.69c-0.34,0.3,0.3-0.19,0.04-0.04
			c-0.14,0.09-0.28,0.19-0.42,0.27c-0.12,0.07-0.25,0.14-0.37,0.2c-0.08,0.04-0.16,0.08-0.24,0.11c-0.17,0.08-0.1,0.05,0.2-0.08
			c-0.09,0.14-0.76,0.24-0.91,0.28c-0.05,0.01-0.39,0.12-0.43,0.09c0.35-0.04,0.43-0.05,0.23-0.03c-0.09,0.01-0.17,0.02-0.26,0.02
			c-0.32,0.02-0.64,0.02-0.96,0.01c-0.08,0-0.36,0.02-0.43-0.04c0.35,0.05,0.43,0.06,0.23,0.03c-0.09-0.01-0.17-0.03-0.26-0.05
			c-0.31-0.07-0.62-0.15-0.92-0.26c-0.4-0.14-0.1-0.13,0.03,0.03c-0.07-0.08-0.37-0.18-0.47-0.23c-0.15-0.08-0.3-0.17-0.45-0.27
			c-0.13-0.08-0.56-0.42-0.06-0.02c-0.54-0.43-1.05-0.73-1.77-0.73c-0.61,0-1.35,0.27-1.77,0.73c-0.83,0.9-1.1,2.67,0,3.54
			c1.67,1.31,3.47,2.06,5.59,2.25c1.83,0.17,3.76-0.28,5.37-1.17c3.14-1.75,5.17-5.5,4.85-9.09c-0.12-1.3-1.07-2.56-2.5-2.5
			C382.36,349.69,380.99,350.74,381.12,352.13L381.12,352.13z"/>
	</g>
</g>
<g>
	<g>
		<path class="st0" d="M396.53,343.22c0.84,0.65,1.01,0.89,1.22,1.84c0.11,0.48,0.04,1.37-0.18,1.82c-0.83,1.65-3.83,2.37-5.75,2.73
			c-4.7,0.88-9.61-0.38-13.48-3.12c-1.1-0.78-2.78-0.2-3.42,0.9c-0.73,1.25-0.21,2.64,0.9,3.42c5.41,3.84,12.62,5.03,19,3.24
			c3.27-0.92,6.51-2.55,7.63-5.98c0.94-2.87,0.03-6.49-2.39-8.36c-1.07-0.83-2.5-1.04-3.54,0
			C395.67,340.54,395.46,342.38,396.53,343.22L396.53,343.22z"/>
	</g>
</g>
<g>
	<g>
		<path class="st0" d="M357.78,313.35c0.01-0.24,0.03-0.47,0.04-0.71c0.03-0.3,0.03-0.32,0.01-0.05c0.02-0.12,0.05-0.24,0.07-0.35
			c0.03-0.08,0.23-0.71,0.13-0.48c-0.16,0.37,0.27-0.61,0.12-0.22c-0.11,0.13-0.08,0.11,0.1-0.08c-0.22,0.16-0.2,0.17,0.05,0.01
			c-0.06,0.03-0.12,0.07-0.18,0.1c-0.3,0.03-0.31,0.04-0.01,0.03c-0.08-0.01-0.15-0.02-0.23-0.03c0.27,0.09,0.29,0.08,0.03-0.02
			c0.09,0.04,0.67,0.35,0.23,0.13c0.05,0.05,0.11,0.11,0.16,0.16c-0.15-0.21-0.15-0.19,0,0.05c-0.08-0.22-0.1-0.24-0.04-0.05
			c0.04,0.18,0.05,0.17,0.02-0.02c0.01,0.08-0.08,0.73,0,0.38c-0.01,0.02-0.25,0.68-0.12,0.4c-0.35,0.72-1.06,1.21-1.77,1.47
			c-1.96,0.72-4.32,0.8-6.23,0.45c-2.39-0.44-4.27-1.28-6.24-2.75c-1.08-0.81-2.79-0.18-3.42,0.9c-0.75,1.28-0.19,2.61,0.9,3.42
			c4.39,3.28,10.63,4.57,15.92,2.94c3.02-0.93,5.58-3.15,5.93-6.43c0.32-3.05-2.04-5.91-5.15-6.01c-3.76-0.12-5.2,3.62-5.33,6.75
			c-0.06,1.35,1.19,2.5,2.5,2.5C356.68,315.85,357.72,314.71,357.78,313.35L357.78,313.35z"/>
	</g>
</g>
<g>
	<g>
		<path class="st0" d="M334.4,304.44c-4.33,5.39-7.41,11.67-8.82,18.45c-0.27,1.32,0.39,2.7,1.75,3.08c1.24,0.34,2.8-0.42,3.08-1.75
			c1.24-5.95,3.79-11.57,7.54-16.24c0.84-1.05,1.03-2.51,0-3.54C337.06,303.57,335.25,303.38,334.4,304.44L334.4,304.44z"/>
	</g>
</g>
<g>
	<g>
		<path class="st0" d="M306.58,303.11c0.12-0.55,0.28-1.09,0.48-1.62c0.2-0.51-0.16,0.33-0.04,0.1c0.06-0.12,0.11-0.25,0.17-0.37
			c0.12-0.24,0.25-0.48,0.38-0.71c0.15-0.25,0.31-0.5,0.47-0.74c0.08-0.11,0.18-0.21,0.24-0.33c-0.08,0.1-0.15,0.19-0.23,0.29
			c0.06-0.07,0.11-0.14,0.17-0.21c0.34-0.42,0.72-0.81,1.11-1.18c0.2-0.18,0.41-0.36,0.61-0.53c0.39-0.32-0.49,0.35-0.08,0.06
			c0.11-0.08,0.22-0.16,0.33-0.23c0.45-0.3,0.91-0.58,1.4-0.82c0.12-0.06,0.24-0.11,0.37-0.17c0.44-0.21-0.52,0.2-0.1,0.04
			c0.25-0.09,0.51-0.19,0.76-0.27c0.56-0.17,1.13-0.29,1.72-0.37c0.57-0.08,1.22-0.68,1.49-1.15c0.31-0.54,0.45-1.33,0.25-1.93
			c-0.2-0.6-0.57-1.19-1.15-1.49c-0.64-0.34-1.22-0.35-1.93-0.25c-5.39,0.74-10.12,5.27-11.27,10.55c-0.28,1.27,0.38,2.76,1.75,3.08
			C304.76,305.15,306.28,304.48,306.58,303.11L306.58,303.11z"/>
	</g>
</g>
<g>
	<g>
		<path class="st0" d="M385.62,312.56c7.39,7.13,9.45,18.34,4.81,27.57c-1.44,2.87,2.87,5.4,4.32,2.52
			c5.64-11.21,3.47-24.88-5.59-33.62C386.84,306.79,383.3,310.32,385.62,312.56L385.62,312.56z"/>
	</g>
</g>
<g>
	<g>
		<path class="st0" d="M240.78,378.03c-0.66,9.81,4.4,19.52,12.63,24.81c2.72,1.74,5.23-2.58,2.52-4.32
			c-6.82-4.38-10.7-12.44-10.16-20.49c0.09-1.35-1.21-2.5-2.5-2.5C241.85,375.53,240.87,376.67,240.78,378.03L240.78,378.03z"/>
	</g>
</g>
<g>
	<g>
		<path class="st0" d="M264.64,351.06c0.61,0.06,1.21,0.12,1.82,0.19c0.06,0.01,0.13,0.02,0.19,0.02c0.19,0.02,0.13,0.02-0.19-0.03
			c0.02-0.03,0.34,0.05,0.38,0.06c0.32,0.05,0.63,0.11,0.95,0.17c0.59,0.12,1.18,0.27,1.75,0.47c0.15,0.05,0.3,0.11,0.45,0.16
			c0.29,0.11,0.1,0-0.07-0.03c0.24,0.04,0.55,0.26,0.76,0.39c0.21,0.12,0.41,0.25,0.61,0.39c0.18,0.13,0.28,0.34-0.06-0.05
			c0.07,0.08,0.17,0.14,0.24,0.21c0.2,0.18,0.39,0.36,0.57,0.56c0.07,0.08,0.14,0.16,0.21,0.24c0.35,0.39-0.21-0.33-0.05-0.07
			c0.14,0.22,0.29,0.43,0.42,0.66c0.06,0.1,0.1,0.26,0.17,0.35c-0.07-0.09-0.18-0.49-0.08-0.17c0.08,0.25,0.15,0.49,0.21,0.74
			c0.08,0.34-0.03-0.1-0.02-0.2c-0.02,0.13,0.02,0.33,0.02,0.47c0.03,1.31,1.13,2.56,2.5,2.5c1.33-0.06,2.53-1.1,2.5-2.5
			c-0.06-3.06-1.92-5.67-4.45-7.26c-2.63-1.66-5.83-1.97-8.84-2.25c-1.31-0.12-2.56,1.24-2.5,2.5
			C262.2,350.03,263.24,350.93,264.64,351.06L264.64,351.06z"/>
	</g>
</g>
<g>
	<g>
		<path class="st0" d="M239.45,324.21c-2.67-0.63-5.53-0.55-8.13,0.35c-0.62,0.21-1.16,0.57-1.49,1.15
			c-0.31,0.54-0.45,1.33-0.25,1.93c0.4,1.22,1.75,2.2,3.08,1.75c0.78-0.27,1.58-0.46,2.39-0.57c-0.22,0.03-0.44,0.06-0.66,0.09
			c1.06-0.14,2.13-0.14,3.2,0c-0.22-0.03-0.44-0.06-0.66-0.09c0.41,0.06,0.81,0.13,1.21,0.22c0.65,0.15,1.35,0.09,1.93-0.25
			c0.52-0.3,1.01-0.9,1.15-1.49C241.49,326.01,240.81,324.53,239.45,324.21L239.45,324.21z"/>
	</g>
</g>
<g>
	<g>
		<path class="st0" d="M230.3,313.34c-3.03,0.88-5.66,2.96-7.26,5.68c-0.83,1.41-1.45,3.08-1.57,4.72c-0.1,1.48,0.75,2.99,2.22,3.42
			c1.64,0.48,3.25-0.38,3.78-2c0.41-1.24-0.48-2.79-1.75-3.08c-1.38-0.31-2.64,0.42-3.08,1.75c1.68-1.15,2.14-1.63,1.39-1.45
			c0.22-0.03,0.44-0.06,0.66-0.09c-0.06,0.01-0.12,0.01-0.18,0c0.22,0.03,0.44,0.06,0.66,0.09c-0.03-0.01-0.06-0.01-0.09-0.02
			c0.33,0.07,0.59,0.25,0.78,0.52c0.21,0.12,0.36,0.3,0.43,0.52c0.08,0.23,0.1,0.24,0.06,0.06c0.03,0.22,0.06,0.44,0.09,0.66
			c-0.01-0.18,0-0.34,0.02-0.52c-0.03,0.22-0.06,0.44-0.09,0.66c0.07-0.44,0.17-0.88,0.31-1.3c0.06-0.2,0.13-0.4,0.21-0.6
			c0.17-0.44-0.03,0.17-0.08,0.19c0.03-0.01,0.15-0.32,0.16-0.35c0.19-0.38,0.4-0.75,0.63-1.1c0.12-0.18,0.25-0.34,0.37-0.52
			c-0.44,0.69-0.02,0.04,0.13-0.13c0.28-0.32,0.58-0.62,0.9-0.9c0.08-0.07,0.16-0.14,0.24-0.21c0.36-0.32-0.5,0.36-0.1,0.08
			c0.17-0.12,0.34-0.25,0.52-0.36c0.36-0.23,0.73-0.44,1.11-0.62c0.18-0.09,0.57-0.18-0.13,0.05c0.1-0.03,0.2-0.08,0.3-0.12
			c0.22-0.08,0.44-0.15,0.67-0.22c1.25-0.37,2.17-1.78,1.75-3.08C232.96,313.81,231.64,312.95,230.3,313.34L230.3,313.34z"/>
	</g>
</g>
<g>
	<g>
		<path class="st0" d="M267.7,311.39c0.32-0.05,0.64-0.1,0.96-0.14c0.16-0.02,0.32-0.05,0.48-0.07c-0.26,0.04-0.25,0.03,0.06,0
			c0.56-0.06,1.12-0.12,1.68-0.15c0.64-0.04,1.28-0.04,1.92,0c0.1,0.01,1.04,0.14,0.53,0.04c0.22,0.04,0.44,0.08,0.65,0.13
			c0.45,0.11,0.95,0.22,1.36,0.43c-0.6-0.3,0.16,0.1,0.26,0.15c0.19,0.11,0.38,0.22,0.57,0.34c0.53,0.35-0.19-0.22,0.17,0.11
			c0.18,0.17,0.37,0.33,0.54,0.51c0.09,0.09,0.17,0.18,0.25,0.28c-0.2-0.26-0.21-0.28-0.05-0.06c0.13,0.21,0.26,0.42,0.38,0.65
			c0.61,1.16,2.32,1.61,3.42,0.9c1.18-0.76,1.55-2.18,0.9-3.42c-1.26-2.4-3.71-4-6.29-4.67c-3.01-0.78-6.1-0.31-9.12,0.15
			c-1.3,0.2-2.13,1.9-1.75,3.08C265.08,311.06,266.31,311.61,267.7,311.39L267.7,311.39z"/>
	</g>
</g>
<g>
	<g>
		<path class="st0" d="M289.86,321.65c3.36,0.89,6.79,1.8,9.79,3.63c3.01,1.83,4.74,4.59,5.94,7.84c1.27,3.45,2.22,7.15,4.33,10.21
			c2.13,3.09,5.52,5.15,7.43,8.39c1.63,2.77,5.95,0.26,4.32-2.52c-2.03-3.46-5.62-5.53-7.75-8.87c-2.03-3.2-2.81-7-4.27-10.46
			c-1.58-3.74-3.98-6.78-7.47-8.91c-3.36-2.04-7.22-3.13-10.99-4.13C288.08,316,286.75,320.82,289.86,321.65L289.86,321.65z"/>
	</g>
</g>
<g>
	<g>
		<path class="st0" d="M345.65,567.1c1.17-2.64,2.05-5.85-0.26-8.2c-2.19-2.23-5.31-1.28-7.75-0.08c-2.34,1.14-4.33,2.92-5.88,4.98
			c-1.43,1.9-2.81,4.47-2.85,6.9c-0.06,3.15,2.78,4.59,5.47,5.03c3.03,0.5,6.14,0.56,9.15,1.21c2.29,0.5,4.74,1.35,6.27,3.23
			c1.21,1.48,1.79,3.62,0.71,5.32c-1.32,2.09-4.09,4.03-6.6,4.2c-2.05,0.14-4.03-1.25-3.78-3.39c0.16-1.34-1.26-2.5-2.5-2.5
			c-1.48,0-2.34,1.15-2.5,2.5c-0.3,2.49,1.01,4.91,2.92,6.44c2.28,1.82,5.11,2.3,7.93,1.66c4.94-1.12,10.51-5.91,10.09-11.37
			c-0.44-5.74-5.19-9.38-10.43-10.72c-2.91-0.75-5.93-0.87-8.91-1.25c-0.84-0.11-2.26-0.13-2.96-0.64c0.28,0.2,0,0.37,0.21-0.04
			c0.26-0.49,0.34-1.1,0.58-1.61c1-2.13,2.63-3.93,4.65-5.13c0.49-0.29,0.99-0.55,1.52-0.76c0.29-0.11,0.6-0.18,0.88-0.29
			c0.13-0.03,0.25-0.06,0.38-0.09c0.18,0.03,0.14,0-0.12-0.06c0.16,0.59-0.26,1.51-0.53,2.14c-0.55,1.23-0.36,2.69,0.9,3.42
			C343.29,568.62,345.1,568.34,345.65,567.1L345.65,567.1z"/>
	</g>
</g>
<g>
	<g>
		<path class="st0" d="M357.71,575.33c-2.34,5.45-1.48,11.81,2.5,16.28c2.01,2.26,5.12,3.8,8.18,3.24c3.52-0.64,4.88-4,5.19-7.18
			c0.36-3.73-0.15-7.62-1.31-11.17c-0.41-1.24-1.75-2.18-3.08-1.75c-1.24,0.4-2.18,1.74-1.75,3.08c0.87,2.64,1.24,4.82,1.24,7.51
			c0,0.66-0.02,1.32-0.07,1.97c-0.01,0.15-0.1,0.87-0.02,0.37c-0.04,0.3-0.1,0.59-0.17,0.88c-0.03,0.12-0.23,0.76-0.15,0.54
			c0.09-0.26-0.03,0.07-0.05,0.1c-0.07,0.13-0.14,0.25-0.21,0.38c-0.22,0.37,0.17-0.12-0.15,0.17c-0.38,0.33-0.07,0.05,0.01,0.01
			c-0.12,0.07-0.24,0.13-0.35,0.2c0.44-0.28-0.08-0.03-0.25,0.04c-0.31,0.13,0.41,0.02,0.07-0.01c-0.1-0.01-0.21,0.01-0.3,0.01
			c-0.14,0-0.27-0.02-0.41-0.03c0.05,0,0.41,0.1,0.15,0.01c-0.26-0.09-0.55-0.17-0.82-0.23c-0.36-0.09,0.32,0.18-0.01,0
			c-0.1-0.05-0.2-0.1-0.3-0.15c-0.23-0.12-0.45-0.25-0.67-0.39c-0.09-0.06-0.18-0.13-0.27-0.19c0.36,0.23,0.07,0.06-0.01-0.01
			c-0.22-0.19-0.43-0.39-0.63-0.6c-0.18-0.19-0.35-0.38-0.52-0.58c-0.07-0.08-0.14-0.17-0.21-0.26c0.06,0.08,0.26,0.37,0-0.02
			c-0.29-0.43-0.56-0.86-0.8-1.32c-0.12-0.23-0.22-0.46-0.34-0.69c-0.17-0.34,0.12,0.35,0-0.01c-0.04-0.1-0.08-0.21-0.12-0.31
			c-0.19-0.52-0.34-1.05-0.46-1.59c-0.06-0.29-0.11-0.58-0.16-0.87c-0.05-0.29,0.01,0.08,0.02,0.12c-0.01-0.18-0.04-0.37-0.05-0.55
			c-0.04-0.59-0.04-1.18,0-1.77c0.01-0.11,0.02-0.22,0.03-0.33c0.06-0.69-0.07,0.29,0.01-0.1c0.06-0.29,0.1-0.58,0.17-0.87
			c0.07-0.29,0.15-0.57,0.24-0.85c0.05-0.17,0.37-0.98,0.18-0.54c0.51-1.2,0.4-2.74-0.9-3.42
			C360.05,573.86,358.26,574.04,357.71,575.33L357.71,575.33z"/>
	</g>
</g>
<g>
	<g>
		<path class="st0" d="M382.78,575.07c-3.37-0.55-7.21,0.22-8.84,3.58c-1.69,3.47,0.2,6.95,3.57,8.37c1.43,0.6,2.89,0.75,4.41,0.99
			c0.62,0.1,1.47,0.24,1.96,0.43c0.14,0.06,0.28,0.14,0.42,0.21c0.03,0.02,0.51,0.32,0.26,0.14c-0.21-0.15,0.07,0.06,0.1,0.08
			c0.13,0.13,0.26,0.26,0.39,0.4c0.25,0.28-0.18-0.3,0.01,0.03c0.05,0.1,0.12,0.19,0.17,0.29c0.07,0.13,0.14,0.26,0.2,0.4
			c-0.05-0.13-0.11-0.39-0.01,0.03c0.03,0.12,0.2,0.79,0.15,0.55c-0.05-0.28,0.01,0.07,0.01,0.12c0.01,0.19,0.01,0.38,0.01,0.56
			c0,0.07-0.03,0.55,0,0.23c0.03-0.29-0.01,0.07-0.02,0.11c-0.07,0.29-0.14,0.58-0.25,0.86c0.18-0.42-0.13,0.16-0.21,0.29
			c-0.19,0.32,0.25-0.24-0.02,0.02c-0.15,0.15-0.29,0.32-0.46,0.44c0.06-0.05-0.65,0.29-0.48,0.22c0.01,0-0.46,0.12-0.22,0.07
			c-0.07,0.02-0.47-0.01-0.18,0.03c-0.5-0.07-0.43-0.09-0.77-0.31c-0.09-0.06-0.32-0.25-0.54-0.5c-0.29-0.33,0.13,0.21-0.12-0.15
			c-0.13-0.19-0.25-0.39-0.35-0.6c-0.15-0.3-0.24-0.61-0.33-0.93c-0.24-0.86-0.37-1.73-0.47-2.59c-0.16-1.34-1.04-2.5-2.5-2.5
			c-1.23,0-2.66,1.15-2.5,2.5c0.43,3.61,1.23,7.69,4.89,9.41c3.7,1.74,7.8-0.48,9.11-4.18c0.98-2.76,0.22-6.21-1.9-8.25
			c-1.28-1.23-2.97-1.88-4.7-2.17c-0.78-0.13-1.57-0.21-2.35-0.34c-0.36-0.06-0.72-0.13-1.07-0.23c-0.17-0.05-0.34-0.1-0.51-0.15
			c-0.08-0.03-0.17-0.06-0.25-0.09c0.15,0.07,0.15,0.06-0.01-0.01c-0.16-0.08-0.31-0.16-0.46-0.25c-0.1-0.06-0.46-0.35-0.21-0.13
			c-0.12-0.1-0.25-0.23-0.35-0.35c0.24,0.3-0.11-0.26-0.01-0.02c0.1,0.25-0.07-0.24-0.08-0.3c-0.04-0.18-0.04-0.17,0.01,0.03
			c0-0.08,0.01-0.17,0.01-0.25c-0.03,0.05-0.2,0.45,0.05-0.09c0.18-0.37-0.02-0.02,0.11-0.23c0.29-0.45,0.55-0.64,1.02-0.79
			c0.62-0.2,1.47-0.23,1.99-0.14c1.33,0.22,2.69-0.35,3.08-1.75C384.85,576.96,384.12,575.29,382.78,575.07L382.78,575.07z"/>
	</g>
</g>
<g>
	<g>
		<path class="st0" d="M387.58,565.92c0.47-2.04,0.95-4.08,1.42-6.12c-0.8,0.61-1.61,1.22-2.41,1.84c-0.83-0.06-0.75-0.7-0.74-0.09
			c0.01,0.58,0.28,1.24,0.39,1.81c0.26,1.3,0.51,2.6,0.76,3.89c0.53,2.76,1.06,5.52,1.57,8.29c1.01,5.45,1.96,10.9,2.88,16.37
			c0.27,1.62,2.4,2.24,3.67,1.49c1.65-0.96,2.21-2.6,2.43-4.4c0.21-1.73,0.34-3.47,0.51-5.2c0.19-1.95,0.33-3.9,0.56-5.84
			c0.08-0.66,0.04-1.74,0.82-1.76c1.14-0.03,1.88,1.39,2.31,2.24c0.73,1.42,1.23,2.97,1.64,4.51c0.9,3.34,1.14,6.77,0.83,10.21
			c-0.12,1.35,1.23,2.5,2.5,2.5c1.45,0,2.38-1.15,2.5-2.5c0.36-4.08-0.04-8.25-1.19-12.19c-1.08-3.68-2.74-8.19-6.76-9.47
			c-1.85-0.59-4.01-0.27-5.49,1.02c-1.56,1.35-1.94,3.31-2.15,5.26c-0.23,2.17-0.42,4.34-0.63,6.51c-0.11,1.14-0.22,2.27-0.33,3.41
			c-0.03,0.32-0.04,0.67-0.09,0.99c-0.04,0.23-0.09,0.45-0.16,0.67c-0.13,0.02-0.07-0.07,0.17-0.27c1.22,0.5,2.45,1,3.67,1.49
			c-1.05-6.28-2.16-12.55-3.33-18.8c-0.58-3.09-1.17-6.17-1.78-9.26c-0.54-2.72-1.28-5.65-4.57-5.88c-1.05-0.07-2.18,0.82-2.41,1.84
			c-0.47,2.04-0.95,4.08-1.42,6.12C382.03,567.72,386.85,569.06,387.58,565.92L387.58,565.92z"/>
	</g>
</g>
<g>
	<g>
		<path class="st0" d="M415.76,579.2c0.48,4.32,0.97,8.64,1.45,12.96c0.15,1.3,1.05,2.57,2.5,2.5c1.23-0.06,2.66-1.11,2.5-2.5
			c-0.48-4.32-0.97-8.64-1.45-12.96c-0.15-1.3-1.05-2.57-2.5-2.5C417.03,576.76,415.61,577.81,415.76,579.2L415.76,579.2z"/>
	</g>
</g>
<g>
	<g>
		<path class="st0" d="M415.81,567.41c3.22,0,3.22-5,0-5C412.59,562.41,412.59,567.41,415.81,567.41L415.81,567.41z"/>
	</g>
</g>
</svg>
