<?xml version="1.0" encoding="utf-8"?>
<!-- Generator: Adobe Illustrator 25.3.1, SVG Export Plug-In . SVG Version: 6.00 Build 0)  -->
<svg version="1.1" id="Layer_1" xmlns="http://www.w3.org/2000/svg" xmlns:xlink="http://www.w3.org/1999/xlink" x="0px" y="0px"
	 viewBox="0 0 720 720" style="enable-background:new 0 0 720 720;" xml:space="preserve">
<style type="text/css">
	.st0{fill:none;stroke:#FF9999;stroke-width:7;stroke-miterlimit:10;}
	.st1{fill:#FF9999;}
	.st2{opacity:0.29;}
</style>
<ellipse class="st0" cx="295.85" cy="334.98" rx="114.96" ry="65.38"/>
<path class="st0" d="M180.89,343.1c0,0-3.43,179.1,37.61,214.53c28.95,25,123.21,25.98,151.28,0
	c27.77-56.94,41.03-159.71,41.03-214.53"/>
<g>
	<g>
		<path class="st1" d="M204.48,336.06c22.13-11.68,46.38-19.48,71.33-21.9c24.38-2.37,49.03,0.31,72.38,7.66
			c13.63,4.29,26.71,10.13,39.12,17.19c2.8,1.59,5.32-2.72,2.52-4.32c-22.44-12.78-47.06-21.46-72.68-24.83
			c-24.83-3.27-50.24-1.29-74.34,5.45c-14.16,3.96-27.85,9.56-40.85,16.42C199.11,333.24,201.63,337.56,204.48,336.06L204.48,336.06
			z"/>
	</g>
</g>
<ellipse class="st0" cx="295.81" cy="343.1" rx="98.43" ry="55.98"/>
<g>
	<g>
		<path class="st1" d="M251.71,404.94c-3.69,20.32-5.63,40.96-5.74,61.61c-0.11,20.57,1.61,41.15,5.05,61.44
			c1.93,11.39,4.44,22.68,7.48,33.82c0.85,3.1,5.67,1.78,4.82-1.33c-5.33-19.49-8.99-39.43-10.85-59.56
			c-1.87-20.19-2-40.53-0.38-60.74c0.91-11.37,2.4-22.69,4.44-33.91c0.24-1.33-0.36-2.7-1.75-3.08
			C253.57,402.86,251.95,403.6,251.71,404.94L251.71,404.94z"/>
	</g>
</g>
<g>
	<g>
		<path class="st1" d="M336.1,411.43c2.14,20.26,3.27,40.63,3.36,61c0.09,20.29-0.83,40.59-2.77,60.79
			c-1.09,11.38-2.51,22.72-4.26,34.02c-0.21,1.33,0.34,2.69,1.75,3.08c1.18,0.33,2.87-0.4,3.08-1.75
			c3.13-20.28,5.27-40.7,6.36-61.19c1.08-20.43,1.13-40.91,0.15-61.34c-0.56-11.56-1.45-23.1-2.66-34.61
			c-0.14-1.34-1.05-2.5-2.5-2.5C337.36,408.93,335.96,410.08,336.1,411.43L336.1,411.43z"/>
	</g>
</g>
<g>
	<g>
		<path class="st1" d="M190.57,432.43c10.13,9.83,21.87,17.96,34.55,24.15c12.74,6.22,26.35,10.6,40.31,13.04
			c14.35,2.51,28.98,3.05,43.48,1.64c15.18-1.47,30.13-4.88,44.49-9.97c14.41-5.1,28.25-11.8,41.26-19.81
			c1.62-1,3.22-2.01,4.81-3.05c2.69-1.75,0.19-6.08-2.52-4.32c-12.45,8.09-25.68,15.02-39.54,20.38
			c-13.78,5.32-28.21,9.22-42.87,11.13c-14.09,1.84-28.48,1.98-42.57,0c-13.59-1.91-27.02-5.57-39.57-11.14
			c-12.5-5.54-24.25-12.87-34.46-21.99c-1.31-1.17-2.59-2.37-3.86-3.6C191.8,426.65,188.26,430.18,190.57,432.43L190.57,432.43z"/>
	</g>
</g>
<g>
	<g>
		<path class="st1" d="M202.38,506.36c19.19,14.77,42.13,24.45,65.93,28.69c23.83,4.24,48.6,3.27,71.94-3.24
			c13.14-3.67,25.81-9.11,37.44-16.24c2.74-1.68,0.23-6-2.52-4.32c-20.11,12.32-43.23,19.35-66.72,20.99
			c-23.5,1.64-47.3-1.93-69.2-10.64c-12.27-4.89-23.87-11.5-34.34-19.56c-1.07-0.82-2.8-0.16-3.42,0.9
			C200.73,504.23,201.31,505.54,202.38,506.36L202.38,506.36z"/>
	</g>
</g>
<g>
	<g>
		<path class="st1" d="M208.97,407.41c-0.83-0.83-1.65-1.67-2.48-2.5c-0.2-0.2-0.4-0.4-0.6-0.61c-0.09-0.09-0.17-0.19-0.26-0.28
			c-0.22-0.2,0.25,0.39,0.1,0.14c-0.03-0.05-0.15-0.31-0.2-0.33c0.15,0.05,0.18,0.59,0.18,0.71c0.01-0.29-0.03-0.19-0.12,0.29
			c-0.16,0.44-0.19,0.56-0.09,0.38c0.07-0.11,0.04-0.07-0.08,0.11c-0.1,0.17-0.24,0.3-0.42,0.4c0.28-0.18-0.18,0.07-0.24,0.1
			c0.37-0.17-0.48,0.01-0.21,0.02c0.27,0.02-0.54-0.15-0.23-0.04c0.02,0.01,0.39,0.1,0.39,0.12c-0.01,0.03-0.51-0.26-0.15-0.04
			c0.12,0.07,0.24,0.13,0.36,0.21c0.23,0.14,0.46,0.28,0.69,0.43c1.01,0.63,2.03,1.26,3.04,1.88c1.54,0.96,3.89-0.27,3.76-2.16
			c-0.04-0.56-0.04-1.11,0-1.67c0.01-0.11,0.02-0.22,0.03-0.33c0.05-0.56-0.08,0.41-0.01,0.09c0.05-0.27,0.1-0.55,0.16-0.82
			c0.12-0.52,0.29-1.01,0.46-1.51c0.15-0.44-0.16,0.34-0.03,0.06c0.06-0.13,0.11-0.25,0.18-0.38c0.12-0.25,0.26-0.49,0.39-0.73
			c-1.52-0.2-3.05-0.4-4.57-0.6c0.21,0.51,0.38,1.04,0.49,1.58c0.02,0.11,0.05,0.22,0.07,0.33c0.01,0.05,0.09,0.59,0.03,0.16
			c-0.06-0.42,0,0.07,0.01,0.16c0.01,0.14,0.02,0.28,0.02,0.41c0.01,0.25,0.01,0.5,0,0.75c0,0.11-0.12,0.78-0.07,0.83
			c-0.06-0.05,0.1-0.62,0-0.09c-0.03,0.14-0.05,0.27-0.08,0.41c-0.06,0.27-0.14,0.54-0.22,0.8c-0.4,1.25,0.46,2.78,1.75,3.08
			c1.36,0.31,2.65-0.41,3.08-1.75c0.81-2.56,0.75-5.49-0.25-7.99c-0.38-0.95-1-1.65-2.08-1.79c-0.98-0.13-1.99,0.32-2.49,1.19
			c-1.35,2.35-2.05,5.11-1.87,7.83c1.25-0.72,2.51-1.44,3.76-2.16c-1.26-0.78-2.52-1.59-3.8-2.35c-1.77-1.05-3.98-1.28-5.58,0.22
			c-0.91,0.85-1.25,2.21-0.96,3.41c0.23,0.92,0.78,1.7,1.43,2.38c1.03,1.1,2.12,2.15,3.18,3.22c0.92,0.93,2.63,0.99,3.54,0
			C209.9,409.94,209.96,408.4,208.97,407.41L208.97,407.41z"/>
	</g>
</g>
<g>
	<g>
		<path class="st1" d="M207.54,412.75c0.03,2.77,0.44,5.86,2.79,7.67c0.99,0.76,2.11,1.19,3.36,0.82c1.31-0.38,2.02-1.65,2.36-2.89
			c0.52-1.88,0.24-3.81-0.61-5.54c-1.44,0.84-2.88,1.68-4.32,2.52c1.02,1.48,2.34,2.77,3.97,3.56c0.93,0.46,1.97,0.91,3.03,0.84
			c1.53-0.09,2.77-1.18,3.17-2.65c0.62-2.28-1.07-4.22-2.36-5.89c-1.03-1.33-2.16-2.57-3.38-3.72c-0.95-0.9-2.6-1.02-3.54,0
			c-0.89,0.97-1.02,2.58,0,3.54c0.93,0.87,1.81,1.8,2.62,2.77c0.22,0.26,0.42,0.56,0.65,0.81c-0.19-0.2-0.22-0.29-0.02-0.02
			c0.09,0.12,0.17,0.23,0.26,0.35c0.2,0.28,0.4,0.56,0.6,0.85c0.08,0.11,0.15,0.23,0.22,0.34c0.04,0.07,0.08,0.14,0.12,0.21
			c0.1,0.19,0.1,0.19,0.01,0c-0.08-0.2-0.09-0.2-0.02,0c-0.01-0.12-0.02-0.23-0.04-0.35c0,0.43,0.2-0.57,0.03-0.16
			c0.05-0.12,0.1-0.24,0.16-0.36c-0.1,0.16-0.08,0.14,0.05-0.05c0.11-0.17,0.25-0.31,0.43-0.41c0.34-0.23,0.69-0.3,1.05-0.21
			c0.23,0.04,0.23,0.04,0.02-0.01c-0.05-0.02-0.1-0.03-0.15-0.05c-0.14-0.04-0.29-0.13-0.43-0.16c0.11,0.04,0.21,0.09,0.32,0.13
			c-0.09-0.04-0.18-0.08-0.28-0.13c-0.11-0.06-0.23-0.11-0.34-0.18c-0.24-0.14-0.48-0.28-0.71-0.44c-0.04-0.03-0.08-0.06-0.12-0.09
			c-0.21-0.16-0.16-0.12,0.14,0.11c-0.02-0.07-0.24-0.2-0.29-0.25c-0.21-0.19-0.41-0.38-0.59-0.59c-0.1-0.11-0.19-0.25-0.3-0.35
			c0.07,0.09,0.14,0.18,0.21,0.26c-0.06-0.08-0.12-0.16-0.18-0.25c-0.74-1.07-2.23-1.67-3.42-0.9c-1.2,0.78-1.52,2.16-0.9,3.42
			c0.2,0.41-0.12-0.38-0.02-0.08c0.04,0.13,0.09,0.25,0.13,0.38c0.03,0.1,0.05,0.21,0.08,0.31c0.12,0.45-0.02-0.42,0-0.11
			c0.01,0.24,0.03,0.48,0.02,0.73c0,0.09-0.05,0.58,0,0.15c0.04-0.39-0.01-0.02-0.03,0.06c-0.03,0.13-0.06,0.26-0.1,0.39
			c-0.03,0.09-0.19,0.55-0.04,0.14c0.08-0.18,0.09-0.21,0.03-0.1c-0.23,0.38,0.11,0.26,1.01-0.35c0.45-0.45,0.89-0.55,1.33-0.29
			c-0.04-0.02-0.07-0.04-0.11-0.07c-0.08-0.06-0.41-0.29-0.05-0.02c0.33,0.25,0.08,0.06,0.02,0c-0.07-0.07-0.14-0.15-0.21-0.22
			c-0.28-0.28,0.27,0.42,0.13,0.17c-0.09-0.16-0.2-0.31-0.29-0.47c-0.04-0.07-0.06-0.16-0.11-0.22c0.33,0.48,0.16,0.42,0.09,0.19
			c-0.13-0.39-0.24-0.79-0.32-1.2c-0.02-0.09-0.03-0.18-0.04-0.26c-0.08-0.49,0.05,0.49,0.03,0.2c-0.02-0.2-0.04-0.4-0.06-0.6
			c-0.03-0.44-0.04-0.88-0.05-1.32c-0.02-1.31-1.14-2.56-2.5-2.5C208.7,410.31,207.53,411.35,207.54,412.75L207.54,412.75z"/>
	</g>
</g>
<g>
	<g>
		<path class="st1" d="M205.41,409.29c-1.5-0.03-3.06-0.02-4.5,0.44c-1.55,0.5-2.85,1.43-3.77,2.78c-1.07,1.58-1.27,4.04,0.26,5.4
			c1.54,1.37,3.61,0.87,5.41,0.43c1.68-0.42,3.3-1.03,4.88-1.75c-1.22-0.94-2.45-1.88-3.67-2.82c-0.3,0.73-0.6,1.46-0.9,2.19
			c-0.32,0.77-0.58,1.41-0.63,2.26c-0.05,0.93,0.26,2.02,0.97,2.66c1.11,1,2.73,1.13,3.93,0.2c1.39-1.08,1.68-3.15,1.98-4.79
			c0.3-1.67,0.49-3.37,0.51-5.07c0.02-1.31-1.16-2.56-2.5-2.5c-1.37,0.06-2.48,1.1-2.5,2.5c-0.02,1.09-0.1,2.19-0.24,3.27
			c0.03-0.22,0.06-0.44,0.09-0.66c-0.12,0.84-0.27,1.67-0.47,2.5c-0.09,0.4-0.2,0.8-0.31,1.19c-0.07,0.24-0.34,0.71,0.04-0.01
			c-0.13,0.22-0.07,0.14,0.2-0.23c0.91-0.39,1.15-0.55,0.73-0.46c0.22-0.03,0.44-0.06,0.66-0.09c-0.03,0-0.06,0-0.09,0
			c0.22,0.03,0.44,0.06,0.66,0.09c-0.24-0.04-0.11,0.02,0.38,0.18c0.68,0.81,0.92,1.04,0.72,0.71c-0.07-0.12,0.22,0.72,0.14,0.24
			c0.03,0.22,0.06,0.44,0.09,0.66c-0.02-0.16-0.01-0.32,0-0.48c-0.03,0.22-0.06,0.44-0.09,0.66c0.08-0.58,0.37-1.12,0.59-1.65
			c0.28-0.68,0.56-1.35,0.83-2.03c0.15-0.37,0.1-0.96,0-1.33c-0.14-0.53-0.47-0.97-0.9-1.3c-0.85-0.66-1.83-0.62-2.78-0.2
			c-0.12,0.06-0.24,0.11-0.36,0.16c-0.44,0.19-0.03-0.07,0.08-0.03c-0.12-0.04-0.61,0.24-0.74,0.29c-0.5,0.19-1,0.36-1.51,0.51
			c-0.99,0.3-2,0.55-3.02,0.7c0.22-0.03,0.44-0.06,0.66-0.09c-0.2,0.02-0.39,0.03-0.59,0.01c0.22,0.03,0.44,0.06,0.66,0.09
			c-0.08-0.01-0.15-0.02-0.22-0.04c0.22,0.05,0.4,0.15,0.56,0.31c0.17,0.12,0.3,0.27,0.4,0.45c0.15,0.41,0.19,0.48,0.13,0.23
			c0.03,0.22,0.06,0.44,0.09,0.66c-0.02-0.18-0.01-0.35,0.01-0.53c-0.03,0.22-0.06,0.44-0.09,0.66c0.02-0.14,0.18-0.45,0.16-0.58
			c0.01,0.06-0.28,0.55-0.1,0.27c0.05-0.08,0.1-0.17,0.15-0.26c0.13-0.19,0.3-0.25-0.14,0.17c0.06-0.06,0.11-0.12,0.16-0.18
			c0.07-0.07,0.14-0.14,0.22-0.21c0.15-0.14,0.39-0.22-0.17,0.12c0.16-0.1,0.31-0.21,0.47-0.3c0.09-0.05,0.18-0.1,0.27-0.14
			c0.33-0.17-0.25,0.12-0.26,0.11c-0.02-0.03,1.35-0.34,1.46-0.36c-0.22,0.03-0.44,0.06-0.66,0.09c0.88-0.11,1.75-0.1,2.64-0.09
			c1.31,0.02,2.56-1.17,2.5-2.5C207.85,410.41,206.82,409.31,205.41,409.29L205.41,409.29z"/>
	</g>
</g>
<g>
	<g>
		<path class="st1" d="M217.95,405.35c0.63-0.76,1.3-1.48,2.04-2.14c0.18-0.16,0.36-0.31,0.54-0.47c0.1-0.09,0.21-0.17,0.32-0.26
			c-0.21,0.16-0.25,0.19-0.1,0.08c0.19-0.14,0.38-0.28,0.58-0.42c0.11-0.08,0.22-0.15,0.34-0.23c0.25-0.15,0.23-0.14-0.05,0.02
			c-0.44,0-0.89,0-1.33,0c-1.31-0.18-1.28-1.21-1.3-2c-0.02-0.57-0.04,0.09-0.05,0.07c0.14-0.32,0.16-0.39,0.07-0.2
			c-0.04,0.09-0.09,0.18-0.13,0.28c-0.06,0.12-0.12,0.24-0.18,0.36c-0.32,0.63-0.67,1.25-1.04,1.86c-0.36,0.58-0.76,1.12-1.14,1.68
			c-0.22,0.31,0.37-0.45-0.04,0.06c-0.11,0.13-0.21,0.26-0.32,0.39c-0.24,0.29-0.48,0.57-0.73,0.84c-0.69,0.76-0.92,1.77-0.52,2.73
			c0.37,0.87,1.3,1.59,2.28,1.54c0.99-0.05,1.82-0.31,2.72-0.71c0.29-0.13,0.58-0.28,0.87-0.42c0.12-0.06,0.23-0.11,0.35-0.17
			c0.55-0.28-0.46,0.11,0.03-0.01c0.1-0.02,0.19-0.06,0.29-0.08c0.06-0.01,0.57-0.12,0.12-0.03c-0.42,0.09,0.02,0.03,0.12,0.02
			c0.45-0.03-0.45-0.06-0.16-0.02c0.38,0.05,0.05,0.02-0.14-0.07c0.34,0.16-0.19-0.15-0.28-0.28c-0.08-0.11-0.24-0.65-0.17-0.29
			c-0.02-0.12-0.03-0.23-0.05-0.35c-0.01,0.22,0,0.21,0.02-0.01c0.03-0.2,0.03-0.23,0-0.09c-0.05,0.18-0.02,0.11,0.1-0.21
			c-0.02,0.01-0.17,0.27-0.17,0.29c0.21-0.26,0.25-0.32,0.12-0.19c-0.04,0.04-0.08,0.08-0.13,0.12c-0.19,0.19,0.37-0.2-0.02-0.01
			c-0.02,0.01-0.54,0.29-0.21,0.12c0.33-0.17-0.15,0.05-0.23,0.08c-0.31,0.11-0.63,0.2-0.95,0.29c-1.48,0.44-2.96,0.88-4.44,1.32
			c-1.25,0.37-2.17,1.77-1.75,3.08c0.41,1.27,1.73,2.15,3.08,1.75c1.79-0.53,3.62-1.01,5.38-1.62c2.2-0.76,4.14-2.33,4.19-4.85
			c0.04-2.44-2.11-4.12-4.42-4.06c-1.04,0.02-1.94,0.35-2.87,0.79c-0.35,0.17-0.7,0.34-1.04,0.51c-0.49,0.25,0.38-0.07-0.11,0.03
			c-0.12,0.04-0.24,0.07-0.36,0.1c0.36-0.03,0.39-0.04,0.1-0.02c0.59,1.42,1.18,2.85,1.77,4.27c1.14-1.26,2.18-2.62,3.07-4.07
			c0.41-0.66,0.78-1.34,1.13-2.04c0.42-0.86,0.85-1.71,0.8-2.69c-0.06-1.4-0.95-2.58-2.34-2.89c-1.37-0.31-2.44,0.42-3.47,1.19
			c-1.37,1.04-2.63,2.17-3.72,3.5c-0.83,1.01-1.06,2.56,0,3.54C215.33,406.19,217.06,406.43,217.95,405.35L217.95,405.35z"/>
	</g>
</g>
<g>
	<g>
		<path class="st1" d="M287.13,496.35c-0.11-0.08-0.23-0.17-0.34-0.25c0.2,0.15,0.23,0.18,0.09,0.07c-0.19-0.16-0.38-0.31-0.57-0.47
			c-0.32-0.28-0.63-0.56-0.94-0.86c-0.66-0.64-1.28-1.32-1.84-2.05c0.34,0.44-0.08-0.12-0.12-0.17c-0.12-0.17-0.24-0.35-0.36-0.52
			c-0.28-0.41-0.54-0.83-0.78-1.26c-0.21-0.37-0.41-0.74-0.6-1.12c-0.09-0.19-0.18-0.38-0.27-0.57c-0.12-0.27-0.12-0.26,0.01,0.04
			c-0.16-0.59-0.21-0.22-0.17,1.12c-0.3,0.3-0.6,0.6-0.9,0.9c-0.39,0.17-0.8,0.22-1.23,0.13c0.26,0.08,0.22,0.05-0.13-0.09
			c0.18,0.01,0.42,0.23,0.58,0.32c0.51,0.29,1.03,0.58,1.54,0.86c1.06,0.59,2.16,1.36,3.33,1.7c1.64,0.48,3.42-0.03,4.3-1.56
			c0.78-1.38,0.44-2.85,0.06-4.27c-0.03-0.11-0.06-0.21-0.08-0.32c0.02,0.28,0.03,0.31,0.02,0.06c-0.07,0.38-0.06,0.43,0.01,0.16
			c-0.03,0.16-0.1,0.29-0.21,0.4c-0.14,0.15-0.13,0.15,0.01,0c-0.41,0.42-0.95,0.55-1.62,0.39c-0.38-0.09-0.66-0.29-0.85-0.6
			c0.05,0.08,0.11,0.17,0.16,0.25c0.57,0.93,1.09,1.9,1.56,2.88c0.12,0.25,0.23,0.49,0.34,0.74c0.06,0.14,0.13,0.29,0.19,0.43
			c-0.09-0.2-0.09-0.22-0.03-0.06c0.19,0.51,0.4,1.02,0.58,1.53c0.37,1.07,0.68,2.16,0.94,3.26c0.3,1.27,1.82,2.15,3.08,1.75
			c1.33-0.43,2.07-1.71,1.75-3.08c-0.71-3.01-1.84-5.95-3.32-8.67c-0.86-1.59-1.87-3.39-3.93-3.38c-2.04,0.01-3.66,2.01-3.64,3.98
			c0.01,0.76,0.19,1.62,0.46,2.34c0.21,0.54,0.08-0.22,0.04,0.09c-0.04,0.33,0.17-0.39,0.19-0.42c0.28-0.38,0.78-0.73,1.26-0.72
			c0.67,0.02-0.22-0.14,0.3,0.08c-1.42-0.6-2.76-1.53-4.11-2.28c-0.75-0.42-1.53-0.73-2.41-0.73c-1.33,0-2.64,0.95-2.94,2.27
			c-0.38,1.67,0.67,3.4,1.48,4.8c1.66,2.87,3.93,5.27,6.6,7.22c1.06,0.77,2.83,0.21,3.42-0.9
			C288.71,498.47,288.26,497.18,287.13,496.35L287.13,496.35z"/>
	</g>
</g>
<g>
	<g>
		<path class="st1" d="M299.37,495.59c-0.26,0.11-0.35,0.14-0.03,0.02c0.14-0.05,0.27-0.1,0.41-0.15c0.25-0.08,0.5-0.16,0.75-0.23
			c0.28-0.08,0.56-0.14,0.85-0.2c0.12-0.02,0.32-0.02,0.43-0.07c-0.12,0.05-0.49,0.05-0.15,0.02c0.11-0.01,0.53-0.08,0.6-0.01
			c-0.14-0.02-0.29-0.04-0.43-0.05c0.18,0.05,0.15,0.03-0.08-0.06c-0.21-0.1-0.26-0.12-0.15-0.06c0.17,0.1,0.07,0.02-0.29-0.23
			c-0.39-0.43-0.62-1.11-0.47-1.68c0.13-0.51,0.13-0.26,0.01-0.07c-0.04,0.07-0.21,0.23-0.22,0.32c0.01-0.13,0.36-0.44,0.06-0.1
			c-0.15,0.17-0.3,0.33-0.46,0.48c-0.16,0.15-0.79,0.59-0.18,0.19c-0.4,0.27-0.78,0.54-1.2,0.78c-0.86,0.49-1.77,0.89-2.69,1.29
			c-0.53,0.23-1,0.96-1.15,1.49c-0.16,0.6-0.09,1.4,0.25,1.93c0.34,0.53,0.86,1,1.49,1.15c0.7,0.16,1.27,0.03,1.93-0.25
			c-0.6,0.26-0.09,0.04,0.06-0.01c0.17-0.06,0.33-0.12,0.5-0.18c0.33-0.11,0.67-0.21,1.02-0.3c0.34-0.09,0.69-0.16,1.04-0.22
			c0.17-0.03,0.69-0.03,0.03-0.02c0.17,0,0.35-0.04,0.53-0.06c0.7-0.06,1.41-0.07,2.12-0.03c0.17,0.01,0.35,0.04,0.53,0.04
			c-0.67-0.01-0.45-0.05-0.19,0c0.42,0.08-0.51-0.27-0.16-0.06c-0.5-0.3-0.91-0.95-0.86-1.54c0.07-0.29,0.14-0.58,0.21-0.87
			c0.25-0.31,0.29-0.37,0.1-0.18c-0.13,0.09-0.24,0.21-0.36,0.31c-0.04,0.03-0.09,0.07-0.13,0.1c-0.21,0.17-0.17,0.14,0.12-0.09
			c-0.09,0.12-0.28,0.21-0.4,0.29c-0.54,0.39-1.09,0.74-1.67,1.07c-0.55,0.31-1.11,0.6-1.69,0.86c-0.08,0.03-0.15,0.07-0.23,0.1
			c0.32-0.13,0.39-0.16,0.22-0.09c-0.15,0.06-0.31,0.12-0.46,0.18c-0.34,0.13-0.67,0.24-1.02,0.35c-1.25,0.39-2.17,1.76-1.75,3.08
			c0.4,1.25,1.74,2.17,3.08,1.75c1.77-0.56,3.51-1.33,5.08-2.32c1.83-1.15,4.52-2.85,3.77-5.41c-0.73-2.49-3.63-2.68-5.79-2.57
			c-2.19,0.11-4.21,0.64-6.22,1.5c0.84,1.44,1.68,2.88,2.52,4.32c2.64-1.14,5.61-2.62,6.79-5.42c0.54-1.29,0.27-2.73-0.72-3.72
			c-0.72-0.72-1.82-1.02-2.81-1.01c-1.76,0.02-3.49,0.62-5.08,1.31c-0.54,0.23-1,0.96-1.15,1.49c-0.16,0.6-0.09,1.4,0.25,1.93
			c0.34,0.53,0.86,1,1.49,1.15C298.14,496,298.72,495.87,299.37,495.59L299.37,495.59z"/>
	</g>
</g>
<g>
	<g>
		<path class="st1" d="M286.5,501.04c-2.1-0.36-4.27-0.06-6.07,1.14c-2.04,1.36-4.19,4.09-2.75,6.6c0.69,1.21,1.98,1.87,3.34,1.97
			c1.27,0.1,2.46-0.5,3.49-1.16c1.88-1.2,3.75-2.41,5.62-3.62c-1.14-1.14-2.28-2.28-3.42-3.42c-0.54,0.98-1.08,1.96-1.62,2.93
			c-0.58,1.05-1.34,2.16-1.59,3.35c-0.36,1.67,0.18,3.35,1.63,4.32c1.46,0.97,3.06,0.54,4.32-0.47c0.01-0.01,0.19-0.14,0.19-0.15
			c0.04,0.09-0.55,0.26-0.13,0.12c-0.23,0.03-0.46,0.05-0.69,0.08c-0.41,0.19-0.77,0.14-1.09-0.15c-0.31-0.18-0.45-0.26-0.64-0.54
			c0.2,0.3-0.18-0.56-0.02-0.01c0.05,0.17,0.1,0.34,0.16,0.51c0.45,1.28,1.32,2.39,2.71,2.7c1.27,0.29,2.56-0.06,3.58-0.85
			c1.12-0.87,1.64-2.16,1.71-3.56c0.07-1.26-0.33-2.53-0.63-3.74c-0.32-1.29-0.65-2.57-0.97-3.86c-0.32-1.27-1.81-2.16-3.08-1.75
			c-1.31,0.43-2.09,1.72-1.75,3.08c0.28,1.13,0.56,2.25,0.85,3.38c0.14,0.55,0.28,1.1,0.41,1.65c0.05,0.21,0.09,0.42,0.14,0.63
			c0.05,0.29,0.05,0.28,0-0.03c0.01,0.14,0.02,0.28,0.02,0.42c0.06,0.52,0.08-0.4-0.02,0.16c0.13-0.25,0.14-0.27,0.03-0.07
			c0.23-0.27,0.28-0.34,0.16-0.21c-0.13,0.13-0.06,0.08,0.21-0.14c-0.09,0.06-0.17,0.11-0.27,0.15c0.36-0.14,0.42-0.18,0.17-0.11
			c0.12-0.02,0.25-0.04,0.37-0.05c-0.27-0.01-0.19,0,0.25,0.04c0.24,0.07,0.45,0.18,0.63,0.36c0.07,0.09,0.15,0.18,0.22,0.27
			c-0.12-0.23-0.09-0.17,0.07,0.2c0.07-0.22-0.5-1.37-0.53-1.45c-0.6-1.29-1.94-2.01-3.34-1.82c-0.79,0.11-1.36,0.48-1.96,0.96
			c-0.08,0.07-0.17,0.14-0.25,0.2c0.16-0.17,0.34-0.27,0.57-0.32c0.57-0.15,1.32,0.03,1.65,0.54c0.1,0.16,0.15,0.33,0.17,0.51
			c-0.05,0.3-0.04,0.31,0.04,0.02c-0.03,0.06-0.06,0.12-0.08,0.18c0.06-0.14,0.13-0.27,0.2-0.4c0.27-0.5,0.55-1,0.83-1.5
			c0.56-1.01,1.12-2.03,1.68-3.04c0.52-0.94,0.43-2.27-0.39-3.03c-0.8-0.73-2.07-1.01-3.03-0.39c-1.35,0.87-2.71,1.74-4.06,2.61
			c-0.64,0.41-1.27,0.84-1.92,1.23c-0.15,0.09-0.31,0.17-0.46,0.26c-0.16,0.08-0.12,0.07,0.12-0.04c-0.07,0.02-0.13,0.04-0.2,0.06
			c0.08-0.01,0.17-0.01,0.25-0.02c-0.22,0-0.22,0.01,0.01,0.03c0.2,0.04,0.23,0.04,0.09,0.01c-0.18-0.05-0.11-0.02,0.22,0.11
			c-0.29-0.14,0.02,0.01,0.13,0.1c0.27,0.24,0.46,0.78,0.43,1.13c-0.02,0.24-0.19,0.42,0.02,0.14c0.04-0.06,0.33-0.5,0.11-0.19
			c-0.21,0.3,0.13-0.13,0.15-0.16c0.1-0.11,0.21-0.21,0.32-0.32c0.04-0.04,0.09-0.08,0.14-0.12c0.14-0.12,0.09-0.08-0.15,0.11
			c0.01,0.01,0.28-0.19,0.3-0.2c0.13-0.08,0.26-0.15,0.39-0.22c0.32-0.17,0.17-0.18-0.02-0.01c0.18-0.15,0.64-0.21,0.87-0.26
			c0.1-0.02,0.26-0.02,0.36-0.07c-0.37,0.19-0.32,0.04-0.03,0.03c0.15-0.01,0.3,0.01,0.45,0c0.51-0.02-0.5-0.1,0.05,0
			c1.28,0.22,2.76-0.34,3.08-1.75C288.53,502.91,287.88,501.28,286.5,501.04L286.5,501.04z"/>
	</g>
</g>
<g>
	<g>
		<path class="st1" d="M292.64,505.66c0.71,1.54,1.65,2.93,2.74,4.22c1.16,1.38,2.64,2.81,4.57,2.85c1.21,0.03,2.43-0.55,3.05-1.63
			c0.63-1.1,0.58-2.36,0.14-3.51c-0.67-1.74-1.44-3.45-2.31-5.1c-1.14,1.14-2.28,2.28-3.42,3.42c1.5,1.01,3,2.03,4.51,3.04
			c1.27,0.85,2.93,1.01,4.1-0.12c0.9-0.87,1.11-2.19,0.82-3.37c-0.2-0.8-0.65-1.59-1.05-2.32c-0.38-0.69-0.8-1.35-1.25-1.99
			c-1-1.4-2.12-2.72-3.39-3.88c-0.97-0.88-2.59-1.03-3.54,0c-0.88,0.96-1.03,2.59,0,3.54c0.45,0.41,0.88,0.83,1.29,1.27
			c0.21,0.22,0.41,0.45,0.6,0.68c0.12,0.14,0.23,0.28,0.35,0.42c0.22,0.27-0.03,0.04-0.06-0.08c0.04,0.22,0.4,0.54,0.53,0.73
			c0.17,0.25,0.34,0.5,0.5,0.75c0.34,0.53,0.65,1.08,0.94,1.65c0.07,0.13,0.14,0.27,0.2,0.4c0.05,0.1,0.29,0.58,0.08,0.15
			c-0.23-0.45-0.04,0.05-0.02,0.08c-0.02-0.13-0.04-0.27-0.06-0.4c-0.02,0.28,0.02,0.17,0.12-0.34c0.04-0.63,0.45-0.94,1.22-0.93
			c0.46-0.49,0.94-0.6,1.42-0.35c-0.01,0.01-0.36-0.24-0.39-0.26c-0.29-0.2-0.58-0.39-0.87-0.59c-1.19-0.8-2.37-1.6-3.56-2.4
			c-0.88-0.59-2.32-0.38-3.03,0.39c-0.78,0.84-0.93,2.01-0.39,3.03c0.3,0.57,0.59,1.14,0.86,1.72c0.14,0.3,0.29,0.61,0.42,0.92
			c0.07,0.15,0.15,0.31,0.2,0.46c-0.06-0.2-0.12-0.29-0.02-0.04c0.13,0.31,0.26,0.62,0.37,0.94c0.05,0.13,0.08,0.29,0.14,0.42
			c0.03,0.14,0.04,0.11,0.01-0.07c-0.02-0.22-0.02-0.21-0.02,0.01c0.1-0.59,0.3-1.08,0.83-1.42c0.19-0.12,0.39-0.18,0.6-0.18
			c0.24-0.02,0.29-0.03,0.15-0.03c-0.29,0.01,0.63,0.14,0.22,0.02c-0.41-0.11,0.39,0.23,0.14,0.07c-0.08-0.05-0.17-0.09-0.25-0.14
			c-0.43-0.27,0.11,0.02,0.1,0.09c0.01-0.07-0.55-0.53-0.62-0.61c-0.19-0.2-0.38-0.4-0.56-0.61c-0.1-0.12-0.2-0.23-0.3-0.35
			c-0.05-0.06-0.39-0.46-0.15-0.18c0.24,0.28-0.12-0.17-0.13-0.19c-0.07-0.1-0.14-0.2-0.21-0.3c-0.17-0.25-0.34-0.51-0.49-0.77
			c-0.32-0.53-0.6-1.07-0.85-1.63c-0.55-1.19-2.36-1.58-3.42-0.9C292.31,503.03,292.05,504.38,292.64,505.66L292.64,505.66z"/>
	</g>
</g>
<g>
	<g>
		<path class="st1" d="M372.62,410.7c0.12-1.38,0.26-2.75,0.43-4.12c0.09-0.75,0.12-0.96,0.23-1.68c0.04-0.29,0.07-0.59,0.13-0.88
			c0.02-0.13,0.05-0.25,0.09-0.37c-0.1,0.34-0.3,0.62-0.61,0.84c-0.42,0.11-0.84,0.23-1.26,0.34c-0.54,0-0.94-0.18-1.21-0.55
			c0.12,0.16,0.23,0.31,0.35,0.47c0.17,0.23,0.35,0.47,0.52,0.7c0.41,0.54,0.82,1.09,1.22,1.63c0.82,1.1,1.6,2.26,2.49,3.3
			c1.34,1.56,3.77,1.58,4.92-0.22c0.37-0.57,0.56-1.26,0.78-1.9c0.09-0.27,0.19-0.55,0.28-0.82c0.06-0.18,0.13-0.37,0.19-0.55
			c0.24-0.62,0.05-0.41-0.58,0.63c-0.42,0.11-0.84,0.23-1.26,0.34c0.07,0,0.13,0.01,0.2,0.01c-0.42-0.11-0.84-0.23-1.26-0.34
			c-0.18-0.18-0.2-0.21-0.07-0.08c0.07,0.07,0.13,0.13,0.2,0.2c0.22,0.2,0.46,0.39,0.71,0.55c0.39,0.26,0.83,0.45,1.27,0.61
			c0.81,0.28,1.68,0.32,2.52,0.2c1.77-0.24,3.45-1.22,4.28-2.85c-1.55-0.42-3.11-0.84-4.66-1.26c0.06-0.72-0.18,0.39-0.03,0.05
			c0.19-0.42-0.33,0.54-0.1,0.17c0.14-0.22-0.31,0.33-0.38,0.4c-0.16,0.16-0.33,0.3-0.5,0.44c0.38-0.32-0.17,0.12-0.22,0.15
			c-0.18,0.13-0.37,0.25-0.55,0.37c-0.53,0.34-1.06,0.67-1.59,1c-2.08,1.3-4.19,2.56-6.33,3.78c0.84,1.44,1.68,2.88,2.52,4.32
			c0.54-0.31,1.08-0.63,1.61-0.94c1.13-0.66,1.63-2.29,0.9-3.42c-0.73-1.14-2.21-1.6-3.42-0.9c-0.54,0.31-1.08,0.63-1.61,0.94
			c-1.13,0.66-1.63,2.29-0.9,3.42c0.74,1.15,2.2,1.59,3.42,0.9c2.47-1.41,4.9-2.87,7.3-4.39c2.4-1.53,4.62-3.23,4.86-6.28
			c0.2-2.46-3.56-3.42-4.66-1.26c-0.05,0.1-0.1,0.21-0.17,0.3c0.23-0.27,0.25-0.31,0.07-0.11c-0.04,0.04-0.08,0.08-0.12,0.12
			c-0.2,0.18-0.17,0.15,0.1-0.08c-0.1,0.06-0.19,0.12-0.3,0.17c0.09-0.04,0.19-0.08,0.28-0.11c-0.03,0.05-0.64,0.22-0.67,0.18
			c0.07,0.08,0.57-0.09-0.02-0.04c-0.51,0.04,0.43,0.16-0.01,0c-0.67-0.23,0.19,0.16-0.19-0.06c-0.42-0.24,0.34,0.35-0.04-0.03
			c-1.44-1.47-3.79-1.54-4.94,0.32c-0.38,0.61-0.57,1.39-0.8,2.07c-0.09,0.27-0.19,0.55-0.28,0.82c-0.06,0.18-0.13,0.37-0.19,0.55
			c0.06-0.19,0.15-0.36,0.27-0.52c0.37-0.21,0.74-0.43,1.1-0.64c0.1-0.02,0.2-0.03,0.3-0.05c0.42,0.11,0.84,0.23,1.26,0.34
			c0.09,0.05,0.31,0.4,0.13,0.11c-0.1-0.16-0.23-0.31-0.35-0.47c-0.26-0.35-0.52-0.7-0.79-1.05c-0.52-0.7-1.05-1.4-1.57-2.1
			c-1.26-1.68-2.76-4.42-5.3-3.34c-2.08,0.88-2.15,3.1-2.41,5.03c-0.25,1.87-0.46,3.74-0.63,5.62c-0.11,1.31,1.23,2.56,2.5,2.5
			C371.57,413.14,372.5,412.1,372.62,410.7L372.62,410.7z"/>
	</g>
</g>
<g>
	<g>
		<path class="st1" d="M382.52,417.96c0.17-0.03,0.33-0.05,0.5-0.08c-0.21,0.03-0.22,0.03-0.04,0.01c0.25-0.02,0.5-0.05,0.75-0.07
			c0.54-0.04,1.09-0.06,1.64-0.05c0.5,0.01,1.01,0.03,1.51,0.08c0.08,0.01,0.77,0.08,0.34,0.03c0.22,0.03,0.46,0.11,0.68,0.11
			c-1.1-0.81-1.45-1.65-1.03-2.53c0.18-0.22,0.21-0.27,0.09-0.14c-0.13,0.13-0.09,0.1,0.14-0.09c-0.1,0.06-0.19,0.13-0.29,0.19
			c-0.42,0.27-0.86,0.53-1.3,0.77c-0.41,0.22-0.82,0.43-1.24,0.63c-0.21,0.1-0.42,0.19-0.64,0.29c0.46-0.19-0.28,0.1-0.37,0.14
			c-0.91,0.34-1.83,0.62-2.77,0.85c-1.67,0.4-2.98,1.83-2.49,3.65c0.34,1.27,1.38,1.92,2.44,2.54c0.54,0.31-0.31-0.32,0.15,0.1
			c0.15,0.14,0.3,0.27,0.44,0.42c0.15,0.16,0.35,0.48,0.12,0.13c0.15,0.23,0.29,0.46,0.42,0.7c0.72-1.25,1.44-2.51,2.16-3.76
			c-0.21,0.01-0.41,0.01-0.62,0c0.61,0.03-0.08-0.06-0.24-0.1c-0.17-0.06-0.13-0.04,0.12,0.05c-0.09-0.05-0.18-0.1-0.27-0.15
			c-0.15-0.1-0.12-0.07,0.09,0.09c-0.11-0.09-0.21-0.18-0.3-0.28c-0.75-0.74-2.11-1-3.03-0.39c-0.98,0.65-1.54,1.58-1.6,2.76
			c-0.02,0.44,0.07,0.91,0.17,1.34c0.03,0.11,0.05,0.23,0.09,0.34c0.17,0.44,0.02-0.43,0.01-0.15c-0.01,0.29,0.15-0.63,0.01-0.15
			c0.04-0.12,0.09-0.23,0.13-0.35c1.11-0.07,2.23-0.14,3.34-0.21c-0.02-0.17-0.2-0.38-0.27-0.54c-0.02-0.04-0.21-0.47-0.12-0.25
			c0.11,0.26-0.12-0.32-0.14-0.37c-0.06-0.15-0.11-0.3-0.16-0.45c-0.13-0.38-0.25-0.77-0.36-1.15c-0.88-3.08-1.63-6.21-2.43-9.32
			c-0.33-1.27-1.8-2.16-3.08-1.75c-1.3,0.42-2.1,1.72-1.75,3.08c0.49,1.88,0.98,3.76,1.46,5.64c0.46,1.77,0.86,3.57,1.48,5.29
			c0.37,1.02,0.77,2.21,1.52,3.03c0.93,1.02,2.53,1.41,3.75,0.61c0.99-0.65,1.56-1.77,1.59-2.95c0.01-0.45-0.07-0.9-0.18-1.33
			c-0.01-0.03-0.16-0.49-0.13-0.51c0.02,0.11,0.03,0.22,0.05,0.33c-0.05,0.57-0.34,1.04-0.88,1.39c-1.01-0.13-2.02-0.26-3.03-0.39
			c1.24,1.23,2.98,1.96,4.74,1.85c1.92-0.12,3.08-2.02,2.16-3.76c-0.44-0.84-1.05-1.64-1.77-2.26c-0.42-0.36-0.86-0.71-1.33-0.99
			c-0.13-0.08-0.29-0.19-0.43-0.24c-0.15-0.09-0.11-0.04,0.14,0.14c-0.32-0.32-0.21-0.13,0.31,0.59c0,0.44,0,0.89,0,1.33
			c-0.14,0.25-0.28,0.5-0.42,0.75c-0.37,0.21-0.74,0.43-1.1,0.64c0.77-0.31,1.64-0.43,2.44-0.69c0.94-0.31,1.86-0.69,2.76-1.09
			c1.67-0.75,3.73-1.69,4.72-3.3c0.76-1.22,0.67-2.92-0.38-3.94c-0.93-0.9-2.2-1-3.42-1.14c-2.08-0.23-4.13-0.1-6.19,0.24
			c-1.29,0.21-2.13,1.89-1.75,3.08C379.89,417.62,381.13,418.19,382.52,417.96L382.52,417.96z"/>
	</g>
</g>
<g>
	<g>
		<path class="st1" d="M370.84,421.42c-0.23,4.24-0.09,8.48,0.44,12.69c1.05-0.8,2.11-1.61,3.16-2.41c0.09,0.04,0.19,0.08,0.28,0.13
			c-0.18-0.12-0.19-0.11-0.02,0.01c0.14,0.11,0.16,0.12,0.06,0.03c-0.06-0.06-0.12-0.12-0.17-0.19c0.12,0.13,0.22,0.34,0.08,0.07
			c-0.07-0.13-0.16-0.26-0.24-0.39c-0.35-0.6-0.7-1.19-1.16-1.72c-1.51-1.74-3.77-1.65-5.67-0.64c-0.16,0.08-0.32,0.17-0.47,0.26
			c-0.29,0.17,0.32-0.07-0.14,0.07c-0.3,0.09-0.18-0.03,0.01,0.01c0.52,0.12,1.01,0.71,1.31,1.13c0.17,0.25-0.1,0.32,0.1,0.03
			c-0.17,0.25,0.03-0.06,0.07-0.16c0.22-0.48,0.45-0.96,0.69-1.44c0.9-1.82,1.89-3.58,2.95-5.31c1.19-1.93-0.77-4.15-2.82-3.67
			c-1.83,0.43-3.6,1.12-5.26,2c1.25,0.72,2.51,1.44,3.76,2.16c-0.02,0.11-0.06,0.22-0.13,0.31c0.16-0.24,0.17-0.29,0.05-0.12
			c0.15-0.21,0.37-0.38,0.56-0.56c0.59-0.55,1.21-1.07,1.82-1.6c1.21-1.06,2.41-2.12,3.62-3.18c1.02-0.89,0.91-2.62,0-3.54
			c-1.01-1.01-2.52-0.89-3.54,0c-1.46,1.28-2.91,2.56-4.37,3.83c-1.51,1.33-3,2.67-3.01,4.85c-0.01,1.95,2.11,3.04,3.76,2.16
			c1.31-0.7,2.53-1.14,4.07-1.5c-0.94-1.22-1.88-2.45-2.82-3.67c-1.23,2-2.36,4.05-3.37,6.17c-0.54,1.14-1.13,2.28-1.11,3.57
			c0.03,1.6,1.15,3.01,2.69,3.41c1.26,0.32,2.52-0.04,3.63-0.63c0.2-0.11,0.39-0.23,0.59-0.33c0.56-0.28,0.09,0-0.02-0.03
			c-0.3-0.1-0.49-0.19-0.78-0.35c0.06,0.04,0.41,0.41,0.15,0.12c-0.25-0.28,0.06,0.1,0.11,0.18c0.1,0.16,0.19,0.32,0.28,0.47
			c0.17,0.29,0.33,0.58,0.52,0.86c0.67,0.97,1.47,1.64,2.6,2.03c1.4,0.48,3.36-0.83,3.16-2.41c-0.52-4.21-0.67-8.45-0.44-12.69
			c0.07-1.35-1.2-2.5-2.5-2.5C371.92,418.92,370.91,420.07,370.84,421.42L370.84,421.42z"/>
	</g>
</g>
<g>
	<g>
		<path class="st1" d="M368.19,416.13c-4.14-0.63-8.2-1.78-12-3.55c-0.64,1.52-1.28,3.05-1.93,4.57c1.46,0.54,2.99,0.84,4.54,0.95
			c1.55,0.11,3.54,0.11,4.91-0.7c3.16-1.86,1.29-6.59,0.35-9.24c-1.22,0.94-2.45,1.88-3.67,2.82c4.64,2.21,9.29,4.35,13.33,7.58
			c1.05,0.84,2.51,1.03,3.54,0c0.87-0.87,1.06-2.69,0-3.54c-2.18-1.75-4.46-3.35-6.91-4.71c-2.41-1.34-4.94-2.47-7.43-3.66
			c-0.92-0.44-1.94-0.47-2.78,0.2c-0.74,0.59-1.23,1.68-0.9,2.63c0.35,0.99,0.66,1.99,0.91,3.01c0.12,0.47,0.13,1.1,0.33,1.54
			c-0.13-0.27,0.09,0.15-0.01,0.17c0.29-0.4,0.58-0.8,0.87-1.2c-0.11,0.04-0.23,0.06-0.35,0.06c-0.82-0.13-1.74,0.1-2.59,0
			c-0.97-0.11-1.92-0.4-2.82-0.74c-2.63-0.98-4.5,3.37-1.93,4.57c4.2,1.96,8.6,3.36,13.19,4.05c1.33,0.2,2.69-0.34,3.08-1.75
			C370.26,418.02,369.54,416.33,368.19,416.13L368.19,416.13z"/>
	</g>
</g>
<g>
	<g>
		<path class="st1" d="M222.64,538.89c-1.28-1.81-2.5-3.66-3.49-5.65c-1.14,1.14-2.28,2.28-3.42,3.42c2.13,0.99,4.25,2.13,6.45,2.97
			c1.34,0.51,2.92,0.4,3.98-0.66c0.8-0.8,1.08-1.94,1.01-3.04c-0.02-0.28-0.03-0.57-0.06-0.85c0.01-0.27,0-0.17-0.05,0.3
			c-0.09,0.4-0.34,0.68-0.74,0.85c-0.47,0.57-1.06,0.68-1.8,0.32c0.12,0.06,0.23,0.13,0.34,0.19c1.33,0.7,2.79,0.78,4.11,0
			c1.17-0.68,1.88-1.8,2.37-3.02c0.15-0.37,0.27-0.74,0.41-1.11c0.19-0.52-0.22,0.31,0.06-0.11c0.06-0.11,0.12-0.22,0.2-0.33
			c-0.2,0.25-0.21,0.27-0.02,0.07c-1.18,0-2.36,0-3.54,0c-0.45-0.45-0.6-0.95-0.46-1.47c-0.02,0.09-0.04,0.17-0.07,0.26
			c-0.07,0.24-0.15,0.47-0.23,0.7c-0.07,0.21-0.15,0.41-0.23,0.61c-0.02,0.06-0.31,0.71-0.08,0.21c-0.4,0.86-0.82,1.7-1.31,2.5
			c-0.23,0.37-0.47,0.73-0.72,1.09c-0.04,0.06-0.49,0.66-0.32,0.44c0.17-0.21-0.3,0.36-0.35,0.42c-0.61,0.72-1.27,1.39-1.97,2.02
			c-0.97,0.88-0.96,2.65,0,3.54c1.04,0.96,2.5,0.94,3.54,0c1.82-1.64,3.39-3.6,4.59-5.74c0.64-1.13,1.17-2.34,1.61-3.56
			c0.24-0.65,0.46-1.31,0.49-2.01c0.04-1.02-0.32-1.78-0.95-2.55c-0.85-1.04-2.67-0.89-3.54,0c-0.78,0.8-1.21,1.73-1.59,2.77
			c-0.07,0.18-0.14,0.37-0.2,0.56c-0.16,0.48,0.25-0.34-0.05,0.13c-0.04,0.06-0.35,0.51-0.14,0.25c0.11-0.14,0.09-0.13-0.07,0.05
			c-0.18,0.16-0.2,0.18-0.05,0.05c0.09-0.1,0.21-0.16,0.36-0.17c-0.23,0.06-0.23,0.07-0.02,0.02c0.3-0.08,0.59-0.03,0.87,0.16
			c-0.09-0.04-0.17-0.09-0.26-0.14c-0.59-0.33-1.18-0.56-1.86-0.62c-1.42-0.12-2.75,0.85-3.16,2.19c-0.22,0.7-0.14,1.34-0.1,2.05
			c0.01,0.14-0.01,0.29,0.01,0.43c-0.01,0.2,0,0.09,0.04-0.33c0.05-0.12,0.11-0.24,0.16-0.36c0.3-0.47,0.76-0.74,1.37-0.8
			c0.1,0.02,0.2,0.03,0.3,0.05c-0.09,0.05-0.65-0.18-0.12-0.01c-0.97-0.32-1.92-0.89-2.84-1.32c-0.95-0.44-1.89-0.88-2.84-1.32
			c-0.98-0.46-2.24-0.47-3.03,0.39c-0.79,0.86-0.91,1.99-0.39,3.03c0.99,1.99,2.21,3.84,3.49,5.65c0.75,1.07,2.22,1.67,3.42,0.9
			C222.8,541.63,223.45,540.03,222.64,538.89L222.64,538.89z"/>
	</g>
</g>
<g>
	<g>
		<path class="st1" d="M220.47,542.57c-0.82,3.26-0.85,6.61-0.12,9.89c0.48,2.17,3.5,2.35,4.57,0.6c0.62-1.01,1.11-2.13,1.41-3.28
			c0.16-0.63,0.26-1.28,0.33-1.93c0.03-0.23,0.05-0.47,0.06-0.7c0.02-0.27,0.01-0.22-0.02,0.16c-0.21,0.52-0.6,0.89-1.18,1.11
			c-0.44,0-0.89,0-1.33,0c-0.61-0.47-0.76-0.55-0.44-0.24c0.09,0.1,0.18,0.2,0.28,0.3c0.18,0.2,0.37,0.4,0.55,0.61
			c0.4,0.44,0.8,0.87,1.2,1.31c0.8,0.87,1.6,1.75,2.4,2.62c0.79,0.87,2.05,0.86,3.03,0.39c1.97-0.95,1.8-3.25,1.37-5.01
			c-0.4-1.61-0.8-3.21-1.19-4.82c-1.22,0.94-2.45,1.88-3.67,2.82c1.01,0.66,2.01,1.32,3.02,1.98c0.97,0.64,1.91,1.32,3.02,1.71
			c2.81,0.98,6.15-1.18,5.45-4.35c-0.54-2.44-3.01-3.65-5.2-4.27c-2.36-0.66-4.81-0.68-7.21-0.2c-1.28,0.26-2.14,1.85-1.75,3.08
			c0.46,1.42,1.68,1.95,3.08,1.75c1.34-0.19,2.67-0.39,4.01-0.58c1.3-0.19,2.13-1.9,1.75-3.08c-0.46-1.42-1.68-1.95-3.08-1.75
			c-1.34,0.19-2.67,0.39-4.01,0.58c0.44,1.61,0.89,3.21,1.33,4.82c0.2-0.04,0.41-0.08,0.61-0.11c0.4-0.07-0.33,0,0.07,0
			c0.37-0.01,0.74-0.05,1.11-0.06c0.37,0,0.74,0.01,1.11,0.05c0.04,0,0.52,0.06,0.28,0.03c-0.29-0.04,0.34,0.06,0.4,0.07
			c0.72,0.14,1.45,0.34,2.13,0.63c-0.21-0.08-0.09-0.05,0.04,0.02c0.15,0.09,0.29,0.18,0.44,0.26c0.27,0.14-0.2-0.24-0.02,0
			c0.1,0.13,0.29,0.45,0.06,0.02c0.15,0.28,0.02,0.06-0.03-0.1c-0.09-0.31,0.01-0.78,0.16-1.05c0.14-0.24,0.33-0.31,0.55-0.44
			c0.24-0.16-0.2-0.03,0.11-0.03c0.21-0.02,0.2-0.03-0.03-0.03c0.09,0.01,0.18,0.02,0.27,0.02c-0.2,0-0.27-0.1-0.02,0.02
			c-0.3-0.15-0.58-0.33-0.86-0.51c-1.43-0.93-2.85-1.87-4.28-2.8c-1.9-1.24-4.17,0.8-3.67,2.82c0.29,1.17,0.58,2.34,0.87,3.52
			c0.14,0.56,0.28,1.13,0.42,1.69c0.09,0.38,0.08,0.53,0.06,0.09c0,0.28,0.02,0.23,0.06-0.17c0.14-0.38,0.38-0.7,0.71-0.95
			c1.01,0.13,2.02,0.26,3.03,0.39c-0.99-1.08-1.97-2.15-2.96-3.23c-1.21-1.32-2.56-3.25-4.64-2.64c-1.95,0.57-2.31,2.36-2.44,4.13
			c-0.03,0.38,0.09-0.34-0.01,0.03c-0.04,0.15-0.06,0.31-0.1,0.46c-0.07,0.31-0.16,0.61-0.26,0.9c-0.01,0.04-0.17,0.48-0.08,0.25
			c0.09-0.23-0.09,0.2-0.11,0.24c-0.15,0.32-0.33,0.62-0.51,0.92c1.52,0.2,3.05,0.4,4.57,0.6c-0.08-0.34-0.14-0.68-0.2-1.03
			c-0.05-0.31-0.05-0.35-0.02-0.11c-0.02-0.17-0.04-0.35-0.06-0.52c-0.06-0.65-0.09-1.31-0.08-1.96c0.02-1.52,0.12-2.16,0.48-3.61
			c0.32-1.27-0.41-2.77-1.75-3.08C222.25,540.53,220.81,541.21,220.47,542.57L220.47,542.57z"/>
	</g>
</g>
<g>
	<g>
		<path class="st1" d="M358.26,536.67c-0.08-0.32-0.15-0.65-0.21-0.98c-0.01-0.07-0.1-0.64-0.05-0.26c0.05,0.38-0.02-0.25-0.02-0.26
			c-0.06-0.66-0.07-1.33-0.04-2c-1.42,0.59-2.85,1.18-4.27,1.77c0.52,0.59,1.04,1.18,1.56,1.77c0.66,0.74,1.3,1.47,2.29,1.77
			c1.22,0.36,2.49-0.09,3.39-0.95c0.62-0.6,1.08-1.43,1.56-2.14c0.1-0.14,0.19-0.28,0.29-0.43c0.08-0.11,0.15-0.23,0.23-0.34
			c-0.07,0.09-0.14,0.17-0.2,0.26c-0.73,0.59-1.62,0.55-2.65-0.11c-0.08-0.11-0.17-0.22-0.25-0.32c0,0.08,0.13,0.25,0.17,0.34
			c0.38,0.79,0.95,1.46,1.76,1.83c1,0.47,2.12,0.58,3.19,0.25c1.01-0.31,1.77-0.92,2.59-1.56c-1.01,0.13-2.02,0.26-3.03,0.39
			c-0.81-0.62-1.12-1.34-0.94-2.16c0.18-0.37,0.22-0.48,0.13-0.31c-0.09,0.13-0.16,0.27-0.25,0.4c-0.11,0.16-0.22,0.31-0.33,0.47
			c-0.28,0.4,0.33-0.39-0.01,0.01c-0.45,0.52-0.91,1.01-1.43,1.46c-0.12,0.11-0.25,0.21-0.38,0.32c-0.15,0.12-0.08,0.07,0.18-0.14
			c-0.09,0.07-0.18,0.13-0.26,0.19c-0.27,0.19-0.54,0.37-0.82,0.54c-0.28,0.17-0.57,0.32-0.86,0.47c-0.03,0.01-0.42,0.23-0.45,0.21
			c0.35-0.14,0.39-0.16,0.14-0.06c-0.1,0.04-0.2,0.08-0.31,0.12c-1.22,0.45-2.19,1.71-1.75,3.08c0.39,1.2,1.76,2.23,3.08,1.75
			c2.08-0.78,3.98-1.91,5.56-3.48c0.77-0.76,1.46-1.63,2.04-2.53c0.39-0.61,0.66-1.33,0.66-2.06c0.01-1-0.54-2.15-1.49-2.57
			c-1.14-0.51-2.07-0.37-3.03,0.39c-0.47,0.37,0.45-0.29-0.06,0.03c-0.1,0.06-0.19,0.13-0.29,0.19c-0.07,0.05-0.15,0.09-0.23,0.13
			c-0.17,0.08-0.1,0.06,0.2-0.08c0-0.01-0.65,0.2-0.11,0.05c0.24-0.03,0.26-0.04,0.05-0.03c0.13,0.02,0.26,0.04,0.39,0.06
			c-0.41-0.11,0.4,0.25,0.15,0.09c-0.17-0.09-0.09-0.03,0.23,0.2c0.07,0.1,0.15,0.2,0.22,0.3c-0.01-0.06-0.15-0.27-0.18-0.33
			c-0.32-0.66-0.76-1.31-1.43-1.66c-1.2-0.62-2.74-0.44-3.69,0.57c-0.53,0.57-0.94,1.27-1.37,1.92c-0.17,0.26-0.51,0.6-0.6,0.89
			c0.05-0.15,0.3-0.44,0.05-0.1c-0.1,0.09-0.07,0.07,0.08-0.06c0.14-0.13,0.3-0.21,0.48-0.26c0.46,0.06,0.92,0.12,1.38,0.17
			c0.29,0.25,0.36,0.31,0.22,0.18c-0.08-0.09-0.17-0.17-0.25-0.26c-0.22-0.24-0.43-0.49-0.65-0.74c-0.48-0.54-0.96-1.08-1.43-1.62
			c-0.66-0.75-1.86-0.88-2.73-0.52c-0.94,0.4-1.49,1.27-1.54,2.28c-0.08,1.62,0.11,3.26,0.5,4.82c0.32,1.27,1.81,2.15,3.08,1.75
			C357.83,539.32,358.59,538.03,358.26,536.67L358.26,536.67z"/>
	</g>
</g>
<g>
	<g>
		<path class="st1" d="M354.56,538.53c-2.74,1.75-5.03,4.03-6.79,6.77c-0.94,1.46,0.06,3.13,1.49,3.67c1.58,0.59,3.33,0.11,4.74-0.7
			c0.53-0.31,1.02-0.69,1.55-1.01c0.08-0.05,0.79-0.4,0.45-0.27c0.16-0.06,0.32-0.1,0.49-0.14c-0.25,0.04-0.22,0.06,0.09,0.05
			c-0.8-1.05-1.61-2.11-2.41-3.16c-0.3,1.09-0.6,2.18-0.9,3.27c-0.4,1.43-0.68,2.88,0.43,4.08c1.05,1.12,2.64,1.09,3.93,0.49
			c1.05-0.48,1.81-1.49,2.45-2.41c0.27-0.4,0.51-0.82,0.71-1.25c0.15-0.31,0.3-0.63,0.41-0.96c0.08-0.19,0.06-0.16-0.04,0.07
			c-0.6,0.68-1.21,0.91-1.85,0.7c-0.2-0.03-0.31-0.24-0.08,0c0.14,0.16,0.29,0.3,0.44,0.46c0.26,0.3,0.51,0.6,0.75,0.91
			c1.14,1.43,2.45,2.8,4.33,3.2c1.18,0.25,2.14-0.19,2.82-1.15c1.54-2.16,0.29-5.02-0.69-7.13c-0.94-2.04-2.26-3.9-3.78-5.55
			c-0.89-0.96-2.65-0.97-3.54,0c-0.95,1.03-0.95,2.51,0,3.54c1.08,1.17,1.84,2.25,2.65,3.82c0.18,0.35,0.36,0.71,0.51,1.08
			c0.19,0.44-0.19-0.53,0.1,0.26c0.06,0.17,0.12,0.33,0.18,0.5c0.07,0.19,0.13,0.39,0.19,0.59c0.03,0.09,0.13,0.62,0.07,0.15
			c0,0.04,0.02,0.46,0.01,0.46c-0.18,0,0.37-0.8-0.03-0.24c0.94-0.38,1.88-0.77,2.82-1.15c-0.07-0.01-0.63-0.13-0.28-0.04
			c0.3,0.07-0.17-0.1-0.23-0.13c-0.23-0.11-0.15-0.09,0.02,0.05c-0.13-0.11-0.26-0.22-0.38-0.34c-0.48-0.47-0.89-1-1.31-1.53
			c-1.19-1.49-2.88-3.2-5-2.58c-1.37,0.4-1.93,1.39-2.46,2.6c0.1-0.24-0.02,0.04-0.06,0.12c-0.1,0.2-0.2,0.39-0.31,0.57
			c-0.11,0.19-0.23,0.37-0.36,0.55c0.18-0.25-0.12,0.14-0.18,0.21c-0.19,0.21-0.47,0.29-0.05,0.13c-0.32,0.12-0.05-0.01,0.08-0.02
			c2.97-0.18,1.97,3.41,2.44,1.71c0.07-0.25,0.14-0.5,0.21-0.74c0.27-0.99,0.55-1.98,0.82-2.97c0.45-1.63-0.81-3.08-2.41-3.16
			c-1.46-0.07-2.81,0.53-4,1.33c-0.47,0.32-0.94,0.67-1.46,0.91c0.32-0.15-0.3,0.1-0.39,0.11c0.25-0.02,0.22-0.03-0.08-0.02
			c0.26,0.02,0.24,0-0.06-0.09c0.5,1.22,1,2.45,1.49,3.67c0.18-0.29,0.37-0.57,0.57-0.84c0.1-0.14,0.2-0.27,0.3-0.41
			c-0.13,0.17-0.1,0.14,0.08-0.09c0.41-0.48,0.83-0.96,1.28-1.41c0.45-0.45,0.93-0.87,1.42-1.28c0.23-0.19,0.26-0.21,0.1-0.08
			c0.14-0.1,0.27-0.2,0.41-0.3c0.28-0.2,0.56-0.38,0.85-0.56c1.1-0.7,1.65-2.26,0.9-3.42C357.27,538.32,355.74,537.77,354.56,538.53
			L354.56,538.53z"/>
	</g>
</g>
<g class="st2">
	<g>
		<path class="st1" d="M270.69,412.08c-2.38,7.06-3.9,14.38-4.55,21.8c-0.6,6.82-0.77,14.12,2.58,20.31
			c1.53,2.83,5.85,0.31,4.32-2.52c-2.96-5.47-2.41-12.28-1.85-18.26c0.64-6.81,2.14-13.52,4.33-20
			C276.54,410.36,271.71,409.05,270.69,412.08L270.69,412.08z"/>
	</g>
</g>
<g class="st2">
	<g>
		<path class="st1" d="M315.03,415.72c4.68,11.13,7.04,24.38,0.09,35.12c-1.75,2.71,2.58,5.22,4.32,2.52
			c7.63-11.82,5.59-26.65,0.41-38.97c-0.52-1.24-1.65-2.14-3.08-1.75C315.6,412.97,314.5,414.47,315.03,415.72L315.03,415.72z"/>
	</g>
</g>
<g class="st2">
	<g>
		<path class="st1" d="M294.14,417.08c-0.08,13.37-0.47,26.74-1.17,40.1c-0.17,3.22,4.83,3.21,5,0c0.7-13.35,1.09-26.72,1.17-40.1
			C299.16,413.87,294.16,413.86,294.14,417.08L294.14,417.08z"/>
	</g>
</g>
<g class="st2">
	<g>
		<path class="st1" d="M204.66,458.51c-4.89,11.52-6.36,24.06-4.22,36.39c0.23,1.33,1.86,2.08,3.08,1.75
			c1.41-0.39,1.98-1.74,1.75-3.08c-1.89-10.87-0.6-22.37,3.71-32.54c0.53-1.24,0.37-2.68-0.9-3.42
			C207.03,457,205.19,457.26,204.66,458.51L204.66,458.51z"/>
	</g>
</g>
<g class="st2">
	<g>
		<path class="st1" d="M216.94,466.1c-1.05,11.47-1.07,23.01-0.07,34.48c0.12,1.35,1.06,2.5,2.5,2.5c1.26,0,2.62-1.15,2.5-2.5
			c-1.01-11.47-0.99-23.01,0.07-34.48c0.12-1.35-1.24-2.5-2.5-2.5C217.99,463.6,217.07,464.75,216.94,466.1L216.94,466.1z"/>
	</g>
</g>
<g class="st2">
	<g>
		<path class="st1" d="M230.13,469.82c3.65,12.97,2.79,26.84-2.29,39.31c-0.51,1.25,0.55,2.75,1.75,3.08
			c1.43,0.39,2.56-0.49,3.08-1.75c5.39-13.24,6.16-28.21,2.29-41.97C234.08,465.4,229.26,466.71,230.13,469.82L230.13,469.82z"/>
	</g>
</g>
<g class="st2">
	<g>
		<path class="st1" d="M351.75,467.7c-2.41,12.77-4.34,26.27,1.49,38.44c0.58,1.22,2.32,1.54,3.42,0.9c1.24-0.73,1.48-2.2,0.9-3.42
			c-5.18-10.81-3.11-23.29-0.98-34.59c0.25-1.33-0.37-2.7-1.75-3.08C353.61,465.62,352,466.37,351.75,467.7L351.75,467.7z"/>
	</g>
</g>
<g class="st2">
	<g>
		<path class="st1" d="M363.99,469.17c-0.34,9.96-0.69,19.91-1.03,29.87c-0.11,3.22,4.89,3.21,5,0c0.34-9.96,0.69-19.91,1.03-29.87
			C369.1,465.95,364.1,465.95,363.99,469.17L363.99,469.17z"/>
	</g>
</g>
<g class="st2">
	<g>
		<path class="st1" d="M380.97,463.38c2.26,14.08-4.22,27.66-11.44,39.29c-1.7,2.74,2.62,5.26,4.32,2.52
			c8.03-12.94,14.44-27.6,11.95-43.15c-0.21-1.33-1.88-2.08-3.08-1.75C381.29,460.69,380.75,462.04,380.97,463.38L380.97,463.38z"/>
	</g>
</g>
<g class="st2">
	<g>
		<path class="st1" d="M276.82,541.58c1.04,7.65,2.49,15.23,4.35,22.72c0.77,3.12,5.6,1.8,4.82-1.33
			c-1.86-7.49-3.31-15.07-4.35-22.72c-0.18-1.34-1.9-2.07-3.08-1.75C277.12,538.9,276.64,540.23,276.82,541.58L276.82,541.58z"/>
	</g>
</g>
<g class="st2">
	<g>
		<path class="st1" d="M293.88,546.78c0.44,6.13,0.89,12.26,1.33,18.4c0.1,1.35,1.08,2.5,2.5,2.5c1.28,0,2.6-1.15,2.5-2.5
			c-0.44-6.13-0.89-12.26-1.33-18.4c-0.1-1.35-1.08-2.5-2.5-2.5C295.1,544.28,293.78,545.43,293.88,546.78L293.88,546.78z"/>
	</g>
</g>
<g class="st2">
	<g>
		<path class="st1" d="M309.76,546.16c1.77,5.8,0.29,11.85-1.11,17.57c-0.32,1.31,0.42,2.71,1.75,3.08
			c1.28,0.35,2.75-0.43,3.08-1.75c1.61-6.58,3.15-13.56,1.11-20.23c-0.39-1.29-1.75-2.11-3.08-1.75
			C310.23,543.43,309.37,544.86,309.76,546.16L309.76,546.16z"/>
	</g>
</g>
<g class="st2">
	<g>
		<path class="st1" d="M239.01,346.97c-0.89-0.57-1.77-1.15-2.61-1.8c0.84,0.65,1.69,1.3,2.53,1.95c-0.72-0.58-1.38-1.19-1.97-1.89
			c0.65,0.84,1.3,1.69,1.95,2.53c-0.39-0.5-0.72-1.01-1-1.58c0.42,1,0.84,1.99,1.26,2.99c-0.21-0.49-0.35-0.98-0.45-1.51
			c0.15,1.11,0.3,2.22,0.45,3.32c-0.07-0.53-0.08-1.04-0.04-1.58c-0.15,1.11-0.3,2.22-0.45,3.32c0.07-0.52,0.19-1,0.39-1.48
			c-0.42,1-0.84,1.99-1.26,2.99c0.13-0.28,0.27-0.52,0.45-0.77c-0.65,0.84-1.3,1.69-1.95,2.53c0.19-0.24,0.38-0.44,0.61-0.65
			c-0.84,0.65-1.69,1.3-2.53,1.95c0.28-0.21,0.54-0.36,0.86-0.52c-1,0.42-1.99,0.84-2.99,1.26c0.39-0.14,0.73-0.23,1.14-0.29
			c-1.11,0.15-2.22,0.3-3.32,0.45c0.41-0.03,0.79-0.03,1.2,0.01c-1.11-0.15-2.22-0.3-3.32-0.45c0.82,0.12,1.58,0.34,2.35,0.66
			c-1-0.42-1.99-0.84-2.99-1.26c0.66,0.3,1.28,0.65,1.86,1.09c-0.84-0.65-1.69-1.3-2.53-1.95c0.37,0.31,0.68,0.63,0.98,1.01
			c-0.65-0.84-1.3-1.69-1.95-2.53c0.14,0.19,0.26,0.39,0.36,0.6c-0.42-1-0.84-1.99-1.26-2.99c0.14,0.34,0.24,0.64,0.31,1
			c-0.15-1.11-0.3-2.22-0.45-3.32c0.04,0.36,0.04,0.67,0.01,1.03c0.15-1.11,0.3-2.22,0.45-3.32c-0.08,0.47-0.2,0.89-0.39,1.34
			c0.42-1,0.84-1.99,1.26-2.99c-0.16,0.33-0.34,0.62-0.54,0.92c0.65-0.84,1.3-1.69,1.95-2.53c-0.3,0.38-0.62,0.71-0.99,1.03
			c0.84-0.65,1.69-1.3,2.53-1.95c-0.41,0.3-0.83,0.54-1.29,0.75c1-0.42,1.99-0.84,2.99-1.26c-0.62,0.24-1.24,0.4-1.9,0.51
			c1.11-0.15,2.22-0.3,3.32-0.45c-1.07,0.12-2.12,0.09-3.19-0.05c1.11,0.15,2.22,0.3,3.32,0.45c-1.06-0.16-2.07-0.43-3.06-0.84
			c1,0.42,1.99,0.84,2.99,1.26c-0.75-0.33-1.43-0.72-2.09-1.21c0.84,0.65,1.69,1.3,2.53,1.95c-0.44-0.35-0.82-0.72-1.18-1.15
			c0.65,0.84,1.3,1.69,1.95,2.53c-0.33-0.43-0.59-0.87-0.8-1.37c0.42,1,0.84,1.99,1.26,2.99c-0.11-0.31-0.19-0.6-0.25-0.93
			c0.15,1.11,0.3,2.22,0.45,3.32c-0.06-0.46-0.06-0.9-0.02-1.36c-0.15,1.11-0.3,2.22-0.45,3.32c0.08-0.46,0.21-0.88,0.39-1.32
			c-0.42,1-0.84,1.99-1.26,2.99c0.21-0.42,0.45-0.8,0.73-1.18c-0.65,0.84-1.3,1.69-1.95,2.53c0.39-0.47,0.81-0.87,1.28-1.25
			c-0.84,0.65-1.69,1.3-2.53,1.95c0.6-0.44,1.21-0.81,1.89-1.12c-1,0.42-1.99,0.84-2.99,1.26c0.84-0.35,1.68-0.59,2.57-0.73
			c-1.11,0.15-2.22,0.3-3.32,0.45c0.67-0.08,1.31-0.09,1.98-0.02c-1.11-0.15-2.22-0.3-3.32-0.45c0.52,0.09,1,0.22,1.49,0.43
			c-1-0.42-1.99-0.84-2.99-1.26c0.33,0.17,0.62,0.35,0.92,0.57c-0.84-0.65-1.69-1.3-2.53-1.95c0.23,0.2,0.42,0.39,0.62,0.62
			c-0.65-0.84-1.3-1.69-1.95-2.53c0.23,0.31,0.42,0.62,0.58,0.97c-0.42-1-0.84-1.99-1.26-2.99c0.18,0.45,0.3,0.9,0.37,1.38
			c-0.15-1.11-0.3-2.22-0.45-3.32c0.06,0.61,0.04,1.19-0.04,1.79c0.15-1.11,0.3-2.22,0.45-3.32c-0.11,0.62-0.28,1.21-0.51,1.79
			c0.42-1,0.84-1.99,1.26-2.99c-0.3,0.68-0.66,1.3-1.11,1.89c0.65-0.84,1.3-1.69,1.95-2.53c-0.35,0.42-0.72,0.79-1.14,1.14
			c0.84-0.65,1.69-1.3,2.53-1.95c-0.73,0.55-1.48,0.99-2.32,1.34c1-0.42,1.99-0.84,2.99-1.26c-0.73,0.27-1.45,0.46-2.22,0.58
			c1.11-0.15,2.22-0.3,3.32-0.45c-0.77,0.08-1.5,0.08-2.27-0.02c1.11,0.15,2.22,0.3,3.32,0.45c-0.63-0.11-1.22-0.29-1.81-0.53
			c1,0.42,1.99,0.84,2.99,1.26c-0.42-0.2-0.8-0.42-1.18-0.69c0.84,0.65,1.69,1.3,2.53,1.95c-0.55-0.43-1.02-0.9-1.45-1.44
			c0.65,0.84,1.3,1.69,1.95,2.53c-0.33-0.47-0.61-0.95-0.85-1.47c0.42,1,0.84,1.99,1.26,2.99c-0.21-0.53-0.36-1.06-0.46-1.62
			c0.15,1.11,0.3,2.22,0.45,3.32c-0.07-0.57-0.07-1.1-0.01-1.67c-0.15,1.11-0.3,2.22-0.45,3.32c0.08-0.44,0.19-0.85,0.35-1.27
			c-0.42,1-0.84,1.99-1.26,2.99c0.17-0.38,0.37-0.72,0.61-1.05c-0.65,0.84-1.3,1.69-1.95,2.53c0.33-0.4,0.68-0.75,1.09-1.07
			c-0.84,0.65-1.69,1.3-2.53,1.95c0.42-0.3,0.86-0.55,1.33-0.76c-1,0.42-1.99,0.84-2.99,1.26c0.48-0.18,0.96-0.31,1.47-0.39
			c-1.11,0.15-2.22,0.3-3.32,0.45c0.4-0.04,0.79-0.04,1.2-0.01c-1.11-0.15-2.22-0.3-3.32-0.45c0.4,0.06,0.77,0.15,1.15,0.29
			c-1-0.42-1.99-0.84-2.99-1.26c0.38,0.17,0.72,0.37,1.06,0.61c-0.84-0.65-1.69-1.3-2.53-1.95c0.24,0.21,0.45,0.42,0.67,0.66
			c-0.65-0.84-1.3-1.69-1.95-2.53c0.26,0.34,0.47,0.68,0.65,1.06c-0.42-1-0.84-1.99-1.26-2.99c0.21,0.49,0.35,0.98,0.44,1.51
			c-0.15-1.11-0.3-2.22-0.45-3.32c0.06,0.54,0.06,1.05,0,1.58c0.15-1.11,0.3-2.22,0.45-3.32c-0.07,0.42-0.17,0.82-0.32,1.23
			c0.42-1,0.84-1.99,1.26-2.99c-0.17,0.4-0.36,0.75-0.6,1.11c0.65-0.84,1.3-1.69,1.95-2.53c-0.36,0.46-0.74,0.84-1.2,1.2
			c0.84-0.65,1.69-1.3,2.53-1.95c-0.38,0.26-0.77,0.48-1.18,0.67c1-0.42,1.99-0.84,2.99-1.26c-0.54,0.21-1.08,0.36-1.65,0.46
			c1.11-0.15,2.22-0.3,3.32-0.45c-0.58,0.07-1.14,0.08-1.72,0.03c1.11,0.15,2.22,0.3,3.32,0.45c-0.58-0.08-1.12-0.21-1.67-0.42
			c1,0.42,1.99,0.84,2.99,1.26c-0.56-0.24-1.06-0.53-1.55-0.88c0.84,0.65,1.69,1.3,2.53,1.95c-0.57-0.45-1.06-0.94-1.52-1.51
			c0.65,0.84,1.3,1.69,1.95,2.53c-0.43-0.59-0.78-1.2-1.08-1.87c0.42,1,0.84,1.99,1.26,2.99c-0.27-0.68-0.46-1.36-0.57-2.08
			c0.15,1.11,0.3,2.22,0.45,3.32c-0.08-0.67-0.07-1.32,0.02-2c-0.15,1.11-0.3,2.22-0.45,3.32c0.1-0.56,0.24-1.08,0.46-1.6
			c-0.42,1-0.84,1.99-1.26,2.99c0.19-0.4,0.4-0.75,0.66-1.11c-0.65,0.84-1.3,1.69-1.95,2.53c0.21-0.25,0.42-0.46,0.66-0.67
			c-0.84,0.65-1.69,1.3-2.53,1.95c0.27-0.19,0.51-0.35,0.81-0.49c-1,0.42-1.99,0.84-2.99,1.26c0.32-0.13,0.61-0.21,0.95-0.27
			c-1.11,0.15-2.22,0.3-3.32,0.45c0.34-0.03,0.63-0.02,0.96,0.02c-1.11-0.15-2.22-0.3-3.32-0.45c0.33,0.07,0.61,0.16,0.92,0.28
			c-1-0.42-1.99-0.84-2.99-1.26c0.3,0.15,0.57,0.31,0.85,0.5c-0.84-0.65-1.69-1.3-2.53-1.95c0.36,0.29,0.67,0.59,0.96,0.94
			c-0.65-0.84-1.3-1.69-1.95-2.53c0.28,0.37,0.5,0.75,0.7,1.17c-0.42-1-0.84-1.99-1.26-2.99c0.17,0.43,0.29,0.85,0.36,1.3
			c-0.15-1.11-0.3-2.22-0.45-3.32c0.03,0.35,0.03,0.66,0,1.01c0.15-1.11,0.3-2.22,0.45-3.32c-0.07,0.47-0.19,0.9-0.35,1.34
			c0.42-1,0.84-1.99,1.26-2.99c-0.24,0.54-0.52,1.01-0.87,1.48c0.65-0.84,1.3-1.69,1.95-2.53c-0.38,0.46-0.79,0.86-1.25,1.23
			c0.84-0.65,1.69-1.3,2.53-1.95c-0.58,0.43-1.19,0.79-1.85,1.09c1-0.42,1.99-0.84,2.99-1.26c-0.78,0.32-1.56,0.53-2.39,0.64
			c1.11-0.15,2.22-0.3,3.32-0.45c-0.6,0.05-1.18,0.05-1.77-0.01c1.11,0.15,2.22,0.3,3.32,0.45c-0.47-0.07-0.9-0.18-1.35-0.34
			c1,0.42,1.99,0.84,2.99,1.26c-0.43-0.19-0.8-0.4-1.17-0.69c0.84,0.65,1.69,1.3,2.53,1.95c-0.18-0.15-0.34-0.31-0.48-0.49
			c0.65,0.84,1.3,1.69,1.95,2.53c-0.23-0.3-0.4-0.59-0.57-0.93c0.42,1,0.84,1.99,1.26,2.99c-0.18-0.47-0.3-0.92-0.37-1.41
			c0.15,1.11,0.3,2.22,0.45,3.32c-0.04-0.5-0.03-0.97,0.03-1.47c-0.15,1.11-0.3,2.22-0.45,3.32c0.08-0.47,0.2-0.91,0.37-1.36
			c-0.42,1-0.84,1.99-1.26,2.99c0.24-0.55,0.53-1.04,0.88-1.53c-0.65,0.84-1.3,1.69-1.95,2.53c0.38-0.46,0.78-0.86,1.25-1.23
			c-0.84,0.65-1.69,1.3-2.53,1.95c0.39-0.27,0.78-0.49,1.2-0.69c-1,0.42-1.99,0.84-2.99,1.26c0.44-0.17,0.87-0.28,1.33-0.36
			c-1.11,0.15-2.22,0.3-3.32,0.45c0.35-0.03,0.68-0.04,1.03-0.02c-1.11-0.15-2.22-0.3-3.32-0.45c0.45,0.06,0.86,0.17,1.29,0.34
			c-1-0.42-1.99-0.84-2.99-1.26c0.41,0.19,0.79,0.42,1.15,0.69c-0.84-0.65-1.69-1.3-2.53-1.95c0.35,0.3,0.65,0.61,0.94,0.96
			c-0.65-0.84-1.3-1.69-1.95-2.53c0.26,0.37,0.47,0.74,0.66,1.15c-0.42-1-0.84-1.99-1.26-2.99c0.11,0.32,0.2,0.61,0.26,0.95
			c-0.15-1.11-0.3-2.22-0.45-3.32c0.04,0.34,0.05,0.64,0.03,0.98c0.15-1.11,0.3-2.22,0.45-3.32c-0.05,0.32-0.11,0.61-0.22,0.92
			c0.42-1,0.84-1.99,1.26-2.99c-0.11,0.26-0.24,0.49-0.39,0.72c0.65-0.84,1.3-1.69,1.95-2.53c-0.23,0.3-0.47,0.55-0.76,0.79
			c0.84-0.65,1.69-1.3,2.53-1.95c-0.31,0.22-0.61,0.4-0.96,0.56c1-0.42,1.99-0.84,2.99-1.26c-0.35,0.14-0.7,0.24-1.07,0.31
			c1.11-0.15,2.22-0.3,3.32-0.45c-0.46,0.06-0.9,0.07-1.36,0.01c1.11,0.15,2.22,0.3,3.32,0.45c-0.27-0.05-0.51-0.12-0.77-0.22
			c1,0.42,1.99,0.84,2.99,1.26c-0.25-0.12-0.46-0.24-0.69-0.39c0.84,0.65,1.69,1.3,2.53,1.95c-0.22-0.18-0.39-0.36-0.58-0.58
			c0.65,0.84,1.3,1.69,1.95,2.53c-0.14-0.19-0.26-0.39-0.36-0.6c0.42,1,0.84,1.99,1.26,2.99c-0.14-0.34-0.23-0.64-0.3-0.99
			c0.15,1.11,0.3,2.22,0.45,3.32c-0.05-0.48-0.05-0.93,0.01-1.4c-0.15,1.11-0.3,2.22-0.45,3.32c0.1-0.48,0.23-0.93,0.42-1.38
			c-0.42,1-0.84,1.99-1.26,2.99c0.22-0.44,0.46-0.84,0.76-1.24c-0.65,0.84-1.3,1.69-1.95,2.53c0.34-0.4,0.71-0.75,1.12-1.08
			c-0.84,0.65-1.69,1.3-2.53,1.95c0.87-0.65,1.8-1.14,2.8-1.57c-1,0.42-1.99,0.84-2.99,1.26c4.12-1.69,8.45-3,12.71-4.28
			c4.24-1.28,8.51-2.44,12.81-3.48c8.76-2.13,17.64-3.76,26.57-4.98c-1.11,0.15-2.22,0.3-3.32,0.45c11.83-1.59,23.91-2.9,35.81-1.36
			c-1.11-0.15-2.22-0.3-3.32-0.45c7.73,1.04,15.32,2.94,22.89,4.79c7.25,1.77,14.48,3.69,21.38,6.57c-1-0.42-1.99-0.84-2.99-1.26
			c5.12,2.18,9.73,5.2,14.68,7.7c5.87,2.97,12.05,4.82,18.4,6.41c4.36,1.09,8.95,0,12.16-3.21c1.55-1.56,2.62-3.4,3.21-5.52
			c0.6-2.22,0.6-4.43,0-6.65c-0.44-3.07-2.67-6.42-4.94-8.45c-1.95-1.74-4.16-3.18-6.33-4.63c-3.15-2.1-6.29-4.2-9.44-6.3
			c-6.05-4.04-12.03-8.41-18.67-11.45c-7.49-3.42-15.16-5.48-23.29-6.71c-8.45-1.27-16.98-2.36-25.54-2.54
			c-16.12-0.34-31.94,3.58-47.56,7.11c-7.46,1.69-14.91,3.49-22.25,5.65c-6.44,1.89-13.23,4.03-18.71,8.04
			c-3.71,2.71-6.94,5.67-9.31,9.68c-2.4,4.07-3.7,8.93-3.67,13.65c0.06,8.93,4.43,17.93,11.18,23.74c3.25,2.8,6.75,5.23,10.63,7.06
			c3.82,1.8,7.77,3.35,11.78,4.68c6.9,2.29,13.99,4,21.15,5.27c15.22,2.69,30.64,3.69,46.07,3.96c15.67,0.27,31.86,0.84,47.22-2.86
			c6.99-1.69,14.02-4.46,20.06-8.4c3.33-2.18,6.56-4.67,9.35-7.53c1.66-1.7,3.31-3.55,4.38-5.67c2.75-5.44,2.57-11.59-1.2-16.48
			c-2.17-2.81-5.22-4.91-8.77-5.6c-3.69-0.71-6.24-0.47-9.98,0.17c-3.58,0.61-7.14,1.38-10.67,2.28c-7.14,1.82-13.95,4.51-20.97,6.7
			c-3.34,1.04-6.72,1.87-10.18,2.34c1.11-0.15,2.22-0.3,3.32-0.45c-6.14,0.79-12.33,0.65-18.5,1c-3.96,0.23-7.95,0.67-11.85,1.42
			c-3.96,0.76-7.64,2.2-11.29,3.89c-3.89,1.79-6.19,6.72-6.19,10.79c0,4.25,2.34,8.77,6.19,10.79c3.21,1.69,6.71,3.31,9.64,5.46
			c-0.84-0.65-1.69-1.3-2.53-1.95c0.26,0.22,0.47,0.43,0.68,0.7c-0.65-0.84-1.3-1.69-1.95-2.53c0.05,0.09,0.1,0.18,0.15,0.27
			c-0.42-1-0.84-1.99-1.26-2.99c0.09,0.19,0.14,0.39,0.15,0.61c-0.15-1.11-0.3-2.22-0.45-3.32c0,0.09-0.01,0.17-0.01,0.26
			c0.15-1.11,0.3-2.22,0.45-3.32c-0.02,0.16-0.06,0.32-0.13,0.46c0.42-1,0.84-1.99,1.26-2.99c-0.04,0.07-0.08,0.13-0.12,0.2
			c0.65-0.84,1.3-1.69,1.95-2.53c-0.09,0.13-0.2,0.24-0.32,0.34c0.84-0.65,1.69-1.3,2.53-1.95c-0.22,0.16-0.42,0.27-0.67,0.37
			c1-0.42,1.99-0.84,2.99-1.26c-0.37,0.13-0.72,0.21-1.1,0.26c1.11-0.15,2.22-0.3,3.32-0.45c-0.49,0.04-0.97,0.04-1.47-0.01
			c1.11,0.15,2.22,0.3,3.32,0.45c-4.04-0.59-8.01-1.84-11.77-3.41c1,0.42,1.99,0.84,2.99,1.26c-3.41-1.45-6.67-3.2-9.63-5.44
			c0.84,0.65,1.69,1.3,2.53,1.95c-1.9-1.48-3.64-3.13-5.13-5.02c0.65,0.84,1.3,1.69,1.95,2.53c-1.04-1.37-1.93-2.82-2.62-4.4
			c0.42,1,0.84,1.99,1.26,2.99c-0.51-1.23-0.87-2.49-1.08-3.81c0.15,1.11,0.3,2.22,0.45,3.32c-0.16-1.21-0.19-2.41-0.05-3.62
			c-0.15,1.11-0.3,2.22-0.45,3.32c0.13-0.84,0.33-1.63,0.63-2.42c-0.42,1-0.84,1.99-1.26,2.99c0.28-0.65,0.62-1.24,1.05-1.81
			c-0.65,0.84-1.3,1.69-1.95,2.53c0.31-0.36,0.63-0.67,0.99-0.97c-0.84,0.65-1.69,1.3-2.53,1.95c0.35-0.25,0.69-0.45,1.08-0.63
			c-1,0.42-1.99,0.84-2.99,1.26c0.38-0.14,0.76-0.24,1.16-0.31c-1.11,0.15-2.22,0.3-3.32,0.45c0.51-0.06,1-0.06,1.5,0.01
			c-1.11-0.15-2.22-0.3-3.32-0.45c0.4,0.07,0.76,0.17,1.14,0.32c-1-0.42-1.99-0.84-2.99-1.26c0.36,0.16,0.67,0.35,0.99,0.59
			c-0.84-0.65-1.69-1.3-2.53-1.95c0.22,0.2,0.4,0.39,0.59,0.62c-0.65-0.84-1.3-1.69-1.95-2.53c0.17,0.25,0.3,0.49,0.42,0.77
			c-0.42-1-0.84-1.99-1.26-2.99c0.11,0.32,0.18,0.61,0.22,0.94c-0.15-1.11-0.3-2.22-0.45-3.32c0.02,0.32,0.01,0.6-0.03,0.91
			c0.15-1.11,0.3-2.22,0.45-3.32c-0.07,0.31-0.15,0.58-0.26,0.87c0.42-1,0.84-1.99,1.26-2.99c-0.18,0.39-0.39,0.74-0.64,1.09
			c0.65-0.84,1.3-1.69,1.95-2.53c-0.43,0.54-0.92,1.01-1.46,1.45c0.84-0.65,1.69-1.3,2.53-1.95c-0.87,0.66-1.8,1.2-2.8,1.65
			c1-0.42,1.99-0.84,2.99-1.26c-2.22,0.93-4.62,1.52-6.99,1.86c1.11-0.15,2.22-0.3,3.32-0.45c-1.76,0.22-3.51,0.26-5.27,0.03
			c1.11,0.15,2.22,0.3,3.32,0.45c-1.19-0.19-2.34-0.5-3.45-0.96c1,0.42,1.99,0.84,2.99,1.26c-0.75-0.34-1.45-0.73-2.11-1.22
			c0.84,0.65,1.69,1.3,2.53,1.95c-0.65-0.52-1.23-1.1-1.75-1.76c0.65,0.84,1.3,1.69,1.95,2.53c-0.57-0.76-1.03-1.56-1.4-2.43
			c0.42,1,0.84,1.99,1.26,2.99c-0.3-0.77-0.53-1.55-0.66-2.36c0.15,1.11,0.3,2.22,0.45,3.32c-0.11-0.79-0.12-1.57-0.03-2.37
			c-0.15,1.11-0.3,2.22-0.45,3.32c0.09-0.58,0.23-1.13,0.43-1.68c-0.42,1-0.84,1.99-1.26,2.99c0.23-0.54,0.51-1.03,0.85-1.51
			c-0.65,0.84-1.3,1.69-1.95,2.53c0.35-0.43,0.72-0.79,1.14-1.14c-0.84,0.65-1.69,1.3-2.53,1.95c0.56-0.41,1.15-0.74,1.78-1.04
			c-1,0.42-1.99,0.84-2.99,1.26c1.44-0.59,2.95-0.92,4.49-1.15c-1.11,0.15-2.22,0.3-3.32,0.45c2.29-0.3,4.58-0.31,6.88-0.03
			c-1.11-0.15-2.22-0.3-3.32-0.45c2.29,0.32,4.5,0.91,6.64,1.79c-1-0.42-1.99-0.84-2.99-1.26c1.3,0.56,2.54,1.2,3.67,2.06
			c-0.84-0.65-1.69-1.3-2.53-1.95c0.47,0.39,0.89,0.79,1.28,1.26c-0.65-0.84-1.3-1.69-1.95-2.53c0.29,0.38,0.53,0.77,0.74,1.2
			c-0.42-1-0.84-1.99-1.26-2.99c0.19,0.46,0.32,0.91,0.4,1.4c-0.15-1.11-0.3-2.22-0.45-3.32c0.05,0.5,0.04,0.97-0.02,1.47
			c0.15-1.11,0.3-2.22,0.45-3.32c-0.09,0.5-0.23,0.96-0.41,1.44c0.42-1,0.84-1.99,1.26-2.99c-0.26,0.59-0.57,1.12-0.95,1.64
			c0.65-0.84,1.3-1.69,1.95-2.53c-0.41,0.51-0.85,0.95-1.36,1.36c0.84-0.65,1.69-1.3,2.53-1.95c-0.85,0.65-1.76,1.15-2.74,1.57
			c1-0.42,1.99-0.84,2.99-1.26c-1.8,0.72-3.68,1.18-5.59,1.47c1.11-0.15,2.22-0.3,3.32-0.45c-1.56,0.2-3.1,0.25-4.66,0.07
			c1.11,0.15,2.22,0.3,3.32,0.45c-1.12-0.16-2.19-0.43-3.24-0.84c1,0.42,1.99,0.84,2.99,1.26c-0.8-0.35-1.53-0.76-2.24-1.28
			c0.84,0.65,1.69,1.3,2.53,1.95c-0.67-0.53-1.26-1.11-1.8-1.77c0.65,0.84,1.3,1.69,1.95,2.53c-0.51-0.67-0.92-1.37-1.26-2.15
			c0.42,1,0.84,1.99,1.26,2.99c-0.26-0.66-0.43-1.32-0.53-2.03c0.15,1.11,0.3,2.22,0.45,3.32c-0.05-0.59-0.05-1.16,0.02-1.75
			c-0.15,1.11-0.3,2.22-0.45,3.32c0.1-0.56,0.24-1.08,0.43-1.61c-0.42,1-0.84,1.99-1.26,2.99c0.26-0.6,0.57-1.14,0.94-1.66
			c-0.65,0.84-1.3,1.69-1.95,2.53c0.54-0.69,1.15-1.28,1.84-1.82c-0.84,0.65-1.69,1.3-2.53,1.95c0.92-0.68,1.9-1.21,2.95-1.67
			c-1,0.42-1.99,0.84-2.99,1.26c1.67-0.68,3.38-1.09,5.15-1.33c-1.11,0.15-2.22,0.3-3.32,0.45c3.15-0.4,6.31-0.35,9.46,0.06
			c-1.11-0.15-2.22-0.3-3.32-0.45c4.18,0.59,8.22,1.81,12.12,3.44c-1-0.42-1.99-0.84-2.99-1.26c3.71,1.59,7.47,3.46,10.68,5.93
			c-0.84-0.65-1.69-1.3-2.53-1.95c0.99,0.79,1.9,1.65,2.69,2.65c-0.65-0.84-1.3-1.69-1.95-2.53c0.43,0.59,0.79,1.19,1.1,1.85
			c-0.42-1-0.84-1.99-1.26-2.99c0.22,0.55,0.38,1.1,0.48,1.68c-0.15-1.11-0.3-2.22-0.45-3.32c0.07,0.59,0.07,1.15-0.01,1.74
			c0.15-1.11,0.3-2.22,0.45-3.32c-0.09,0.5-0.22,0.97-0.41,1.44c0.42-1,0.84-1.99,1.26-2.99c-0.21,0.45-0.45,0.86-0.74,1.25
			c0.65-0.84,1.3-1.69,1.95-2.53c-0.37,0.47-0.78,0.88-1.25,1.26c0.84-0.65,1.69-1.3,2.53-1.95c-0.66,0.51-1.37,0.92-2.13,1.26
			c1-0.42,1.99-0.84,2.99-1.26c-1.11,0.47-2.25,0.77-3.44,0.94c1.11-0.15,2.22-0.3,3.32-0.45c-1.21,0.14-2.39,0.14-3.6-0.01
			c1.11,0.15,2.22,0.3,3.32,0.45c-1.77-0.26-3.47-0.73-5.13-1.41c1,0.42,1.99,0.84,2.99,1.26c-1.64-0.71-3.17-1.59-4.61-2.66
			c0.84,0.65,1.69,1.3,2.53,1.95c-1.41-1.09-2.67-2.33-3.79-3.73c0.65,0.84,1.3,1.69,1.95,2.53c-0.93-1.22-1.72-2.5-2.33-3.91
			c0.42,1,0.84,1.99,1.26,2.99c-0.32-0.81-0.56-1.62-0.71-2.48c0.15,1.11,0.3,2.22,0.45,3.32c-0.11-0.82-0.13-1.61-0.04-2.43
			c-0.15,1.11-0.3,2.22-0.45,3.32c0.11-0.71,0.29-1.39,0.55-2.06c-0.42,1-0.84,1.99-1.26,2.99c0.38-0.89,0.86-1.7,1.45-2.46
			c-0.65,0.84-1.3,1.69-1.95,2.53c0.63-0.76,1.32-1.42,2.09-2.03c-0.84,0.65-1.69,1.3-2.53,1.95c0.8-0.58,1.63-1.07,2.53-1.47
			c-1,0.42-1.99,0.84-2.99,1.26c1.35-0.56,2.73-0.9,4.17-1.1c-1.11,0.15-2.22,0.3-3.32,0.45c2.23-0.26,4.43-0.15,6.65,0.14
			c-1.11-0.15-2.22-0.3-3.32-0.45c4.08,0.59,8.06,1.71,11.87,3.29c-1-0.42-1.99-0.84-2.99-1.26c3.91,1.66,7.59,3.78,10.97,6.36
			c-0.84-0.65-1.69-1.3-2.53-1.95c1.05,0.81,1.99,1.7,2.82,2.74c-0.65-0.84-1.3-1.69-1.95-2.53c0.55,0.72,1.01,1.46,1.37,2.3
			c-0.42-1-0.84-1.99-1.26-2.99c0.17,0.45,0.3,0.89,0.39,1.37c-0.15-1.11-0.3-2.22-0.45-3.32c0.06,0.46,0.06,0.89,0.01,1.35
			c0.15-1.11,0.3-2.22,0.45-3.32c-0.07,0.35-0.16,0.65-0.29,0.98c0.42-1,0.84-1.99,1.26-2.99c-0.17,0.34-0.34,0.62-0.56,0.92
			c0.65-0.84,1.3-1.69,1.95-2.53c-0.24,0.27-0.48,0.5-0.77,0.73c0.84-0.65,1.69-1.3,2.53-1.95c-0.4,0.28-0.81,0.5-1.25,0.69
			c1-0.42,1.99-0.84,2.99-1.26c-0.82,0.31-1.64,0.49-2.51,0.61c1.11-0.15,2.22-0.3,3.32-0.45c-1.89,0.21-3.78,0.18-5.66-0.08
			c1.11,0.15,2.22,0.3,3.32,0.45c-1.9-0.29-3.73-0.79-5.51-1.51c1,0.42,1.99,0.84,2.99,1.26c-1.77-0.75-3.41-1.7-4.95-2.85
			c0.84,0.65,1.69,1.3,2.53,1.95c-1.1-0.86-2.08-1.83-2.95-2.93c0.65,0.84,1.3,1.69,1.95,2.53c-0.68-0.91-1.26-1.86-1.72-2.89
			c0.42,1,0.84,1.99,1.26,2.99c-0.37-0.9-0.64-1.8-0.78-2.77c0.15,1.11,0.3,2.22,0.45,3.32c-0.07-0.71-0.07-1.39,0.01-2.1
			c-0.15,1.11-0.3,2.22-0.45,3.32c0.1-0.59,0.25-1.15,0.47-1.71c-0.42,1-0.84,1.99-1.26,2.99c0.28-0.62,0.61-1.18,1.02-1.72
			c-0.65,0.84-1.3,1.69-1.95,2.53c0.42-0.5,0.87-0.94,1.38-1.35c-0.84,0.65-1.69,1.3-2.53,1.95c0.71-0.53,1.46-0.95,2.28-1.3
			c-1,0.42-1.99,0.84-2.99,1.26c1.28-0.52,2.61-0.84,3.97-1.05c-1.11,0.15-2.22,0.3-3.32,0.45c2.66-0.34,5.36-0.21,8.02,0.13
			c-1.11-0.15-2.22-0.3-3.32-0.45c3.56,0.49,7.01,1.43,10.32,2.81c-1-0.42-1.99-0.84-2.99-1.26c3.17,1.36,6.15,3.09,8.88,5.19
			c-0.84-0.65-1.69-1.3-2.53-1.95c1.47,1.15,2.89,2.36,4.04,3.84c-0.65-0.84-1.3-1.69-1.95-2.53c0.46,0.63,0.85,1.27,1.18,1.98
			c-0.42-1-0.84-1.99-1.26-2.99c0.23,0.57,0.4,1.12,0.5,1.73c-0.15-1.11-0.3-2.22-0.45-3.32c0.03,0.35,0.04,0.68,0.02,1.03
			c0.15-1.11,0.3-2.22,0.45-3.32c-0.05,0.36-0.12,0.67-0.24,1.01c0.42-1,0.84-1.99,1.26-2.99c-0.15,0.34-0.31,0.63-0.51,0.94
			c0.65-0.84,1.3-1.69,1.95-2.53c-0.23,0.28-0.45,0.52-0.73,0.76c0.84-0.65,1.69-1.3,2.53-1.95c-0.39,0.29-0.78,0.52-1.21,0.73
			c1-0.42,1.99-0.84,2.99-1.26c-0.68,0.28-1.37,0.47-2.1,0.59c1.11-0.15,2.22-0.3,3.32-0.45c-1.21,0.16-2.41,0.15-3.62,0
			c1.11,0.15,2.22,0.3,3.32,0.45c-1.33-0.2-2.6-0.56-3.84-1.08c1,0.42,1.99,0.84,2.99,1.26c-1.12-0.5-2.16-1.1-3.14-1.83
			c0.84,0.65,1.69,1.3,2.53,1.95c-1.06-0.82-2-1.75-2.82-2.82c0.65,0.84,1.3,1.69,1.95,2.53c-0.6-0.82-1.11-1.67-1.53-2.6
			c0.42,1,0.84,1.99,1.26,2.99c-0.21-0.53-0.37-1.06-0.48-1.62c0.15,1.11,0.3,2.22,0.45,3.32c-0.05-0.42-0.07-0.8-0.05-1.23
			c-0.15,1.11-0.3,2.22-0.45,3.32c0.06-0.43,0.16-0.77,0.32-1.18c-0.42,1-0.84,1.99-1.26,2.99c0.1-0.22,0.22-0.42,0.37-0.61
			c-0.65,0.84-1.3,1.69-1.95,2.53c0.23-0.29,0.47-0.52,0.75-0.76c-0.84,0.65-1.69,1.3-2.53,1.95c0.5-0.37,1.02-0.66,1.58-0.92
			c-1,0.42-1.99,0.84-2.99,1.26c1.44-0.59,2.96-0.94,4.5-1.16c-1.11,0.15-2.22,0.3-3.32,0.45c1.84-0.23,3.67-0.22,5.52,0.01
			c-1.11-0.15-2.22-0.3-3.32-0.45c1.84,0.26,3.61,0.73,5.33,1.43c-1-0.42-1.99-0.84-2.99-1.26c1.59,0.67,3.06,1.51,4.45,2.54
			c-0.84-0.65-1.69-1.3-2.53-1.95c1.05,0.81,1.98,1.72,2.81,2.75c-0.65-0.84-1.3-1.69-1.95-2.53c0.72,0.94,1.32,1.93,1.78,3.01
			c-0.42-1-0.84-1.99-1.26-2.99c0.27,0.72,0.47,1.43,0.6,2.19c-0.15-1.11-0.3-2.22-0.45-3.32c0.09,0.76,0.09,1.5,0,2.26
			c0.15-1.11,0.3-2.22,0.45-3.32c-0.02,0.13-0.04,0.25-0.07,0.38c-0.15,1.11-0.3,2.22-0.45,3.32c-0.06,1.72,0.29,3.33,1.08,4.82
			c1.01,2.4,2.74,4.73,5.11,5.98c5.05,2.67,10.94,1.96,15.15-1.95c0.94-0.87,1.91-1.7,2.93-2.49c-0.84,0.65-1.69,1.3-2.53,1.95
			c2.62-1.98,5.44-3.63,8.46-4.92c-1,0.42-1.99,0.84-2.99,1.26c0.79-0.33,1.59-0.63,2.39-0.91c3.1-1.08,5.77-2.84,7.47-5.74
			c1.57-2.68,2.23-6.63,1.26-9.63c-0.98-3.02-2.85-5.94-5.74-7.47c-2.86-1.51-6.47-2.37-9.63-1.26c-7.26,2.54-13.65,6.28-19.3,11.53
			c6.96,4.05,13.93,8.11,20.89,12.16c0.61-3.49,0.69-5.8,0.07-9.29c-0.37-2.07-1.26-3.99-2.17-5.88c-0.86-1.76-2.2-3.34-3.42-4.84
			c-0.8-0.98-1.67-1.84-2.66-2.63c-1.6-1.28-3.21-2.58-5-3.58c-1.85-1.03-3.88-1.85-5.85-2.58c-3.12-1.15-6.59-1.63-9.89-1.75
			c-1.05-0.04-2.11,0-3.16,0.11c-2.2,0.23-4.47,0.48-6.61,1.1c-4.83,1.39-9.26,4.11-11.77,8.6c-3.15,5.63-2.3,12.45,0.85,17.88
			c2.09,3.61,4.9,6.23,8.21,8.66c5.88,4.32,13.74,5.54,20.78,4.07c0.54-0.11,1.05-0.29,1.56-0.49c1.31-0.52,2.73-0.99,3.92-1.78
			c2.45-1.63,4.71-3.72,6.01-6.4c1.58-3.25,2.18-6.43,1.7-10.01c-0.36-2.67-1.09-5.01-2.51-7.38c-1.69-2.83-3.93-5.19-6.49-7.21
			c-2.63-2.08-5.27-4.09-8.22-5.67c-5.05-2.71-10.57-4.77-16.25-5.61c-3.3-0.49-6.68-0.98-10.03-0.79
			c-2.95,0.17-6.08,0.51-8.86,1.59c-1.72,0.67-3.6,1.36-5.16,2.43c-2.63,1.82-4.24,3.46-6.12,6.02c-1.16,1.58-1.96,3.53-2.52,5.38
			c-0.58,1.93-0.86,4.08-0.72,6.1c1.06,15.74,16.47,25.83,31.29,26.03c4.22,0.06,8.56-0.71,12.28-2.78
			c5.09-2.83,8.72-8.77,8.45-14.66c-0.24-5.34-2.51-9.69-5.98-13.62c-2.22-2.51-5.16-4.46-7.96-6.29
			c-4.89-3.19-10.44-5.62-16.03-7.26c-6.87-2.01-14.01-2.77-21.07-1.42c-7.68,1.47-14.26,7.01-17.26,14.12
			c-1.86,4.4-2.19,9.26-0.85,13.89c1.25,4.33,3.59,7.84,6.45,11.24c2.01,2.39,4.64,4.41,7.24,6.07c2.64,1.69,5.69,2.98,8.7,3.81
			c6.74,1.85,14.13,1.37,20.26-2.14c3.06-1.75,6.05-4.57,7.61-7.77c2.16-4.44,3.02-9.75,1.2-14.49c-1.45-3.77-3.56-7.16-6.7-9.77
			c-2.63-2.19-5.37-4.03-8.37-5.65c-5.27-2.83-10.98-5.26-16.83-6.56c-7-1.55-13.83-1.77-20.87-0.46c-2.88,0.54-5.79,1.7-8.32,3.13
			c-3.29,1.85-6.37,4.72-8.25,8.02c-4.56,8.01-2.8,18.29,3.84,24.61c2.95,2.81,6.76,5.04,10.79,5.87c4.6,0.94,8.59,0.78,13.19-0.03
			c8.46-1.49,16.06-6.74,18.71-15.17c1.49-4.72,0.72-10.55-2.16-14.61c-2.43-3.43-5.57-6.12-9.43-7.8
			c-1.91-0.83-3.83-1.69-5.83-2.27c-1.79-0.52-3.61-0.76-5.46-1.01c-4.11-0.55-7.75-0.38-11.86,0.25c-4.41,0.67-8.39,2.5-11.78,5.4
			c-1.36,1.16-2.48,2.64-3.43,4.15c-0.49,0.78-0.8,1.69-1.15,2.52c-0.36,0.86-0.77,1.68-0.96,2.6c-1.6,7.52,0.59,15.52,6.14,20.94
			c5.3,5.18,13.21,7.42,20.49,6.52c3.34-0.41,6.67-0.88,9.83-2.1c3.71-1.44,7.37-3.19,10.06-6.26c3.9-4.45,6-10.38,4.13-16.24
			c-1.72-5.38-6.05-9.59-11.57-10.97c-2.91-0.73-5.83-0.68-8.74-0.01c-2.94,0.68-5.21,2.19-7.46,4.1c-2.86,2.43-5.12,6.51-5.8,10.18
			c-0.78,4.22-0.8,8.02,0.24,12.22c0.74,3,2.08,6.01,3.81,8.58c3.56,5.29,8.19,9.54,13.63,12.86c5.15,3.15,11,5.53,16.84,7.03
			c1.22,0.31,2.45,0.59,3.69,0.81c3.56,0.63,5.33,0.73,8.82,0.12c2.28-0.39,4.23-1.49,6.02-2.87c3.32-2.57,5.72-6.75,5.51-11.08
			c-0.19-3.94-1.6-7.35-4.39-10.2c-1.43-1.46-3.31-2.55-5.07-3.57c-2.42-1.4-4.88-2.75-7.36-4.05c0,7.2,0,14.39,0,21.59
			c0.39-0.18,0.78-0.36,1.18-0.52c-1,0.42-1.99,0.84-2.99,1.26c3.17-1.3,6.48-2.08,9.86-2.55c-1.11,0.15-2.22,0.3-3.32,0.45
			c4.23-0.55,8.5-0.66,12.76-0.79c5.29-0.15,10.47-0.54,15.71-1.31c9.12-1.35,17.59-5.36,26.4-7.88c5.03-1.44,10.16-2.65,15.33-3.46
			c-1.11,0.15-2.22,0.3-3.32,0.45c0.86-0.11,1.7-0.14,2.56-0.04c-1.11-0.15-2.22-0.3-3.32-0.45c0.4,0.07,0.78,0.16,1.17,0.31
			c-1-0.42-1.99-0.84-2.99-1.26c0.27,0.12,0.49,0.25,0.72,0.42c-0.84-0.65-1.69-1.3-2.53-1.95c0.14,0.11,0.27,0.24,0.38,0.39
			c-0.65-0.84-1.3-1.69-1.95-2.53c0.12,0.15,0.21,0.31,0.28,0.48c-0.42-1-0.84-1.99-1.26-2.99c0.09,0.21,0.15,0.43,0.18,0.65
			c-0.15-1.11-0.3-2.22-0.45-3.32c0.03,0.25,0.02,0.5-0.02,0.74c0.15-1.11,0.3-2.22,0.45-3.32c-0.04,0.25-0.12,0.49-0.22,0.73
			c0.42-1,0.84-1.99,1.26-2.99c-0.23,0.49-0.5,0.92-0.82,1.36c0.65-0.84,1.3-1.69,1.95-2.53c-1.67,2.07-3.71,3.88-5.81,5.51
			c0.84-0.65,1.69-1.3,2.53-1.95c-3.22,2.44-6.74,4.41-10.45,5.99c1-0.42,1.99-0.84,2.99-1.26c-5.45,2.27-11.18,3.64-17.02,4.45
			c1.11-0.15,2.22-0.3,3.32-0.45c-9.33,1.24-18.77,1.12-28.16,1.06c-9.12-0.05-18.24-0.24-27.35-0.86
			c-5.2-0.35-10.38-0.85-15.54-1.54c1.11,0.15,2.22,0.3,3.32,0.45c-12.03-1.62-24.19-4.2-35.44-8.86c1,0.42,1.99,0.84,2.99,1.26
			c-3.22-1.36-6.32-2.98-9.12-5.08c0.84,0.65,1.69,1.3,2.53,1.95c-1.72-1.33-3.28-2.82-4.63-4.53c0.65,0.84,1.3,1.69,1.95,2.53
			c-1.1-1.46-2.02-3.02-2.75-4.7c0.42,1,0.84,1.99,1.26,2.99c-0.64-1.56-1.08-3.15-1.31-4.82c0.15,1.11,0.3,2.22,0.45,3.32
			c-0.15-1.27-0.16-2.52-0.02-3.78c-0.15,1.11-0.3,2.22-0.45,3.32c0.17-1.25,0.48-2.44,0.94-3.62c-0.42,1-0.84,1.99-1.26,2.99
			c0.54-1.26,1.22-2.42,2.06-3.51c-0.65,0.84-1.3,1.69-1.95,2.53c1-1.25,2.14-2.34,3.4-3.32c-0.84,0.65-1.69,1.3-2.53,1.95
			c2.18-1.65,4.6-2.91,7.11-3.98c-1,0.42-1.99,0.84-2.99,1.26c6.92-2.87,14.37-4.63,21.62-6.42c8.06-1.98,16.18-3.74,24.29-5.48
			c4.6-0.98,9.21-1.9,13.87-2.54c-1.11,0.15-2.22,0.3-3.32,0.45c11.38-1.53,22.78-0.8,34.13,0.71c-1.11-0.15-2.22-0.3-3.32-0.45
			c7.73,1.04,15.48,2.38,22.71,5.41c-1-0.42-1.99-0.84-2.99-1.26c5.79,2.49,11.01,6.04,16.23,9.53c2.74,1.83,5.47,3.65,8.21,5.48
			c2.72,1.82,5.55,3.53,8.16,5.5c-0.84-0.65-1.69-1.3-2.53-1.95c0.57,0.45,1.08,0.93,1.53,1.51c-0.65-0.84-1.3-1.69-1.95-2.53
			c0.2,0.29,0.36,0.57,0.51,0.89c-0.42-1-0.84-1.99-1.26-2.99c0.12,0.34,0.2,0.64,0.25,1c5.13-5.13,10.25-10.25,15.38-15.38
			c-4.31-1.08-8.62-2.18-12.74-3.89c1,0.42,1.99,0.84,2.99,1.26c-3.55-1.53-6.84-3.57-10.21-5.45c-4.12-2.3-8.48-4.18-12.89-5.86
			c-7.21-2.74-14.73-4.54-22.21-6.34c-8.81-2.12-17.64-4.04-26.69-4.81c-8.07-0.69-16.19,0.02-24.22,0.89
			c-16.92,1.82-33.71,4.85-50.02,9.75c-3.77,1.14-7.52,2.36-11.23,3.7c-2.5,0.9-5.16,1.81-7.33,3.37c-1.97,1.41-3.35,2.57-4.78,4.42
			c-1.45,1.88-2.32,3.49-3.14,5.83c-0.55,1.58-0.77,3.41-0.79,5.08c-0.02,2.36,0.53,4.39,1.42,6.51c1.82,4.31,5.43,7.61,9.98,8.91
			c7.14,2.04,15.28-1.18,19-7.63c2.15-3.74,2.65-8.4,1.47-12.54c-1.2-4.24-4.08-7.7-7.72-10.1c-1.34-0.88-2.97-1.56-4.5-1.97
			c-2.3-0.6-4.38-0.64-6.68-0.33c-3.95,0.53-7.31,2.21-10.25,4.93c-2.34,2.17-4.32,5.56-5.08,8.66c-1.09,4.49-0.61,9.11,1.57,13.2
			c2.04,3.82,5.84,6.56,9.93,7.8c3.34,1.01,6.94,0.84,10.31,0.09c3.43-0.77,6.39-2.67,9.02-4.91c2.52-2.15,4.34-5.31,5.32-8.44
			c1.19-3.83,0.77-7.84-0.76-11.47c-1.49-3.53-3.97-6.5-7.33-8.43c-2.41-1.39-4.79-1.9-7.52-2.13c-0.94-0.08-1.6,0.07-2.62,0.2
			c-0.99,0.13-1.73,0.18-2.61,0.49c-4,1.42-7.54,4.02-9.53,7.87c-3.18,6.14-3,13.61,0.6,19.57c1.75,2.89,4.29,5.55,7.25,7.22
			c1.42,0.8,3.03,1.52,4.61,1.91c1.66,0.41,3.49,0.71,5.21,0.63c7.98-0.35,14.97-5.09,17.44-12.83c1-3.13,0.95-6.77,0.14-9.93
			c-0.95-3.66-3.16-6.81-6.11-9.1c-3-2.31-6.54-3.64-10.38-3.62c-3.22,0.02-6.74,0.96-9.46,2.71c-3.21,2.06-5.58,4.78-7.06,8.28
			c-1.56,3.7-1.77,7.49-0.91,11.41c0.73,3.31,2.66,6.34,4.91,8.81c2.23,2.45,5.45,4.22,8.6,5.14c3.47,1.01,7.09,0.86,10.59,0.1
			c3.01-0.65,5.64-2.18,8.03-4.03c2.22-1.72,4.2-3.82,5.41-6.38c1.42-3.01,2.45-6.06,2.36-9.45c-0.08-3.12-0.85-6.52-2.62-9.14
			c-1.55-2.3-3.03-3.73-5.31-5.31c-0.73-0.5-1.43-0.75-2.29-1.11c-0.93-0.39-1.8-0.83-2.79-1.02c-7.01-1.41-14.33,0.61-19.47,5.65
			c-1.16,1.13-2.23,2.51-3.04,3.91c-0.82,1.43-1.57,3.12-1.89,4.76c-0.55,2.86-0.68,5.29,0.05,8.17c0.4,1.57,1.04,3.22,1.91,4.61
			c1.75,2.8,4.17,5.17,7.04,6.82c2.03,1.17,4.4,2.17,6.74,2.59c3.82,0.68,7.19,0.88,11.01-0.04c1.65-0.4,3.36-1.12,4.81-1.98
			c1.44-0.85,2.91-1.95,4-3.24c2.85-3.39,4.84-7.38,4.72-11.92c-0.07-2.71-0.77-5.27-2.05-7.65c-0.78-1.45-1.9-2.92-3.15-4.03
			c-5.98-5.3-15.27-7.66-22.44-3.19c-3.54,2.21-6.23,5.74-7.3,9.79c-0.41,1.55-0.66,3.27-0.62,4.87c0.04,1.66,0.22,3.46,0.74,5.04
			c1.08,3.28,2.85,6.28,5.37,8.67c1.86,1.77,4.03,3.26,6.19,4.65c2.66,1.71,6.63,2.09,9.63,1.26c2.9-0.8,6.04-3.04,7.47-5.74
			C246.77,357.87,244.89,350.75,239.01,346.97L239.01,346.97z"/>
	</g>
</g>
<g>
	<g>
		<path class="st1" d="M289.14,590.48c0.96,1.98,1.91,3.96,2.87,5.94c1.44-0.84,2.88-1.68,4.32-2.52c-1.81-3.2-5-6.33-8.96-4.71
			c-3.5,1.43-5.3,5.3-5.77,8.85c-0.91,6.92,2.43,15.47,8.89,18.74c3.85,1.95,8.57,2.13,12.29-0.21c2.72-1.71,0.21-6.04-2.52-4.32
			c-2.57,1.62-5.75,1.24-8.24-0.36c-2.55-1.64-4.12-4.56-4.93-7.41c-0.79-2.77-1.11-6.1,0.34-8.72c0.42-0.76,1.3-2.14,2.26-2
			c1.02,0.16,1.87,1.86,2.32,2.66c1.6,2.83,5.7,0.34,4.32-2.52c-0.96-1.98-1.91-3.96-2.87-5.94c-0.59-1.22-2.32-1.54-3.42-0.9
			C288.79,587.78,288.55,589.26,289.14,590.48L289.14,590.48z"/>
	</g>
</g>
<g>
	<g>
		<path class="st1" d="M300.36,594.91c3.25,6.17,5.52,12.77,6.83,19.62c1.39-0.81,2.79-1.62,4.18-2.43
			c-0.94-1.03-1.03-3.14-0.78-4.49c0.15-0.83,0.45-1.71,0.92-2.34c0.47-0.62,1.14-1.07,1.68-1.26c0.75-0.27,1.24-0.31,1.96-0.04
			c-0.21-0.08,0.61,0.36,0.56,0.32c0.06,0.04,0.62,0.61,0.67,0.68c0.97,1.22,1.43,2.87,1.9,4.54c0.87,3.09,5.69,1.78,4.82-1.33
			c-0.71-2.53-1.62-5.19-3.51-7.11c-2.24-2.26-5.53-2.84-8.44-1.61c-5.91,2.49-7.61,11.48-3.31,16.17c0.74,0.81,2.1,0.93,3.03,0.39
			c1.01-0.59,1.36-1.73,1.15-2.82c-1.39-7.26-3.89-14.27-7.34-20.81c-0.63-1.19-2.29-1.56-3.42-0.9
			C300.04,592.19,299.72,593.71,300.36,594.91L300.36,594.91z"/>
	</g>
</g>
<g>
	<g>
		<path class="st1" d="M334.31,596.38c-1.38-1.08-2.94-1.52-4.68-1.08c-1.59,0.4-2.79,1.53-3.74,2.81
			c-1.65,2.22-2.55,5.08-2.73,7.82c-0.18,2.63,0.48,6.06,2.64,7.81c1.37,1.11,3.18,1.54,4.86,0.89c1.57-0.61,2.74-1.73,3.57-3.19
			c0.75-1.33,1.32-2.78,1.92-4.18c0.72-1.68,1.42-3.38,2.08-5.09c-0.8,0.61-1.61,1.22-2.41,1.84c-0.57,0-0.97-0.21-1.21-0.62
			c0.08,0.12,0.15,0.24,0.21,0.36c0.14,0.24,0.26,0.49,0.39,0.73c0.32,0.61,0.65,1.22,0.97,1.83c0.63,1.18,1.25,2.36,1.88,3.55
			c0.61,1.16,2.32,1.61,3.42,0.9c1.18-0.76,1.55-2.18,0.9-3.42c-0.8-1.51-1.6-3.02-2.4-4.53c-0.96-1.81-1.83-3.7-4.16-3.8
			c-1.18-0.05-2.02,0.83-2.41,1.84c-1.03,2.67-1.9,4.86-3.17,7.45c-0.14,0.28-0.28,0.56-0.45,0.83c-0.08,0.13-0.17,0.27-0.26,0.39
			c0.16-0.19,0.14-0.18-0.05,0.04c-0.1,0.11-0.21,0.22-0.33,0.32c0.22-0.16,0.21-0.17-0.03-0.01c-0.26,0.13-0.26,0.14,0,0.02
			c-0.29,0.07-0.28,0.08,0.03,0.05c-0.29,0-0.29,0.02,0.02,0.06c-0.07-0.02-0.14-0.03-0.21-0.05c0.27,0.13,0.28,0.13,0.03-0.01
			c0.22,0.19,0.23,0.19,0.02,0c-0.19-0.21-0.19-0.21-0.02,0.02c-0.08-0.12-0.16-0.24-0.23-0.37c-0.07-0.13-0.14-0.25-0.2-0.39
			c0.11,0.28,0.11,0.27,0-0.02c-0.09-0.3-0.19-0.59-0.27-0.9c-0.02-0.1-0.18-1.03-0.11-0.48c-0.06-0.54-0.08-1.09-0.05-1.63
			c0-0.1,0.1-1.04,0.03-0.5c0.04-0.31,0.11-0.62,0.18-0.93c0.14-0.62,0.34-1.22,0.56-1.81c0.11-0.27,0.12-0.29,0.02-0.06
			c0.07-0.14,0.13-0.29,0.2-0.43c0.1-0.21,0.21-0.42,0.33-0.63c0.15-0.27,0.32-0.52,0.48-0.79c0.17-0.24,0.17-0.25,0.01-0.05
			c0.09-0.12,0.19-0.23,0.3-0.34c0.1-0.11,0.21-0.22,0.32-0.32c-0.22,0.15-0.21,0.14,0.03-0.02c0.12-0.08,0.24-0.15,0.37-0.21
			c-0.29,0.12-0.3,0.14-0.03,0.05c0.29-0.06,0.26-0.06-0.07,0c0.29,0.01,0.27-0.01-0.07-0.05c0.13,0.02,0.26,0.06,0.38,0.1
			c-0.17-0.03-0.32-0.12-0.43-0.25c1.03,0.81,2.55,1.08,3.54,0C335.14,599.01,335.41,597.24,334.31,596.38L334.31,596.38z"/>
	</g>
</g>
<g>
	<g>
		<path class="st1" d="M341.87,598.49c2.01,3.95,4.03,7.9,6.04,11.85c0.68,1.33,2.94,1.73,3.93,0.51c0.68-0.85,1.07-1.66,1.13-2.76
			c0.02-0.31-0.01-0.62-0.04-0.93c-0.04-0.3-0.08-0.6-0.12-0.9c0.03,0.24,0.03,0.18-0.01-0.17c-0.04-0.81-0.08-1.63,0.04-2.43
			c-0.01,0.16,0.01,0.09,0.05-0.24c0.04-0.2,0.08-0.4,0.13-0.59c0.05-0.2,0.1-0.39,0.16-0.59c0.09-0.27,0.09-0.27-0.01,0.01
			c-0.29,0.35-0.69,0.54-1.2,0.56c-0.14,0.02-0.27-0.01-0.38-0.09c0.03-0.04,0.73,0.39,0.79,0.43c0.13,0.08,0.25,0.17,0.37,0.25
			c-0.21-0.16-0.2-0.15,0.03,0.03c0.23,0.2,0.45,0.4,0.67,0.62c0.86,0.84,1.62,1.76,2.51,2.58c1.23,1.13,2.84,2.46,4.61,1.89
			c2.36-0.75,2.1-3.25,2-5.21c-0.18-3.44-0.4-6.87-0.65-10.3c-0.1-1.3-1.08-2.56-2.5-2.5c-1.27,0.06-2.6,1.1-2.5,2.5
			c0.16,2.14,0.3,4.29,0.43,6.44c0.06,1.02,0.12,2.04,0.18,3.06c0.03,0.54,0.06,1.07,0.09,1.61c0.01,0.27,0.03,0.54,0.04,0.81
			c0.01,0.11,0.01,0.21,0.02,0.32c-0.02,0.59,0.13,0.29,0.47-0.9c0.37-0.21,0.74-0.43,1.1-0.64c0.09-0.02,0.17-0.04,0.26-0.05
			c0.42,0.11,0.84,0.23,1.26,0.34c-0.22-0.11-0.41-0.23-0.62-0.35c-0.38-0.23,0.07,0.08-0.14-0.09c-0.3-0.24-0.58-0.5-0.85-0.77
			c-0.58-0.57-1.12-1.18-1.68-1.76c-1.24-1.28-2.81-2.7-4.61-3.08c-1.32-0.28-2.62,0.09-3.51,1.12c-0.77,0.89-1.1,2.07-1.31,3.2
			c-0.21,1.16-0.34,2.36-0.27,3.54c0.02,0.3,0.05,0.61,0.09,0.91c0.01,0.08,0.11,1.02,0.06,0.46c0.02,0.24,0.04,0.46,0.05,0.7
			c0,0.08-0.01,0.15-0.01,0.23c-0.02-0.3,0.09-0.55,0.33-0.77c1.31,0.17,2.62,0.34,3.93,0.51c-2.01-3.95-4.03-7.9-6.04-11.85
			c-0.61-1.2-2.3-1.55-3.42-0.9C341.55,595.79,341.25,597.28,341.87,598.49L341.87,598.49z"/>
	</g>
</g>
<g>
	<g>
		<path class="st1" d="M374.87,592.48c0.15-1.82-0.04-3.66-1.3-5.09c-1.33-1.51-3.38-1.79-5.17-1.03c-2.96,1.25-4.68,4.96-5.16,7.96
			c-0.49,3.03-0.07,6.17,1.9,8.62c1.01,1.25,2.46,2.21,4.07,2.43c1.77,0.24,3.46-0.43,4.67-1.74c1.24-1.35,2-3.05,2.67-4.74
			c0.29-0.75,0.54-1.51,0.74-2.29c0.11-0.41,0.2-0.82,0.28-1.24c0.04-0.21,0.08-0.42,0.11-0.62c0.03-0.21,0.26-0.67-0.02-0.2
			c-0.3,0.3-0.6,0.6-0.9,0.9c-0.09,0.04-0.18,0.07-0.28,0.11c-0.44,0-0.89,0-1.33,0c-0.84-0.83-1.12-1-0.82-0.5
			c0.08,0.17,0.16,0.34,0.24,0.52c0.12,0.26,0.24,0.52,0.36,0.78c0.26,0.56,0.53,1.12,0.79,1.68c0.55,1.16,1.09,2.33,1.64,3.49
			c0.56,1.19,2.36,1.58,3.42,0.9c1.22-0.79,1.49-2.15,0.9-3.42c-0.71-1.51-1.42-3.02-2.12-4.53c-0.81-1.73-1.69-4.1-4.07-3.78
			c-1.26,0.17-2.23,1.05-2.55,2.29c-0.19,0.71-0.25,1.47-0.43,2.19c-0.17,0.66-0.36,1.3-0.6,1.94c-0.02,0.07-0.37,0.94-0.22,0.58
			c-0.17,0.39-0.35,0.77-0.55,1.14c-0.14,0.26-0.28,0.52-0.43,0.77c-0.07,0.12-0.15,0.24-0.23,0.36c-0.26,0.39-0.06,0.07,0.01,0
			c-0.11,0.12-0.26,0.24-0.36,0.38c-0.2,0.27,0.32-0.17,0.03-0.01c-0.07,0.04-0.42,0.28-0.14,0.11c0.28-0.17-0.17,0.05-0.27,0.06
			c0.67-0.13-0.23-0.11,0.13-0.04c0.38,0.08-0.36-0.11-0.02-0.01c0.27,0.08-0.67-0.41-0.42-0.23c0.24,0.17-0.09-0.09-0.15-0.14
			c-0.12-0.11-0.23-0.24-0.35-0.36c-0.1-0.1-0.23-0.36,0.02,0.04c-0.09-0.14-0.19-0.28-0.27-0.42c-0.07-0.12-0.13-0.23-0.19-0.35
			c-0.04-0.07-0.2-0.47-0.08-0.16c0.14,0.36-0.08-0.27-0.09-0.27c-0.04-0.13-0.08-0.26-0.11-0.39c-0.07-0.27-0.12-0.54-0.17-0.81
			c0.02,0.1,0.04,0.52,0.02,0.04c-0.01-0.21-0.03-0.42-0.03-0.63c0-0.28,0-0.56,0.02-0.84c0.01-0.14,0.03-0.28,0.04-0.41
			c-0.01,0.09-0.09,0.52,0,0.05c0.14-0.74,0.33-1.44,0.58-2.15c0.02-0.06,0.19-0.44,0.03-0.09c0.1-0.23,0.21-0.45,0.33-0.67
			c0.17-0.33,0.37-0.65,0.58-0.95c0.04-0.06,0.35-0.45,0.16-0.23c-0.17,0.19,0.3-0.28,0.35-0.34c0.21-0.27-0.26,0.13,0.04-0.04
			c0.09-0.07,0.19-0.12,0.29-0.18c-0.07,0.02-0.13,0.05-0.2,0.07c0.18-0.41,0.23,0.19-0.05-0.05c0.29,0,0.28-0.01-0.04-0.03
			c-0.07-0.03-0.14-0.06-0.21-0.09c-0.32-0.14-0.18-0.19-0.03-0.02c-0.34-0.39,0,0.03,0.06,0.17c-0.07-0.16-0.08-0.38-0.05-0.02
			c0.05,0.53,0.07-0.27,0.02,0.32c-0.03,0.41-0.03,0.83-0.06,1.24c-0.11,1.31,1.23,2.56,2.5,2.5
			C373.82,594.92,374.76,593.88,374.87,592.48L374.87,592.48z"/>
	</g>
</g>
<g>
	<g>
		<path class="st1" d="M378.32,587.54c1.27,3.38,2.7,6.69,4.32,9.91c1.25,2.5,5.54,0.75,4.57-1.93c-0.23-0.63-0.43-1.27-0.59-1.92
			c-0.12-0.5-0.29-1.36-0.33-1.64c-0.04-0.33-0.11-1.25-0.12-1.81c-0.01-0.63,0.01-1.25,0.06-1.88c0.06-0.75,0.06-0.72,0.21-1.46
			c0.12-0.61,0.28-1.22,0.47-1.82c0.06-0.2,0.13-0.4,0.21-0.6c-0.21,0.53,0.16-0.28,0.22-0.37c0.12-0.19,0.4-0.45,0.1-0.17
			c0.09-0.1,0.19-0.19,0.29-0.28c-0.24,0.19-0.25,0.2-0.01,0.06c-0.29,0.11-0.3,0.13-0.02,0.05c-0.26,0.03-0.3,0.04-0.11,0.04
			c0.19,0.01,0.14,0-0.13-0.02c0.27,0.09,0.28,0.08,0.01-0.02c0.13,0.07,0.26,0.14,0.39,0.23c-0.17-0.14-0.18-0.15-0.05-0.04
			c0.21,0.18,0.41,0.37,0.59,0.58c0.11,0.12,0.21,0.24,0.31,0.36c-0.15-0.2-0.14-0.18,0.03,0.05c0.15,0.22,0.3,0.43,0.44,0.65
			c0.34,0.51,0.66,1.03,0.96,1.55c0.31,0.53,0.59,1.07,0.86,1.61c0.16,0.31,0.3,0.63,0.45,0.94c0.01,0.01,0.31,0.73,0.16,0.36
			c0.5,1.21,0.9,2.45,1.24,3.72c0.33,1.26,1.8,2.16,3.08,1.75c1.3-0.42,2.1-1.72,1.75-3.08c-0.63-2.4-1.55-4.73-2.71-6.92
			c-1.14-2.15-2.52-4.5-4.6-5.86c-1.17-0.77-2.64-1.06-4.01-0.74c-1.36,0.32-2.4,1.26-3.18,2.38c-1.38,1.99-1.79,4.82-1.97,7.17
			c-0.21,2.84,0.2,5.77,1.17,8.44c1.52-0.64,3.05-1.28,4.57-1.93c-1.5-3-2.67-5.67-3.81-8.72c-0.46-1.22-1.71-2.19-3.08-1.75
			C378.87,584.85,377.83,586.23,378.32,587.54L378.32,587.54z"/>
	</g>
</g>
<g>
	<g>
		<path class="st1" d="M391.22,579.46c1.87,2.15,3.03,4.73,3.58,7.51c1.52-0.64,3.05-1.28,4.57-1.93c-0.98-1.85-1.65-3.92-1.84-6.02
			c-0.1-1.13-0.1-2.27,0-3.4c0.05-0.51,0.13-1.02,0.24-1.52c0.04-0.2,0.09-0.39,0.14-0.58c0,0.01,0.25-0.7,0.12-0.41
			c0.09-0.2,0.2-0.4,0.33-0.58c0.08-0.13,0.1-0.15,0.04-0.05c-0.08,0.12-0.03,0.08,0.15-0.11c-0.12,0.05-0.2,0.18-0.36,0.22
			c-0.55,0.13-0.52-0.3-0.24,0.07c0.47,0.64,1.23,1.39,1.77,2.1c1.5,1.98,2.8,4.11,3.91,6.33c1.17,2.33,4.57,1.07,4.66-1.26
			c0.09-2.2-0.34-4.36-0.67-6.52c-0.14-0.94-0.23-1.9-0.21-2.85c0.01-0.42,0.04-0.83,0.12-1.24c0.04-0.18,0.15-0.41,0.15-0.59
			c0,0.64-1.78,1.06-1.8,0.65c0,0.05-0.16-0.39,0.01,0.05c0.06,0.17,0.19,0.34,0.27,0.51c0.25,0.5,0.49,1.01,0.73,1.51
			c0.49,1.04,0.97,2.09,1.42,3.14c0.88,2.03,1.66,4.1,2.4,6.19c0.45,1.27,1.71,2.12,3.08,1.75c1.23-0.34,2.2-1.8,1.75-3.08
			c-1.01-2.86-2.13-5.67-3.37-8.44c-1.12-2.52-2.32-6.45-5.69-6.46c-3.65-0.02-4.2,4.28-4.05,7.06c0.15,2.79,0.97,5.51,0.86,8.32
			c1.55-0.42,3.11-0.84,4.66-1.26c-1.48-2.95-3.3-5.69-5.4-8.23c-1.09-1.33-2.34-2.53-4.15-2.69c-1.7-0.15-3.14,0.71-4.13,2.05
			c-1.68,2.29-1.92,5.74-1.8,8.48c0.14,3.3,1.03,6.48,2.58,9.39c0.58,1.09,2.03,1.5,3.12,1.02c1.19-0.52,1.7-1.69,1.45-2.95
			c-0.72-3.63-2.45-6.93-4.87-9.72c-0.89-1.02-2.63-0.91-3.54,0C390.2,576.94,390.33,578.44,391.22,579.46L391.22,579.46z"/>
	</g>
</g>
<g>
	<g>
		<path class="st1" d="M411.2,563.19c0.55,2.27,1.18,4.5,2.19,6.61c1.04,2.18,2.69,4.46,4.98,5.42c2.88,1.22,5.92-0.16,6.9-3.13
			c0.76-2.33,0.53-5.12,0.19-7.51c-0.39-2.76-1.36-5.44-2.74-7.86c-0.65-1.14-2.29-1.62-3.42-0.9c-1.15,0.74-1.59,2.21-0.9,3.42
			c0.68,1.19,0.97,1.81,1.37,2.98c0.39,1.15,0.69,2.35,0.85,3.56c-0.06-0.43,0.03,0.29,0.03,0.38c0.03,0.35,0.05,0.7,0.07,1.05
			c0.02,0.61,0.02,1.22-0.01,1.83c-0.01,0.26-0.04,0.52-0.06,0.78c-0.04,0.33-0.04,0.35,0,0.05c-0.02,0.11-0.04,0.23-0.06,0.34
			c-0.02,0.11-0.27,0.84-0.06,0.38c-0.06,0.13-0.14,0.26-0.22,0.38c0.04-0.1,0.1-0.18,0.19-0.23c0.14-0.1,0.11-0.08-0.1,0.05
			c0.27-0.11,0.27-0.13-0.01-0.05c0.31-0.04,0.31-0.06,0.02-0.05c0.08,0.01,0.15,0.02,0.23,0.04c-0.14-0.03-0.28-0.07-0.42-0.11
			c0.23,0.1,0.22,0.09-0.04-0.04c-0.04-0.03-0.59-0.45-0.26-0.16c-0.24-0.21-0.46-0.43-0.67-0.67c-0.06-0.06-0.49-0.6-0.23-0.26
			c-0.35-0.45-0.65-0.94-0.92-1.44c-0.12-0.21-0.23-0.43-0.34-0.65c-0.04-0.08-0.41-0.93-0.25-0.53c-0.22-0.54-0.41-1.08-0.58-1.64
			c-0.35-1.11-0.63-2.24-0.91-3.36c-0.31-1.27-1.82-2.15-3.08-1.75C411.63,560.55,410.87,561.83,411.2,563.19L411.2,563.19z"/>
	</g>
</g>
<g>
	<g>
		<path class="st1" d="M429.76,547.03c-1.86-2.36-5.54-1.14-6.77,1.18c-1.19,2.25-1.31,5.29,0.34,7.32
			c1.82,2.24,4.89,1.95,7.46,1.96c0.24,0,0.48,0.01,0.71,0.02c0.12,0.01,0.24,0.02,0.36,0.03c-0.05-0.01-0.36-0.07-0.08,0
			c0.23,0.05,0.45,0.11,0.68,0.18c0.28,0.09-0.02-0.01-0.06-0.03c0.13,0.07,0.27,0.15,0.4,0.23c-0.34-0.24,0.18,0.25-0.08-0.1
			c0.09,0.12,0.32,0.59,0.17,0.2c0.08,0.21,0.13,0.44,0.18,0.66c-0.1-0.44-0.04,0.2-0.03,0.37c0.02,0.28,0.01-0.03,0.02-0.09
			c-0.04,0.15-0.07,0.31-0.11,0.46c0,0.01-0.12,0.39-0.04,0.15c0.08-0.21-0.1,0.2-0.13,0.25c-0.13,0.25-0.28,0.49-0.45,0.72
			c0.21-0.29-0.23,0.25-0.31,0.34c-0.2,0.21-0.4,0.4-0.62,0.59c0.01-0.01-0.32,0.25-0.15,0.13c0.12-0.09-0.24,0.15-0.28,0.17
			c-0.25,0.15-0.03,0.05,0.01,0.02c-0.08,0.03-0.16,0.05-0.25,0.08c0.07-0.01,0.14-0.01,0.21-0.02c-0.16,0.14-0.25-0.16-0.13,0.02
			c0.01,0.01,0.38,0.21,0.41,0.23c-1.01-0.83-2.56-1.06-3.54,0c-0.84,0.92-1.08,2.65,0,3.54c4.59,3.77,10.86-2.46,10.32-7.39
			c-0.3-2.75-2.12-4.97-4.9-5.53c-1.2-0.24-2.37-0.24-3.58-0.21c-0.57,0.02-1.15,0.04-1.71-0.03c0.26,0.03-0.36-0.09-0.45-0.11
			c-0.01,0-0.38-0.14-0.16-0.04c0.27,0.12-0.32-0.21-0.08-0.04c0.18,0.13-0.11-0.1-0.11-0.12c0,0.02,0.27,0.33,0.2,0.35
			c-0.01,0-0.09-0.3-0.09-0.31c-0.12-0.27-0.02,0.3-0.01,0c0.02-0.26,0-0.53,0.02-0.8c-0.04,0.47,0.05-0.18,0.09-0.33
			c0.03-0.11,0.06-0.22,0.09-0.32c0.07-0.24,0.01-0.24,0-0.02c0-0.01,0.19-0.37,0.04-0.12c-0.09,0.14,0.19-0.05-0.01-0.01
			c-0.08,0.01-0.26,0.13-0.34,0.16c0.3-0.13,0.08,0.02-0.1,0c-0.16-0.02-0.28-0.05-0.43-0.11c-0.12-0.06-0.5-0.42-0.24-0.09
			c0.81,1.03,2.7,0.92,3.54,0C430.76,549.47,430.62,548.13,429.76,547.03L429.76,547.03z"/>
	</g>
</g>
<g>
	<g>
		<path class="st1" d="M422,531.33c8.33,6.72,14.15,16.01,16.5,26.45c1.52-0.64,3.05-1.28,4.57-1.93c-1.13-2.23-1.91-4.65-2.26-7.12
			c-0.2-1.43-0.51-3.78,0.55-4.97c0.75-0.84,2.13,0.13,2.79,0.92c1.5,1.81,1.97,4.43,3.1,6.47c1.56,2.81,5.88,0.29,4.32-2.52
			c-1.55-2.8-2.14-6.13-4.71-8.27c-2.55-2.13-6.22-2.74-8.83-0.32c-2.14,1.98-2.56,5.26-2.3,8.01c0.35,3.63,1.38,7.07,3.03,10.33
			c1.33,2.62,5.17,0.74,4.57-1.93c-2.51-11.18-8.86-21.46-17.78-28.66c-1.05-0.85-2.51-1.03-3.54,0
			C421.12,528.67,420.94,530.48,422,531.33L422,531.33z"/>
	</g>
</g>
<g>
	<g>
		<path class="st1" d="M446.94,534.26c1.05,3.41,2.1,6.83,3.14,10.24c0.38,1.25,1.76,2.17,3.08,1.75c1.26-0.41,2.16-1.74,1.75-3.08
			c-1.05-3.41-2.1-6.83-3.14-10.24c-0.38-1.25-1.76-2.17-3.08-1.75C447.43,531.59,446.53,532.92,446.94,534.26L446.94,534.26z"/>
	</g>
</g>
<g>
	<g>
		<path class="st1" d="M445.26,527.24c3.22,0,3.22-5,0-5C442.04,522.24,442.03,527.24,445.26,527.24L445.26,527.24z"/>
	</g>
</g>
</svg>
