<?xml version="1.0" encoding="utf-8"?>
<!-- Generator: Adobe Illustrator 25.3.1, SVG Export Plug-In . SVG Version: 6.00 Build 0)  -->
<svg version="1.1" id="Layer_1" xmlns="http://www.w3.org/2000/svg" xmlns:xlink="http://www.w3.org/1999/xlink" x="0px" y="0px"
	 viewBox="0 0 720 720" style="enable-background:new 0 0 720 720;" xml:space="preserve">
<style type="text/css">
	.st0{fill:#FF9999;}
	.st1{opacity:0.5;}
</style>
<g>
	<g>
		<path class="st0" d="M324.81,419.61c-20.89,6.68-43.37-0.76-61.15-12.17c-16.65-10.69-30.68-25.76-39.02-43.78
			c-8.52-18.41-10.23-39.9-4.01-59.27c3.13-9.74,8.36-18.65,15.3-26.15c7.15-7.73,15.71-13.95,24.78-19.23
			c19.11-11.13,40.84-19.48,63.08-20.85c11.1-0.68,22.24,0.48,32.81,3.98c10.75,3.55,20.62,9.33,29.92,15.7
			c9.02,6.18,17.84,12.85,25.39,20.79c7.2,7.57,12.9,16.39,16.2,26.34c6.41,19.33,4.5,41.17-4.05,59.56
			c-8.44,18.15-22.56,33.16-39.04,44.3c-17.84,12.06-39.19,21.09-60.99,21.24c-5.42,0.04-10.81-0.5-16.1-1.71
			c-3.13-0.71-4.47,4.11-1.33,4.82c23.24,5.29,47.35-1.32,67.96-12.25c18.51-9.81,35.18-23.72,46.77-41.29
			c11.77-17.84,17.62-39.64,14.92-60.97c-1.35-10.68-4.7-21.08-10.39-30.25c-6.03-9.73-14.32-17.82-23.24-24.9
			c-9.06-7.2-18.67-13.97-28.92-19.39c-10.55-5.59-21.8-9.33-33.69-10.63c-23.39-2.55-47.01,4.02-68.02,13.94
			c-19.68,9.29-39.16,22.08-50.07,41.49c-10.59,18.84-12.59,41.92-6.99,62.64c5.44,20.16,18.09,38,34.04,51.27
			c16.82,13.99,38.44,24.8,60.76,24.29c5.55-0.13,11.1-1.01,16.39-2.7C329.19,423.46,327.88,418.63,324.81,419.61L324.81,419.61z"/>
	</g>
</g>
<g>
	<g>
		<path class="st0" d="M203.68,333.2c-11.68-13.84-16.46-31.96-16.83-49.78c-0.39-18.72,3.7-37.27,10.1-54.79
			c6.52-17.83,15.8-34.81,27.72-49.62c12.12-15.06,26.89-27.88,43.87-37.17c17.2-9.42,36.48-15.28,56.1-16.39
			c20.7-1.17,41.84,2.78,59.67,13.65c8.69,5.3,16.8,11.62,24.56,18.19c7.35,6.23,14.35,12.88,20.86,19.99
			c12.77,13.95,23.75,29.84,30.99,47.38c6.97,16.87,10.28,35.01,9.16,53.26c-1.08,17.62-6.38,35.11-16.42,49.72
			c-2.42,3.53-5.13,6.84-8.08,9.95c-2.21,2.34,1.32,5.88,3.54,3.54c12.79-13.5,20.89-30.84,24.23-49.05
			c3.37-18.33,2.31-37.47-2.89-55.36c-5.52-18.99-15.41-36.45-27.6-51.92c-12.28-15.6-27-29.15-42.84-41.06
			c-9-6.77-18.45-12.82-29.04-16.78c-10.15-3.8-20.98-5.81-31.78-6.47c-20.24-1.25-40.7,2.67-59.36,10.5
			c-18.65,7.84-35.45,19.54-49.43,34.16c-13.63,14.25-24.61,31-32.69,48.97c-8,17.79-13.63,36.87-15.25,56.37
			c-1.55,18.76,0.8,38.44,10.09,55.08c2.22,3.98,4.86,7.71,7.8,11.19c0.87,1.03,2.64,0.9,3.54,0
			C204.7,335.72,204.55,334.24,203.68,333.2L203.68,333.2z"/>
	</g>
</g>
<g>
	<g>
		<path class="st0" d="M314.2,219.84c-12.49,1.68-24.27,6.2-35.3,12.22c-10.66,5.82-20.72,12.83-30.21,20.39
			c-18.82,14.99-35.32,33.56-44.82,55.87c-4.83,11.33-7.88,23.39-8.45,35.71c-0.58,12.59,1.36,25.66,7.22,36.93
			c5.55,10.69,14.43,19.52,23.85,26.86c8.98,7,18.82,12.74,29.14,17.51c10.47,4.84,21.34,8.77,32.34,12.21
			c11.36,3.56,22.87,6.81,34.41,9.7c6.56,1.64,13.39,2.94,20.18,2.42c6.5-0.5,12.68-2.48,18.65-5.01c5.87-2.49,11.56-5.4,17.26-8.24
			c5.7-2.84,11.37-5.74,16.9-8.89c20.38-11.6,39.93-27.6,47.87-50.45c4.24-12.21,4.46-25.41,3.1-38.13
			c-0.71-6.62-1.8-13.19-3.01-19.73c-1.13-6.12-2.27-12.25-3.91-18.26c-1.6-5.9-3.7-11.72-6.69-17.06
			c-2.96-5.3-6.88-10.01-11.27-14.19c-4.42-4.22-9.3-7.94-14.19-11.59c-5.29-3.94-10.66-7.78-16.1-11.51
			c-11.02-7.54-22.34-14.65-33.93-21.27c-10.04-5.72-21.34-11.07-33.13-11.17c-5.57-0.05-11.06,1.3-15.84,4.18
			c-2.75,1.66-0.24,5.98,2.52,4.32c9.61-5.79,21.13-3.39,30.96,0.55c5.36,2.15,10.43,4.96,15.42,7.85
			c5.57,3.23,11.08,6.57,16.53,10.01c10.89,6.89,21.5,14.2,31.81,21.92c9.21,6.89,18.21,14.39,23.63,24.75
			c5.48,10.47,7.49,22.44,9.59,33.94c2.25,12.34,4.09,24.91,3.1,37.48c-0.91,11.56-4.77,22.41-11.32,31.96
			c-6.24,9.1-14.5,16.76-23.47,23.13c-10.07,7.15-21.06,12.88-32.11,18.36c-10.72,5.31-22,11.82-34.26,12.16
			c-6.57,0.19-13-1.29-19.31-2.94c-5.57-1.46-11.13-2.99-16.68-4.55c-10.81-3.04-21.57-6.3-32.09-10.25
			c-20.49-7.69-40.51-18.32-55.54-34.54c-3.94-4.24-7.42-8.9-10.09-14.04c-2.84-5.46-4.6-11.43-5.62-17.48
			c-1.96-11.62-1.05-23.68,1.82-35.06c5.76-22.84,19.38-42.67,36.27-58.78c8.3-7.91,17.36-14.98,26.84-21.41
			c9.78-6.63,20.12-12.69,31.28-16.69c5.38-1.93,10.97-3.42,16.65-4.18c1.34-0.18,2.5-1.02,2.5-2.5
			C316.7,221.13,315.55,219.66,314.2,219.84L314.2,219.84z"/>
	</g>
</g>
<g>
	<g>
		<path class="st0" d="M315.08,330.35c-11.24,0.87-22.59,1.53-33.83,0.19c-5.41-0.64-10.8-1.84-15.94-3.68
			c-4.12-1.47-8.2-3.54-11.32-6.66c-3.33-3.34-4.88-7.68-4.66-12.38c0.24-5.12,2.49-9.85,5.43-13.96c2.93-4.1,6.62-7.66,10.3-11.08
			c3.75-3.47,7.68-6.75,11.84-9.71c16.28-11.57,36.72-18.55,56.61-13.25c9.13,2.43,17.64,7.51,23.18,15.3
			c5.16,7.25,7.55,16.28,4.57,24.89c-2.86,8.28-10.02,14.49-17.72,18.23c-9.67,4.7-20.82,5.46-31.4,5.6
			c-2.79,0.04-5.58,0.02-8.36,0.01c-3.22-0.02-3.22,4.98,0,5c12.03,0.07,24.41,0.09,35.96-3.72c9.37-3.1,18.14-9.01,23.38-17.52
			c5.42-8.78,5.67-19.27,1.54-28.61c-4.15-9.38-12.2-16.81-21.47-20.99c-9.95-4.49-21.09-5.82-31.88-4.44
			c-10.97,1.4-21.39,5.44-30.82,11.16c-9.3,5.65-17.93,12.81-25.31,20.81c-7.42,8.05-13.82,19.53-9.6,30.7
			c3.88,10.26,14.99,14.94,24.89,17.39c11.7,2.9,23.88,2.99,35.85,2.32c2.92-0.16,5.83-0.38,8.75-0.6c1.35-0.1,2.5-1.07,2.5-2.5
			C317.58,331.58,316.43,330.25,315.08,330.35L315.08,330.35z"/>
	</g>
</g>
<g>
	<g>
		<path class="st0" d="M295.08,305.69c-4.81-2.7-7.83-8.3-6.86-13.83c0.88-5,5.71-11.97,11.61-10.13c2.83,0.88,5.12,3.21,7.14,5.27
			c2.35,2.4,4.46,5.02,6.29,7.83c1.71,2.63,3.71,5.63,4.27,8.77c0.46,2.55-0.72,4.89-2.55,6.61c-5.44,5.11-13.51,2.4-19.22-0.71
			c-2.83-1.54-5.35,2.77-2.52,4.32c6.98,3.8,16.09,6.47,23.24,1.55c2.96-2.04,5.4-5.08,5.98-8.71c0.68-4.27-1.26-8.18-3.32-11.79
			c-2.05-3.58-4.53-6.95-7.31-10c-2.63-2.89-5.62-5.86-9.26-7.42c-8.13-3.49-15.94,3.23-18.53,10.68
			c-2.87,8.27,0.97,17.64,8.52,21.89C295.36,311.58,297.88,307.27,295.08,305.69L295.08,305.69z"/>
	</g>
</g>
<g>
	<g>
		<path class="st0" d="M376.59,278.68c18.26,5.53,33.35,20.66,37.73,39.37c2.27,9.71,1.64,20.02-1.65,29.42
			c-3.16,9.03-9.02,16.81-16.49,22.73c-14.73,11.67-34.42,15.73-52.72,17.28c-11.22,0.95-22.69,1.33-33.88-0.14
			c-11.28-1.47-22.09-5.24-31.47-11.75c-8.24-5.72-16.77-13.99-18.19-24.41c-1.46-10.77,4.52-21.01,10.49-29.46
			c1.55-2.2,3.18-4.35,4.83-6.48c0.83-1.06,1.04-2.5,0-3.54c-0.86-0.86-2.7-1.07-3.54,0c-7.12,9.14-14.74,19.3-16.55,31.07
			c-0.9,5.83-0.26,11.58,2.12,16.99c2.25,5.13,5.93,9.59,9.98,13.41c8.67,8.18,19.39,14.03,30.92,17.02
			c12.07,3.14,24.7,3.41,37.1,2.81c19.99-0.97,41.17-4.1,58.41-14.97c8.6-5.43,16-12.87,20.69-21.96c4.99-9.68,7.1-20.85,6.03-31.69
			c-2.08-20.95-16.05-39.36-35.24-47.83c-2.36-1.04-4.77-1.96-7.24-2.71C374.84,272.92,373.52,277.75,376.59,278.68L376.59,278.68z"
			/>
	</g>
</g>
<g>
	<g>
		<path class="st0" d="M305.54,342.25c0.62,11.08,9.39,18.95,19.21,22.67c5.35,2.02,11.15,3.11,16.84,3.57
			c5.56,0.45,11.2-0.12,16.43-2.12c9.42-3.61,17.03-10.66,22.75-18.84c3.13-4.48,5.86-9.5,7-14.89c1.13-5.34,0.57-10.79-1.53-15.82
			c-4.83-11.56-16.02-18.42-27.77-21.38c-3.12-0.79-4.45,4.03-1.33,4.82c9.07,2.28,17.96,6.94,22.87,15.21
			c2.31,3.89,3.59,8.33,3.34,12.87c-0.27,4.92-2.4,9.56-4.95,13.7c-4.6,7.49-10.95,14.2-18.85,18.22
			c-8.94,4.55-19.05,3.86-28.51,1.4c-9.35-2.43-19.89-8.62-20.49-19.41C310.36,339.05,305.36,339.03,305.54,342.25L305.54,342.25z"
			/>
	</g>
</g>
<g class="st1">
	<g>
		<path class="st0" d="M214.77,330.83c-0.31-1.69-0.6-3.37-0.84-5.07c0.09,0.66,0.18,1.33,0.27,1.99c-0.39-2.95-0.57-5.92-0.2-8.89
			c-0.09,0.66-0.18,1.33-0.27,1.99c0.24-1.65,0.65-3.24,1.29-4.79c-0.25,0.6-0.5,1.19-0.76,1.79c0.59-1.33,1.38-2.45,2.17-3.67
			c-1.28,1.98,0.05-0.02,0.46-0.49c0.57-0.66,1.15-1.3,1.72-1.95c2.19-2.49,4.23-5.12,6.15-7.83c3.29-4.65,6.13-9.6,8.94-14.55
			c2.77-4.89,5.52-9.81,8.66-14.48c0.76-1.13,1.54-2.25,2.35-3.35c0.2-0.27,0.41-0.55,0.61-0.82c0.6-0.81-1.21,1.53-0.3,0.39
			c0.51-0.64,1.03-1.28,1.56-1.9c1.78-2.1,3.7-4.07,5.75-5.91c0.62-0.55,1.25-1.09,1.88-1.61c0.27-0.22,0.54-0.43,0.81-0.65
			c0.45-0.35,0.21-0.17-0.7,0.54c0.22-0.17,0.44-0.33,0.66-0.5c1.22-0.9,2.47-1.76,3.75-2.57c2.8-1.77,5.74-3.29,8.79-4.59
			c-0.6,0.25-1.19,0.5-1.79,0.76c5.16-2.15,11.06-2.96,15.86-5.9c2.3-1.41,4.28-3.28,6.21-5.15c0.77-0.75,1.58-1.46,2.38-2.18
			c0.64-0.58-1.4,1-0.68,0.53c0.24-0.16,0.48-0.34,0.72-0.49c0.49-0.31,1.01-0.57,1.54-0.81c-0.6,0.25-1.19,0.5-1.79,0.76
			c0.76-0.3,1.52-0.5,2.33-0.64c-0.66,0.09-1.33,0.18-1.99,0.27c3.17-0.39,6.34,0.14,9.52-0.29c3.42-0.46,6.53-1.6,9.62-3.15
			c4.71-2.37,8.8-5.81,13.66-7.9c-0.6,0.25-1.19,0.5-1.79,0.76c1.91-0.79,3.88-1.39,5.94-1.67c-0.66,0.09-1.33,0.18-1.99,0.27
			c1.35-0.16,2.69-0.18,4.04,0c-0.66-0.09-1.33-0.18-1.99-0.27c0.95,0.16,1.86,0.41,2.76,0.77c-0.6-0.25-1.19-0.5-1.79-0.76
			c0.62,0.28,1.17,0.62,1.75,0.97c0.76,0.47-1.4-1.19-0.51-0.39c0.27,0.24,0.54,0.49,0.81,0.73c1.32,1.23,2.7,2.52,4.32,3.33
			c2.78,1.4,5.63,1.75,8.68,1.08c1.47-0.32,2.83-0.99,4.31-1.23c-0.66,0.09-1.33,0.18-1.99,0.27c0.57-0.06,1.13-0.06,1.7,0.01
			c-0.66-0.09-1.33-0.18-1.99-0.27c0.54,0.09,1.04,0.24,1.55,0.45c-0.6-0.25-1.19-0.5-1.79-0.76c0.33,0.15,0.65,0.31,0.96,0.5
			c1.42,0.87-1.27-1.14-0.39-0.35c0.51,0.46,1.01,0.93,1.48,1.44c0.49,0.54,0.95,1.1,1.41,1.67c1.13,1.42-0.95-1.24-0.19-0.25
			c0.2,0.26,0.39,0.51,0.59,0.77c2.53,3.29,5.02,6.43,8.72,8.51c5.93,3.33,12.74,3.4,18.92,5.94c-0.6-0.25-1.19-0.5-1.79-0.76
			c0.63,0.27,1.25,0.57,1.85,0.91c0.29,0.17,0.57,0.36,0.86,0.54c1.25,0.79-1.38-1.22-0.49-0.38c0.21,0.2,0.43,0.39,0.63,0.6
			c0.55,0.56,0.97,1.6-0.21-0.39c0.44,0.74,0.89,1.42,1.25,2.21c-0.25-0.6-0.5-1.19-0.76-1.79c0.71,1.68,1.15,3.45,1.74,5.17
			c0.93,2.68,2.09,5,3.91,7.18c2.04,2.46,4.81,4.09,7.71,5.32c4.84,2.04,10.13,2.62,14.97,4.64c-0.6-0.25-1.19-0.5-1.79-0.76
			c0.58,0.25,1.15,0.52,1.7,0.84c0.2,0.12,0.39,0.24,0.58,0.36c1.27,0.77-1.39-1.24-0.62-0.5c0.37,0.36,0.72,0.72,1.08,1.09
			c-1.69-1.75-0.95-1.3-0.55-0.62c0.15,0.26,0.28,0.53,0.41,0.81c-0.25-0.6-0.5-1.19-0.76-1.79c0.27,0.65,0.44,1.31,0.56,2.01
			c-0.09-0.66-0.18-1.33-0.27-1.99c0.16,1.4,0.02,2.77-0.16,4.16c0.09-0.66,0.18-1.33,0.27-1.99c-0.46,3.29-1.06,6.63-0.02,9.89
			c1.07,3.37,3.15,5.76,5.92,7.85c1.36,1.02,2.85,1.81,4.29,2.7c0.36,0.22,0.71,0.46,1.07,0.69c0.96,0.61-1.27-1.09-0.64-0.51
			c0.15,0.14,0.32,0.27,0.47,0.41c0.28,0.26,1.23,1.39,0.36,0.27c-0.83-1.08-0.24-0.3-0.08-0.02c0.16,0.28,0.3,0.56,0.44,0.85
			c-0.25-0.6-0.5-1.19-0.76-1.79c0.45,1.08,0.69,2.2,0.86,3.35c-0.09-0.66-0.18-1.33-0.27-1.99c0.34,2.63,0.42,5.31,1.03,7.9
			c0.56,2.36,1.65,4.68,2.96,6.72c2.14,3.36,4.98,6.23,6.6,9.91c-0.25-0.6-0.5-1.19-0.76-1.79c0.68,1.65,1.09,3.36,1.32,5.13
			c-0.09-0.66-0.18-1.33-0.27-1.99c0.59,4.97-0.07,9.99,0.56,14.95c0.45,3.49,1.19,6.61,2.86,9.76c1.14,2.15,2.68,4.07,3.67,6.3
			c-0.25-0.6-0.5-1.19-0.76-1.79c0.29,0.72,0.51,1.43,0.65,2.19c-0.09-0.66-0.18-1.33-0.27-1.99c0.1,0.78,0.11,1.52,0.01,2.3
			c0.09-0.66,0.18-1.33,0.27-1.99c-0.12,0.7-0.31,1.35-0.57,2.01c0.25-0.6,0.5-1.19,0.76-1.79c-0.36,0.85-0.81,1.65-1.32,2.42
			c-0.29,0.44-0.61,0.87-0.92,1.3c-0.58,0.81,0.57-0.71,0.58-0.75c-0.06,0.22-0.37,0.47-0.5,0.64c-1.56,1.97-3.25,3.92-4.47,6.13
			c-1.58,2.87-2.47,6.02-2.41,9.31c0.05,2.67,0.63,5.25,0.32,7.93c0.09-0.66,0.18-1.33,0.27-1.99c-0.22,1.62-0.65,3.16-1.28,4.67
			c0.25-0.6,0.5-1.19,0.76-1.79c-0.51,1.17-1.12,2.29-1.84,3.35c-0.18,0.26-0.86,1.15-0.03,0.09c0.83-1.06,0.13-0.18-0.07,0.06
			c-0.41,0.49-0.85,0.96-1.31,1.42c-0.42,0.41-0.85,0.81-1.3,1.18c-0.95,0.8,0.26-0.3,0.55-0.41c-0.26,0.1-0.62,0.45-0.86,0.61
			c-1.07,0.71-2.2,1.32-3.38,1.82c0.6-0.25,1.19-0.5,1.79-0.76c-1.51,0.62-3.05,1.06-4.67,1.29c0.66-0.09,1.33-0.18,1.99-0.27
			c-1.51,0.19-3.01,0.19-4.52-0.01c0.66,0.09,1.33,0.18,1.99,0.27c-2.9-0.44-5.71-1.23-8.65-1.44c-3.09-0.22-6.56,0.57-9.14,2.33
			c-4.47,3.06-6.37,7.56-8.39,12.36c0.25-0.6,0.5-1.19,0.76-1.79c-0.56,1.33-1.13,2.66-1.86,3.9c-0.16,0.27-0.32,0.53-0.5,0.79
			c-0.91,1.35,0.76-0.86,0.37-0.43c-0.43,0.48-0.83,0.97-1.29,1.42c-0.42,0.41-0.87,0.77-1.31,1.15c2.13-1.84,0.25-0.24-0.4,0.16
			c-1.1,0.67-2.27,1.24-3.45,1.75c0.6-0.25,1.19-0.5,1.79-0.76c-5.43,2.27-11.29,3.25-16.83,5.2c-3.17,1.12-6.4,2.43-9.17,4.37
			c-1.7,1.2-3.3,2.5-4.75,4c-0.62,0.64-1.23,1.3-1.9,1.91c-0.09,0.08-0.19,0.17-0.28,0.25c-0.59,0.49-0.38,0.33,0.63-0.47
			c-0.44,0.17-0.86,0.54-1.3,0.75c0.6-0.25,1.19-0.5,1.79-0.76c-0.65,0.27-1.31,0.47-2.01,0.56c0.66-0.09,1.33-0.18,1.99-0.27
			c-0.55,0.05-1.08,0.05-1.63-0.01c0.66,0.09,1.33,0.18,1.99,0.27c-0.88-0.12-1.7-0.37-2.52-0.71c0.6,0.25,1.19,0.5,1.79,0.76
			c-1.03-0.45-1.99-1.02-2.92-1.65c-0.49-0.33-0.97-0.68-1.45-1.03c-0.26-0.19-0.52-0.39-0.78-0.59c-0.91-0.69,1.58,1.23,0.63,0.49
			c-2.25-1.75-4.48-3.66-7-5.03c-2.77-1.51-6.04-2.65-9.24-2.35c-2.5,0.23-4.76,0.86-6.93,2.17c-1.42,0.85-2.66,1.94-4.16,2.66
			c0.6-0.25,1.19-0.5,1.79-0.76c-0.63,0.26-1.25,0.45-1.92,0.55c0.66-0.09,1.33-0.18,1.99-0.27c-0.64,0.07-1.27,0.07-1.92-0.01
			c0.66,0.09,1.33,0.18,1.99,0.27c-0.81-0.13-1.59-0.36-2.35-0.67c0.6,0.25,1.19,0.5,1.79,0.76c-2.34-1.02-4.36-2.61-6.38-4.14
			c-2.5-1.9-4.94-3.51-7.89-4.66c-3.83-1.48-8.09-1.09-11.72,0.77c-2.06,1.06-3.81,2.76-5.51,4.3c-0.95,0.86,1.5-1.03,0.36-0.27
			c-0.36,0.24-0.71,0.48-1.07,0.71c-0.78,0.48-1.6,0.89-2.44,1.26c0.6-0.25,1.19-0.5,1.79-0.76c-1.71,0.71-3.47,1.18-5.3,1.43
			c0.66-0.09,1.33-0.18,1.99-0.27c-1.84,0.22-3.66,0.22-5.5-0.02c0.66,0.09,1.33,0.18,1.99,0.27c-1.7-0.25-3.34-0.7-4.93-1.36
			c0.6,0.25,1.19,0.5,1.79,0.76c-3.41-1.5-6.05-4.18-9.71-5.19c-2.7-0.74-5.56-0.54-8.23,0.22c-1.6,0.45-3.13,1.03-4.78,1.26
			c0.66-0.09,1.33-0.18,1.99-0.27c-1.22,0.14-2.42,0.13-3.63-0.01c0.66,0.09,1.33,0.18,1.99,0.27c-1.55-0.21-3.03-0.63-4.47-1.23
			c0.6,0.25,1.19,0.5,1.79,0.76c-1.03-0.45-2.01-0.98-2.95-1.59c-0.23-0.16-0.46-0.33-0.69-0.48c-0.65-0.44,1.56,1.31,0.59,0.45
			c-0.42-0.37-0.85-0.73-1.25-1.13c-0.4-0.39-0.78-0.8-1.15-1.23c-0.15-0.17-0.28-0.35-0.43-0.52c1.48,1.73,0.8,1.04,0.47,0.57
			c-0.67-0.96-1.23-1.98-1.7-3.05c0.25,0.6,0.5,1.19,0.76,1.79c-0.56-1.33-0.94-2.7-1.13-4.13c0.09,0.66,0.18,1.33,0.27,1.99
			c-0.13-1.12-0.14-2.22-0.02-3.34c0.38-3.71-3.76-7.96-7.5-7.5c-1.15,0.14-2.28,0.13-3.42-0.02c0.66,0.09,1.33,0.18,1.99,0.27
			c-1.14-0.18-2.22-0.49-3.29-0.92c0.6,0.25,1.19,0.5,1.79,0.76c-0.84-0.37-1.66-0.79-2.43-1.3c-0.58-0.38-1.1-1.09,0.4,0.36
			c-0.33-0.32-0.7-0.59-1.03-0.91c-0.33-0.32-0.63-0.67-0.94-1c-0.84-0.91,1.04,1.54,0.33,0.43c-0.5-0.78-0.95-1.54-1.33-2.39
			c0.25,0.6,0.5,1.19,0.76,1.79c-0.44-1.07-0.73-2.17-0.9-3.32c0.09,0.66,0.18,1.33,0.27,1.99c-0.42-3.45-0.44-7.16-2.53-10.12
			c-1.71-2.43-3.75-3.88-6.51-4.94c-1.19-0.46-2.45-0.69-3.64-1.15c0.6,0.25,1.19,0.5,1.79,0.76c-0.61-0.26-1.15-0.58-1.71-0.93
			c-0.98-0.61,1.47,1.3,0.65,0.49c-0.23-0.23-0.47-0.44-0.69-0.67c-0.49-0.52-0.9-1.45,0.38,0.56c-0.15-0.23-0.32-0.45-0.47-0.69
			c-0.35-0.56-0.64-1.14-0.9-1.74c0.25,0.6,0.5,1.19,0.76,1.79c-0.43-1.06-0.72-2.14-0.88-3.27c0.09,0.66,0.18,1.33,0.27,1.99
			c-0.14-1.13-0.14-2.24,0.01-3.36c-0.09,0.66-0.18,1.33-0.27,1.99c0.14-0.92,0.38-1.8,0.73-2.66c-0.25,0.6-0.5,1.19-0.76,1.79
			c0.26-0.6,0.58-1.14,0.92-1.69c0.6-0.98-1.31,1.46-0.49,0.64c0.27-0.27,0.52-0.54,0.8-0.79c1.96-1.76,2.61-4.82,1.93-7.3
			c-0.64-2.32-2.74-4.82-5.24-5.24c-1.23-0.21-2.41-0.55-3.56-1.03c0.6,0.25,1.19,0.5,1.79,0.76c-0.98-0.43-1.91-0.94-2.8-1.54
			c-0.47-0.32-1.15-0.99,0.57,0.47c-0.17-0.15-0.35-0.28-0.52-0.43c-0.43-0.37-0.84-0.75-1.23-1.16c-0.35-0.37-0.68-0.76-1.01-1.14
			c-0.52-0.59,1.19,1.66,0.45,0.58c-0.13-0.19-0.26-0.37-0.39-0.56c-0.63-0.94-1.15-1.94-1.6-2.98c0.25,0.6,0.5,1.19,0.76,1.79
			c-0.56-1.36-0.96-2.76-1.18-4.21c0.09,0.66,0.18,1.33,0.27,1.99c-0.19-1.46-0.2-2.91-0.01-4.37c-0.09,0.66-0.18,1.33-0.27,1.99
			c0.03-0.22,0.07-0.45,0.11-0.67c0.37-2.02,0.31-3.95-0.76-5.78c-0.91-1.56-2.69-3.04-4.48-3.45c-3.67-0.84-8.48,1.11-9.23,5.24
			c-1.16,6.37-0.05,13.06,3.72,18.43c3.64,5.18,8.99,9.45,15.38,10.52c-1.1-4.18-2.21-8.36-3.31-12.54
			c-5.09,4.58-6.59,12.35-4.64,18.76c0.95,3.13,2.66,6.26,5.11,8.47c1.22,1.1,2.57,2.13,4.07,2.82c1.88,0.87,3.84,1.26,5.73,2.04
			c-0.6-0.25-1.19-0.5-1.79-0.76c0.23,0.1,0.45,0.21,0.66,0.34c-0.98-0.83-1.2-0.99-0.66-0.49c-1.5-1.69-0.58-0.8-0.25-0.1
			c-0.25-0.6-0.5-1.19-0.76-1.79c0.31,0.78,0.48,1.56,0.6,2.39c-0.09-0.66-0.18-1.33-0.27-1.99c0.36,2.77,0.42,5.6,1.48,8.23
			c1.23,3.03,2.87,5.78,5.29,8.03c4.3,3.98,10.4,6.65,16.34,5.93c-2.5-2.5-5-5-7.5-7.5c-0.88,8.69,4.26,16.62,11.02,21.54
			c3.19,2.33,7,3.67,10.89,4.19c2.48,0.33,4.62,0.21,7.12-0.2c1.99-0.32,3.83-1.18,5.81-1.54c-0.66,0.09-1.33,0.18-1.99,0.27
			c0.6-0.08,1.16-0.1,1.76-0.06c-0.66-0.09-1.33-0.18-1.99-0.27c0.66,0.09,1.26,0.26,1.88,0.51c-0.6-0.25-1.19-0.5-1.79-0.76
			c1.53,0.69,2.84,1.72,4.24,2.63c1.67,1.09,3.54,1.88,5.4,2.57c3.26,1.21,7.01,1.7,10.47,1.43c4.09-0.31,7.86-1.3,11.5-3.19
			c1.76-0.91,3.35-2.14,4.86-3.41c0.65-0.55,1.29-1.12,1.92-1.7c0.56-0.52-1.62,1.11-0.28,0.23c0.38-0.25,0.78-0.46,1.19-0.65
			c-0.6,0.25-1.19,0.5-1.79,0.76c0.54-0.21,1.08-0.37,1.65-0.45c-0.66,0.09-1.33,0.18-1.99,0.27c0.63-0.07,1.24-0.06,1.86,0.02
			c-0.66-0.09-1.33-0.18-1.99-0.27c0.8,0.13,1.55,0.37,2.29,0.68c-0.6-0.25-1.19-0.5-1.79-0.76c4.18,1.86,7.27,5.44,11.33,7.51
			c3.5,1.79,7.07,2.58,10.97,1.88c1.77-0.32,3.52-1.08,5.04-2.04c1.4-0.88,2.65-1.95,4.18-2.61c-0.6,0.25-1.19,0.5-1.79,0.76
			c0.51-0.19,1.02-0.34,1.56-0.43c-0.66,0.09-1.33,0.18-1.99,0.27c0.64-0.09,1.26-0.09,1.9-0.03c-0.66-0.09-1.33-0.18-1.99-0.27
			c0.89,0.12,1.72,0.37,2.55,0.71c-0.6-0.25-1.19-0.5-1.79-0.76c1.03,0.45,2.01,1.02,2.95,1.65c0.46,0.31,0.9,0.62,1.34,0.95
			c0.26,0.19,0.52,0.39,0.78,0.59c1.1,0.83-1.34-1.04-0.52-0.4c2.28,1.77,4.54,3.71,7.09,5.09c3.13,1.69,6.51,2.64,10.06,2.16
			c2.11-0.28,4.14-0.88,5.94-2.1c1.83-1.24,3.35-2.71,4.87-4.28c0.6-0.62,1.23-1.19,1.88-1.76c0.8-0.7-1.6,1.14-0.42,0.33
			c0.3-0.2,0.59-0.41,0.89-0.6c1.3-0.84,2.69-1.53,4.11-2.14c-0.6,0.25-1.19,0.5-1.79,0.76c6.12-2.57,12.76-3.51,18.91-5.99
			c3.89-1.57,7.51-3.45,10.52-6.44c3.27-3.24,4.92-7.18,6.67-11.34c-0.25,0.6-0.5,1.19-0.76,1.79c0.61-1.45,1.24-2.92,2.09-4.26
			c0.4-0.63,1.22-1.22-0.36,0.38c0.24-0.25,0.49-0.52,0.72-0.78c0.98-1.11-1.51,0.93-0.46,0.31c0.36-0.21,0.7-0.42,1.08-0.6
			c-0.6,0.25-1.19,0.5-1.79,0.76c0.65-0.27,1.29-0.45,1.98-0.56c-0.66,0.09-1.33,0.18-1.99,0.27c1.03-0.12,2.02-0.08,3.05,0.03
			c-0.66-0.09-1.33-0.18-1.99-0.27c3.86,0.54,7.66,1.8,11.6,1.43c4.03-0.38,7.8-1.45,11.33-3.48c6.35-3.65,11.58-10.12,13.19-17.34
			c0.47-2.13,0.76-4.37,0.63-6.56c-0.13-2.26-0.58-4.49-0.32-6.76c-0.09,0.66-0.18,1.33-0.27,1.99c0.15-0.89,0.38-1.72,0.73-2.55
			c-0.25,0.6-0.5,1.19-0.76,1.79c0.48-1.07,1.09-2.06,1.76-3.02c0.19-0.27,0.38-0.53,0.58-0.79c0.69-0.94-1.02,1.3-0.47,0.61
			c0.37-0.47,0.75-0.94,1.12-1.41c2.11-2.69,4-5.21,5.12-8.48c1.37-3.99,0.69-8.11-1.01-11.86c-1.2-2.65-3.12-4.9-4.28-7.57
			c0.25,0.6,0.5,1.19,0.76,1.79c-0.61-1.52-0.99-3.08-1.23-4.7c0.09,0.66,0.18,1.33,0.27,1.99c-0.87-6.77,0.47-13.69-1.53-20.34
			c-1-3.32-2.7-6.23-4.76-8.98c-1.73-2.31-3.55-4.57-4.72-7.24c0.25,0.6,0.5,1.19,0.76,1.79c-0.49-1.2-0.8-2.42-0.99-3.7
			c0.09,0.66,0.18,1.33,0.27,1.99c-0.37-2.74-0.41-5.57-1.12-8.25c-0.78-2.94-2.43-5.81-4.78-7.77c-1.83-1.53-3.79-2.68-5.82-3.91
			c-0.36-0.22-0.72-0.44-1.07-0.68c-0.12-0.08-0.48-0.45-0.63-0.45c0.11,0,1.46,1.26,0.81,0.59c-0.27-0.28-0.55-0.59-0.84-0.86
			c1.56,1.44,0.85,1.26,0.57,0.66c-0.11-0.23-0.24-0.45-0.35-0.68c0.25,0.6,0.5,1.19,0.76,1.79c-0.2-0.51-0.34-1.01-0.44-1.55
			c0.09,0.66,0.18,1.33,0.27,1.99c-0.18-1.38-0.04-2.72,0.14-4.09c-0.09,0.66-0.18,1.33-0.27,1.99c0.43-3.15,0.8-5.84,0.28-8.98
			c-0.28-1.67-0.94-3.37-1.83-4.8c-1.75-2.79-4.34-4.98-7.35-6.32c-5.15-2.3-10.79-2.9-15.97-5.07c0.6,0.25,1.19,0.5,1.79,0.76
			c-0.63-0.27-1.26-0.57-1.86-0.91c-0.29-0.17-0.58-0.34-0.86-0.53c-0.71-0.47-1.03-1.21,0.51,0.43c-0.43-0.46-0.94-0.98-1.41-1.39
			c0.9,1.2,1.14,1.51,0.71,0.92c-0.15-0.21-0.29-0.43-0.42-0.65c-0.26-0.44-0.49-0.9-0.7-1.37c0.25,0.6,0.5,1.19,0.76,1.79
			c-1.47-3.48-2.05-7.32-4.21-10.5c-2.03-2.98-4.79-5.35-8.1-6.79c-2.93-1.28-5.88-2.11-8.99-2.79c-2.7-0.59-5.41-1.17-7.98-2.21
			c0.6,0.25,1.19,0.5,1.79,0.76c-1.1-0.46-2.12-1.01-3.11-1.67c-1.21-0.79,1.11,0.97,0.54,0.43c-0.18-0.17-0.38-0.33-0.57-0.5
			c-0.45-0.42-0.88-0.88-1.29-1.34c-0.42-0.48-0.83-0.97-1.23-1.48c-0.2-0.25-0.85-1.09-0.01-0.01c0.88,1.14,0.08,0.11-0.11-0.14
			c-1.07-1.39-2.11-2.8-3.26-4.12c-2.14-2.46-4.88-4.5-8.04-5.42c-2.2-0.64-4.27-0.55-6.48-0.19c-1.62,0.27-3.09,1.02-4.7,1.29
			c0.66-0.09,1.33-0.18,1.99-0.27c-0.41,0.04-0.78,0.04-1.19,0.01c0.66,0.09,1.33,0.18,1.99,0.27c-0.35-0.06-0.66-0.14-1-0.26
			c0.6,0.25,1.19,0.5,1.79,0.76c-0.19-0.08-1.17-0.44-1.21-0.66c0.04,0.26,1.58,1.32,0.41,0.28c-0.59-0.52-1.15-1.08-1.75-1.59
			c-2.13-1.8-4.25-3.1-6.94-3.95c-4.07-1.28-8.72-0.93-12.77,0.23c-3.79,1.09-7.31,2.91-10.62,5.01c-3.13,1.98-6.19,4.07-9.61,5.54
			c0.6-0.25,1.19-0.5,1.79-0.76c-1.62,0.66-3.26,1.16-4.99,1.41c0.66-0.09,1.33-0.18,1.99-0.27c-2.54,0.31-5.08-0.12-7.63,0.06
			c-3.31,0.23-6.55,1.09-9.27,3.05c-2.1,1.52-3.92,3.23-5.77,5.02c-0.35,0.33-0.7,0.67-1.06,0.99c-0.22,0.2-0.46,0.39-0.68,0.59
			c-0.75,0.67,0.54-0.47,0.67-0.51c-0.38,0.08-0.91,0.63-1.25,0.83c-0.61,0.36-1.26,0.67-1.91,0.95c0.6-0.25,1.19-0.5,1.79-0.76
			c-3.78,1.56-7.81,2.36-11.6,3.92c-4.12,1.69-8.1,3.62-11.83,6.06c-7.56,4.96-13.73,11.22-19.02,18.52
			c-4.63,6.4-8.34,13.39-12.27,20.22c-1.98,3.45-4.02,6.87-6.27,10.15c-0.5,0.73-1.01,1.46-1.53,2.18
			c-0.28,0.39-0.57,0.77-0.85,1.15c-0.18,0.24-0.77,1-0.04,0.05c0.81-1.06-0.05,0.06-0.17,0.21c-1.24,1.54-2.57,3-3.86,4.49
			c-1.8,2.09-3.63,4.29-4.8,6.81c-1.47,3.14-2.19,6.13-2.55,9.57c-0.54,5.1,0.46,10.33,1.38,15.33c0.32,1.76,1.96,3.61,3.45,4.48
			c1.61,0.94,3.98,1.34,5.78,0.76C213.67,338.72,215.53,334.97,214.77,330.83L214.77,330.83z"/>
	</g>
</g>
<g class="st1">
	<g>
		<path class="st0" d="M318.75,389.39c-2.75,1.64-5.52,3.27-8.48,4.52c0.6-0.25,1.19-0.5,1.79-0.76c-2.01,0.83-4.06,1.45-6.22,1.77
			c0.66-0.09,1.33-0.18,1.99-0.27c-1.51,0.19-3.01,0.19-4.52-0.01c0.66,0.09,1.33,0.18,1.99,0.27c-1.36-0.21-2.67-0.57-3.93-1.1
			c0.6,0.25,1.19,0.5,1.79,0.76c-0.61-0.27-1.21-0.58-1.78-0.93c-0.23-0.15-0.45-0.32-0.69-0.46c-0.64-0.41,1.55,1.39,0.5,0.34
			c-0.19-0.19-0.4-0.38-0.58-0.58c-0.58-0.62-0.45-1.05,0.34,0.5c-0.3-0.59-0.7-1.12-0.98-1.73c-0.71-1.54-2.87-3.08-4.48-3.45
			c-2.09-0.48-3.84-0.11-5.78,0.76c-0.11,0.05-0.22,0.1-0.34,0.15c0.6-0.25,1.19-0.5,1.79-0.76c-0.78,0.31-1.56,0.52-2.39,0.64
			c0.66-0.09,1.33-0.18,1.99-0.27c-0.81,0.08-1.59,0.08-2.4-0.02c0.66,0.09,1.33,0.18,1.99,0.27c-1.05-0.16-2.05-0.45-3.04-0.85
			c0.6,0.25,1.19,0.5,1.79,0.76c-1.09-0.48-2.04-1.1-3.05-1.73c-0.69-0.44,1.52,1.27,0.46,0.36c-0.2-0.17-0.39-0.33-0.59-0.5
			c-0.44-0.38-0.86-0.79-1.26-1.21c-0.45-0.47-0.89-0.95-1.3-1.45c-0.17-0.21-0.78-0.98-0.02,0c0.8,1.03,0.07,0.07-0.1-0.17
			c-0.69-0.99-1.26-2.05-1.87-3.09c-1.98-3.36-4.99-6.29-8.98-6.96c-1.8-0.31-3.45-0.36-5.25-0.19c-1.22,0.12-2.42,0.24-3.64,0.08
			c0.66,0.09,1.33,0.18,1.99,0.27c-0.76-0.13-1.48-0.34-2.19-0.63c0.6,0.25,1.19,0.5,1.79,0.76c-0.62-0.28-1.15-0.65-1.72-0.99
			c1.8,1.07,1.18,0.95,0.63,0.45c-0.25-0.23-0.49-0.46-0.72-0.71c-0.49-0.53-0.9-1.48,0.34,0.51c-0.15-0.25-0.34-0.48-0.49-0.72
			c-0.36-0.58-0.67-1.19-0.94-1.82c0.25,0.6,0.5,1.19,0.76,1.79c-0.36-0.91-0.62-1.83-0.77-2.79c0.09,0.66,0.18,1.33,0.27,1.99
			c-0.12-0.95-0.14-1.89-0.02-2.85c-0.09,0.66-0.18,1.33-0.27,1.99c0.12-0.76,0.31-1.48,0.6-2.19c-0.25,0.6-0.5,1.19-0.76,1.79
			c0.2-0.44,0.42-0.87,0.68-1.28c0.17-0.26,0.81-1.09,0.03-0.09c-0.84,1.08,0,0.01,0.14-0.16c1.09-1.36,2.25-2.69,3.15-4.19
			c2.64-4.42,2.44-9.84-1.06-13.74c-1.11-1.24-2.57-2.14-3.94-3.06c-0.21-0.14-0.52-0.44-0.74-0.52c0.3,0.1,1.49,1.22,0.56,0.39
			c-0.39-0.35-0.77-0.71-1.13-1.1c-0.2-0.21-0.38-0.44-0.58-0.65c-0.59-0.65,1.1,1.54,0.42,0.56c-0.33-0.48-0.66-0.96-0.96-1.46
			c-0.61-1.02-1.12-2.09-1.59-3.19c0.25,0.6,0.5,1.19,0.76,1.79c-1.23-3.02-2-6.18-2.61-9.37c-0.72-3.78-1.4-7.6-1.95-11.41
			c0.09,0.66,0.18,1.33,0.27,1.99c-0.21-1.6-0.32-3.19-0.16-4.8c-0.09,0.66-0.18,1.33-0.27,1.99c0.14-1.01,0.38-1.95,0.77-2.9
			c-0.25,0.6-0.5,1.19-0.76,1.79c0.2-0.43,0.45-0.82,0.68-1.24c0.62-1.11-1.23,1.31-0.33,0.42c0.29-0.29,0.56-0.59,0.86-0.86
			c1.21-1.1-1.4,0.92-0.28,0.18c1.43-0.95,2.91-1.72,4.48-2.4c-0.6,0.25-1.19,0.5-1.79,0.76c0.78-0.33,1.57-0.64,2.37-0.94
			c1.87-0.72,3.43-1.66,4.48-3.45c0.94-1.61,1.34-3.98,0.76-5.78c-1.15-3.56-5.3-6.74-9.23-5.24c-4.37,1.67-9.06,3.53-12.25,7.13
			c-1.94,2.18-3.53,4.8-4.1,7.7c-0.67,3.4-0.43,6.46,0.06,9.85c0.63,4.34,1.37,8.71,2.28,13c0.88,4.12,2.18,8.23,4.23,11.93
			c1.2,2.17,2.75,4.26,4.55,5.96c1.15,1.09,2.44,2.05,3.76,2.93c0.41,0.27,0.81,0.56,1.22,0.82c-1.83-1.16-1.02-0.87-0.7-0.47
			c-0.24-0.32-0.49-0.64-0.73-0.96c0.13,0.2,0.24,0.41,0.33,0.64c-0.25-0.6-0.5-1.19-0.76-1.79c0.08,0.21,0.14,0.43,0.18,0.66
			c-0.09-0.66-0.18-1.33-0.27-1.99c0.04,0.34,0.04,0.64,0,0.98c0.09-0.66,0.18-1.33,0.27-1.99c-0.08,0.45-0.22,0.87-0.39,1.29
			c0.25-0.6,0.5-1.19,0.76-1.79c-0.22,0.44-0.45,0.87-0.73,1.28c-0.14,0.21-0.29,0.43-0.45,0.63c0.23-0.3,0.46-0.59,0.69-0.89
			c-0.82,1.16-1.79,2.23-2.65,3.37c-1.16,1.55-2.04,3.38-2.49,5.27c-1.07,4.45-0.29,8.85,1.69,12.93c1.6,3.3,4.55,6.34,7.86,7.94
			c2.3,1.11,4.54,1.74,7.12,1.8c1.97,0.05,3.91-0.45,5.88-0.25c-0.66-0.09-1.33-0.18-1.99-0.27c0.53,0.09,1.01,0.21,1.51,0.41
			c-0.6-0.25-1.19-0.5-1.79-0.76c0.25,0.13,1.26,0.82,0.22,0.02c-1.19-0.91,0.04-0.03,0.06,0.18c-0.02-0.24-1.12-1.58-0.38-0.45
			c0.18,0.27,0.34,0.55,0.5,0.82c0.64,1.1,1.25,2.2,2,3.24c1.97,2.74,4.09,5.05,6.75,7.11c2.47,1.9,5.32,3.53,8.41,4.15
			c1.65,0.33,3.39,0.58,5.08,0.4c2.47-0.26,4.23-0.8,6.51-1.82c-3.42-0.9-6.84-1.79-10.26-2.69c3.12,6.83,11,10.34,18.16,10.52
			c7.68,0.2,14.72-3.65,21.12-7.47c3.37-2.01,4.9-6.83,2.69-10.26C326.82,388.69,322.35,387.23,318.75,389.39L318.75,389.39z"/>
	</g>
</g>
<g class="st1">
	<g>
		<path class="st0" d="M369.76,278.66c0.22-0.11,0.44-0.22,0.67-0.31c-0.6,0.25-1.19,0.5-1.79,0.76c0.56-0.21,1.12-0.35,1.71-0.44
			c-0.66,0.09-1.33,0.18-1.99,0.27c0.71-0.07,1.4-0.06,2.1,0.03c-0.66-0.09-1.33-0.18-1.99-0.27c0.85,0.14,1.65,0.38,2.45,0.69
			c-0.6-0.25-1.19-0.5-1.79-0.76c0.58,0.25,1.15,0.53,1.69,0.85c0.2,0.12,1.59,0.82,1.61,1.08c0-0.03-1.42-1.18-0.61-0.44
			c0.24,0.22,0.49,0.43,0.72,0.65c0.46,0.44,0.9,0.9,1.32,1.38c1.62,1.85,3.03,3.88,4.62,5.76c1.83,2.14,4.02,4.15,6.49,5.51
			c2.85,1.58,5.96,1.94,8.91,3.17c-0.6-0.25-1.19-0.5-1.79-0.76c0.3,0.14,0.6,0.29,0.89,0.46c1.13,0.67-0.56-0.31-0.6-0.54
			c0.01,0.04,0.98,1.02,1.05,1.04c-0.08-0.01-1.13-1.62-0.64-0.82c0.13,0.21,0.27,0.41,0.39,0.62c0.28,0.48,0.51,0.97,0.72,1.48
			c-0.25-0.6-0.5-1.19-0.76-1.79c1.86,4.63,2.07,9.86,4.98,14.07c2.04,2.94,4.63,4.97,7.57,6.96c0.55,0.37,1.09,0.74,1.63,1.12
			c0.99,0.69-1.2-0.99-0.53-0.42c0.22,0.19,0.45,0.37,0.67,0.57c0.26,0.24,0.5,0.49,0.75,0.74c0.69,0.69-0.47-0.55-0.5-0.71
			c0.05,0.22,0.48,0.71,0.59,0.92c0.18,0.33,0.34,0.67,0.48,1.01c-0.25-0.6-0.5-1.19-0.76-1.79c0.26,0.69,0.44,1.38,0.55,2.11
			c-0.09-0.66-0.18-1.33-0.27-1.99c0.17,1.37,0.11,2.71-0.07,4.08c0.09-0.66,0.18-1.33,0.27-1.99c-0.47,3.17-1.47,6.22-1.96,9.39
			c-0.34,2.2-0.62,4.36-0.4,6.58c0.23,2.37,0.68,4.7,1,7.06c-0.09-0.66-0.18-1.33-0.27-1.99c0.19,1.58,0.25,3.13,0.07,4.71
			c0.09-0.66,0.18-1.33,0.27-1.99c-0.22,1.67-0.67,3.27-1.31,4.82c0.25-0.6,0.5-1.19,0.76-1.79c-0.43,0.99-0.93,1.94-1.51,2.85
			c-0.16,0.25-0.35,0.49-0.51,0.74c-0.43,0.68,1.28-1.55,0.41-0.52c-0.35,0.41-0.7,0.82-1.08,1.2c-0.37,0.39-0.77,0.76-1.17,1.11
			c-0.15,0.13-0.45,0.29-0.55,0.46c0.17-0.27,1.55-1.14,0.51-0.43c-0.94,0.64-1.93,1.18-2.97,1.64c0.6-0.25,1.19-0.5,1.79-0.76
			c-3.23,1.33-6.49,2.03-9.14,4.49c-2.78,2.57-3.3,6.19-4.63,9.51c0.25-0.6,0.5-1.19,0.76-1.79c-0.5,1.18-1.08,2.31-1.78,3.38
			c-0.17,0.27-0.37,0.52-0.54,0.79c-0.45,0.69,1.27-1.51,0.36-0.45c-0.42,0.48-0.83,0.97-1.28,1.42c-0.45,0.46-0.93,0.88-1.4,1.3
			c-0.83,0.73,0.58-0.5,0.62-0.46c0,0-0.7,0.5-0.78,0.56c-1.24,0.84-2.56,1.52-3.93,2.11c0.6-0.25,1.19-0.5,1.79-0.76
			c-3.53,1.44-7.27,2.22-10.97,3.06c-4,0.91-8,1.83-12,2.74c-7.97,1.82-15.94,3.7-24.05,4.81c0.66-0.09,1.33-0.18,1.99-0.27
			c-6.29,0.84-12.63,1.2-18.97,0.66c-1.82-0.15-4.05,0.95-5.3,2.2c-1.3,1.3-2.28,3.44-2.2,5.3c0.19,4.35,3.3,7.15,7.5,7.5
			c13.04,1.1,26.12-1.47,38.79-4.32c6.24-1.4,12.47-2.85,18.7-4.27c5.88-1.34,12.05-2.72,17-6.37c3.14-2.31,5.76-4.98,7.84-8.31
			c1.02-1.63,1.79-3.42,2.48-5.21c0.52-1.35,0.82-2.77,1.37-4.11c-0.25,0.6-0.5,1.19-0.76,1.79c0.14-0.3,0.79-1.23,0-0.26
			c-1.02,1.25,0.15-0.13,0.16-0.07c0.01,0.19-1.55,1-0.63,0.56c0.33-0.16,0.65-0.33,0.99-0.47c-0.6,0.25-1.19,0.5-1.79,0.76
			c3.1-1.21,6.29-2.07,9.03-4.06c3.07-2.22,5.63-4.83,7.61-8.09c1.65-2.72,2.85-5.85,3.3-9c0.27-1.95,0.49-3.82,0.31-5.78
			c-0.23-2.37-0.68-4.71-1-7.06c0.09,0.66,0.18,1.33,0.27,1.99c-0.21-1.72-0.24-3.4-0.03-5.12c-0.09,0.66-0.18,1.33-0.27,1.99
			c0.45-3.17,1.45-6.23,1.96-9.4c0.74-4.59,0.65-8.97-1.58-13.19c-1.83-3.46-5.07-5.74-8.23-7.88c-0.54-0.36-1.35-0.75-1.77-1.24
			c0.32,0.24,0.63,0.49,0.95,0.73c-0.19-0.15-0.37-0.3-0.55-0.46c-0.27-0.23-0.53-0.48-0.77-0.73c-0.48-0.5-0.85-1.41,0.28,0.47
			c-0.13-0.22-0.3-0.42-0.44-0.64c-0.36-0.58-0.66-1.18-0.93-1.8c0.25,0.6,0.5,1.19,0.76,1.79c-1.75-4.2-2.14-8.74-4.23-12.84
			c-1.31-2.57-3.51-4.91-6.03-6.31c-2.75-1.53-5.79-1.84-8.64-3.03c0.6,0.25,1.19,0.5,1.79,0.76c-0.61-0.28-1.21-0.59-1.77-0.96
			c-0.25-0.16-0.49-0.37-0.75-0.52c1.74,1.04,0.91,0.71,0.39,0.24c-0.93-0.83-1.76-1.75-2.56-2.71c-1.74-2.08-3.26-4.36-5.15-6.31
			c-2.63-2.69-5.78-4.71-9.31-5.98c-4.06-1.46-8.39-0.91-12.19,0.98c-3.52,1.75-4.78,7.02-2.69,10.26
			C361.83,279.58,366,280.53,369.76,278.66L369.76,278.66z"/>
	</g>
</g>
<g class="st1">
	<g>
		<path class="st0" d="M293.76,336.05c-0.76,4.4-0.24,8.31,1.6,12.37c1.5,3.32,4.19,6.07,7.2,8.06c3.11,2.05,6.8,2.75,10.46,2.9
			c2.58,0.11,5.17-0.11,7.74,0.22c-0.66-0.09-1.33-0.18-1.99-0.27c0.9,0.14,1.77,0.35,2.62,0.7c-0.6-0.25-1.19-0.5-1.79-0.76
			c0.16,0.07,0.88,0.58,1.02,0.55c-0.12,0.03-1.78-1.37-0.62-0.43c0.35,0.38,0.28,0.28-0.19-0.3c-0.45-0.61-0.52-0.69-0.21-0.26
			c0.21,0.41,0.44,0.8,0.63,1.23c-0.25-0.6-0.5-1.19-0.76-1.79c0.82,2.15,1.22,4.34,2.29,6.41c1.45,2.81,4.18,5.09,7.24,5.94
			c2.71,0.75,5.44,0.51,8.14-0.13c1.82-0.43,3.59-1.07,5.44-1.37c-0.66,0.09-1.33,0.18-1.99,0.27c0.94-0.12,1.84-0.12,2.79,0
			c-0.66-0.09-1.33-0.18-1.99-0.27c2.9,0.47,5.59,1.53,8.53,1.87c2.93,0.34,6.17-0.3,8.7-1.83c3.26-1.97,5.1-5.23,5.6-8.93
			c0.28-2.11,0.03-4.21,0.26-6.32c-0.09,0.66-0.18,1.33-0.27,1.99c0.07-0.46,0.17-0.89,0.34-1.32c-0.25,0.6-0.5,1.19-0.76,1.79
			c0.34-0.7,0.77-0.83-0.6,0.64c0.77-0.83-1.83,1.14-0.49,0.47c-0.6,0.25-1.19,0.5-1.79,0.76c0.25-0.1,0.52-0.18,0.79-0.22
			c-0.66,0.09-1.33,0.18-1.99,0.27c1.81-0.24,3.69,0.06,5.51,0.07c2.34,0.02,4.67-0.21,6.97-0.63c3.95-0.73,8.06-2.85,10.7-5.93
			c1.63-1.9,2.93-3.97,3.59-6.42c0.75-2.76,0.6-5.52,0.04-8.29c-0.69-3.43-2.58-6.47-3.13-9.94c0.09,0.66,0.18,1.33,0.27,1.99
			c-0.14-1.06-0.17-2.1-0.03-3.16c-0.09,0.66-0.18,1.33-0.27,1.99c0.1-0.56,0.24-1.09,0.44-1.62c-0.25,0.6-0.5,1.19-0.76,1.79
			c0.15-0.34,0.56-0.82,0.64-1.16c0,0-1.24,1.6-0.5,0.75c0.16-0.18,0.79-0.65-0.17,0.1c-1.13,0.88,0.41-0.25,0.63-0.41
			c0.86-0.63,1.78-1.26,2.5-2.06c2.5-2.78,3.49-6.23,2.99-9.9c-0.86-6.41-5.75-10.78-11.56-12.94c-4.63-1.72-10.22-1.4-14.9-0.05
			c-4.78,1.38-9.08,3.96-13.09,6.85c-4.25,3.05-8.34,6.33-13.17,8.44c0.6-0.25,1.19-0.5,1.79-0.76c-1.89,0.79-3.83,1.39-5.86,1.7
			c0.66-0.09,1.33-0.18,1.99-0.27c-1.59,0.21-3.16,0.22-4.75,0.01c-1.76-0.23-4.11,1.01-5.3,2.2c-1.3,1.3-2.28,3.44-2.2,5.3
			c0.09,1.94,0.72,3.95,2.2,5.3c1.57,1.44,3.21,1.92,5.3,2.2c7.25,0.96,14.69-2.23,20.6-6.17c5.19-3.46,9.91-7.72,15.7-10.2
			c-0.6,0.25-1.19,0.5-1.79,0.76c1.81-0.74,3.67-1.26,5.6-1.55c-0.66,0.09-1.33,0.18-1.99,0.27c1.66-0.21,3.3-0.24,4.96-0.02
			c-0.66-0.09-1.33-0.18-1.99-0.27c1.24,0.19,2.43,0.52,3.6,1.01c-0.6-0.25-1.19-0.5-1.79-0.76c0.51,0.23,1.02,0.49,1.5,0.78
			c0.22,0.13,0.42,0.29,0.63,0.42c0.67,0.42-1.43-1.33-0.58-0.4c0.16,0.17,0.32,0.33,0.48,0.5c0.74,0.76-0.54-0.69-0.52-0.69
			c0.26,0.03,0.73,1.28,0.84,1.52c-0.25-0.6-0.5-1.19-0.76-1.79c0.21,0.53,0.36,1.05,0.46,1.61c-0.09-0.66-0.18-1.33-0.27-1.99
			c0.07,0.54,0.07,1.05,0,1.59c0.09-0.66,0.18-1.33,0.27-1.99c-0.06,0.32-0.14,0.6-0.26,0.91c0.25-0.6,0.5-1.19,0.76-1.79
			c-0.02,0.05-0.27,0.58-0.29,0.57c-0.07-0.04,1.35-1.49,0.53-0.71c-0.79,0.75,0.58-0.5,0.65-0.45c-0.03-0.02-0.57,0.4-0.62,0.44
			c-1.79,1.26-3.06,2.39-4.36,4.13c-1.73,2.33-2.46,5.52-2.42,8.39c0.03,2.46,0.53,4.98,1.39,7.28c0.87,2.35,1.91,4.63,2.29,7.13
			c-0.09-0.66-0.18-1.33-0.27-1.99c0.1,0.89,0.1,1.75-0.02,2.64c0.09-0.66,0.18-1.33,0.27-1.99c-0.12,0.62-0.28,1.21-0.52,1.8
			c0.25-0.6,0.5-1.19,0.76-1.79c-0.14,0.31-0.55,1.43-0.87,1.54c0.17-0.06,1.29-1.53,0.38-0.55c-0.21,0.22-0.43,0.42-0.64,0.63
			c-0.72,0.7,0.52-0.48,0.67-0.49c-0.14,0-0.61,0.41-0.76,0.51c-0.57,0.35-1.17,0.65-1.79,0.92c0.6-0.25,1.19-0.5,1.79-0.76
			c-1.33,0.53-2.7,0.84-4.12,1.04c0.66-0.09,1.33-0.18,1.99-0.27c-5.62,0.65-11.85-1.36-16.39,3.15c-2.26,2.24-3.07,5.1-3.27,8.18
			c-0.1,1.58,0.1,3.16-0.07,4.74c0.09-0.66,0.18-1.33,0.27-1.99c-0.07,0.51-0.19,0.99-0.36,1.47c0.25-0.6,0.5-1.19,0.76-1.79
			c-0.08,0.18-0.18,0.36-0.26,0.54c-0.45,1.02,1.07-1.18,0.5-0.65c-0.42,0.39,1.36-0.71,0.79-0.6c-0.19,0.04-0.52,0.28-0.69,0.36
			c0.6-0.25,1.19-0.5,1.79-0.76c-0.61,0.24-1.23,0.39-1.88,0.48c0.66-0.09,1.33-0.18,1.99-0.27c-0.79,0.07-1.55,0.06-2.34-0.04
			c0.66,0.09,1.33,0.18,1.99,0.27c-3.57-0.55-6.89-2.22-10.6-1.94c-3.32,0.24-6.3,1.49-9.55,1.99c0.66-0.09,1.33-0.18,1.99-0.27
			c-0.67,0.08-1.31,0.11-1.98,0.03c0.66,0.09,1.33,0.18,1.99,0.27c-0.43-0.07-0.82-0.18-1.22-0.34c0.6,0.25,1.19,0.5,1.79,0.76
			c-0.05-0.02-0.59-0.28-0.57-0.31c-0.02,0.06,1.66,1.31,0.61,0.4c-0.5-0.44,0.83,1.33,0.59,0.71c-0.1-0.25-0.27-0.5-0.38-0.75
			c0.25,0.6,0.5,1.19,0.76,1.79c-0.99-2.42-1.32-5.09-2.78-7.33c-1.92-2.96-4.64-4.96-8-6.01c-4.39-1.38-9.04-0.49-13.52-1.05
			c0.66,0.09,1.33,0.18,1.99,0.27c-1-0.15-1.96-0.38-2.89-0.76c0.6,0.25,1.19,0.5,1.79,0.76c-0.67-0.29-1.31-0.63-1.92-1.04
			c-1.32-0.9,1.25,1.16,0.32,0.24c-0.24-0.24-0.5-0.46-0.73-0.7c-0.24-0.25-0.44-0.51-0.67-0.76c1.54,1.66,0.72,0.96,0.37,0.42
			c-0.43-0.66-0.79-1.37-1.1-2.1c0.25,0.6,0.5,1.19,0.76,1.79c-0.37-0.95-0.64-1.91-0.79-2.92c0.09,0.66,0.18,1.33,0.27,1.99
			c-0.11-0.9-0.12-1.78-0.02-2.69c-0.09,0.66-0.18,1.33-0.27,1.99c0.03-0.22,0.06-0.45,0.1-0.67c0.35-2.04,0.32-3.93-0.76-5.78
			c-0.91-1.56-2.69-3.04-4.48-3.45C299.35,329.98,294.47,331.91,293.76,336.05L293.76,336.05z"/>
	</g>
</g>
<g class="st1">
	<g>
		<path class="st0" d="M306.95,303.79c-1.19,0.22-2.38,0.43-3.57,0.6c0.66-0.09,1.33-0.18,1.99-0.27c-2.09,0.28-4.16,0.41-6.26,0.16
			c0.66,0.09,1.33,0.18,1.99,0.27c-1.15-0.17-2.25-0.44-3.33-0.87c0.6,0.25,1.19,0.5,1.79,0.76c-0.48-0.21-0.93-0.45-1.37-0.73
			c-1.13-0.72,0.38,0.45,0.53,0.45c-0.17-0.01-0.54-0.48-0.65-0.59c-0.17-0.16-0.32-0.34-0.48-0.51c-0.61-0.62,1.06,1.56,0.43,0.56
			c-0.3-0.48-0.58-0.97-0.82-1.49c0.25,0.6,0.5,1.19,0.76,1.79c-0.25-0.62-0.43-1.24-0.53-1.91c0.09,0.66,0.18,1.33,0.27,1.99
			c-0.06-0.55-0.06-1.07,0-1.62c-0.09,0.66-0.18,1.33-0.27,1.99c0.09-0.56,0.24-1.07,0.45-1.59c-0.25,0.6-0.5,1.19-0.76,1.79
			c0.54-1.13,1.32-2.12,1.87-3.24c1.25-2.53,1.87-5.38,1.1-8.16c-0.58-2.09-1.74-3.8-3.19-5.38c-0.39-0.42-0.81-0.82-1.2-1.24
			c-0.95-1.02,0.35,0.6,0.41,0.6c-0.14,0-0.46-0.82-0.51-0.91c0.25,0.6,0.5,1.19,0.76,1.79c-0.21-0.54-0.35-1.07-0.43-1.64
			c0.09,0.66,0.18,1.33,0.27,1.99c-0.05-0.58-0.03-1.14,0.04-1.72c-0.09,0.66-0.18,1.33-0.27,1.99c0.12-0.71,0.32-1.37,0.59-2.04
			c-0.25,0.6-0.5,1.19-0.76,1.79c0.13-0.29,0.56-1.47,0.87-1.56c-0.16,0.05-1.31,1.53-0.39,0.55c0.22-0.23,0.45-0.43,0.68-0.65
			c0.82-0.76-0.56,0.38-0.56,0.43c0.01-0.1,0.72-0.47,0.85-0.54c0.64-0.38,1.31-0.7,2-1c-0.6,0.25-1.19,0.5-1.79,0.76
			c4.52-1.85,9.61-2.93,14.44-3.59c-0.66,0.09-1.33,0.18-1.99,0.27c2.66-0.34,5.33-0.43,8-0.12c-0.66-0.09-1.33-0.18-1.99-0.27
			c1.87,0.25,3.65,0.69,5.39,1.42c-0.6-0.25-1.19-0.5-1.79-0.76c0.89,0.39,1.74,0.83,2.56,1.35c0.41,0.26,0.78,0.56,1.19,0.82
			c-1.99-1.24-0.64-0.49-0.14-0.03c0.35,0.32,0.68,0.66,1,1.01c1.27,1.4-0.75-1.18-0.07-0.15c0.52,0.78,0.99,1.56,1.37,2.41
			c-0.25-0.6-0.5-1.19-0.76-1.79c0.41,0.97,0.69,1.95,0.86,2.98c-0.09-0.66-0.18-1.33-0.27-1.99c0.17,1.36,0.05,2.69,0.03,4.05
			c-0.03,2.47,0.47,5.07,1.75,7.21c0.9,1.49,2.07,2.72,3.38,3.83c0.46,0.39,0.93,0.78,1.36,1.21c1.01,1.02-0.33-0.57-0.36-0.56
			c0.11-0.01,0.45,0.77,0.48,0.84c-0.25-0.6-0.5-1.19-0.76-1.79c0.21,0.49,0.35,0.98,0.43,1.5c-0.09-0.66-0.18-1.33-0.27-1.99
			c0.06,0.53,0.06,1.04,0.01,1.57c0.09-0.66,0.18-1.33,0.27-1.99c-0.1,0.77-0.3,1.47-0.6,2.19c0.25-0.6,0.5-1.19,0.76-1.79
			c-0.21,0.46-0.44,0.9-0.71,1.33c-0.16,0.25-0.69,0.95,0.09-0.07c0.84-1.1,0.11-0.19-0.08,0.01c-0.16,0.16-0.33,0.31-0.49,0.47
			c-0.76,0.73,0.72-0.6,0.73-0.55c0.03,0.18-1.45,0.82-1.6,0.89c0.6-0.25,1.19-0.5,1.79-0.76c-1.28,0.54-2.6,0.87-3.98,1.06
			c0.66-0.09,1.33-0.18,1.99-0.27c-2.53,0.3-5.06,0.15-7.59-0.04c-3.92-0.29-7.67,3.66-7.5,7.5c0.19,4.32,3.3,7.18,7.5,7.5
			c3.88,0.29,7.81,0.39,11.62-0.61c4.37-1.15,8.02-3.76,10.46-7.55c2.2-3.4,3.12-8.2,1.74-12.08c-0.83-2.33-2.15-4.37-4.01-6.02
			c-0.5-0.44-1.02-0.85-1.52-1.3c-0.26-0.24-0.5-0.5-0.76-0.76c-0.38-0.44-0.17-0.16,0.63,0.82c-0.13-0.2-0.24-0.4-0.34-0.62
			c0.25,0.6,0.5,1.19,0.76,1.79c-0.22-0.55-0.35-1.07-0.43-1.66c0.09,0.66,0.18,1.33,0.27,1.99c-0.11-1.32,0.06-2.63,0.03-3.95
			c-0.03-1.64-0.26-3.35-0.71-4.92c-0.91-3.14-2.57-5.83-4.7-8.28c-3.63-4.19-9.16-7.03-14.61-7.87
			c-6.83-1.06-13.53-0.06-20.18,1.62c-6.33,1.59-12.64,3.72-16.46,9.38c-2.3,3.41-3.06,7.77-2.15,11.77
			c0.5,2.17,1.73,4.07,3.17,5.72c0.38,0.43,0.79,0.83,1.19,1.25c0.2,0.2,0.38,0.42,0.58,0.62c0.36,0.38-1.09-1.75-0.35-0.3
			c-0.25-0.6-0.5-1.19-0.76-1.79c0.13,0.32,0.21,0.6,0.27,0.93c-0.09-0.66-0.18-1.33-0.27-1.99c0.03,0.24,0.03,0.47,0.01,0.71
			c0.09-0.66,0.18-1.33,0.27-1.99c-0.06,0.36-0.14,0.67-0.26,1.02c0.25-0.6,0.5-1.19,0.76-1.79c-0.55,1.26-1.43,2.33-2.02,3.57
			c-1,2.11-1.65,4.32-1.51,6.68c0.23,4.05,2.07,7.97,5.05,10.73c3.35,3.1,7.34,4.48,11.82,4.92c3.79,0.37,7.67-0.4,11.39-1.08
			c1.76-0.32,3.61-1.96,4.48-3.45c0.94-1.61,1.34-3.98,0.76-5.78C314.83,304.89,311.09,303.03,306.95,303.79L306.95,303.79z"/>
	</g>
</g>
<g>
	<g>
		<path class="st0" d="M179.69,319.94c3.32,21.88,7.4,43.64,12.12,65.27c4.71,21.62,10.04,43.1,15.84,64.46
			c5.81,21.38,12.09,42.64,18.69,63.79c6.61,21.18,13.54,42.25,20.66,63.27c7.11,21.01,14.41,41.96,21.75,62.89
			c0.9,2.56,1.8,5.13,2.7,7.69c1.06,3.02,5.89,1.72,4.82-1.33c-7.35-20.93-14.66-41.86-21.82-62.85
			c-7.16-21-14.15-42.06-20.84-63.21c-6.68-21.13-13.06-42.36-18.98-63.72c-5.92-21.32-11.38-42.78-16.24-64.37
			c-4.86-21.59-9.12-43.31-12.62-65.16c-0.43-2.68-0.85-5.37-1.26-8.05c-0.2-1.33-1.88-2.08-3.08-1.75
			C180.01,317.26,179.49,318.59,179.69,319.94L179.69,319.94z"/>
	</g>
</g>
<g>
	<g>
		<path class="st0" d="M273.94,654.36c4,4,5.74,9.58,8.01,14.63c2.36,5.24,5.63,10.25,11.04,12.72
			c12.52,5.72,25.47-1.77,33.68-11.16c9.22-10.53,16.44-23.03,22.8-35.44c6.59-12.86,12.2-26.19,17.68-39.55
			c12.02-29.29,23.96-58.62,35.87-87.96c11.57-28.51,23.39-56.96,33.79-85.93c10.16-28.32,18.82-57.3,23.55-87.06
			c0.59-3.73,1.12-7.48,1.6-11.23c0.17-1.35-1.27-2.49-2.5-2.5c-1.49-0.02-2.33,1.17-2.5,2.5c-3.7,29.1-11.44,57.55-20.88,85.28
			c-9.62,28.25-20.98,55.88-32.17,83.54c-11.65,28.79-23.39,57.55-35.14,86.3c-10.69,26.16-20.89,52.94-36.7,76.54
			c-6.6,9.85-15.26,22.6-28.3,23.55c-5.65,0.41-11.03-1.54-14.33-6.29c-3.14-4.53-4.64-9.93-7.17-14.79
			c-1.27-2.45-2.84-4.74-4.8-6.69C275.19,648.54,271.66,652.08,273.94,654.36L273.94,654.36z"/>
	</g>
</g>
<g>
	<g>
		<path class="st0" d="M245.83,518.91c22.06-5.29,43.46-13.32,63.61-23.74c20.15-10.42,39.04-23.28,56.15-38.17
			c9.6-8.35,18.62-17.37,26.98-26.96c0.89-1.02,1-2.53,0-3.54c-0.91-0.91-2.64-1.02-3.54,0c-14.71,16.89-31.47,31.97-49.82,44.81
			c-18.22,12.75-37.97,23.41-58.7,31.49c-11.73,4.57-23.77,8.34-36.01,11.28C241.38,514.84,242.7,519.66,245.83,518.91
			L245.83,518.91z"/>
	</g>
</g>
<g>
	<g>
		<path class="st0" d="M264.47,427.99c5.18,10.17,10.42,20.38,16.99,29.76c6.71,9.58,14.73,17.85,24.53,24.28
			c5.79,3.8,11.94,7.01,18.07,10.22c2.85,1.49,5.38-2.83,2.52-4.32c-10.45-5.46-20.96-11.03-29.51-19.3
			c-7.93-7.68-14.07-16.93-19.48-26.5c-3.09-5.47-5.96-11.06-8.81-16.66C267.33,422.6,263.01,425.13,264.47,427.99L264.47,427.99z"
			/>
	</g>
</g>
<g>
	<g>
		<path class="st0" d="M406.71,524.62c-3.56,1.19-5.91,5.01-4.76,8.72c1.03,3.36,4.21,6.07,7.21,7.68
			c5.97,3.21,14.59,3.58,19.92-1.15c3.07-2.72,3.95-8.04,0.59-10.93c-1.02-0.88-2.53-1-3.54,0c-0.9,0.9-1.03,2.65,0,3.54
			c2.02,1.74-0.52,4.07-2.26,4.87c-2.4,1.11-5.34,1.35-7.92,0.84c-2.75-0.54-5.35-1.75-7.37-3.71c-0.79-0.77-1.91-1.91-1.94-3.01
			c-0.02-0.84,0.55-1.74,1.39-2.02C411.07,528.42,409.77,523.59,406.71,524.62L406.71,524.62z"/>
	</g>
</g>
<g>
	<g>
		<path class="st0" d="M425.68,521.6c0.98,0.05,1.97,0.11,2.95,0.22c0.15,0.02,0.3,0.03,0.45,0.05c-0.29-0.04-0.28-0.04,0.01,0
			c0.22,0.04,0.45,0.07,0.67,0.11c0.48,0.09,0.96,0.2,1.43,0.33c0.46,0.13,0.92,0.28,1.36,0.46c-0.51-0.2,0.14,0.08,0.2,0.11
			c0.23,0.11,0.45,0.24,0.66,0.37c0.22,0.13,0.43,0.27,0.63,0.42c-0.35-0.26,0.06,0.06,0.17,0.16c0.05,0.04,0.41,0.48,0.47,0.47
			c-0.14-0.12-0.23-0.28-0.26-0.46c-0.07-0.55,0.08-1.06,0.45-1.55c0.37-0.21,0.74-0.43,1.1-0.64c0.25-0.07,0.48-0.06,0.7,0.03
			c0.12,0.05,0.11,0.04-0.01-0.02c-0.14-0.1-0.32-0.17-0.48-0.25c-0.32-0.17-0.62-0.36-0.92-0.56c-0.18-0.12-0.36-0.24-0.53-0.37
			c-0.18-0.13-0.19-0.16-0.01,0c-0.27-0.24-0.55-0.46-0.81-0.71c-0.52-0.49-1.01-1.03-1.46-1.6c0.33,0.42-0.1-0.15-0.13-0.19
			c-0.08-0.12-0.16-0.24-0.24-0.36c-0.22-0.33-0.42-0.67-0.62-1.02c-0.17-0.32-0.34-0.64-0.49-0.97c-0.04-0.1-0.23-0.57-0.05-0.1
			c-0.06-0.17-0.13-0.34-0.19-0.51c-0.25-0.68-0.44-1.37-0.59-2.08c-0.04-0.18-0.07-0.35-0.1-0.53c-0.09-0.48,0.01,0.22-0.01-0.08
			c-0.03-0.36-0.07-0.72-0.08-1.08c-0.02-0.76,0.02-1.51,0.12-2.27c0.17-1.3-1.27-2.55-2.5-2.5c-1.5,0.07-2.32,1.1-2.5,2.5
			c-0.67,5.12,1.42,10.5,5.07,14.09c1.84,1.82,5.95,5.18,8.4,2.66c1.52-1.56,0.82-3.83-0.55-5.2c-0.94-0.94-2.08-1.71-3.31-2.24
			c-2.85-1.24-5.93-1.53-9.01-1.68c-1.31-0.07-2.56,1.2-2.5,2.5C423.24,520.51,424.28,521.53,425.68,521.6L425.68,521.6z"/>
	</g>
</g>
<g>
	<g>
		<path class="st0" d="M437.24,506.1c2.35-0.49,4.73-1.4,5.83-3.71c1.14-2.39,0.19-4.85-1.79-6.45c-3.29-2.67-8.01-3.07-11.74-1.05
			c-2.06,1.12-3.72,3.03-3.9,5.43c-0.19,2.43,1.24,4.62,2.78,6.36c1.43,1.62,3.19,3.02,5.07,4.08c2.04,1.15,4.45,2.18,6.84,2.12
			c2.59-0.07,5.16-1.29,6.88-3.23c1.85-2.1,2.72-4.64,3.02-7.38c0.15-1.34-1.26-2.5-2.5-2.5c-1.48,0-2.35,1.15-2.5,2.5
			c-0.26,2.3-1.66,4.76-3.91,5.43c-2.35,0.7-5.38-1.04-7.3-2.57c-0.97-0.77-1.96-1.72-2.66-2.73c-0.37-0.53-0.7-1.08-0.77-1.7
			c0.02,0.23,0.1-0.39,0.03-0.17c-0.04,0.14,0.34-0.55,0.2-0.38c1.31-1.57,3.68-1.84,5.5-1.31c0.62,0.18,0.93,0.32,1.59,0.78
			c0.23,0.16,0.08,0.06,0.03,0.02c0.15,0.12,0.28,0.27,0.42,0.39c-0.02-0.02,0.27,0.33,0.18,0.2c-0.02-0.03,0.05-0.15,0.03-0.16
			c0.04,0.04-0.06,0.39,0,0.2c0.09-0.3,0-0.02-0.1,0.08c0.04-0.04,0.15-0.17-0.05,0.04c-0.22,0.23,0.27-0.08-0.31,0.23
			c-0.69,0.36-1.48,0.5-2.23,0.65c-1.32,0.28-2.09,1.83-1.75,3.08C434.54,505.73,435.92,506.38,437.24,506.1L437.24,506.1z"/>
	</g>
</g>
<g>
	<g>
		<path class="st0" d="M436.98,490.23c10.62,3.42,20.87,7.85,30.65,13.22c2.82,1.55,5.35-2.76,2.52-4.32
			c-10.14-5.58-20.82-10.18-31.84-13.73C435.24,484.42,433.93,489.25,436.98,490.23L436.98,490.23z"/>
	</g>
</g>
<g>
	<g>
		<path class="st0" d="M438.42,480.58c-0.46-0.66-0.91-1.34-1.25-2.07c-0.13-0.28-0.19-0.45-0.3-0.8c-0.06-0.19-0.11-0.38-0.15-0.57
			c-0.06-0.32-0.07-0.38-0.04-0.2c-0.02-0.19-0.02-0.38-0.02-0.57c0.02-0.32,0.02-0.38,0.01-0.19c0.07-0.42,0.1-0.47,0.23-0.71
			c0.09-0.15,0.18-0.3,0.28-0.44c-0.11,0.17-0.08,0.14,0.12-0.09c0,0,0.61-0.48,0.31-0.28c0.97-0.67,2.08-0.86,3.37-0.63
			c1.45,0.26,2.78,0.91,4.01,1.69c2.05,1.29,3.96,3.31,4.85,5.58c0.45,1.15,0.82,2.7,0.31,3.99c0.11-0.29-0.28,0.48-0.35,0.57
			c0.17-0.22-0.41,0.39-0.5,0.46c0.38-0.27-0.73,0.28-0.24,0.11c-0.16,0.05-0.33,0.1-0.5,0.13c0.24-0.04,0.2-0.05-0.11-0.04
			c-1.35-0.01-2.5,1.16-2.5,2.5c0,1.36,1.14,2.49,2.5,2.5c3.94,0.03,6.69-3.42,6.93-7.13c0.23-3.53-1.58-7.01-3.84-9.6
			c-2.12-2.44-5.05-4.33-8.13-5.29c-3.37-1.05-7.48-0.6-9.91,2.2c-3,3.44-1.79,8.02,0.6,11.42c0.77,1.1,2.19,1.62,3.42,0.9
			C438.61,483.36,439.2,481.69,438.42,480.58L438.42,480.58z"/>
	</g>
</g>
<g>
	<g>
		<path class="st0" d="M452.56,471.92c2.76-0.66,5.7-1.52,7.64-3.74c2.01-2.29,2.68-5.51,1.1-8.22c-1.3-2.25-3.72-4.35-6-5.56
			c-2.33-1.24-5.08-1.72-7.6-0.77c-2.73,1.03-4.65,3.36-4.74,6.34c-0.09,2.84,1.38,5.69,2.84,8.05c2.96,4.8,7.54,8.5,13.28,9.06
			c6.29,0.62,12.2-3.85,12.76-10.22c0.12-1.35-1.23-2.5-2.5-2.5c-1.45,0-2.38,1.15-2.5,2.5c-0.25,2.86-3.11,5.01-5.84,5.25
			c-3.75,0.34-7.08-1.77-9.42-4.54c-1.15-1.36-2.05-2.95-2.81-4.56c-0.54-1.14-1.33-3-0.41-4.06c0.65-0.75,2.02-0.96,2.93-0.78
			c1.75,0.35,3.19,1.58,4.42,2.81c1.11,1.11,2.07,2.17,0.98,3.63c-1.22,1.63-3.59,2.03-5.45,2.48
			C448.1,467.85,449.43,472.67,452.56,471.92L452.56,471.92z"/>
	</g>
</g>
</svg>
